<?xml version="1.0" encoding="UTF-8"?>
<svg width="160px" height="50px" viewBox="0 0 160 50" version="1.1" xmlns="http://www.w3.org/2000/svg" xmlns:xlink="http://www.w3.org/1999/xlink">
    <!-- Generator: Sketch 47.1 (45422) - http://www.bohemiancoding.com/sketch -->
    <title>logo</title>
    <desc>Created with Sketch.</desc>
    <defs></defs>
    <g id="Home" stroke="none" stroke-width="1" fill="none" fill-rule="evenodd">
        <g id="Umbrella---Home" transform="translate(-1187.000000, -2374.000000)">
            <g id="logo" transform="translate(1187.000000, 2374.000000)">
                <rect id="Rectangle-4" fill="#003E73" x="0" y="0" width="160" height="50"></rect>
                <g id="logo-pharma-investi" transform="translate(9.000000, 7.000000)" fill-rule="nonzero" fill="#FFFFFF">
                    <path d="M65.8112638,10.5748234 L65.8112638,21.9576108 L76.1887362,21.9576108 L76.1887362,10.6461143 C74.5940329,11.1451509 73.0469326,11.5728966 71.261817,11.5728966 C69.4290982,11.5728966 67.4773718,11.1213873 65.8112638,10.5748234 Z M71,0 C67.8343949,0 65.2638284,2.18625562 65.2638284,4.8953115 C65.2638284,7.60436737 67.8343949,9.76685934 71,9.76685934 C74.1656051,9.76685934 76.7123701,7.58060373 76.7123701,4.87154785 C76.7123701,2.16249197 74.1656051,0 71,0 Z M26.7529333,28.1123956 L23.0398927,36.7385999 L26.7053302,36.7385999 L27.0861549,35.7405267 L30.6801877,35.7405267 L31.0372109,36.7385999 L34.7026483,36.7385999 L30.9658062,28.1123956 L26.7529333,28.1123956 L26.7529333,28.1123956 Z M27.8240027,33.6493256 L28.8712705,30.7263969 L28.8950721,30.7263969 L29.9185384,33.6493256 L27.8240027,33.6493256 Z M100.01408,33.6493256 L100.01408,33.6493256 L98.0623533,28.1123956 L94.2779081,28.1123956 L98.181361,36.7385999 L101.799195,36.7385999 L105.702648,28.1123956 L101.918203,28.1123956 L100.01408,33.6493256 Z M19.0174321,31.1303789 L15.1377808,31.1303789 L15.1377808,28.1123956 L11.6865572,28.1123956 L11.6865572,36.7385999 L15.1377808,36.7385999 L15.1377808,33.2928709 L19.0174321,33.2928709 L19.0174321,36.7385999 L22.4686557,36.7385999 L22.4686557,28.1123956 L19.0174321,28.1123956 L19.0174321,31.1303789 Z M138.548776,28.1123956 L138.548776,36.7385999 L142,36.7385999 L142,28.1123956 L138.548776,28.1123956 L138.548776,28.1123956 Z M124.577271,31.4393064 L120.459604,30.8452152 C120.126383,30.7976879 120.007375,30.6313423 120.007375,30.3937058 C120.007375,30.0372511 120.364398,29.775851 121.387865,29.775851 C121.768689,29.775851 122.173315,29.8233783 122.458934,29.9421965 C122.768354,30.0847784 122.982568,30.2986513 122.982568,30.6313423 L126.981227,30.6313423 C126.862219,28.8015414 125.267516,27.8034682 121.364063,27.8034682 C118.53168,27.8034682 116.318136,28.3975594 116.318136,30.6313423 C116.318136,31.8432884 117.008381,32.8175979 118.69829,33.0552344 L122.649346,33.6493256 C123.101576,33.7206166 123.268186,33.9820167 123.268186,34.2196532 C123.268186,34.6236352 122.982568,34.908799 121.887697,34.908799 C121.364063,34.908799 120.983238,34.837508 120.721421,34.7186898 C120.459604,34.5998715 120.364398,34.4097624 120.340597,34.1008349 L116.199128,34.1008349 C116.199128,36.6435453 119.102917,37 121.768689,37 C125.648341,37 127.409655,36.0019268 127.409655,33.9107258 C127.385853,32.4849069 126.290982,31.7007065 124.577271,31.4393064 Z M7.11666108,28.1123956 L0,28.1123956 L0,36.7385999 L3.4512236,36.7385999 L3.4512236,34.0533076 L7.14046262,34.0533076 C9.59202145,34.0533076 10.4726785,32.7700706 10.4726785,31.1066153 C10.4964801,29.2055234 9.56821991,28.1123956 7.11666108,28.1123956 Z M5.68856856,31.9621066 L3.47502514,31.9621066 L3.47502514,30.1560694 L5.68856856,30.1560694 C6.54542407,30.1560694 6.87864566,30.4174695 6.87864566,31.059088 C6.87864566,31.7007065 6.54542407,31.9621066 5.68856856,31.9621066 Z M127.742876,30.2748876 L130.932283,30.2748876 L130.932283,36.7385999 L134.383507,36.7385999 L134.383507,30.2748876 L137.596715,30.2748876 L137.596715,28.088632 L127.742876,28.088632 L127.742876,30.2748876 Z M77.7358364,36.7385999 L81.18706,36.7385999 L81.18706,28.1123956 L77.7358364,28.1123956 L77.7358364,36.7385999 Z M45.4371438,33.8394348 C45.3895407,33.0789981 44.9849145,32.6512524 44.4612806,32.5086705 L44.4612806,32.4849069 C45.4609454,32.1997431 45.8179685,31.3204881 45.8179685,30.5125241 C45.8179685,29.5619782 45.270533,28.7302505 44.6278914,28.4213231 C44.1518605,28.1836866 43.556822,28.1123956 42.5571572,28.1123956 L35.2976869,28.1123956 L35.2976869,36.7385999 L38.772712,36.7385999 L38.772712,34.0770713 L41.2004693,34.0770713 C41.843111,34.0770713 42.0573248,34.4572897 42.1049279,35.1226718 C42.1763326,36.120745 42.1763326,36.5009634 42.2953403,36.7385999 L46.0797855,36.7385999 C45.84177,36.4771997 45.6751592,36.120745 45.6275562,35.7405267 L45.4371438,33.8394348 Z M41.1766678,31.9145793 L38.7489105,31.9145793 L38.7489105,30.2748876 L41.1290647,30.2748876 C41.7003017,30.2748876 42.1287295,30.4174695 42.1287295,31.0828516 C42.1287295,31.6531792 41.843111,31.9145793 41.1766678,31.9145793 Z M64.0737513,28.1123956 L60.3607107,36.7385999 L64.0261482,36.7385999 L64.3831713,35.7405267 L67.9772042,35.7405267 L68.3580288,36.7385999 L72.0234663,36.7385999 L68.3104257,28.1123956 L64.0737513,28.1123956 L64.0737513,28.1123956 Z M65.1448207,33.6493256 L66.168287,30.7263969 L66.1920885,30.7263969 L67.2155548,33.6493256 L65.1448207,33.6493256 Z M90.5172645,32.8888889 L90.493463,32.8888889 L86.9946363,28.088632 L83.0435803,28.088632 L83.0435803,36.7148362 L86.3519946,36.7148362 L86.3519946,31.8908157 L86.3757962,31.8908157 L90.0412337,36.7148362 L93.8494804,36.7148362 L93.8494804,28.088632 L90.541066,28.088632 L90.541066,32.8888889 L90.5172645,32.8888889 Z M106.178679,36.7385999 L115.485082,36.7385999 L115.485082,34.6236352 L109.653704,34.6236352 L109.653704,33.4592164 L115.080456,33.4592164 L115.080456,31.3442518 L109.653704,31.3442518 L109.653704,30.179833 L115.485082,30.179833 L115.485082,28.088632 L106.178679,28.088632 L106.178679,36.7385999 Z M53.482065,33.1265254 L53.482065,33.1265254 L52.030171,28.1123956 L47.1746564,28.1123956 L47.1746564,36.7385999 L50.3164599,36.7385999 L50.3164599,30.5600514 L50.3402615,30.5600514 L52.1729802,36.7385999 L54.7911498,36.7385999 L56.6238686,30.5600514 L56.6476701,30.5600514 L56.6476701,36.7385999 L59.7656721,36.7385999 L59.7656721,28.1123956 L54.9101576,28.1123956 L53.482065,33.1265254 Z" id="Shape"></path>
                </g>
            </g>
        </g>
    </g>
</svg>