<?xml version="1.0" encoding="utf-8"?>
<!DOCTYPE svg PUBLIC "-//W3C//DTD SVG 20010904//EN" "http://www.w3.org/TR/2001/REC-SVG-20010904/DTD/svg10.dtd">
<svg xmlns="http://www.w3.org/2000/svg" xml:space="preserve" xmlns:xlink="http://www.w3.org/1999/xlink" width="305" height="124.539" viewBox="0 0 305 124.539">
<desc></desc>
<rect x="0" y="0" width="305" height="124.539" style="fill:#ffffff;" />
<line fill="none" style="stroke:#000000; stroke-width:3;" x1="21.5" y1="0" x2="21.5" y2="98"/>
<line fill="none" style="stroke:#000000; stroke-width:3;" x1="27.5" y1="0" x2="27.5" y2="98"/>
<line fill="none" style="stroke:#000000; stroke-width:3;" x1="36.5" y1="0" x2="36.5" y2="90"/>
<line fill="none" style="stroke:#000000; stroke-width:6;" x1="47" y1="0" x2="47" y2="90"/>
<line fill="none" style="stroke:#000000; stroke-width:3;" x1="57.5" y1="0" x2="57.5" y2="90"/>
<line fill="none" style="stroke:#000000; stroke-width:9;" x1="66.5" y1="0" x2="66.5" y2="90"/>
<line fill="none" style="stroke:#000000; stroke-width:6;" x1="77" y1="0" x2="77" y2="90"/>
<line fill="none" style="stroke:#000000; stroke-width:3;" x1="90.5" y1="0" x2="90.5" y2="90"/>
<line fill="none" style="stroke:#000000; stroke-width:12;" x1="101" y1="0" x2="101" y2="90"/>
<line fill="none" style="stroke:#000000; stroke-width:3;" x1="111.5" y1="0" x2="111.5" y2="90"/>
<line fill="none" style="stroke:#000000; stroke-width:3;" x1="117.5" y1="0" x2="117.5" y2="90"/>
<line fill="none" style="stroke:#000000; stroke-width:9;" x1="129.5" y1="0" x2="129.5" y2="90"/>
<line fill="none" style="stroke:#000000; stroke-width:3;" x1="138.5" y1="0" x2="138.5" y2="90"/>
<line fill="none" style="stroke:#000000; stroke-width:9;" x1="150.5" y1="0" x2="150.5" y2="90"/>
<line fill="none" style="stroke:#000000; stroke-width:3;" x1="159.5" y1="0" x2="159.5" y2="98"/>
<line fill="none" style="stroke:#000000; stroke-width:3;" x1="165.5" y1="0" x2="165.5" y2="98"/>
<line fill="none" style="stroke:#000000; stroke-width:9;" x1="174.5" y1="0" x2="174.5" y2="90"/>
<line fill="none" style="stroke:#000000; stroke-width:3;" x1="186.5" y1="0" x2="186.5" y2="90"/>
<line fill="none" style="stroke:#000000; stroke-width:9;" x1="195.5" y1="0" x2="195.5" y2="90"/>
<line fill="none" style="stroke:#000000; stroke-width:3;" x1="207.5" y1="0" x2="207.5" y2="90"/>
<line fill="none" style="stroke:#000000; stroke-width:9;" x1="216.5" y1="0" x2="216.5" y2="90"/>
<line fill="none" style="stroke:#000000; stroke-width:3;" x1="228.5" y1="0" x2="228.5" y2="90"/>
<line fill="none" style="stroke:#000000; stroke-width:9;" x1="237.5" y1="0" x2="237.5" y2="90"/>
<line fill="none" style="stroke:#000000; stroke-width:3;" x1="249.5" y1="0" x2="249.5" y2="90"/>
<line fill="none" style="stroke:#000000; stroke-width:9;" x1="258.5" y1="0" x2="258.5" y2="90"/>
<line fill="none" style="stroke:#000000; stroke-width:3;" x1="270.5" y1="0" x2="270.5" y2="90"/>
<line fill="none" style="stroke:#000000; stroke-width:3;" x1="276.5" y1="0" x2="276.5" y2="90"/>
<line fill="none" style="stroke:#000000; stroke-width:3;" x1="291.5" y1="0" x2="291.5" y2="90"/>
<line fill="none" style="stroke:#000000; stroke-width:3;" x1="297.5" y1="0" x2="297.5" y2="98"/>
<line fill="none" style="stroke:#000000; stroke-width:3;" x1="303.5" y1="0" x2="303.5" y2="98"/>
<text x="10" y="117.632" text-anchor="middle" style="font-family: Tahoma; font-size: 32px; stroke: none; fill:#000000;">4</text>
<text x="91.25" y="117.632" text-anchor="middle" style="font-family: Tahoma; font-size: 32px; stroke: none; fill:#000000;">295300</text>
<text x="233.75" y="117.632" text-anchor="middle" style="font-family: Tahoma; font-size: 32px; stroke: none; fill:#000000;">000003</text>
</svg>