<?xml version="1.0" encoding="UTF-8"?>
<svg width="754px" height="173px" viewBox="0 0 754 173" version="1.1" xmlns="http://www.w3.org/2000/svg" xmlns:xlink="http://www.w3.org/1999/xlink">
    <!-- Generator: Sketch 47.1 (45422) - http://www.bohemiancoding.com/sketch -->
    <title>header</title>
    <desc>Created with Sketch.</desc>
    <defs></defs>
    <g id="Page-1" stroke="none" stroke-width="1" fill="none" fill-rule="evenodd">
        <g id="Desktop-Copy" transform="translate(-137.000000, -651.000000)">
            <g id="header" transform="translate(137.000000, 651.000000)">
                <path d="M3.8515625,89 L3.8515625,31.890625 L10.4921875,31.890625 L10.4921875,89 L3.8515625,89 Z M70.765625,89 L63.1875,89 L31.9765625,41.0703125 L31.6640625,41.0703125 C32.0807312,46.6953406 32.2890625,51.8515391 32.2890625,56.5390625 L32.2890625,89 L26.15625,89 L26.15625,31.890625 L33.65625,31.890625 L64.7890625,79.625 L65.1015625,79.625 C65.0494789,78.9218715 64.9322926,76.6627795 64.75,72.8476562 C64.5677074,69.032533 64.5026039,66.3046957 64.5546875,64.6640625 L64.5546875,31.890625 L70.765625,31.890625 L70.765625,89 Z M111.585938,59.078125 L131,59.078125 L131,86.8515625 C127.979152,87.815109 124.906266,88.5442684 121.78125,89.0390625 C118.656234,89.5338566 115.036479,89.78125 110.921875,89.78125 C102.275998,89.78125 95.5442949,87.2096611 90.7265625,82.0664062 C85.9088301,76.9231514 83.5,69.7161922 83.5,60.4453125 C83.5,54.5077828 84.6913943,49.3060119 87.0742188,44.8398438 C89.4570432,40.3736756 92.8879984,36.9622514 97.3671875,34.6054688 C101.846377,32.2486861 107.09372,31.0703125 113.109375,31.0703125 C119.203155,31.0703125 124.880182,32.190093 130.140625,34.4296875 L127.5625,40.2890625 C122.406224,38.1015516 117.445336,37.0078125 112.679688,37.0078125 C105.726528,37.0078125 100.296895,39.0781043 96.390625,43.21875 C92.4843555,47.3593957 90.53125,53.1015258 90.53125,60.4453125 C90.53125,68.1536844 92.4127416,73.9999801 96.1757812,77.984375 C99.9388209,81.9687699 105.466109,83.9609375 112.757812,83.9609375 C116.716166,83.9609375 120.583314,83.5052129 124.359375,82.59375 L124.359375,65.015625 L111.585938,65.015625 L111.585938,59.078125 Z M151.351562,65.25 L151.351562,89 L144.710938,89 L144.710938,31.890625 L160.375,31.890625 C167.380243,31.890625 172.555973,33.2317574 175.902344,35.9140625 C179.248715,38.5963676 180.921875,42.6327855 180.921875,48.0234375 C180.921875,55.5755586 177.093788,60.6796742 169.4375,63.3359375 L184.945312,89 L177.09375,89 L163.265625,65.25 L151.351562,65.25 Z M151.351562,59.546875 L160.453125,59.546875 C165.140648,59.546875 168.578114,58.6158947 170.765625,56.7539062 C172.953136,54.8919178 174.046875,52.098977 174.046875,48.375 C174.046875,44.5989395 172.933605,41.8776125 170.707031,40.2109375 C168.480458,38.5442625 164.906275,37.7109375 159.984375,37.7109375 L151.351562,37.7109375 L151.351562,59.546875 Z M226,89 L194.164062,89 L194.164062,31.890625 L226,31.890625 L226,37.7890625 L200.804688,37.7890625 L200.804688,56.1875 L224.476562,56.1875 L224.476562,62.046875 L200.804688,62.046875 L200.804688,83.0625 L226,83.0625 L226,89 Z M270.882813,73.8046875 C270.882813,78.8307543 269.059914,82.7499859 265.414063,85.5625 C261.768211,88.3750141 256.820344,89.78125 250.570313,89.78125 C243.799445,89.78125 238.591164,88.9088629 234.945313,87.1640625 L234.945313,80.7578125 C237.289074,81.7474008 239.841132,82.528643 242.601563,83.1015625 C245.361993,83.674482 248.096341,83.9609375 250.804688,83.9609375 C255.231793,83.9609375 258.565093,83.1211021 260.804688,81.4414062 C263.044282,79.7617104 264.164063,77.4244941 264.164063,74.4296875 C264.164063,72.4505109 263.766931,70.8294334 262.972656,69.5664062 C262.178381,68.3033791 260.85027,67.1380262 258.988281,66.0703125 C257.126293,65.0025988 254.29429,63.7916734 250.492188,62.4375 C245.179661,60.5364488 241.384126,58.2838672 239.105469,55.6796875 C236.826812,53.0755078 235.6875,49.6771043 235.6875,45.484375 C235.6875,41.0833113 237.341129,37.5807422 240.648438,34.9765625 C243.955746,32.3723828 248.330702,31.0703125 253.773438,31.0703125 C259.450549,31.0703125 264.671851,32.1119687 269.4375,34.1953125 L267.367188,39.9765625 C262.653622,37.9973859 258.070335,37.0078125 253.617188,37.0078125 C250.101545,37.0078125 247.354177,37.7630133 245.375,39.2734375 C243.395823,40.7838617 242.40625,42.8801949 242.40625,45.5625 C242.40625,47.5416766 242.77083,49.1627541 243.5,50.4257812 C244.22917,51.6888084 245.459627,52.847651 247.191406,53.9023438 C248.923186,54.9570365 251.572899,56.1223895 255.140625,57.3984375 C261.130238,59.5338648 265.251291,61.8255086 267.503906,64.2734375 C269.756522,66.7213664 270.882813,69.898418 270.882813,73.8046875 Z M314.398438,89 L282.5625,89 L282.5625,31.890625 L314.398438,31.890625 L314.398438,37.7890625 L289.203125,37.7890625 L289.203125,56.1875 L312.875,56.1875 L312.875,62.046875 L289.203125,62.046875 L289.203125,83.0625 L314.398438,83.0625 L314.398438,89 Z M380.0625,73.8046875 C380.0625,78.8307543 378.239602,82.7499859 374.59375,85.5625 C370.947898,88.3750141 366.000031,89.78125 359.75,89.78125 C352.979133,89.78125 347.770852,88.9088629 344.125,87.1640625 L344.125,80.7578125 C346.468762,81.7474008 349.02082,82.528643 351.78125,83.1015625 C354.54168,83.674482 357.276028,83.9609375 359.984375,83.9609375 C364.41148,83.9609375 367.74478,83.1211021 369.984375,81.4414062 C372.22397,79.7617104 373.34375,77.4244941 373.34375,74.4296875 C373.34375,72.4505109 372.946619,70.8294334 372.152344,69.5664062 C371.358069,68.3033791 370.029957,67.1380262 368.167969,66.0703125 C366.30598,65.0025988 363.473977,63.7916734 359.671875,62.4375 C354.359348,60.5364488 350.563813,58.2838672 348.285156,55.6796875 C346.006499,53.0755078 344.867188,49.6771043 344.867188,45.484375 C344.867188,41.0833113 346.520817,37.5807422 349.828125,34.9765625 C353.135433,32.3723828 357.510389,31.0703125 362.953125,31.0703125 C368.630237,31.0703125 373.851539,32.1119687 378.617188,34.1953125 L376.546875,39.9765625 C371.83331,37.9973859 367.250022,37.0078125 362.796875,37.0078125 C359.281232,37.0078125 356.533864,37.7630133 354.554688,39.2734375 C352.575511,40.7838617 351.585938,42.8801949 351.585938,45.5625 C351.585938,47.5416766 351.950517,49.1627541 352.679688,50.4257812 C353.408858,51.6888084 354.639314,52.847651 356.371094,53.9023438 C358.102873,54.9570365 360.752586,56.1223895 364.320312,57.3984375 C370.309926,59.5338648 374.430978,61.8255086 376.683594,64.2734375 C378.936209,66.7213664 380.0625,69.898418 380.0625,73.8046875 Z M434.867188,31.890625 L434.867188,68.84375 C434.867188,75.3541992 432.901061,80.4713355 428.96875,84.1953125 C425.036439,87.9192895 419.632847,89.78125 412.757812,89.78125 C405.882778,89.78125 400.563821,87.9062687 396.800781,84.15625 C393.037742,80.4062313 391.15625,75.2500328 391.15625,68.6875 L391.15625,31.890625 L397.796875,31.890625 L397.796875,69.15625 C397.796875,73.9218988 399.098945,77.5807164 401.703125,80.1328125 C404.307305,82.6849086 408.135391,83.9609375 413.1875,83.9609375 C418.005232,83.9609375 421.716133,82.6783982 424.320312,80.1132812 C426.924492,77.5481643 428.226562,73.8698156 428.226562,69.078125 L428.226562,31.890625 L434.867188,31.890625 Z M482.210938,73.8046875 C482.210938,78.8307543 480.388039,82.7499859 476.742188,85.5625 C473.096336,88.3750141 468.148469,89.78125 461.898438,89.78125 C455.12757,89.78125 449.919289,88.9088629 446.273438,87.1640625 L446.273438,80.7578125 C448.617199,81.7474008 451.169257,82.528643 453.929688,83.1015625 C456.690118,83.674482 459.424466,83.9609375 462.132813,83.9609375 C466.559918,83.9609375 469.893218,83.1211021 472.132813,81.4414062 C474.372407,79.7617104 475.492188,77.4244941 475.492188,74.4296875 C475.492188,72.4505109 475.095056,70.8294334 474.300781,69.5664062 C473.506506,68.3033791 472.178395,67.1380262 470.316406,66.0703125 C468.454418,65.0025988 465.622415,63.7916734 461.820313,62.4375 C456.507786,60.5364488 452.712251,58.2838672 450.433594,55.6796875 C448.154937,53.0755078 447.015625,49.6771043 447.015625,45.484375 C447.015625,41.0833113 448.669254,37.5807422 451.976563,34.9765625 C455.283871,32.3723828 459.658827,31.0703125 465.101563,31.0703125 C470.778674,31.0703125 475.999976,32.1119687 480.765625,34.1953125 L478.695313,39.9765625 C473.981747,37.9973859 469.39846,37.0078125 464.945313,37.0078125 C461.42967,37.0078125 458.682302,37.7630133 456.703125,39.2734375 C454.723948,40.7838617 453.734375,42.8801949 453.734375,45.5625 C453.734375,47.5416766 454.098955,49.1627541 454.828125,50.4257812 C455.557295,51.6888084 456.787752,52.847651 458.519531,53.9023438 C460.251311,54.9570365 462.901024,56.1223895 466.46875,57.3984375 C472.458363,59.5338648 476.579416,61.8255086 478.832031,64.2734375 C481.084647,66.7213664 482.210938,69.898418 482.210938,73.8046875 Z M560.257812,59.8984375 C560.257812,69.325568 557.699244,76.5325271 552.582031,81.5195312 C547.464818,86.5065354 540.101611,89 530.492188,89 L514.671875,89 L514.671875,31.890625 L532.171875,31.890625 C541.052128,31.890625 547.9531,34.3515379 552.875,39.2734375 C557.7969,44.1953371 560.257812,51.0702684 560.257812,59.8984375 Z M553.226562,60.1328125 C553.226562,52.6848586 551.358092,47.0729355 547.621094,43.296875 C543.884096,39.5208145 538.330766,37.6328125 530.960938,37.6328125 L521.3125,37.6328125 L521.3125,83.2578125 L529.398438,83.2578125 C537.315144,83.2578125 543.265605,81.3112174 547.25,77.4179688 C551.234395,73.5247201 553.226562,67.763059 553.226562,60.1328125 Z M607.289062,89 L600.179688,70.8359375 L577.289062,70.8359375 L570.257812,89 L563.539062,89 L586.117188,31.65625 L591.703125,31.65625 L614.164062,89 L607.289062,89 Z M598.109375,64.859375 L591.46875,47.1640625 C590.609371,44.924468 589.723963,42.1770996 588.8125,38.921875 C588.23958,41.4218875 587.419276,44.1692559 586.351562,47.1640625 L579.632812,64.859375 L598.109375,64.859375 Z M634.007812,89 L627.367188,89 L627.367188,37.7890625 L609.28125,37.7890625 L609.28125,31.890625 L652.09375,31.890625 L652.09375,37.7890625 L634.007812,37.7890625 L634.007812,89 Z M708.65625,60.3671875 C708.65625,69.5078582 706.345075,76.6952863 701.722656,81.9296875 C697.100237,87.1640887 690.67452,89.78125 682.445312,89.78125 C674.033812,89.78125 667.542992,87.2096611 662.972656,82.0664062 C658.402321,76.9231514 656.117188,69.6641094 656.117188,60.2890625 C656.117188,50.992141 658.408831,43.7851818 662.992188,38.6679688 C667.575544,33.5507557 674.085895,30.9921875 682.523438,30.9921875 C690.726604,30.9921875 697.132789,33.5963281 701.742188,38.8046875 C706.351586,44.0130469 708.65625,51.200475 708.65625,60.3671875 Z M663.148438,60.3671875 C663.148438,68.1016012 664.795556,73.9674279 668.089844,77.9648438 C671.384131,81.9622596 676.169239,83.9609375 682.445312,83.9609375 C688.773469,83.9609375 693.552067,81.9687699 696.78125,77.984375 C700.010433,73.9999801 701.625,68.127643 701.625,60.3671875 C701.625,52.6848574 700.016943,46.8580928 696.800781,42.8867188 C693.584619,38.9153447 688.825552,36.9296875 682.523438,36.9296875 C676.195281,36.9296875 671.384131,38.9283654 668.089844,42.9257812 C664.795556,46.9231971 663.148438,52.736941 663.148438,60.3671875 Z M753.617188,73.8046875 C753.617188,78.8307543 751.794289,82.7499859 748.148438,85.5625 C744.502586,88.3750141 739.554719,89.78125 733.304688,89.78125 C726.53382,89.78125 721.325539,88.9088629 717.679688,87.1640625 L717.679688,80.7578125 C720.023449,81.7474008 722.575507,82.528643 725.335938,83.1015625 C728.096368,83.674482 730.830716,83.9609375 733.539062,83.9609375 C737.966168,83.9609375 741.299468,83.1211021 743.539062,81.4414062 C745.778657,79.7617104 746.898438,77.4244941 746.898438,74.4296875 C746.898438,72.4505109 746.501306,70.8294334 745.707031,69.5664062 C744.912756,68.3033791 743.584645,67.1380262 741.722656,66.0703125 C739.860668,65.0025988 737.028665,63.7916734 733.226562,62.4375 C727.914036,60.5364488 724.118501,58.2838672 721.839844,55.6796875 C719.561187,53.0755078 718.421875,49.6771043 718.421875,45.484375 C718.421875,41.0833113 720.075504,37.5807422 723.382812,34.9765625 C726.690121,32.3723828 731.065077,31.0703125 736.507812,31.0703125 C742.184924,31.0703125 747.406226,32.1119687 752.171875,34.1953125 L750.101562,39.9765625 C745.387997,37.9973859 740.80471,37.0078125 736.351562,37.0078125 C732.83592,37.0078125 730.088552,37.7630133 728.109375,39.2734375 C726.130198,40.7838617 725.140625,42.8801949 725.140625,45.5625 C725.140625,47.5416766 725.505205,49.1627541 726.234375,50.4257812 C726.963545,51.6888084 728.194002,52.847651 729.925781,53.9023438 C731.657561,54.9570365 734.307274,56.1223895 737.875,57.3984375 C743.864613,59.5338648 747.985666,61.8255086 750.238281,64.2734375 C752.490897,66.7213664 753.617188,69.898418 753.617188,73.8046875 Z" id="INGRESE-SUS-DATOS" fill="#004B99"></path>
                <path d="M47.3435059,130.620605 C47.3435059,137.399611 45.344421,142.635968 41.3461914,146.329834 C37.3479618,150.0237 31.6689007,151.870605 24.3088379,151.870605 L19.7019043,151.870605 L19.7019043,172 L3.30786133,172 L3.30786133,111.321289 L24.3088379,111.321289 C31.9732642,111.321289 37.728415,112.995263 41.5744629,116.343262 C45.4205108,119.69126 47.3435059,124.450327 47.3435059,130.620605 Z M19.7019043,138.506348 L22.6901855,138.506348 C25.152763,138.506348 27.1103443,137.814623 28.5629883,136.431152 C30.0156323,135.047682 30.7419434,133.138521 30.7419434,130.703613 C30.7419434,126.608541 28.4730858,124.561035 23.9353027,124.561035 L19.7019043,124.561035 L19.7019043,138.506348 Z M90.0095215,172 L87.0212402,160.62793 L67.3068848,160.62793 L64.2355957,172 L46.2229004,172 L66.0202637,111.072266 L87.8928223,111.072266 L107.939209,172 L90.0095215,172 Z M83.6179199,147.180664 L81.0031738,137.219727 C80.3944468,135.006174 79.6543012,132.142433 78.7827148,128.628418 C77.9111285,125.114403 77.3369968,122.596525 77.0603027,121.074707 C76.8112781,122.485847 76.3201534,124.810042 75.5869141,128.047363 C74.8536747,131.284684 73.2281213,137.662387 70.7102051,147.180664 L83.6179199,147.180664 Z M130.890869,149.919922 L130.890869,172 L114.496826,172 L114.496826,111.321289 L134.377197,111.321289 C150.868165,111.321289 159.113525,117.297792 159.113525,129.250977 C159.113525,136.279006 155.68257,141.715964 148.820557,145.562012 L166.501221,172 L147.907471,172 L135.04126,149.919922 L130.890869,149.919922 Z M130.890869,137.593262 L133.962158,137.593262 C139.689726,137.593262 142.553467,135.061549 142.553467,129.998047 C142.553467,125.819966 139.745064,123.730957 134.128174,123.730957 L130.890869,123.730957 L130.890869,137.593262 Z M209.250244,172 L206.261963,160.62793 L186.547607,160.62793 L183.476318,172 L165.463623,172 L185.260986,111.072266 L207.133545,111.072266 L227.179932,172 L209.250244,172 Z M202.858643,147.180664 L200.243896,137.219727 C199.635169,135.006174 198.895024,132.142433 198.023438,128.628418 C197.151851,125.114403 196.577719,122.596525 196.301025,121.074707 C196.052001,122.485847 195.560876,124.810042 194.827637,128.047363 C194.094397,131.284684 192.468844,137.662387 189.950928,147.180664 L202.858643,147.180664 Z M299.853271,130.620605 C299.853271,137.399611 297.854187,142.635968 293.855957,146.329834 C289.857727,150.0237 284.178666,151.870605 276.818604,151.870605 L272.21167,151.870605 L272.21167,172 L255.817627,172 L255.817627,111.321289 L276.818604,111.321289 C284.48303,111.321289 290.238181,112.995263 294.084229,116.343262 C297.930276,119.69126 299.853271,124.450327 299.853271,130.620605 Z M272.21167,138.506348 L275.199951,138.506348 C277.662529,138.506348 279.62011,137.814623 281.072754,136.431152 C282.525398,135.047682 283.251709,133.138521 283.251709,130.703613 C283.251709,126.608541 280.982851,124.561035 276.445068,124.561035 L272.21167,124.561035 L272.21167,138.506348 Z M342.519287,172 L339.531006,160.62793 L319.81665,160.62793 L316.745361,172 L298.732666,172 L318.530029,111.072266 L340.402588,111.072266 L360.448975,172 L342.519287,172 Z M336.127686,147.180664 L333.512939,137.219727 C332.904212,135.006174 332.164067,132.142433 331.29248,128.628418 C330.420894,125.114403 329.846762,122.596525 329.570068,121.074707 C329.321044,122.485847 328.829919,124.810042 328.09668,128.047363 C327.36344,131.284684 325.737887,137.662387 323.219971,147.180664 L336.127686,147.180664 Z M383.400635,149.919922 L383.400635,172 L367.006592,172 L367.006592,111.321289 L386.886963,111.321289 C403.377931,111.321289 411.623291,117.297792 411.623291,129.250977 C411.623291,136.279006 408.192336,141.715964 401.330322,145.562012 L419.010986,172 L400.417236,172 L387.551025,149.919922 L383.400635,149.919922 Z M383.400635,137.593262 L386.471924,137.593262 C392.199492,137.593262 395.063232,135.061549 395.063232,129.998047 C395.063232,125.819966 392.25483,123.730957 386.637939,123.730957 L383.400635,123.730957 L383.400635,137.593262 Z M451.301025,172 L434.906982,172 L434.906982,124.727051 L420.090088,124.727051 L420.090088,111.321289 L466.076416,111.321289 L466.076416,124.727051 L451.301025,124.727051 L451.301025,172 Z M474.750732,172 L474.750732,111.321289 L491.227783,111.321289 L491.227783,172 L474.750732,172 Z M531.362061,123.896973 C527.460674,123.896973 524.417084,125.494857 522.231201,128.690674 C520.045318,131.886491 518.952393,136.292778 518.952393,141.909668 C518.952393,153.586159 523.393266,159.424316 532.275146,159.424316 C534.959079,159.424316 537.559965,159.050785 540.077881,158.303711 C542.595797,157.556637 545.12751,156.657395 547.673096,155.605957 L547.673096,169.468262 C542.609594,171.709484 536.882112,172.830078 530.490479,172.830078 C521.331904,172.830078 514.310897,170.173855 509.427246,164.861328 C504.543595,159.548802 502.101807,151.870656 502.101807,141.82666 C502.101807,135.545704 503.284656,130.02574 505.650391,125.266602 C508.016125,120.507463 511.419411,116.848239 515.860352,114.288818 C520.301292,111.729398 525.523814,110.449707 531.528076,110.449707 C538.085726,110.449707 544.352753,111.87466 550.329346,114.724609 L545.307373,127.632324 C543.066151,126.580887 540.824962,125.695479 538.58374,124.976074 C536.342518,124.25667 533.935316,123.896973 531.362061,123.896973 Z M559.501709,172 L559.501709,111.321289 L575.97876,111.321289 L575.97876,172 L559.501709,172 Z M633.129639,130.620605 C633.129639,137.399611 631.130554,142.635968 627.132324,146.329834 C623.134095,150.0237 617.455034,151.870605 610.094971,151.870605 L605.488037,151.870605 L605.488037,172 L589.093994,172 L589.093994,111.321289 L610.094971,111.321289 C617.759397,111.321289 623.514548,112.995263 627.360596,116.343262 C631.206644,119.69126 633.129639,124.450327 633.129639,130.620605 Z M605.488037,138.506348 L608.476318,138.506348 C610.938896,138.506348 612.896477,137.814623 614.349121,136.431152 C615.801765,135.047682 616.528076,133.138521 616.528076,130.703613 C616.528076,126.608541 614.259219,124.561035 609.721436,124.561035 L605.488037,124.561035 L605.488037,138.506348 Z M675.795654,172 L672.807373,160.62793 L653.093018,160.62793 L650.021729,172 L632.009033,172 L651.806396,111.072266 L673.678955,111.072266 L693.725342,172 L675.795654,172 Z M669.404053,147.180664 L666.789307,137.219727 C666.18058,135.006174 665.440434,132.142433 664.568848,128.628418 C663.697261,125.114403 663.12313,122.596525 662.846436,121.074707 C662.597411,122.485847 662.106286,124.810042 661.373047,128.047363 C660.639808,131.284684 659.014254,137.662387 656.496338,147.180664 L669.404053,147.180664 Z M716.677002,149.919922 L716.677002,172 L700.282959,172 L700.282959,111.321289 L720.16333,111.321289 C736.654298,111.321289 744.899658,117.297792 744.899658,129.250977 C744.899658,136.279006 741.468703,141.715964 734.606689,145.562012 L752.287354,172 L733.693604,172 L720.827393,149.919922 L716.677002,149.919922 Z M716.677002,137.593262 L719.748291,137.593262 C725.475859,137.593262 728.3396,135.061549 728.3396,129.998047 C728.3396,125.819966 725.531197,123.730957 719.914307,123.730957 L716.677002,123.730957 L716.677002,137.593262 Z" id="PARA-PARTICIPAR" fill="#004B99"></path>
                <g id="Group">
                    <rect id="Rectangle" fill="#0377B5" x="0" y="0" width="101" height="11"></rect>
                    <rect id="Rectangle" fill="#4AA145" x="101" y="0" width="107" height="11"></rect>
                    <rect id="Rectangle" fill="#BE2530" x="209" y="0" width="107" height="11"></rect>
                    <rect id="Rectangle" fill="#F5B234" x="316" y="0" width="107" height="11"></rect>
                    <rect id="Rectangle" fill="#066533" x="424" y="0" width="101" height="11"></rect>
                    <rect id="Rectangle" fill="#613280" x="525" y="0" width="107" height="11"></rect>
                    <rect id="Rectangle" fill="#FDE900" x="633" y="0" width="105" height="11"></rect>
                </g>
            </g>
        </g>
    </g>
</svg>