<?xml version="1.0" encoding="UTF-8"?>
<svg width="490px" height="72px" viewBox="0 0 490 72" version="1.1" xmlns="http://www.w3.org/2000/svg" xmlns:xlink="http://www.w3.org/1999/xlink">
    <!-- Generator: Sketch 47.1 (45422) - http://www.bohemiancoding.com/sketch -->
    <title>Group 2</title>
    <desc>Created with Sketch.</desc>
    <defs></defs>
    <g id="Home" stroke="none" stroke-width="1" fill="none" fill-rule="evenodd">
        <g id="Artboard" transform="translate(-152.000000, -415.000000)">
            <g id="Group-2" transform="translate(152.000000, 415.000000)">
                <path d="M0.140625,42.046875 L3.28125,42.046875 L3.28125,65 L0.140625,65 L0.140625,42.046875 Z M7.953125,48.265625 L10.734375,48.265625 L10.734375,50.640625 C11.401045,49.8177042 12.0052056,49.2187519 12.546875,48.84375 C13.473963,48.2083302 14.5260358,47.890625 15.703125,47.890625 C17.036465,47.890625 18.1093709,48.2187467 18.921875,48.875 C19.3802106,49.2500019 19.7968731,49.8020797 20.171875,50.53125 C20.7968781,49.6354122 21.5312458,48.9713563 22.375,48.5390625 C23.2187542,48.1067687 24.1666614,47.890625 25.21875,47.890625 C27.4687613,47.890625 28.9999959,48.7031169 29.8125,50.328125 C30.2500022,51.2031294 30.46875,52.3802009 30.46875,53.859375 L30.46875,65 L27.546875,65 L27.546875,53.375 C27.546875,52.2604111 27.268232,51.4947937 26.7109375,51.078125 C26.153643,50.6614563 25.4739623,50.453125 24.671875,50.453125 C23.5677028,50.453125 22.6171915,50.822913 21.8203125,51.5625 C21.0234335,52.302087 20.625,53.5364497 20.625,55.265625 L20.625,65 L17.765625,65 L17.765625,54.078125 C17.765625,52.9427027 17.6302097,52.1145859 17.359375,51.59375 C16.9322895,50.8124961 16.1354225,50.421875 14.96875,50.421875 C13.9062447,50.421875 12.9401085,50.8333292 12.0703125,51.65625 C11.2005165,52.4791708 10.765625,53.9687392 10.765625,56.125 L10.765625,65 L7.953125,65 L7.953125,48.265625 Z M44.9453125,61.4609375 C45.8151085,60.3619737 46.25,58.7187609 46.25,56.53125 C46.25,55.19791 46.0572936,54.0520881 45.671875,53.09375 C44.9427047,51.2499908 43.6093847,50.328125 41.671875,50.328125 C39.7239486,50.328125 38.3906286,51.3020736 37.671875,53.25 C37.2864564,54.2916719 37.09375,55.6145753 37.09375,57.21875 C37.09375,58.5104231 37.2864564,59.6093705 37.671875,60.515625 C38.4010453,62.2448003 39.7343653,63.109375 41.671875,63.109375 C42.9843816,63.109375 44.0755165,62.5599013 44.9453125,61.4609375 Z M34.390625,48.34375 L37.125,48.34375 L37.125,50.5625 C37.6875028,49.8020795 38.30208,49.2135437 38.96875,48.796875 C39.9166714,48.1718719 41.0312436,47.859375 42.3125,47.859375 C44.2083428,47.859375 45.8177017,48.5859302 47.140625,50.0390625 C48.4635483,51.4921948 49.125,53.5676948 49.125,56.265625 C49.125,59.9114766 48.1718845,62.5156172 46.265625,64.078125 C45.0572856,65.0677133 43.6510497,65.5625 42.046875,65.5625 C40.786452,65.5625 39.7291709,65.2864611 38.875,64.734375 C38.3749975,64.4218734 37.8177114,63.8854205 37.203125,63.125 L37.203125,71.671875 L34.390625,71.671875 L34.390625,48.34375 Z M52.484375,48.265625 L55.15625,48.265625 L55.15625,51.15625 C55.3750011,50.5937472 55.9114541,49.9088582 56.765625,49.1015625 C57.6197959,48.2942668 58.6041611,47.890625 59.71875,47.890625 C59.7708336,47.890625 59.8593744,47.8958333 59.984375,47.90625 C60.1093756,47.9166667 60.3229152,47.9374998 60.625,47.96875 L60.625,50.9375 C60.4583325,50.9062498 60.3046882,50.8854167 60.1640625,50.875 C60.0234368,50.8645833 59.8697925,50.859375 59.703125,50.859375 C58.2864513,50.859375 57.1979205,51.3150996 56.4375,52.2265625 C55.6770795,53.1380254 55.296875,54.1874941 55.296875,55.375 L55.296875,65 L52.484375,65 L52.484375,48.265625 Z M63.0625,48.34375 L65.921875,48.34375 L65.921875,65 L63.0625,65 L63.0625,48.34375 Z M63.0625,42.046875 L65.921875,42.046875 L65.921875,45.234375 L63.0625,45.234375 L63.0625,42.046875 Z M70.171875,48.265625 L72.953125,48.265625 L72.953125,50.640625 C73.619795,49.8177042 74.2239556,49.2187519 74.765625,48.84375 C75.692713,48.2083302 76.7447858,47.890625 77.921875,47.890625 C79.255215,47.890625 80.3281209,48.2187467 81.140625,48.875 C81.5989606,49.2500019 82.0156231,49.8020797 82.390625,50.53125 C83.0156281,49.6354122 83.7499958,48.9713563 84.59375,48.5390625 C85.4375042,48.1067687 86.3854114,47.890625 87.4375,47.890625 C89.6875113,47.890625 91.2187459,48.7031169 92.03125,50.328125 C92.4687522,51.2031294 92.6875,52.3802009 92.6875,53.859375 L92.6875,65 L89.765625,65 L89.765625,53.375 C89.765625,52.2604111 89.486982,51.4947937 88.9296875,51.078125 C88.372393,50.6614563 87.6927123,50.453125 86.890625,50.453125 C85.7864528,50.453125 84.8359415,50.822913 84.0390625,51.5625 C83.2421835,52.302087 82.84375,53.5364497 82.84375,55.265625 L82.84375,65 L79.984375,65 L79.984375,54.078125 C79.984375,52.9427027 79.8489597,52.1145859 79.578125,51.59375 C79.1510395,50.8124961 78.3541725,50.421875 77.1875,50.421875 C76.1249947,50.421875 75.1588585,50.8333292 74.2890625,51.65625 C73.4192665,52.4791708 72.984375,53.9687392 72.984375,56.125 L72.984375,65 L70.171875,65 L70.171875,48.265625 Z M107.25,48.7265625 C108.364589,49.283857 109.213539,50.0052039 109.796875,50.890625 C110.359378,51.7343792 110.734374,52.7187444 110.921875,53.84375 C111.088543,54.6145872 111.171875,55.8437416 111.171875,57.53125 L98.90625,57.53125 C98.9583336,59.2291752 99.3593713,60.5911407 100.109375,61.6171875 C100.859379,62.6432343 102.020825,63.15625 103.59375,63.15625 C105.062507,63.15625 106.234371,62.6718798 107.109375,61.703125 C107.609378,61.1406222 107.963541,60.489587 108.171875,59.75 L110.9375,59.75 C110.864583,60.3645864 110.622398,61.0494754 110.210938,61.8046875 C109.799477,62.5598996 109.338544,63.1770809 108.828125,63.65625 C107.973954,64.4895875 106.916673,65.0520819 105.65625,65.34375 C104.979163,65.5104175 104.213546,65.59375 103.359375,65.59375 C101.276031,65.59375 99.5104239,64.8359451 98.0625,63.3203125 C96.6145761,61.8046799 95.890625,59.6823053 95.890625,56.953125 C95.890625,54.2656116 96.6197844,52.0833417 98.078125,50.40625 C99.5364656,48.7291583 101.442697,47.890625 103.796875,47.890625 C104.984381,47.890625 106.135411,48.169268 107.25,48.7265625 Z M108.28125,55.296875 C108.166666,54.0781189 107.901044,53.1041703 107.484375,52.375 C106.713538,51.0208266 105.427092,50.34375 103.625,50.34375 C102.333327,50.34375 101.250004,50.8098912 100.375,51.7421875 C99.4999956,52.6744838 99.0364586,53.8593678 98.984375,55.296875 L108.28125,55.296875 Z M124.078125,43.59375 L126.921875,43.59375 L126.921875,48.265625 L129.59375,48.265625 L129.59375,50.5625 L126.921875,50.5625 L126.921875,61.484375 C126.921875,62.0677113 127.11979,62.4583323 127.515625,62.65625 C127.734376,62.7708339 128.098956,62.828125 128.609375,62.828125 C128.744792,62.828125 128.890624,62.8255209 129.046875,62.8203125 C129.203126,62.8151041 129.385416,62.8020834 129.59375,62.78125 L129.59375,65 C129.270832,65.0937505 128.934898,65.1614581 128.585938,65.203125 C128.236977,65.2447919 127.859377,65.265625 127.453125,65.265625 C126.140618,65.265625 125.250002,64.9296909 124.78125,64.2578125 C124.312498,63.5859341 124.078125,62.713547 124.078125,61.640625 L124.078125,50.5625 L121.8125,50.5625 L121.8125,48.265625 L124.078125,48.265625 L124.078125,43.59375 Z M135.21875,48.265625 L135.21875,59.375 C135.21875,60.2291709 135.354165,60.9270806 135.625,61.46875 C136.125002,62.468755 137.057285,62.96875 138.421875,62.96875 C140.380218,62.96875 141.713538,62.0937588 142.421875,60.34375 C142.807294,59.4062453 143,58.1197998 143,56.484375 L143,48.265625 L145.8125,48.265625 L145.8125,65 L143.15625,65 L143.1875,62.53125 C142.822915,63.1666698 142.369794,63.7031228 141.828125,64.140625 C140.755203,65.0156294 139.453133,65.453125 137.921875,65.453125 C135.536446,65.453125 133.911463,64.656258 133.046875,63.0625 C132.578123,62.2083291 132.34375,61.0677155 132.34375,59.640625 L132.34375,48.265625 L135.21875,48.265625 Z M170.148438,49.15625 C171.330735,50.0729212 172.041665,51.6510305 172.28125,53.890625 L169.546875,53.890625 C169.380208,52.8593698 169.000003,52.0026076 168.40625,51.3203125 C167.812497,50.6380174 166.859382,50.296875 165.546875,50.296875 C163.755199,50.296875 162.473962,51.1718662 161.703125,52.921875 C161.203123,54.0572973 160.953125,55.458325 160.953125,57.125 C160.953125,58.8020917 161.307288,60.2135359 162.015625,61.359375 C162.723962,62.5052141 163.838534,63.078125 165.359375,63.078125 C166.526048,63.078125 167.450517,62.7213577 168.132813,62.0078125 C168.815108,61.2942673 169.286457,60.3177145 169.546875,59.078125 L172.28125,59.078125 C171.968748,61.2968861 171.187506,62.9192657 169.9375,63.9453125 C168.687494,64.9713593 167.088551,65.484375 165.140625,65.484375 C162.953114,65.484375 161.20834,64.6849038 159.90625,63.0859375 C158.60416,61.4869712 157.953125,59.4895953 157.953125,57.09375 C157.953125,54.1562353 158.66666,51.8697998 160.09375,50.234375 C161.52084,48.5989502 163.338531,47.78125 165.546875,47.78125 C167.432301,47.78125 168.96614,48.2395788 170.148438,49.15625 Z M177.90625,48.265625 L177.90625,59.375 C177.90625,60.2291709 178.041665,60.9270806 178.3125,61.46875 C178.812503,62.468755 179.744785,62.96875 181.109375,62.96875 C183.067718,62.96875 184.401038,62.0937588 185.109375,60.34375 C185.494794,59.4062453 185.6875,58.1197998 185.6875,56.484375 L185.6875,48.265625 L188.5,48.265625 L188.5,65 L185.84375,65 L185.875,62.53125 C185.510415,63.1666698 185.057294,63.7031228 184.515625,64.140625 C183.442703,65.0156294 182.140633,65.453125 180.609375,65.453125 C178.223946,65.453125 176.598963,64.656258 175.734375,63.0625 C175.265623,62.2083291 175.03125,61.0677155 175.03125,59.640625 L175.03125,48.265625 L177.90625,48.265625 Z M203.226563,61.4609375 C204.096359,60.3619737 204.53125,58.7187609 204.53125,56.53125 C204.53125,55.19791 204.338544,54.0520881 203.953125,53.09375 C203.223955,51.2499908 201.890635,50.328125 199.953125,50.328125 C198.005199,50.328125 196.671879,51.3020736 195.953125,53.25 C195.567706,54.2916719 195.375,55.6145753 195.375,57.21875 C195.375,58.5104231 195.567706,59.6093705 195.953125,60.515625 C196.682295,62.2448003 198.015615,63.109375 199.953125,63.109375 C201.265632,63.109375 202.356766,62.5599013 203.226563,61.4609375 Z M192.671875,48.34375 L195.40625,48.34375 L195.40625,50.5625 C195.968753,49.8020795 196.58333,49.2135437 197.25,48.796875 C198.197921,48.1718719 199.312494,47.859375 200.59375,47.859375 C202.489593,47.859375 204.098952,48.5859302 205.421875,50.0390625 C206.744798,51.4921948 207.40625,53.5676948 207.40625,56.265625 C207.40625,59.9114766 206.453135,62.5156172 204.546875,64.078125 C203.338536,65.0677133 201.9323,65.5625 200.328125,65.5625 C199.067702,65.5625 198.010421,65.2864611 197.15625,64.734375 C196.656248,64.4218734 196.098961,63.8854205 195.484375,63.125 L195.484375,71.671875 L192.671875,71.671875 L192.671875,48.34375 Z M221.164063,61.0703125 C221.856774,59.6588471 222.203125,58.0885503 222.203125,56.359375 C222.203125,54.7968672 221.953128,53.5260466 221.453125,52.546875 C220.661454,51.0052006 219.296885,50.234375 217.359375,50.234375 C215.640616,50.234375 214.390629,50.8906184 213.609375,52.203125 C212.828121,53.5156316 212.4375,55.0989491 212.4375,56.953125 C212.4375,58.7343839 212.828121,60.2187441 213.609375,61.40625 C214.390629,62.5937559 215.6302,63.1875 217.328125,63.1875 C219.192718,63.1875 220.471351,62.4817779 221.164063,61.0703125 Z M222.90625,49.9375 C224.395841,51.3750072 225.140625,53.4895694 225.140625,56.28125 C225.140625,58.9791802 224.484382,61.2083245 223.171875,62.96875 C221.859368,64.7291755 219.82293,65.609375 217.0625,65.609375 C214.760405,65.609375 212.932298,64.830737 211.578125,63.2734375 C210.223952,61.716138 209.546875,59.6250131 209.546875,57 C209.546875,54.1874859 210.26041,51.947925 211.6875,50.28125 C213.11459,48.614575 215.031238,47.78125 217.4375,47.78125 C219.593761,47.78125 221.416659,48.4999928 222.90625,49.9375 Z M220.703125,41.53125 L216.53125,46.046875 L214.375,46.046875 L217.234375,41.53125 L220.703125,41.53125 Z M228.484375,48.265625 L231.15625,48.265625 L231.15625,50.640625 C231.947921,49.6614534 232.786454,48.9583355 233.671875,48.53125 C234.557296,48.1041645 235.541661,47.890625 236.625,47.890625 C239.000012,47.890625 240.604163,48.7187417 241.4375,50.375 C241.895836,51.2812545 242.125,52.5781166 242.125,54.265625 L242.125,65 L239.265625,65 L239.265625,54.453125 C239.265625,53.4322866 239.114585,52.6093781 238.8125,51.984375 C238.312498,50.9427031 237.406257,50.421875 236.09375,50.421875 C235.42708,50.421875 234.88021,50.4895827 234.453125,50.625 C233.682288,50.8541678 233.005211,51.3124966 232.421875,52 C231.953123,52.5520861 231.648438,53.1223929 231.507813,53.7109375 C231.367187,54.2994821 231.296875,55.1406195 231.296875,56.234375 L231.296875,65 L228.484375,65 L228.484375,48.265625 Z M265.625,48.265625 L268.734375,48.265625 C268.33854,49.338547 267.45834,51.7864392 266.09375,55.609375 C265.072912,58.4843894 264.218753,60.8281159 263.53125,62.640625 C261.906242,66.9114797 260.76042,69.5156203 260.09375,70.453125 C259.42708,71.3906297 258.281258,71.859375 256.65625,71.859375 C256.260415,71.859375 255.95573,71.8437502 255.742188,71.8125 C255.528645,71.7812498 255.265627,71.7239588 254.953125,71.640625 L254.953125,69.078125 C255.442711,69.2135423 255.796874,69.2968748 256.015625,69.328125 C256.234376,69.3593752 256.427083,69.375 256.59375,69.375 C257.114586,69.375 257.497395,69.2890634 257.742188,69.1171875 C257.98698,68.9453116 258.192708,68.7343762 258.359375,68.484375 C258.411459,68.4010412 258.598957,67.9739622 258.921875,67.203125 C259.244793,66.4322878 259.479166,65.8593769 259.625,65.484375 L253.4375,48.265625 L256.625,48.265625 L261.109375,61.890625 L265.625,48.265625 Z M280.0625,41.96875 L282.875,41.96875 L282.875,50.53125 C283.54167,49.6874958 284.140622,49.0937517 284.671875,48.75 C285.57813,48.156247 286.708327,47.859375 288.0625,47.859375 C290.489595,47.859375 292.135412,48.7083248 293,50.40625 C293.468752,51.333338 293.703125,52.6197834 293.703125,54.265625 L293.703125,65 L290.8125,65 L290.8125,54.453125 C290.8125,53.2239522 290.656252,52.3229195 290.34375,51.75 C289.833331,50.8333288 288.875007,50.375 287.46875,50.375 C286.302078,50.375 285.244796,50.7760377 284.296875,51.578125 C283.348954,52.3802123 282.875,53.8958222 282.875,56.125 L282.875,65 L280.0625,65 L280.0625,41.96875 Z M300.90625,62.46875 C301.500003,62.9375023 302.203121,63.171875 303.015625,63.171875 C304.005213,63.171875 304.963537,62.9427106 305.890625,62.484375 C307.453133,61.7239545 308.234375,60.4791753 308.234375,58.75 L308.234375,56.484375 C307.890623,56.7031261 307.447919,56.8854159 306.90625,57.03125 C306.364581,57.1770841 305.833336,57.2812497 305.3125,57.34375 L303.609375,57.5625 C302.588537,57.6979173 301.822919,57.9114569 301.3125,58.203125 C300.447912,58.6927108 300.015625,59.473953 300.015625,60.546875 C300.015625,61.3593791 300.312497,61.9999977 300.90625,62.46875 Z M306.828125,54.859375 C307.473962,54.7760412 307.906249,54.5052106 308.125,54.046875 C308.250001,53.7968737 308.3125,53.4375023 308.3125,52.96875 C308.3125,52.0104119 307.971358,51.3151063 307.289063,50.8828125 C306.606767,50.4505187 305.630215,50.234375 304.359375,50.234375 C302.890618,50.234375 301.848961,50.6302044 301.234375,51.421875 C300.890623,51.8593772 300.666667,52.5104123 300.5625,53.375 L297.9375,53.375 C297.989584,51.3124897 298.658848,49.8776082 299.945313,49.0703125 C301.231777,48.2630168 302.72395,47.859375 304.421875,47.859375 C306.390635,47.859375 307.989577,48.2343712 309.21875,48.984375 C310.437506,49.7343788 311.046875,50.9010338 311.046875,52.484375 L311.046875,62.125 C311.046875,62.4166681 311.10677,62.6510408 311.226563,62.828125 C311.346355,63.0052092 311.598956,63.09375 311.984375,63.09375 C312.109376,63.09375 312.249999,63.0859376 312.40625,63.0703125 C312.562501,63.0546874 312.729166,63.0312502 312.90625,63 L312.90625,65.078125 C312.468748,65.2031256 312.135418,65.2812498 311.90625,65.3125 C311.677082,65.3437502 311.364585,65.359375 310.96875,65.359375 C309.999995,65.359375 309.296877,65.0156284 308.859375,64.328125 C308.630207,63.9635398 308.46875,63.44792 308.375,62.78125 C307.80208,63.5312538 306.979172,64.1822889 305.90625,64.734375 C304.833328,65.2864611 303.651048,65.5625 302.359375,65.5625 C300.807284,65.5625 299.539067,65.0911505 298.554688,64.1484375 C297.570308,63.2057245 297.078125,62.0260487 297.078125,60.609375 C297.078125,59.0572839 297.562495,57.8541709 298.53125,57 C299.500005,56.1458291 300.770825,55.6197927 302.34375,55.421875 L306.828125,54.859375 Z M314.40625,62.78125 L324.328125,50.78125 L315.140625,50.78125 L315.140625,48.265625 L328.109375,48.265625 L328.109375,50.5625 L318.25,62.484375 L328.40625,62.484375 L328.40625,65 L314.40625,65 L314.40625,62.78125 Z M331.734375,42.046875 L334.546875,42.046875 L334.546875,65 L331.734375,65 L331.734375,42.046875 Z M349.242188,61.0703125 C349.934899,59.6588471 350.28125,58.0885503 350.28125,56.359375 C350.28125,54.7968672 350.031253,53.5260466 349.53125,52.546875 C348.739579,51.0052006 347.37501,50.234375 345.4375,50.234375 C343.718741,50.234375 342.468754,50.8906184 341.6875,52.203125 C340.906246,53.5156316 340.515625,55.0989491 340.515625,56.953125 C340.515625,58.7343839 340.906246,60.2187441 341.6875,61.40625 C342.468754,62.5937559 343.708325,63.1875 345.40625,63.1875 C347.270843,63.1875 348.549476,62.4817779 349.242188,61.0703125 Z M350.984375,49.9375 C352.473966,51.3750072 353.21875,53.4895694 353.21875,56.28125 C353.21875,58.9791802 352.562507,61.2083245 351.25,62.96875 C349.937493,64.7291755 347.901055,65.609375 345.140625,65.609375 C342.83853,65.609375 341.010423,64.830737 339.65625,63.2734375 C338.302077,61.716138 337.625,59.6250131 337.625,57 C337.625,54.1874859 338.338535,51.947925 339.765625,50.28125 C341.192715,48.614575 343.109363,47.78125 345.515625,47.78125 C347.671886,47.78125 349.494784,48.4999928 350.984375,49.9375 Z M366.828125,48.265625 L371.296875,61.890625 L375.96875,48.265625 L379.046875,48.265625 L372.734375,65 L369.734375,65 L363.5625,48.265625 L366.828125,48.265625 Z M384.5,62.46875 C385.093753,62.9375023 385.796871,63.171875 386.609375,63.171875 C387.598963,63.171875 388.557287,62.9427106 389.484375,62.484375 C391.046883,61.7239545 391.828125,60.4791753 391.828125,58.75 L391.828125,56.484375 C391.484373,56.7031261 391.041669,56.8854159 390.5,57.03125 C389.958331,57.1770841 389.427086,57.2812497 388.90625,57.34375 L387.203125,57.5625 C386.182287,57.6979173 385.416669,57.9114569 384.90625,58.203125 C384.041662,58.6927108 383.609375,59.473953 383.609375,60.546875 C383.609375,61.3593791 383.906247,61.9999977 384.5,62.46875 Z M390.421875,54.859375 C391.067712,54.7760412 391.499999,54.5052106 391.71875,54.046875 C391.843751,53.7968737 391.90625,53.4375023 391.90625,52.96875 C391.90625,52.0104119 391.565108,51.3151063 390.882813,50.8828125 C390.200517,50.4505187 389.223965,50.234375 387.953125,50.234375 C386.484368,50.234375 385.442711,50.6302044 384.828125,51.421875 C384.484373,51.8593772 384.260417,52.5104123 384.15625,53.375 L381.53125,53.375 C381.583334,51.3124897 382.252598,49.8776082 383.539063,49.0703125 C384.825527,48.2630168 386.3177,47.859375 388.015625,47.859375 C389.984385,47.859375 391.583327,48.2343712 392.8125,48.984375 C394.031256,49.7343788 394.640625,50.9010338 394.640625,52.484375 L394.640625,62.125 C394.640625,62.4166681 394.70052,62.6510408 394.820313,62.828125 C394.940105,63.0052092 395.192706,63.09375 395.578125,63.09375 C395.703126,63.09375 395.843749,63.0859376 396,63.0703125 C396.156251,63.0546874 396.322916,63.0312502 396.5,63 L396.5,65.078125 C396.062498,65.2031256 395.729168,65.2812498 395.5,65.3125 C395.270832,65.3437502 394.958335,65.359375 394.5625,65.359375 C393.593745,65.359375 392.890627,65.0156284 392.453125,64.328125 C392.223957,63.9635398 392.0625,63.44792 391.96875,62.78125 C391.39583,63.5312538 390.572922,64.1822889 389.5,64.734375 C388.427078,65.2864611 387.244798,65.5625 385.953125,65.5625 C384.401034,65.5625 383.132817,65.0911505 382.148438,64.1484375 C381.164058,63.2057245 380.671875,62.0260487 380.671875,60.609375 C380.671875,59.0572839 381.156245,57.8541709 382.125,57 C383.093755,56.1458291 384.364575,55.6197927 385.9375,55.421875 L390.421875,54.859375 Z M391.609375,41.53125 L387.4375,46.046875 L385.28125,46.046875 L388.140625,41.53125 L391.609375,41.53125 Z M399.328125,42.046875 L402.140625,42.046875 L402.140625,65 L399.328125,65 L399.328125,42.046875 Z M406.359375,48.34375 L409.21875,48.34375 L409.21875,65 L406.359375,65 L406.359375,48.34375 Z M406.359375,42.046875 L409.21875,42.046875 L409.21875,45.234375 L406.359375,45.234375 L406.359375,42.046875 Z M416.390625,61.328125 C417.151045,62.5364644 418.369783,63.140625 420.046875,63.140625 C421.348965,63.140625 422.419267,62.5807348 423.257813,61.4609375 C424.096358,60.3411402 424.515625,58.7343855 424.515625,56.640625 C424.515625,54.5260311 424.083338,52.9609426 423.21875,51.9453125 C422.354162,50.9296824 421.286465,50.421875 420.015625,50.421875 C418.598951,50.421875 417.450525,50.9635363 416.570313,52.046875 C415.6901,53.1302137 415.25,54.7239478 415.25,56.828125 C415.25,58.6198006 415.630205,60.1197856 416.390625,61.328125 Z M422.703125,48.78125 C423.203127,49.0937516 423.77083,49.6406211 424.40625,50.421875 L424.40625,41.96875 L427.109375,41.96875 L427.109375,65 L424.578125,65 L424.578125,62.671875 C423.921872,63.7031302 423.145838,64.4479144 422.25,64.90625 C421.354162,65.3645856 420.328131,65.59375 419.171875,65.59375 C417.307282,65.59375 415.692715,64.8099037 414.328125,63.2421875 C412.963535,61.6744713 412.28125,59.5885547 412.28125,56.984375 C412.28125,54.5468628 412.90364,52.4349048 414.148438,50.6484375 C415.393235,48.8619702 417.171863,47.96875 419.484375,47.96875 C420.765631,47.96875 421.838537,48.2395806 422.703125,48.78125 Z M441.742188,61.0703125 C442.434899,59.6588471 442.78125,58.0885503 442.78125,56.359375 C442.78125,54.7968672 442.531252,53.5260466 442.03125,52.546875 C441.239579,51.0052006 439.87501,50.234375 437.9375,50.234375 C436.218741,50.234375 434.968754,50.8906184 434.1875,52.203125 C433.406246,53.5156316 433.015625,55.0989491 433.015625,56.953125 C433.015625,58.7343839 433.406246,60.2187441 434.1875,61.40625 C434.968754,62.5937559 436.208325,63.1875 437.90625,63.1875 C439.770843,63.1875 441.049476,62.4817779 441.742188,61.0703125 Z M443.484375,49.9375 C444.973966,51.3750072 445.71875,53.4895694 445.71875,56.28125 C445.71875,58.9791802 445.062507,61.2083245 443.75,62.96875 C442.437493,64.7291755 440.401055,65.609375 437.640625,65.609375 C435.33853,65.609375 433.510423,64.830737 432.15625,63.2734375 C430.802077,61.716138 430.125,59.6250131 430.125,57 C430.125,54.1874859 430.838535,51.947925 432.265625,50.28125 C433.692715,48.614575 435.609363,47.78125 438.015625,47.78125 C440.171886,47.78125 441.994784,48.4999928 443.484375,49.9375 Z M468.375,48.7265625 C469.489589,49.283857 470.338539,50.0052039 470.921875,50.890625 C471.484378,51.7343792 471.859374,52.7187444 472.046875,53.84375 C472.213543,54.6145872 472.296875,55.8437416 472.296875,57.53125 L460.03125,57.53125 C460.083334,59.2291752 460.484371,60.5911407 461.234375,61.6171875 C461.984379,62.6432343 463.145825,63.15625 464.71875,63.15625 C466.187507,63.15625 467.359371,62.6718798 468.234375,61.703125 C468.734377,61.1406222 469.088541,60.489587 469.296875,59.75 L472.0625,59.75 C471.989583,60.3645864 471.747398,61.0494754 471.335938,61.8046875 C470.924477,62.5598996 470.463544,63.1770809 469.953125,63.65625 C469.098954,64.4895875 468.041673,65.0520819 466.78125,65.34375 C466.104163,65.5104175 465.338546,65.59375 464.484375,65.59375 C462.401031,65.59375 460.635424,64.8359451 459.1875,63.3203125 C457.739576,61.8046799 457.015625,59.6823053 457.015625,56.953125 C457.015625,54.2656116 457.744784,52.0833417 459.203125,50.40625 C460.661466,48.7291583 462.567697,47.890625 464.921875,47.890625 C466.109381,47.890625 467.260411,48.169268 468.375,48.7265625 Z M469.40625,55.296875 C469.291666,54.0781189 469.026044,53.1041703 468.609375,52.375 C467.838538,51.0208266 466.552092,50.34375 464.75,50.34375 C463.458327,50.34375 462.375004,50.8098912 461.5,51.7421875 C460.624996,52.6744838 460.161459,53.8593678 460.109375,55.296875 L469.40625,55.296875 Z M475.75,48.265625 L478.421875,48.265625 L478.421875,50.640625 C479.213546,49.6614534 480.052079,48.9583355 480.9375,48.53125 C481.822921,48.1041645 482.807286,47.890625 483.890625,47.890625 C486.265637,47.890625 487.869788,48.7187417 488.703125,50.375 C489.161461,51.2812545 489.390625,52.5781166 489.390625,54.265625 L489.390625,65 L486.53125,65 L486.53125,54.453125 C486.53125,53.4322866 486.38021,52.6093781 486.078125,51.984375 C485.578123,50.9427031 484.671882,50.421875 483.359375,50.421875 C482.692705,50.421875 482.145835,50.4895827 481.71875,50.625 C480.947913,50.8541678 480.270836,51.3124966 479.6875,52 C479.218748,52.5520861 478.914063,53.1223929 478.773438,53.7109375 C478.632812,54.2994821 478.5625,55.1406195 478.5625,56.234375 L478.5625,65 L475.75,65 L475.75,48.265625 Z" id="Imprime-tu-cupón-y" fill="#0076E8"></path>
                <path d="M107.625,7.265625 L110.8125,7.265625 L110.8125,10.53125 L107.625,10.53125 L107.625,7.265625 Z M107.625,22.671875 L108.4375,12.75 L110.015625,12.75 L110.8125,22.671875 L110.8125,30.234375 L107.625,30.234375 L107.625,22.671875 Z M117.390625,1.046875 L133.3125,1.046875 L133.3125,3.859375 L120.5,3.859375 L120.5,10.828125 L131.765625,10.828125 L131.765625,13.5625 L120.5,13.5625 L120.5,24 L117.390625,24 L117.390625,1.046875 Z M136.9375,1.046875 L153.671875,1.046875 L153.671875,3.859375 L139.96875,3.859375 L139.96875,10.828125 L152.640625,10.828125 L152.640625,13.484375 L139.96875,13.484375 L139.96875,21.265625 L153.90625,21.265625 L153.90625,24 L136.9375,24 L136.9375,1.046875 Z M157.984375,1.046875 L161.09375,1.046875 L161.09375,21.265625 L172.71875,21.265625 L172.71875,24 L157.984375,24 L157.984375,1.046875 Z M176.484375,1.046875 L179.625,1.046875 L179.625,24 L176.484375,24 L176.484375,1.046875 Z M201.109375,2.71875 C202.71355,4.25000766 203.604166,5.98957359 203.78125,7.9375 L200.75,7.9375 C200.406248,6.45832594 199.721359,5.28646266 198.695312,4.421875 C197.669266,3.55728734 196.229176,3.125 194.375,3.125 C192.114572,3.125 190.289069,3.91926289 188.898438,5.5078125 C187.507806,7.09636211 186.8125,9.53123359 186.8125,12.8125 C186.8125,15.5000134 187.440098,17.6796791 188.695312,19.3515625 C189.950527,21.0234459 191.822904,21.859375 194.3125,21.859375 C196.604178,21.859375 198.348952,20.9791755 199.546875,19.21875 C200.182295,18.291662 200.656248,17.0729242 200.96875,15.5625 L204,15.5625 C203.729165,17.9791788 202.833341,20.0052002 201.3125,21.640625 C199.489574,23.6093848 197.031265,24.59375 193.9375,24.59375 C191.27082,24.59375 189.031259,23.7864664 187.21875,22.171875 C184.833321,20.0364477 183.640625,16.7396056 183.640625,12.28125 C183.640625,8.89581641 184.536449,6.1198025 186.328125,3.953125 C188.265635,1.59894656 190.937483,0.421875 194.34375,0.421875 C197.250015,0.421875 199.5052,1.18749234 201.109375,2.71875 Z M208.484375,1.046875 L211.625,1.046875 L211.625,24 L208.484375,24 L208.484375,1.046875 Z M233.375,1.046875 L233.375,3.78125 L225.640625,3.78125 L225.640625,24 L222.484375,24 L222.484375,3.78125 L214.75,3.78125 L214.75,1.046875 L233.375,1.046875 Z M245.640625,14.59375 L242.15625,4.453125 L238.453125,14.59375 L245.640625,14.59375 Z M240.53125,1.046875 L244.046875,1.046875 L252.375,24 L248.96875,24 L246.640625,17.125 L237.5625,17.125 L235.078125,24 L231.890625,24 L240.53125,1.046875 Z M271.640625,2.71875 C273.2448,4.25000766 274.135416,5.98957359 274.3125,7.9375 L271.28125,7.9375 C270.937498,6.45832594 270.252609,5.28646266 269.226562,4.421875 C268.200516,3.55728734 266.760426,3.125 264.90625,3.125 C262.645822,3.125 260.820319,3.91926289 259.429688,5.5078125 C258.039056,7.09636211 257.34375,9.53123359 257.34375,12.8125 C257.34375,15.5000134 257.971348,17.6796791 259.226562,19.3515625 C260.481777,21.0234459 262.354154,21.859375 264.84375,21.859375 C267.135428,21.859375 268.880202,20.9791755 270.078125,19.21875 C270.713545,18.291662 271.187498,17.0729242 271.5,15.5625 L274.53125,15.5625 C274.260415,17.9791788 273.364591,20.0052002 271.84375,21.640625 C270.020824,23.6093848 267.562515,24.59375 264.46875,24.59375 C261.80207,24.59375 259.562509,23.7864664 257.75,22.171875 C255.364571,20.0364477 254.171875,16.7396056 254.171875,12.28125 C254.171875,8.89581641 255.067699,6.1198025 256.859375,3.953125 C258.796885,1.59894656 261.468733,0.421875 264.875,0.421875 C267.781265,0.421875 270.03645,1.18749234 271.640625,2.71875 Z M279.015625,1.046875 L282.15625,1.046875 L282.15625,24 L279.015625,24 L279.015625,1.046875 Z M306.109375,4.328125 C307.630216,6.35938516 308.390625,8.9583175 308.390625,12.125 C308.390625,15.5521005 307.520842,18.4010303 305.78125,20.671875 C303.739573,23.338555 300.828144,24.671875 297.046875,24.671875 C293.515607,24.671875 290.739593,23.50522 288.71875,21.171875 C286.916658,18.9218638 286.015625,16.0781422 286.015625,12.640625 C286.015625,9.53644281 286.786451,6.88021938 288.328125,4.671875 C290.307302,1.8385275 293.234356,0.421875 297.109375,0.421875 C301.161479,0.421875 304.161449,1.72394531 306.109375,4.328125 Z M303.367188,18.9453125 C304.591152,16.981761 305.203125,14.7239711 305.203125,12.171875 C305.203125,9.47394484 304.497403,7.30209156 303.085938,5.65625 C301.674472,4.01040844 299.744804,3.1875 297.296875,3.1875 C294.921863,3.1875 292.984383,4.00259602 291.484375,5.6328125 C289.984367,7.26302898 289.234375,9.66665078 289.234375,12.84375 C289.234375,15.3854294 289.877598,17.5286371 291.164062,19.2734375 C292.450527,21.0182379 294.536444,21.890625 297.421875,21.890625 C300.161472,21.890625 302.143223,20.908864 303.367188,18.9453125 Z M312.09375,1.046875 L315.765625,1.046875 L327.359375,19.640625 L327.359375,1.046875 L330.3125,1.046875 L330.3125,24 L326.828125,24 L315.0625,5.421875 L315.0625,24 L312.09375,24 L312.09375,1.046875 Z M335.5,1.046875 L352.234375,1.046875 L352.234375,3.859375 L338.53125,3.859375 L338.53125,10.828125 L351.203125,10.828125 L351.203125,13.484375 L338.53125,13.484375 L338.53125,21.265625 L352.46875,21.265625 L352.46875,24 L335.5,24 L335.5,1.046875 Z M358.578125,16.59375 C358.651042,17.8958398 358.958331,18.9531209 359.5,19.765625 C360.531255,21.2864659 362.348945,22.046875 364.953125,22.046875 C366.119798,22.046875 367.182287,21.88021 368.140625,21.546875 C369.994801,20.9010384 370.921875,19.7448 370.921875,18.078125 C370.921875,16.8281187 370.531254,15.9375027 369.75,15.40625 C368.958329,14.8854141 367.718758,14.4322936 366.03125,14.046875 L362.921875,13.34375 C360.890615,12.8854144 359.453129,12.3802111 358.609375,11.828125 C357.151034,10.8697869 356.421875,9.43750953 356.421875,7.53125 C356.421875,5.46873969 357.13541,3.77604828 358.5625,2.453125 C359.98959,1.13020172 362.010404,0.46875 364.625,0.46875 C367.031262,0.46875 369.075512,1.04947336 370.757812,2.2109375 C372.440113,3.37240164 373.28125,5.22915391 373.28125,7.78125 L370.359375,7.78125 C370.203124,6.55207719 369.869794,5.60937828 369.359375,4.953125 C368.411454,3.75520234 366.802095,3.15625 364.53125,3.15625 C362.697907,3.15625 361.380212,3.54166281 360.578125,4.3125 C359.776038,5.08333719 359.375,5.97916156 359.375,7 C359.375,8.12500562 359.843745,8.94791406 360.78125,9.46875 C361.395836,9.802085 362.786448,10.2187475 364.953125,10.71875 L368.171875,11.453125 C369.723966,11.8072934 370.921871,12.2916636 371.765625,12.90625 C373.223966,13.979172 373.953125,15.5364481 373.953125,17.578125 C373.953125,20.1198044 373.028655,21.9374945 371.179688,23.03125 C369.33072,24.1250055 367.182304,24.671875 364.734375,24.671875 C361.880194,24.671875 359.645841,23.9427156 358.03125,22.484375 C356.416659,21.0364511 355.625,19.0729291 355.65625,16.59375 L358.578125,16.59375 Z M379.15625,1.046875 L382.328125,1.046875 L382.328125,8.59375 L381.5625,18.53125 L379.96875,18.53125 L379.15625,8.59375 L379.15625,1.046875 Z M379.15625,20.75 L382.265625,20.75 L382.265625,24 L379.15625,24 L379.15625,20.75 Z" id="¡FELICITACIONES!" fill="#003E73"></path>
            </g>
        </g>
    </g>
</svg>