<?xml version="1.0" encoding="UTF-8"?>
<svg width="391px" height="70px" viewBox="0 0 391 70" version="1.1" xmlns="http://www.w3.org/2000/svg" xmlns:xlink="http://www.w3.org/1999/xlink">
    <!-- Generator: Sketch 47.1 (45422) - http://www.bohemiancoding.com/sketch -->
    <title>Ingresa tus datos y</title>
    <desc>Created with Sketch.</desc>
    <defs></defs>
    <g id="Home" stroke="none" stroke-width="1" fill="none" fill-rule="evenodd">
        <g id="Artboard" transform="translate(-152.000000, -238.000000)" fill="#003E73">
            <path d="M152.679688,239.046875 L155.820312,239.046875 L155.820312,262 L152.679688,262 L152.679688,239.046875 Z M160.492188,245.265625 L163.164062,245.265625 L163.164062,247.640625 C163.955733,246.661453 164.794266,245.958335 165.679688,245.53125 C166.565109,245.104165 167.549474,244.890625 168.632812,244.890625 C171.007824,244.890625 172.611975,245.718742 173.445312,247.375 C173.903648,248.281255 174.132812,249.578117 174.132812,251.265625 L174.132812,262 L171.273438,262 L171.273438,251.453125 C171.273438,250.432287 171.122397,249.609378 170.820312,248.984375 C170.32031,247.942703 169.414069,247.421875 168.101562,247.421875 C167.434892,247.421875 166.888023,247.489583 166.460938,247.625 C165.6901,247.854168 165.013024,248.312497 164.429688,249 C163.960935,249.552086 163.656251,250.122393 163.515625,250.710938 C163.374999,251.299482 163.304688,252.14062 163.304688,253.234375 L163.304688,262 L160.492188,262 L160.492188,245.265625 Z M187.632812,245.9375 C188.164065,246.302085 188.705726,246.83333 189.257812,247.53125 L189.257812,245.421875 L191.851562,245.421875 L191.851562,260.640625 C191.851562,262.765636 191.539066,264.442702 190.914062,265.671875 C189.74739,267.94272 187.544287,269.078125 184.304688,269.078125 C182.502595,269.078125 180.986985,268.674483 179.757812,267.867188 C178.52864,267.059892 177.841147,265.796884 177.695312,264.078125 L180.554688,264.078125 C180.690105,264.828129 180.960935,265.406248 181.367188,265.8125 C182.002607,266.437503 183.002597,266.75 184.367188,266.75 C186.523448,266.75 187.934892,265.989591 188.601562,264.46875 C188.997398,263.572912 189.179688,261.97397 189.148438,259.671875 C188.585935,260.526046 187.908858,261.161456 187.117188,261.578125 C186.325517,261.994794 185.278652,262.203125 183.976562,262.203125 C182.164053,262.203125 180.578132,261.559902 179.21875,260.273438 C177.859368,258.986973 177.179688,256.85939 177.179688,253.890625 C177.179688,251.088528 177.864576,248.90105 179.234375,247.328125 C180.604174,245.7552 182.257803,244.96875 184.195312,244.96875 C185.507819,244.96875 186.653641,245.291663 187.632812,245.9375 Z M187.976562,248.953125 C187.122392,247.95312 186.033861,247.453125 184.710938,247.453125 C182.731761,247.453125 181.377608,248.380199 180.648438,250.234375 C180.263019,251.223963 180.070312,252.520825 180.070312,254.125 C180.070312,256.010426 180.453121,257.445308 181.21875,258.429688 C181.984379,259.414067 183.013014,259.90625 184.304688,259.90625 C186.325531,259.90625 187.747392,258.994801 188.570312,257.171875 C189.028648,256.14062 189.257812,254.937507 189.257812,253.5625 C189.257812,251.489573 188.830733,249.95313 187.976562,248.953125 Z M196.164062,245.265625 L198.835938,245.265625 L198.835938,248.15625 C199.054689,247.593747 199.591142,246.908858 200.445312,246.101562 C201.299483,245.294267 202.283849,244.890625 203.398438,244.890625 C203.450521,244.890625 203.539062,244.895833 203.664062,244.90625 C203.789063,244.916667 204.002603,244.9375 204.304688,244.96875 L204.304688,247.9375 C204.13802,247.90625 203.984376,247.885417 203.84375,247.875 C203.703124,247.864583 203.54948,247.859375 203.382812,247.859375 C201.966139,247.859375 200.877608,248.3151 200.117188,249.226562 C199.356767,250.138025 198.976562,251.187494 198.976562,252.375 L198.976562,262 L196.164062,262 L196.164062,245.265625 Z M217.164062,245.726562 C218.278651,246.283857 219.127601,247.005204 219.710938,247.890625 C220.27344,248.734379 220.648437,249.718744 220.835938,250.84375 C221.002605,251.614587 221.085938,252.843742 221.085938,254.53125 L208.820312,254.53125 C208.872396,256.229175 209.273434,257.591141 210.023438,258.617188 C210.773441,259.643234 211.934888,260.15625 213.507812,260.15625 C214.97657,260.15625 216.148433,259.67188 217.023438,258.703125 C217.52344,258.140622 217.877603,257.489587 218.085938,256.75 L220.851562,256.75 C220.778645,257.364586 220.53646,258.049475 220.125,258.804688 C219.71354,259.5599 219.252607,260.177081 218.742188,260.65625 C217.888017,261.489587 216.830735,262.052082 215.570312,262.34375 C214.893226,262.510418 214.127608,262.59375 213.273438,262.59375 C211.190094,262.59375 209.424486,261.835945 207.976562,260.320312 C206.528639,258.80468 205.804688,256.682305 205.804688,253.953125 C205.804688,251.265612 206.533847,249.083342 207.992188,247.40625 C209.450528,245.729158 211.356759,244.890625 213.710938,244.890625 C214.898443,244.890625 216.049474,245.169268 217.164062,245.726562 Z M218.195312,252.296875 C218.080729,251.078119 217.815106,250.10417 217.398438,249.375 C216.6276,248.020827 215.341155,247.34375 213.539062,247.34375 C212.247389,247.34375 211.164067,247.809891 210.289062,248.742188 C209.414058,249.674484 208.950521,250.859368 208.898438,252.296875 L218.195312,252.296875 Z M226.210938,256.75 C226.294271,257.687505 226.528644,258.406248 226.914062,258.90625 C227.622399,259.812505 228.851554,260.265625 230.601562,260.265625 C231.643234,260.265625 232.559892,260.039065 233.351562,259.585938 C234.143233,259.13281 234.539062,258.432296 234.539062,257.484375 C234.539062,256.765621 234.221357,256.218752 233.585938,255.84375 C233.179685,255.614582 232.37761,255.34896 231.179688,255.046875 L228.945312,254.484375 C227.518222,254.130207 226.466149,253.734377 225.789062,253.296875 C224.580723,252.536455 223.976562,251.484382 223.976562,250.140625 C223.976562,248.557284 224.546869,247.276047 225.6875,246.296875 C226.828131,245.317703 228.36197,244.828125 230.289062,244.828125 C232.809908,244.828125 234.627599,245.567701 235.742188,247.046875 C236.440108,247.98438 236.778646,248.994786 236.757812,250.078125 L234.101562,250.078125 C234.049479,249.442705 233.825523,248.864586 233.429688,248.34375 C232.783851,247.604163 231.66407,247.234375 230.070312,247.234375 C229.007807,247.234375 228.203128,247.437498 227.65625,247.84375 C227.109372,248.250002 226.835938,248.786455 226.835938,249.453125 C226.835938,250.182295 227.195309,250.765623 227.914062,251.203125 C228.330731,251.463543 228.945308,251.692707 229.757812,251.890625 L231.617188,252.34375 C233.638031,252.833336 234.992184,253.307289 235.679688,253.765625 C236.773443,254.484379 237.320312,255.614576 237.320312,257.15625 C237.320312,258.645841 236.755214,259.932286 235.625,261.015625 C234.494786,262.098964 232.773449,262.640625 230.460938,262.640625 C227.971342,262.640625 226.208339,262.075526 225.171875,260.945312 C224.135411,259.815099 223.58073,258.416675 223.507812,256.75 L226.210938,256.75 Z M243.585938,259.46875 C244.17969,259.937502 244.882808,260.171875 245.695312,260.171875 C246.684901,260.171875 247.643225,259.942711 248.570312,259.484375 C250.13282,258.723955 250.914062,257.479175 250.914062,255.75 L250.914062,253.484375 C250.570311,253.703126 250.127607,253.885416 249.585938,254.03125 C249.044268,254.177084 248.513023,254.28125 247.992188,254.34375 L246.289062,254.5625 C245.268224,254.697917 244.502607,254.911457 243.992188,255.203125 C243.1276,255.692711 242.695312,256.473953 242.695312,257.546875 C242.695312,258.359379 242.992185,258.999998 243.585938,259.46875 Z M249.507812,251.859375 C250.153649,251.776041 250.585936,251.505211 250.804688,251.046875 C250.929688,250.796874 250.992188,250.437502 250.992188,249.96875 C250.992188,249.010412 250.651045,248.315106 249.96875,247.882812 C249.286455,247.450519 248.309902,247.234375 247.039062,247.234375 C245.570305,247.234375 244.528649,247.630204 243.914062,248.421875 C243.570311,248.859377 243.346355,249.510412 243.242188,250.375 L240.617188,250.375 C240.669271,248.31249 241.338535,246.877608 242.625,246.070312 C243.911465,245.263017 245.403637,244.859375 247.101562,244.859375 C249.070322,244.859375 250.669265,245.234371 251.898438,245.984375 C253.117194,246.734379 253.726562,247.901034 253.726562,249.484375 L253.726562,259.125 C253.726562,259.416668 253.786458,259.651041 253.90625,259.828125 C254.026042,260.005209 254.278644,260.09375 254.664062,260.09375 C254.789063,260.09375 254.929687,260.085938 255.085938,260.070312 C255.242188,260.054687 255.408853,260.03125 255.585938,260 L255.585938,262.078125 C255.148435,262.203126 254.815105,262.28125 254.585938,262.3125 C254.35677,262.34375 254.044273,262.359375 253.648438,262.359375 C252.679683,262.359375 251.976565,262.015628 251.539062,261.328125 C251.309895,260.96354 251.148438,260.44792 251.054688,259.78125 C250.481768,260.531254 249.65886,261.182289 248.585938,261.734375 C247.513015,262.286461 246.330736,262.5625 245.039062,262.5625 C243.486971,262.5625 242.218755,262.091151 241.234375,261.148438 C240.249995,260.205724 239.757812,259.026049 239.757812,257.609375 C239.757812,256.057284 240.242183,254.854171 241.210938,254 C242.179692,253.145829 243.450513,252.619793 245.023438,252.421875 L249.507812,251.859375 Z M267.789062,240.59375 L270.632812,240.59375 L270.632812,245.265625 L273.304688,245.265625 L273.304688,247.5625 L270.632812,247.5625 L270.632812,258.484375 C270.632812,259.067711 270.830727,259.458332 271.226562,259.65625 C271.445314,259.770834 271.809893,259.828125 272.320312,259.828125 C272.45573,259.828125 272.601562,259.825521 272.757812,259.820312 C272.914063,259.815104 273.096353,259.802083 273.304688,259.78125 L273.304688,262 C272.981769,262.09375 272.645835,262.161458 272.296875,262.203125 C271.947915,262.244792 271.570315,262.265625 271.164062,262.265625 C269.851556,262.265625 268.96094,261.929691 268.492188,261.257812 C268.023435,260.585934 267.789062,259.713547 267.789062,258.640625 L267.789062,247.5625 L265.523438,247.5625 L265.523438,245.265625 L267.789062,245.265625 L267.789062,240.59375 Z M278.929688,245.265625 L278.929688,256.375 C278.929688,257.229171 279.065103,257.927081 279.335938,258.46875 C279.83594,259.468755 280.768222,259.96875 282.132812,259.96875 C284.091156,259.96875 285.424476,259.093759 286.132812,257.34375 C286.518231,256.406245 286.710938,255.1198 286.710938,253.484375 L286.710938,245.265625 L289.523438,245.265625 L289.523438,262 L286.867188,262 L286.898438,259.53125 C286.533852,260.16667 286.080732,260.703123 285.539062,261.140625 C284.46614,262.015629 283.16407,262.453125 281.632812,262.453125 C279.247384,262.453125 277.6224,261.656258 276.757812,260.0625 C276.28906,259.208329 276.054688,258.067715 276.054688,256.640625 L276.054688,245.265625 L278.929688,245.265625 Z M295.585938,256.75 C295.669271,257.687505 295.903644,258.406248 296.289062,258.90625 C296.997399,259.812505 298.226554,260.265625 299.976562,260.265625 C301.018234,260.265625 301.934892,260.039065 302.726562,259.585938 C303.518233,259.13281 303.914062,258.432296 303.914062,257.484375 C303.914062,256.765621 303.596357,256.218752 302.960938,255.84375 C302.554685,255.614582 301.75261,255.34896 300.554688,255.046875 L298.320312,254.484375 C296.893222,254.130207 295.841149,253.734377 295.164062,253.296875 C293.955723,252.536455 293.351562,251.484382 293.351562,250.140625 C293.351562,248.557284 293.921869,247.276047 295.0625,246.296875 C296.203131,245.317703 297.73697,244.828125 299.664062,244.828125 C302.184908,244.828125 304.002599,245.567701 305.117188,247.046875 C305.815108,247.98438 306.153646,248.994786 306.132812,250.078125 L303.476562,250.078125 C303.424479,249.442705 303.200523,248.864586 302.804688,248.34375 C302.158851,247.604163 301.03907,247.234375 299.445312,247.234375 C298.382807,247.234375 297.578128,247.437498 297.03125,247.84375 C296.484372,248.250002 296.210938,248.786455 296.210938,249.453125 C296.210938,250.182295 296.570309,250.765623 297.289062,251.203125 C297.705731,251.463543 298.320308,251.692707 299.132812,251.890625 L300.992188,252.34375 C303.013031,252.833336 304.367184,253.307289 305.054688,253.765625 C306.148443,254.484379 306.695312,255.614576 306.695312,257.15625 C306.695312,258.645841 306.130214,259.932286 305,261.015625 C303.869786,262.098964 302.148449,262.640625 299.835938,262.640625 C297.346342,262.640625 295.583339,262.075526 294.546875,260.945312 C293.510411,259.815099 292.95573,258.416675 292.882812,256.75 L295.585938,256.75 Z M321.726562,258.328125 C322.486983,259.536464 323.705721,260.140625 325.382812,260.140625 C326.684902,260.140625 327.755204,259.580735 328.59375,258.460938 C329.432296,257.34114 329.851562,255.734385 329.851562,253.640625 C329.851562,251.526031 329.419275,249.960943 328.554688,248.945312 C327.6901,247.929682 326.622402,247.421875 325.351562,247.421875 C323.934889,247.421875 322.786463,247.963536 321.90625,249.046875 C321.026037,250.130214 320.585938,251.723948 320.585938,253.828125 C320.585938,255.619801 320.966142,257.119786 321.726562,258.328125 Z M328.039062,245.78125 C328.539065,246.093752 329.106768,246.640621 329.742188,247.421875 L329.742188,238.96875 L332.445312,238.96875 L332.445312,262 L329.914062,262 L329.914062,259.671875 C329.257809,260.70313 328.481775,261.447914 327.585938,261.90625 C326.6901,262.364586 325.664068,262.59375 324.507812,262.59375 C322.64322,262.59375 321.028653,261.809904 319.664062,260.242188 C318.299472,258.674471 317.617188,256.588555 317.617188,253.984375 C317.617188,251.546863 318.239577,249.434905 319.484375,247.648438 C320.729173,245.86197 322.507801,244.96875 324.820312,244.96875 C326.101569,244.96875 327.174475,245.239581 328.039062,245.78125 Z M339.648438,259.46875 C340.24219,259.937502 340.945308,260.171875 341.757812,260.171875 C342.747401,260.171875 343.705725,259.942711 344.632812,259.484375 C346.19532,258.723955 346.976562,257.479175 346.976562,255.75 L346.976562,253.484375 C346.632811,253.703126 346.190107,253.885416 345.648438,254.03125 C345.106768,254.177084 344.575523,254.28125 344.054688,254.34375 L342.351562,254.5625 C341.330724,254.697917 340.565107,254.911457 340.054688,255.203125 C339.1901,255.692711 338.757812,256.473953 338.757812,257.546875 C338.757812,258.359379 339.054685,258.999998 339.648438,259.46875 Z M345.570312,251.859375 C346.216149,251.776041 346.648436,251.505211 346.867188,251.046875 C346.992188,250.796874 347.054688,250.437502 347.054688,249.96875 C347.054688,249.010412 346.713545,248.315106 346.03125,247.882812 C345.348955,247.450519 344.372402,247.234375 343.101562,247.234375 C341.632805,247.234375 340.591149,247.630204 339.976562,248.421875 C339.632811,248.859377 339.408855,249.510412 339.304688,250.375 L336.679688,250.375 C336.731771,248.31249 337.401035,246.877608 338.6875,246.070312 C339.973965,245.263017 341.466137,244.859375 343.164062,244.859375 C345.132822,244.859375 346.731765,245.234371 347.960938,245.984375 C349.179694,246.734379 349.789062,247.901034 349.789062,249.484375 L349.789062,259.125 C349.789062,259.416668 349.848958,259.651041 349.96875,259.828125 C350.088542,260.005209 350.341144,260.09375 350.726562,260.09375 C350.851563,260.09375 350.992187,260.085938 351.148438,260.070312 C351.304688,260.054687 351.471353,260.03125 351.648438,260 L351.648438,262.078125 C351.210935,262.203126 350.877605,262.28125 350.648438,262.3125 C350.41927,262.34375 350.106773,262.359375 349.710938,262.359375 C348.742183,262.359375 348.039065,262.015628 347.601562,261.328125 C347.372395,260.96354 347.210938,260.44792 347.117188,259.78125 C346.544268,260.531254 345.72136,261.182289 344.648438,261.734375 C343.575515,262.286461 342.393236,262.5625 341.101562,262.5625 C339.549471,262.5625 338.281255,262.091151 337.296875,261.148438 C336.312495,260.205724 335.820312,259.026049 335.820312,257.609375 C335.820312,256.057284 336.304683,254.854171 337.273438,254 C338.242192,253.145829 339.513013,252.619793 341.085938,252.421875 L345.570312,251.859375 Z M354.960938,240.59375 L357.804688,240.59375 L357.804688,245.265625 L360.476562,245.265625 L360.476562,247.5625 L357.804688,247.5625 L357.804688,258.484375 C357.804688,259.067711 358.002602,259.458332 358.398438,259.65625 C358.617189,259.770834 358.981768,259.828125 359.492188,259.828125 C359.627605,259.828125 359.773437,259.825521 359.929688,259.820312 C360.085938,259.815104 360.268228,259.802083 360.476562,259.78125 L360.476562,262 C360.153644,262.09375 359.81771,262.161458 359.46875,262.203125 C359.11979,262.244792 358.74219,262.265625 358.335938,262.265625 C357.023431,262.265625 356.132815,261.929691 355.664062,261.257812 C355.19531,260.585934 354.960938,259.713547 354.960938,258.640625 L354.960938,247.5625 L352.695312,247.5625 L352.695312,245.265625 L354.960938,245.265625 L354.960938,240.59375 Z M373.765625,258.070312 C374.458337,256.658847 374.804688,255.08855 374.804688,253.359375 C374.804688,251.796867 374.55469,250.526047 374.054688,249.546875 C373.263017,248.005201 371.898447,247.234375 369.960938,247.234375 C368.242179,247.234375 366.992191,247.890618 366.210938,249.203125 C365.429684,250.515632 365.039062,252.098949 365.039062,253.953125 C365.039062,255.734384 365.429684,257.218744 366.210938,258.40625 C366.992191,259.593756 368.231762,260.1875 369.929688,260.1875 C371.79428,260.1875 373.072913,259.481778 373.765625,258.070312 Z M375.507812,246.9375 C376.997403,248.375007 377.742188,250.489569 377.742188,253.28125 C377.742188,255.97918 377.085944,258.208325 375.773438,259.96875 C374.460931,261.729175 372.424493,262.609375 369.664062,262.609375 C367.361968,262.609375 365.533861,261.830737 364.179688,260.273438 C362.825514,258.716138 362.148438,256.625013 362.148438,254 C362.148438,251.187486 362.861972,248.947925 364.289062,247.28125 C365.716153,245.614575 367.6328,244.78125 370.039062,244.78125 C372.195323,244.78125 374.018222,245.499993 375.507812,246.9375 Z M382.757812,256.75 C382.841146,257.687505 383.075519,258.406248 383.460938,258.90625 C384.169274,259.812505 385.398429,260.265625 387.148438,260.265625 C388.190109,260.265625 389.106767,260.039065 389.898438,259.585938 C390.690108,259.13281 391.085938,258.432296 391.085938,257.484375 C391.085938,256.765621 390.768232,256.218752 390.132812,255.84375 C389.72656,255.614582 388.924485,255.34896 387.726562,255.046875 L385.492188,254.484375 C384.065097,254.130207 383.013024,253.734377 382.335938,253.296875 C381.127598,252.536455 380.523438,251.484382 380.523438,250.140625 C380.523438,248.557284 381.093744,247.276047 382.234375,246.296875 C383.375006,245.317703 384.908845,244.828125 386.835938,244.828125 C389.356783,244.828125 391.174474,245.567701 392.289062,247.046875 C392.986983,247.98438 393.325521,248.994786 393.304688,250.078125 L390.648438,250.078125 C390.596354,249.442705 390.372398,248.864586 389.976562,248.34375 C389.330726,247.604163 388.210945,247.234375 386.617188,247.234375 C385.554682,247.234375 384.750003,247.437498 384.203125,247.84375 C383.656247,248.250002 383.382812,248.786455 383.382812,249.453125 C383.382812,250.182295 383.742184,250.765623 384.460938,251.203125 C384.877606,251.463543 385.492183,251.692707 386.304688,251.890625 L388.164062,252.34375 C390.184906,252.833336 391.539059,253.307289 392.226562,253.765625 C393.320318,254.484379 393.867188,255.614576 393.867188,257.15625 C393.867188,258.645841 393.302089,259.932286 392.171875,261.015625 C391.041661,262.098964 389.320324,262.640625 387.007812,262.640625 C384.518217,262.640625 382.755214,262.075526 381.71875,260.945312 C380.682286,259.815099 380.127605,258.416675 380.054688,256.75 L382.757812,256.75 Z M416.429688,245.265625 L419.539062,245.265625 C419.143227,246.338547 418.263028,248.786439 416.898438,252.609375 C415.877599,255.484389 415.023441,257.828116 414.335938,259.640625 C412.710929,263.91148 411.565108,266.51562 410.898438,267.453125 C410.231767,268.39063 409.085946,268.859375 407.460938,268.859375 C407.065102,268.859375 406.760418,268.84375 406.546875,268.8125 C406.333332,268.78125 406.070314,268.723959 405.757812,268.640625 L405.757812,266.078125 C406.247398,266.213542 406.601561,266.296875 406.820312,266.328125 C407.039064,266.359375 407.23177,266.375 407.398438,266.375 C407.919273,266.375 408.302082,266.289063 408.546875,266.117188 C408.791668,265.945312 408.997395,265.734376 409.164062,265.484375 C409.216146,265.401041 409.403644,264.973962 409.726562,264.203125 C410.049481,263.432288 410.283853,262.859377 410.429688,262.484375 L404.242188,245.265625 L407.429688,245.265625 L411.914062,258.890625 L416.429688,245.265625 Z M441.34375,258.070312 C442.036462,256.658847 442.382812,255.08855 442.382812,253.359375 C442.382812,251.796867 442.132815,250.526047 441.632812,249.546875 C440.841142,248.005201 439.476572,247.234375 437.539062,247.234375 C435.820304,247.234375 434.570316,247.890618 433.789062,249.203125 C433.007809,250.515632 432.617188,252.098949 432.617188,253.953125 C432.617188,255.734384 433.007809,257.218744 433.789062,258.40625 C434.570316,259.593756 435.809887,260.1875 437.507812,260.1875 C439.372405,260.1875 440.651038,259.481778 441.34375,258.070312 Z M443.085938,246.9375 C444.575528,248.375007 445.320312,250.489569 445.320312,253.28125 C445.320312,255.97918 444.664069,258.208325 443.351562,259.96875 C442.039056,261.729175 440.002618,262.609375 437.242188,262.609375 C434.940093,262.609375 433.111986,261.830737 431.757812,260.273438 C430.403639,258.716138 429.726562,256.625013 429.726562,254 C429.726562,251.187486 430.440097,248.947925 431.867188,247.28125 C433.294278,245.614575 435.210925,244.78125 437.617188,244.78125 C439.773448,244.78125 441.596347,245.499993 443.085938,246.9375 Z M448.445312,238.96875 L451.179688,238.96875 L451.179688,247.296875 C451.794274,246.494788 452.528642,245.882815 453.382812,245.460938 C454.236983,245.03906 455.164058,244.828125 456.164062,244.828125 C458.247406,244.828125 459.937494,245.544264 461.234375,246.976562 C462.531256,248.408861 463.179688,250.520819 463.179688,253.3125 C463.179688,255.958347 462.539069,258.156241 461.257812,259.90625 C459.976556,261.656259 458.200532,262.53125 455.929688,262.53125 C454.658848,262.53125 453.585942,262.223961 452.710938,261.609375 C452.190102,261.24479 451.632815,260.661462 451.039062,259.859375 L451.039062,262 L448.445312,262 L448.445312,238.96875 Z M459.171875,258.234375 C459.927087,257.026036 460.304688,255.432302 460.304688,253.453125 C460.304688,251.6927 459.927087,250.234381 459.171875,249.078125 C458.416663,247.921869 457.304695,247.34375 455.835938,247.34375 C454.554681,247.34375 453.432296,247.817704 452.46875,248.765625 C451.505204,249.713546 451.023438,251.276031 451.023438,253.453125 C451.023438,255.02605 451.221352,256.302078 451.617188,257.28125 C452.356775,259.125009 453.736969,260.046875 455.757812,260.046875 C457.278653,260.046875 458.416663,259.442714 459.171875,258.234375 Z M467.023438,240.59375 L469.867188,240.59375 L469.867188,245.265625 L472.539062,245.265625 L472.539062,247.5625 L469.867188,247.5625 L469.867188,258.484375 C469.867188,259.067711 470.065102,259.458332 470.460938,259.65625 C470.679689,259.770834 471.044268,259.828125 471.554688,259.828125 C471.690105,259.828125 471.835937,259.825521 471.992188,259.820312 C472.148438,259.815104 472.330728,259.802083 472.539062,259.78125 L472.539062,262 C472.216144,262.09375 471.88021,262.161458 471.53125,262.203125 C471.18229,262.244792 470.80469,262.265625 470.398438,262.265625 C469.085931,262.265625 468.195315,261.929691 467.726562,261.257812 C467.25781,260.585934 467.023438,259.713547 467.023438,258.640625 L467.023438,247.5625 L464.757812,247.5625 L464.757812,245.265625 L467.023438,245.265625 L467.023438,240.59375 Z M485.773438,245.726562 C486.888026,246.283857 487.736976,247.005204 488.320312,247.890625 C488.882815,248.734379 489.257812,249.718744 489.445312,250.84375 C489.61198,251.614587 489.695312,252.843742 489.695312,254.53125 L477.429688,254.53125 C477.481771,256.229175 477.882809,257.591141 478.632812,258.617188 C479.382816,259.643234 480.544263,260.15625 482.117188,260.15625 C483.585945,260.15625 484.757808,259.67188 485.632812,258.703125 C486.132815,258.140622 486.486978,257.489587 486.695312,256.75 L489.460938,256.75 C489.38802,257.364586 489.145835,258.049475 488.734375,258.804688 C488.322915,259.5599 487.861982,260.177081 487.351562,260.65625 C486.497392,261.489587 485.44011,262.052082 484.179688,262.34375 C483.502601,262.510418 482.736983,262.59375 481.882812,262.59375 C479.799469,262.59375 478.033861,261.835945 476.585938,260.320312 C475.138014,258.80468 474.414062,256.682305 474.414062,253.953125 C474.414062,251.265612 475.143222,249.083342 476.601562,247.40625 C478.059903,245.729158 479.966134,244.890625 482.320312,244.890625 C483.507818,244.890625 484.658849,245.169268 485.773438,245.726562 Z M486.804688,252.296875 C486.690104,251.078119 486.424481,250.10417 486.007812,249.375 C485.236975,248.020827 483.95053,247.34375 482.148438,247.34375 C480.856764,247.34375 479.773442,247.809891 478.898438,248.742188 C478.023433,249.674484 477.559896,250.859368 477.507812,252.296875 L486.804688,252.296875 Z M493.148438,245.265625 L495.820312,245.265625 L495.820312,247.640625 C496.611983,246.661453 497.450516,245.958335 498.335938,245.53125 C499.221359,245.104165 500.205724,244.890625 501.289062,244.890625 C503.664074,244.890625 505.268225,245.718742 506.101562,247.375 C506.559898,248.281255 506.789062,249.578117 506.789062,251.265625 L506.789062,262 L503.929688,262 L503.929688,251.453125 C503.929688,250.432287 503.778647,249.609378 503.476562,248.984375 C502.97656,247.942703 502.070319,247.421875 500.757812,247.421875 C500.091142,247.421875 499.544273,247.489583 499.117188,247.625 C498.34635,247.854168 497.669274,248.312497 497.085938,249 C496.617185,249.552086 496.312501,250.122393 496.171875,250.710938 C496.031249,251.299482 495.960938,252.14062 495.960938,253.234375 L495.960938,262 L493.148438,262 L493.148438,245.265625 Z M520.398438,240.59375 L523.242188,240.59375 L523.242188,245.265625 L525.914062,245.265625 L525.914062,247.5625 L523.242188,247.5625 L523.242188,258.484375 C523.242188,259.067711 523.440102,259.458332 523.835938,259.65625 C524.054689,259.770834 524.419268,259.828125 524.929688,259.828125 C525.065105,259.828125 525.210937,259.825521 525.367188,259.820312 C525.523438,259.815104 525.705728,259.802083 525.914062,259.78125 L525.914062,262 C525.591144,262.09375 525.25521,262.161458 524.90625,262.203125 C524.55729,262.244792 524.17969,262.265625 523.773438,262.265625 C522.460931,262.265625 521.570315,261.929691 521.101562,261.257812 C520.63281,260.585934 520.398438,259.713547 520.398438,258.640625 L520.398438,247.5625 L518.132812,247.5625 L518.132812,245.265625 L520.398438,245.265625 L520.398438,240.59375 Z M531.539062,245.265625 L531.539062,256.375 C531.539062,257.229171 531.674478,257.927081 531.945312,258.46875 C532.445315,259.468755 533.377597,259.96875 534.742188,259.96875 C536.700531,259.96875 538.033851,259.093759 538.742188,257.34375 C539.127606,256.406245 539.320312,255.1198 539.320312,253.484375 L539.320312,245.265625 L542.132812,245.265625 L542.132812,262 L539.476562,262 L539.507812,259.53125 C539.143227,260.16667 538.690107,260.703123 538.148438,261.140625 C537.075515,262.015629 535.773445,262.453125 534.242188,262.453125 C531.856759,262.453125 530.231775,261.656258 529.367188,260.0625 C528.898435,259.208329 528.664062,258.067715 528.664062,256.640625 L528.664062,245.265625 L531.539062,245.265625 Z M212.445312,284.15625 C213.62761,285.072921 214.33854,286.65103 214.578125,288.890625 L211.84375,288.890625 C211.677082,287.85937 211.296878,287.002608 210.703125,286.320312 C210.109372,285.638017 209.156257,285.296875 207.84375,285.296875 C206.052074,285.296875 204.770837,286.171866 204,287.921875 C203.499998,289.057297 203.25,290.458325 203.25,292.125 C203.25,293.802092 203.604163,295.213536 204.3125,296.359375 C205.020837,297.505214 206.135409,298.078125 207.65625,298.078125 C208.822923,298.078125 209.747392,297.721358 210.429688,297.007812 C211.111983,296.294267 211.583332,295.317715 211.84375,294.078125 L214.578125,294.078125 C214.265623,296.296886 213.484381,297.919266 212.234375,298.945312 C210.984369,299.971359 209.385426,300.484375 207.4375,300.484375 C205.249989,300.484375 203.505215,299.684904 202.203125,298.085938 C200.901035,296.486971 200.25,294.489595 200.25,292.09375 C200.25,289.156235 200.963535,286.8698 202.390625,285.234375 C203.817715,283.59895 205.635406,282.78125 207.84375,282.78125 C209.729176,282.78125 211.263015,283.239579 212.445312,284.15625 Z M227.867188,296.070312 C228.559899,294.658847 228.90625,293.08855 228.90625,291.359375 C228.90625,289.796867 228.656252,288.526047 228.15625,287.546875 C227.364579,286.005201 226.00001,285.234375 224.0625,285.234375 C222.343741,285.234375 221.093754,285.890618 220.3125,287.203125 C219.531246,288.515632 219.140625,290.098949 219.140625,291.953125 C219.140625,293.734384 219.531246,295.218744 220.3125,296.40625 C221.093754,297.593756 222.333325,298.1875 224.03125,298.1875 C225.895843,298.1875 227.174476,297.481778 227.867188,296.070312 Z M229.609375,284.9375 C231.098966,286.375007 231.84375,288.489569 231.84375,291.28125 C231.84375,293.97918 231.187507,296.208325 229.875,297.96875 C228.562493,299.729175 226.526055,300.609375 223.765625,300.609375 C221.46353,300.609375 219.635423,299.830737 218.28125,298.273438 C216.927077,296.716138 216.25,294.625013 216.25,292 C216.25,289.187486 216.963535,286.947925 218.390625,285.28125 C219.817715,283.614575 221.734363,282.78125 224.140625,282.78125 C226.296886,282.78125 228.119784,283.499993 229.609375,284.9375 Z M227.40625,276.53125 L223.234375,281.046875 L221.078125,281.046875 L223.9375,276.53125 L227.40625,276.53125 Z M238.109375,296.328125 C238.869795,297.536464 240.088533,298.140625 241.765625,298.140625 C243.067715,298.140625 244.138017,297.580735 244.976562,296.460938 C245.815108,295.34114 246.234375,293.734385 246.234375,291.640625 C246.234375,289.526031 245.802088,287.960943 244.9375,286.945312 C244.072912,285.929682 243.005215,285.421875 241.734375,285.421875 C240.317701,285.421875 239.169275,285.963536 238.289062,287.046875 C237.40885,288.130214 236.96875,289.723948 236.96875,291.828125 C236.96875,293.619801 237.348955,295.119786 238.109375,296.328125 Z M244.421875,283.78125 C244.921877,284.093752 245.48958,284.640621 246.125,285.421875 L246.125,276.96875 L248.828125,276.96875 L248.828125,300 L246.296875,300 L246.296875,297.671875 C245.640622,298.70313 244.864588,299.447914 243.96875,299.90625 C243.072912,300.364586 242.046881,300.59375 240.890625,300.59375 C239.026032,300.59375 237.411465,299.809904 236.046875,298.242188 C234.682285,296.674471 234,294.588555 234,291.984375 C234,289.546863 234.62239,287.434905 235.867188,285.648438 C237.111985,283.86197 238.890613,282.96875 241.203125,282.96875 C242.484381,282.96875 243.557287,283.239581 244.421875,283.78125 Z M252.984375,283.34375 L255.84375,283.34375 L255.84375,300 L252.984375,300 L252.984375,283.34375 Z M252.984375,277.046875 L255.84375,277.046875 L255.84375,280.234375 L252.984375,280.234375 L252.984375,277.046875 Z M269.4375,283.9375 C269.968753,284.302085 270.510414,284.83333 271.0625,285.53125 L271.0625,283.421875 L273.65625,283.421875 L273.65625,298.640625 C273.65625,300.765636 273.343753,302.442702 272.71875,303.671875 C271.552077,305.94272 269.348975,307.078125 266.109375,307.078125 C264.307283,307.078125 262.791673,306.674483 261.5625,305.867188 C260.333327,305.059892 259.645834,303.796884 259.5,302.078125 L262.359375,302.078125 C262.494792,302.828129 262.765623,303.406248 263.171875,303.8125 C263.807295,304.437503 264.807285,304.75 266.171875,304.75 C268.328136,304.75 269.73958,303.989591 270.40625,302.46875 C270.802085,301.572912 270.984375,299.97397 270.953125,297.671875 C270.390622,298.526046 269.713546,299.161456 268.921875,299.578125 C268.130204,299.994794 267.08334,300.203125 265.78125,300.203125 C263.968741,300.203125 262.382819,299.559902 261.023438,298.273438 C259.664056,296.986973 258.984375,294.85939 258.984375,291.890625 C258.984375,289.088528 259.669264,286.90105 261.039062,285.328125 C262.408861,283.7552 264.06249,282.96875 266,282.96875 C267.312507,282.96875 268.458328,283.291663 269.4375,283.9375 Z M269.78125,286.953125 C268.927079,285.95312 267.838548,285.453125 266.515625,285.453125 C264.536448,285.453125 263.182295,286.380199 262.453125,288.234375 C262.067706,289.223963 261.875,290.520825 261.875,292.125 C261.875,294.010426 262.257809,295.445308 263.023438,296.429688 C263.789066,297.414067 264.817702,297.90625 266.109375,297.90625 C268.130218,297.90625 269.552079,296.994801 270.375,295.171875 C270.833336,294.14062 271.0625,292.937507 271.0625,291.5625 C271.0625,289.489573 270.635421,287.95313 269.78125,286.953125 Z M288.367188,296.070312 C289.059899,294.658847 289.40625,293.08855 289.40625,291.359375 C289.40625,289.796867 289.156252,288.526047 288.65625,287.546875 C287.864579,286.005201 286.50001,285.234375 284.5625,285.234375 C282.843741,285.234375 281.593754,285.890618 280.8125,287.203125 C280.031246,288.515632 279.640625,290.098949 279.640625,291.953125 C279.640625,293.734384 280.031246,295.218744 280.8125,296.40625 C281.593754,297.593756 282.833325,298.1875 284.53125,298.1875 C286.395843,298.1875 287.674476,297.481778 288.367188,296.070312 Z M290.109375,284.9375 C291.598966,286.375007 292.34375,288.489569 292.34375,291.28125 C292.34375,293.97918 291.687507,296.208325 290.375,297.96875 C289.062493,299.729175 287.026055,300.609375 284.265625,300.609375 C281.96353,300.609375 280.135423,299.830737 278.78125,298.273438 C277.427077,296.716138 276.75,294.625013 276.75,292 C276.75,289.187486 277.463535,286.947925 278.890625,285.28125 C280.317715,283.614575 282.234363,282.78125 284.640625,282.78125 C286.796886,282.78125 288.619784,283.499993 290.109375,284.9375 Z M307.5,296.328125 C308.26042,297.536464 309.479158,298.140625 311.15625,298.140625 C312.45834,298.140625 313.528642,297.580735 314.367188,296.460938 C315.205733,295.34114 315.625,293.734385 315.625,291.640625 C315.625,289.526031 315.192713,287.960943 314.328125,286.945312 C313.463537,285.929682 312.39584,285.421875 311.125,285.421875 C309.708326,285.421875 308.5599,285.963536 307.679688,287.046875 C306.799475,288.130214 306.359375,289.723948 306.359375,291.828125 C306.359375,293.619801 306.73958,295.119786 307.5,296.328125 Z M313.8125,283.78125 C314.312502,284.093752 314.880205,284.640621 315.515625,285.421875 L315.515625,276.96875 L318.21875,276.96875 L318.21875,300 L315.6875,300 L315.6875,297.671875 C315.031247,298.70313 314.255213,299.447914 313.359375,299.90625 C312.463537,300.364586 311.437506,300.59375 310.28125,300.59375 C308.416657,300.59375 306.80209,299.809904 305.4375,298.242188 C304.07291,296.674471 303.390625,294.588555 303.390625,291.984375 C303.390625,289.546863 304.013015,287.434905 305.257812,285.648438 C306.50261,283.86197 308.281238,282.96875 310.59375,282.96875 C311.875006,282.96875 312.947912,283.239581 313.8125,283.78125 Z M332.796875,283.726562 C333.911464,284.283857 334.760414,285.005204 335.34375,285.890625 C335.906253,286.734379 336.281249,287.718744 336.46875,288.84375 C336.635418,289.614587 336.71875,290.843742 336.71875,292.53125 L324.453125,292.53125 C324.505209,294.229175 324.906246,295.591141 325.65625,296.617188 C326.406254,297.643234 327.5677,298.15625 329.140625,298.15625 C330.609382,298.15625 331.781246,297.67188 332.65625,296.703125 C333.156252,296.140622 333.510416,295.489587 333.71875,294.75 L336.484375,294.75 C336.411458,295.364586 336.169273,296.049475 335.757812,296.804688 C335.346352,297.5599 334.885419,298.177081 334.375,298.65625 C333.520829,299.489587 332.463548,300.052082 331.203125,300.34375 C330.526038,300.510418 329.760421,300.59375 328.90625,300.59375 C326.822906,300.59375 325.057299,299.835945 323.609375,298.320312 C322.161451,296.80468 321.4375,294.682305 321.4375,291.953125 C321.4375,289.265612 322.166659,287.083342 323.625,285.40625 C325.083341,283.729158 326.989572,282.890625 329.34375,282.890625 C330.531256,282.890625 331.682286,283.169268 332.796875,283.726562 Z M333.828125,290.296875 C333.713541,289.078119 333.447919,288.10417 333.03125,287.375 C332.260413,286.020827 330.973967,285.34375 329.171875,285.34375 C327.880202,285.34375 326.796879,285.809891 325.921875,286.742188 C325.046871,287.674484 324.583334,288.859368 324.53125,290.296875 L333.828125,290.296875 Z M351.984375,296.328125 C352.744795,297.536464 353.963533,298.140625 355.640625,298.140625 C356.942715,298.140625 358.013017,297.580735 358.851562,296.460938 C359.690108,295.34114 360.109375,293.734385 360.109375,291.640625 C360.109375,289.526031 359.677088,287.960943 358.8125,286.945312 C357.947912,285.929682 356.880215,285.421875 355.609375,285.421875 C354.192701,285.421875 353.044275,285.963536 352.164062,287.046875 C351.28385,288.130214 350.84375,289.723948 350.84375,291.828125 C350.84375,293.619801 351.223955,295.119786 351.984375,296.328125 Z M358.296875,283.78125 C358.796877,284.093752 359.36458,284.640621 360,285.421875 L360,276.96875 L362.703125,276.96875 L362.703125,300 L360.171875,300 L360.171875,297.671875 C359.515622,298.70313 358.739588,299.447914 357.84375,299.90625 C356.947912,300.364586 355.921881,300.59375 354.765625,300.59375 C352.901032,300.59375 351.286465,299.809904 349.921875,298.242188 C348.557285,296.674471 347.875,294.588555 347.875,291.984375 C347.875,289.546863 348.49739,287.434905 349.742188,285.648438 C350.986985,283.86197 352.765613,282.96875 355.078125,282.96875 C356.359381,282.96875 357.432287,283.239581 358.296875,283.78125 Z M377.28125,283.726562 C378.395839,284.283857 379.244789,285.005204 379.828125,285.890625 C380.390628,286.734379 380.765624,287.718744 380.953125,288.84375 C381.119793,289.614587 381.203125,290.843742 381.203125,292.53125 L368.9375,292.53125 C368.989584,294.229175 369.390621,295.591141 370.140625,296.617188 C370.890629,297.643234 372.052075,298.15625 373.625,298.15625 C375.093757,298.15625 376.265621,297.67188 377.140625,296.703125 C377.640627,296.140622 377.994791,295.489587 378.203125,294.75 L380.96875,294.75 C380.895833,295.364586 380.653648,296.049475 380.242188,296.804688 C379.830727,297.5599 379.369794,298.177081 378.859375,298.65625 C378.005204,299.489587 376.947923,300.052082 375.6875,300.34375 C375.010413,300.510418 374.244796,300.59375 373.390625,300.59375 C371.307281,300.59375 369.541674,299.835945 368.09375,298.320312 C366.645826,296.80468 365.921875,294.682305 365.921875,291.953125 C365.921875,289.265612 366.651034,287.083342 368.109375,285.40625 C369.567716,283.729158 371.473947,282.890625 373.828125,282.890625 C375.015631,282.890625 376.166661,283.169268 377.28125,283.726562 Z M378.3125,290.296875 C378.197916,289.078119 377.932294,288.10417 377.515625,287.375 C376.744788,286.020827 375.458342,285.34375 373.65625,285.34375 C372.364577,285.34375 371.281254,285.809891 370.40625,286.742188 C369.531246,287.674484 369.067709,288.859368 369.015625,290.296875 L378.3125,290.296875 Z M386.328125,294.75 C386.411459,295.687505 386.645831,296.406248 387.03125,296.90625 C387.739587,297.812505 388.968741,298.265625 390.71875,298.265625 C391.760422,298.265625 392.677079,298.039065 393.46875,297.585938 C394.260421,297.13281 394.65625,296.432296 394.65625,295.484375 C394.65625,294.765621 394.338545,294.218752 393.703125,293.84375 C393.296873,293.614582 392.494798,293.34896 391.296875,293.046875 L389.0625,292.484375 C387.63541,292.130207 386.583337,291.734377 385.90625,291.296875 C384.697911,290.536455 384.09375,289.484382 384.09375,288.140625 C384.09375,286.557284 384.664057,285.276047 385.804688,284.296875 C386.945318,283.317703 388.479157,282.828125 390.40625,282.828125 C392.927096,282.828125 394.744786,283.567701 395.859375,285.046875 C396.557295,285.98438 396.895833,286.994786 396.875,288.078125 L394.21875,288.078125 C394.166666,287.442705 393.94271,286.864586 393.546875,286.34375 C392.901038,285.604163 391.781258,285.234375 390.1875,285.234375 C389.124995,285.234375 388.320315,285.437498 387.773438,285.84375 C387.22656,286.250002 386.953125,286.786455 386.953125,287.453125 C386.953125,288.182295 387.312496,288.765623 388.03125,289.203125 C388.447919,289.463543 389.062496,289.692707 389.875,289.890625 L391.734375,290.34375 C393.755218,290.833336 395.109372,291.307289 395.796875,291.765625 C396.89063,292.484379 397.4375,293.614576 397.4375,295.15625 C397.4375,296.645841 396.872401,297.932286 395.742188,299.015625 C394.611974,300.098964 392.890637,300.640625 390.578125,300.640625 C388.088529,300.640625 386.325526,300.075526 385.289062,298.945312 C384.252599,297.815099 383.697917,296.416675 383.625,294.75 L386.328125,294.75 Z M411.710938,284.15625 C412.893235,285.072921 413.604165,286.65103 413.84375,288.890625 L411.109375,288.890625 C410.942707,287.85937 410.562503,287.002608 409.96875,286.320312 C409.374997,285.638017 408.421882,285.296875 407.109375,285.296875 C405.317699,285.296875 404.036462,286.171866 403.265625,287.921875 C402.765623,289.057297 402.515625,290.458325 402.515625,292.125 C402.515625,293.802092 402.869788,295.213536 403.578125,296.359375 C404.286462,297.505214 405.401034,298.078125 406.921875,298.078125 C408.088548,298.078125 409.013017,297.721358 409.695312,297.007812 C410.377608,296.294267 410.848957,295.317715 411.109375,294.078125 L413.84375,294.078125 C413.531248,296.296886 412.750006,297.919266 411.5,298.945312 C410.249994,299.971359 408.651051,300.484375 406.703125,300.484375 C404.515614,300.484375 402.77084,299.684904 401.46875,298.085938 C400.16666,296.486971 399.515625,294.489595 399.515625,292.09375 C399.515625,289.156235 400.22916,286.8698 401.65625,285.234375 C403.08334,283.59895 404.901031,282.78125 407.109375,282.78125 C408.994801,282.78125 410.52864,283.239579 411.710938,284.15625 Z M419.46875,283.265625 L419.46875,294.375 C419.46875,295.229171 419.604165,295.927081 419.875,296.46875 C420.375002,297.468755 421.307285,297.96875 422.671875,297.96875 C424.630218,297.96875 425.963538,297.093759 426.671875,295.34375 C427.057294,294.406245 427.25,293.1198 427.25,291.484375 L427.25,283.265625 L430.0625,283.265625 L430.0625,300 L427.40625,300 L427.4375,297.53125 C427.072915,298.16667 426.619794,298.703123 426.078125,299.140625 C425.005203,300.015629 423.703133,300.453125 422.171875,300.453125 C419.786446,300.453125 418.161463,299.656258 417.296875,298.0625 C416.828123,297.208329 416.59375,296.067715 416.59375,294.640625 L416.59375,283.265625 L419.46875,283.265625 Z M444.875,283.726562 C445.989589,284.283857 446.838539,285.005204 447.421875,285.890625 C447.984378,286.734379 448.359374,287.718744 448.546875,288.84375 C448.713543,289.614587 448.796875,290.843742 448.796875,292.53125 L436.53125,292.53125 C436.583334,294.229175 436.984371,295.591141 437.734375,296.617188 C438.484379,297.643234 439.645825,298.15625 441.21875,298.15625 C442.687507,298.15625 443.859371,297.67188 444.734375,296.703125 C445.234377,296.140622 445.588541,295.489587 445.796875,294.75 L448.5625,294.75 C448.489583,295.364586 448.247398,296.049475 447.835938,296.804688 C447.424477,297.5599 446.963544,298.177081 446.453125,298.65625 C445.598954,299.489587 444.541673,300.052082 443.28125,300.34375 C442.604163,300.510418 441.838546,300.59375 440.984375,300.59375 C438.901031,300.59375 437.135424,299.835945 435.6875,298.320312 C434.239576,296.80468 433.515625,294.682305 433.515625,291.953125 C433.515625,289.265612 434.244784,287.083342 435.703125,285.40625 C437.161466,283.729158 439.067697,282.890625 441.421875,282.890625 C442.609381,282.890625 443.760411,283.169268 444.875,283.726562 Z M445.90625,290.296875 C445.791666,289.078119 445.526044,288.10417 445.109375,287.375 C444.338538,286.020827 443.052092,285.34375 441.25,285.34375 C439.958327,285.34375 438.875004,285.809891 438,286.742188 C437.124996,287.674484 436.661459,288.859368 436.609375,290.296875 L445.90625,290.296875 Z M452.25,283.265625 L454.921875,283.265625 L454.921875,285.640625 C455.713546,284.661453 456.552079,283.958335 457.4375,283.53125 C458.322921,283.104165 459.307286,282.890625 460.390625,282.890625 C462.765637,282.890625 464.369787,283.718742 465.203125,285.375 C465.661461,286.281255 465.890625,287.578117 465.890625,289.265625 L465.890625,300 L463.03125,300 L463.03125,289.453125 C463.03125,288.432287 462.88021,287.609378 462.578125,286.984375 C462.078123,285.942703 461.171882,285.421875 459.859375,285.421875 C459.192705,285.421875 458.645835,285.489583 458.21875,285.625 C457.447913,285.854168 456.770836,286.312497 456.1875,287 C455.718748,287.552086 455.414063,288.122393 455.273438,288.710938 C455.132812,289.299482 455.0625,290.14062 455.0625,291.234375 L455.0625,300 L452.25,300 L452.25,283.265625 Z M470.609375,278.59375 L473.453125,278.59375 L473.453125,283.265625 L476.125,283.265625 L476.125,285.5625 L473.453125,285.5625 L473.453125,296.484375 C473.453125,297.067711 473.65104,297.458332 474.046875,297.65625 C474.265626,297.770834 474.630206,297.828125 475.140625,297.828125 C475.276042,297.828125 475.421874,297.825521 475.578125,297.820312 C475.734376,297.815104 475.916666,297.802083 476.125,297.78125 L476.125,300 C475.802082,300.09375 475.466148,300.161458 475.117188,300.203125 C474.768227,300.244792 474.390627,300.265625 473.984375,300.265625 C472.671868,300.265625 471.781252,299.929691 471.3125,299.257812 C470.843748,298.585934 470.609375,297.713547 470.609375,296.640625 L470.609375,285.5625 L468.34375,285.5625 L468.34375,283.265625 L470.609375,283.265625 L470.609375,278.59375 Z M489.414062,296.070312 C490.106774,294.658847 490.453125,293.08855 490.453125,291.359375 C490.453125,289.796867 490.203127,288.526047 489.703125,287.546875 C488.911454,286.005201 487.546885,285.234375 485.609375,285.234375 C483.890616,285.234375 482.640629,285.890618 481.859375,287.203125 C481.078121,288.515632 480.6875,290.098949 480.6875,291.953125 C480.6875,293.734384 481.078121,295.218744 481.859375,296.40625 C482.640629,297.593756 483.8802,298.1875 485.578125,298.1875 C487.442718,298.1875 488.721351,297.481778 489.414062,296.070312 Z M491.15625,284.9375 C492.645841,286.375007 493.390625,288.489569 493.390625,291.28125 C493.390625,293.97918 492.734382,296.208325 491.421875,297.96875 C490.109368,299.729175 488.07293,300.609375 485.3125,300.609375 C483.010405,300.609375 481.182298,299.830737 479.828125,298.273438 C478.473952,296.716138 477.796875,294.625013 477.796875,292 C477.796875,289.187486 478.51041,286.947925 479.9375,285.28125 C481.36459,283.614575 483.281238,282.78125 485.6875,282.78125 C487.843761,282.78125 489.666659,283.499993 491.15625,284.9375 Z" id="Ingresa-tus-datos-y"></path>
        </g>
    </g>
</svg>