<?xml version="1.0" encoding="UTF-8"?>
<svg width="382px" height="99px" viewBox="0 0 382 99" version="1.1" xmlns="http://www.w3.org/2000/svg" xmlns:xlink="http://www.w3.org/1999/xlink">
    <!-- Generator: Sketch 47.1 (45422) - http://www.bohemiancoding.com/sketch -->
    <title>Group 3</title>
    <desc>Created with Sketch.</desc>
    <defs></defs>
    <g id="Home" stroke="none" stroke-width="1" fill="none" fill-rule="evenodd">
        <g id="Artboard" transform="translate(-207.000000, -421.000000)">
            <g id="Group-3" transform="translate(207.000000, 421.000000)">
                <path d="M0.25,42.046875 L4.703125,42.046875 L11.296875,61.453125 L17.84375,42.046875 L22.25,42.046875 L22.25,65 L19.296875,65 L19.296875,51.453125 C19.296875,50.9843727 19.3072916,50.2083387 19.328125,49.125 C19.3489584,48.0416613 19.359375,46.8802145 19.359375,45.640625 L12.8125,65 L9.734375,65 L3.140625,45.640625 L3.140625,46.34375 C3.140625,46.9062528 3.1536457,47.7630151 3.1796875,48.9140625 C3.2057293,50.0651099 3.21875,50.9114556 3.21875,51.453125 L3.21875,65 L0.25,65 L0.25,42.046875 Z M29.421875,48.265625 L29.421875,59.375 C29.421875,60.2291709 29.5572903,60.9270806 29.828125,61.46875 C30.3281275,62.468755 31.2604098,62.96875 32.625,62.96875 C34.5833431,62.96875 35.9166631,62.0937588 36.625,60.34375 C37.0104186,59.4062453 37.203125,58.1197998 37.203125,56.484375 L37.203125,48.265625 L40.015625,48.265625 L40.015625,65 L37.359375,65 L37.390625,62.53125 C37.0260398,63.1666698 36.5729194,63.7031228 36.03125,64.140625 C34.958328,65.0156294 33.6562577,65.453125 32.125,65.453125 C29.7395714,65.453125 28.1145877,64.656258 27.25,63.0625 C26.7812477,62.2083291 26.546875,61.0677155 26.546875,59.640625 L26.546875,48.265625 L29.421875,48.265625 Z M54.828125,48.7265625 C55.9427139,49.283857 56.7916637,50.0052039 57.375,50.890625 C57.9375028,51.7343792 58.3124991,52.7187444 58.5,53.84375 C58.6666675,54.6145872 58.75,55.8437416 58.75,57.53125 L46.484375,57.53125 C46.5364586,59.2291752 46.9374962,60.5911407 47.6875,61.6171875 C48.4375037,62.6432343 49.5989505,63.15625 51.171875,63.15625 C52.6406323,63.15625 53.8124956,62.6718798 54.6875,61.703125 C55.1875025,61.1406222 55.5416656,60.489587 55.75,59.75 L58.515625,59.75 C58.442708,60.3645864 58.2005229,61.0494754 57.7890625,61.8046875 C57.3776021,62.5598996 56.9166692,63.1770809 56.40625,63.65625 C55.5520791,64.4895875 54.494798,65.0520819 53.234375,65.34375 C52.5572883,65.5104175 51.7916709,65.59375 50.9375,65.59375 C48.8541563,65.59375 47.0885489,64.8359451 45.640625,63.3203125 C44.1927011,61.8046799 43.46875,59.6823053 43.46875,56.953125 C43.46875,54.2656116 44.1979094,52.0833417 45.65625,50.40625 C47.1145906,48.7291583 49.0208216,47.890625 51.375,47.890625 C52.5625059,47.890625 53.7135361,48.169268 54.828125,48.7265625 Z M55.859375,55.296875 C55.7447911,54.0781189 55.4791687,53.1041703 55.0625,52.375 C54.2916628,51.0208266 53.0052173,50.34375 51.203125,50.34375 C49.9114519,50.34375 48.8281294,50.8098912 47.953125,51.7421875 C47.0781206,52.6744838 46.6145836,53.8593678 46.5625,55.296875 L55.859375,55.296875 Z M63.875,59.75 C63.9583338,60.6875047 64.1927064,61.4062475 64.578125,61.90625 C65.2864619,62.8125045 66.5156162,63.265625 68.265625,63.265625 C69.3072969,63.265625 70.2239544,63.0390648 71.015625,62.5859375 C71.8072956,62.1328102 72.203125,61.4322964 72.203125,60.484375 C72.203125,59.7656214 71.8854198,59.2187519 71.25,58.84375 C70.843748,58.6145822 70.0416727,58.3489598 68.84375,58.046875 L66.609375,57.484375 C65.1822845,57.1302066 64.1302117,56.7343772 63.453125,56.296875 C62.2447856,55.5364545 61.640625,54.4843817 61.640625,53.140625 C61.640625,51.5572838 62.2109318,50.2760466 63.3515625,49.296875 C64.4921932,48.3177034 66.026032,47.828125 67.953125,47.828125 C70.4739709,47.828125 72.2916611,48.5677009 73.40625,50.046875 C74.1041702,50.9843797 74.4427084,51.9947863 74.421875,53.078125 L71.765625,53.078125 C71.7135414,52.4427052 71.4895853,51.8645859 71.09375,51.34375 C70.4479134,50.604163 69.328133,50.234375 67.734375,50.234375 C66.6718697,50.234375 65.8671902,50.437498 65.3203125,50.84375 C64.7734348,51.250002 64.5,51.786455 64.5,52.453125 C64.5,53.1822953 64.8593714,53.7656228 65.578125,54.203125 C65.9947937,54.463543 66.6093709,54.6927073 67.421875,54.890625 L69.28125,55.34375 C71.3020934,55.8333358 72.6562466,56.3072894 73.34375,56.765625 C74.4375055,57.4843786 74.984375,58.6145756 74.984375,60.15625 C74.984375,61.6458408 74.4192765,62.9322863 73.2890625,64.015625 C72.1588485,65.0989637 70.4375116,65.640625 68.125,65.640625 C65.6354042,65.640625 63.872401,65.0755265 62.8359375,63.9453125 C61.799474,62.8150985 61.244792,61.416675 61.171875,59.75 L63.875,59.75 Z M78.765625,43.59375 L81.609375,43.59375 L81.609375,48.265625 L84.28125,48.265625 L84.28125,50.5625 L81.609375,50.5625 L81.609375,61.484375 C81.609375,62.0677113 81.8072897,62.4583323 82.203125,62.65625 C82.4218761,62.7708339 82.7864558,62.828125 83.296875,62.828125 C83.4322923,62.828125 83.5781242,62.8255209 83.734375,62.8203125 C83.8906258,62.8151041 84.0729156,62.8020834 84.28125,62.78125 L84.28125,65 C83.9583317,65.0937505 83.6223976,65.1614581 83.2734375,65.203125 C82.9244774,65.2447919 82.546877,65.265625 82.140625,65.265625 C80.8281184,65.265625 79.9375023,64.9296909 79.46875,64.2578125 C78.9999977,63.5859341 78.765625,62.713547 78.765625,61.640625 L78.765625,50.5625 L76.5,50.5625 L76.5,48.265625 L78.765625,48.265625 L78.765625,43.59375 Z M87.171875,48.265625 L89.84375,48.265625 L89.84375,51.15625 C90.0625011,50.5937472 90.5989541,49.9088582 91.453125,49.1015625 C92.3072959,48.2942668 93.2916611,47.890625 94.40625,47.890625 C94.4583336,47.890625 94.5468744,47.8958333 94.671875,47.90625 C94.7968756,47.9166667 95.0104152,47.9374998 95.3125,47.96875 L95.3125,50.9375 C95.1458325,50.9062498 94.9921882,50.8854167 94.8515625,50.875 C94.7109368,50.8645833 94.5572925,50.859375 94.390625,50.859375 C92.9739513,50.859375 91.8854205,51.3150996 91.125,52.2265625 C90.3645795,53.1380254 89.984375,54.1874941 89.984375,55.375 L89.984375,65 L87.171875,65 L87.171875,48.265625 Z M100.796875,62.46875 C101.390628,62.9375023 102.093746,63.171875 102.90625,63.171875 C103.895838,63.171875 104.854162,62.9427106 105.78125,62.484375 C107.343758,61.7239545 108.125,60.4791753 108.125,58.75 L108.125,56.484375 C107.781248,56.7031261 107.338544,56.8854159 106.796875,57.03125 C106.255206,57.1770841 105.723961,57.2812497 105.203125,57.34375 L103.5,57.5625 C102.479162,57.6979173 101.713544,57.9114569 101.203125,58.203125 C100.338537,58.6927108 99.90625,59.473953 99.90625,60.546875 C99.90625,61.3593791 100.203122,61.9999977 100.796875,62.46875 Z M106.71875,54.859375 C107.364587,54.7760412 107.796874,54.5052106 108.015625,54.046875 C108.140626,53.7968738 108.203125,53.4375023 108.203125,52.96875 C108.203125,52.0104119 107.861983,51.3151063 107.179688,50.8828125 C106.497392,50.4505187 105.52084,50.234375 104.25,50.234375 C102.781243,50.234375 101.739586,50.6302044 101.125,51.421875 C100.781248,51.8593772 100.557292,52.5104123 100.453125,53.375 L97.828125,53.375 C97.8802086,51.3124897 98.5494727,49.8776082 99.8359375,49.0703125 C101.122402,48.2630168 102.614575,47.859375 104.3125,47.859375 C106.28126,47.859375 107.880202,48.2343712 109.109375,48.984375 C110.328131,49.7343788 110.9375,50.9010338 110.9375,52.484375 L110.9375,62.125 C110.9375,62.4166681 110.997395,62.6510408 111.117188,62.828125 C111.23698,63.0052092 111.489581,63.09375 111.875,63.09375 C112.000001,63.09375 112.140624,63.0859376 112.296875,63.0703125 C112.453126,63.0546874 112.619791,63.0312502 112.796875,63 L112.796875,65.078125 C112.359373,65.2031256 112.026043,65.2812498 111.796875,65.3125 C111.567707,65.3437502 111.25521,65.359375 110.859375,65.359375 C109.89062,65.359375 109.187502,65.0156284 108.75,64.328125 C108.520832,63.9635398 108.359375,63.44792 108.265625,62.78125 C107.692705,63.5312538 106.869797,64.1822889 105.796875,64.734375 C104.723953,65.2864611 103.541673,65.5625 102.25,65.5625 C100.697909,65.5625 99.4296924,65.0911505 98.4453125,64.1484375 C97.4609326,63.2057245 96.96875,62.0260487 96.96875,60.609375 C96.96875,59.0572839 97.4531202,57.8541709 98.421875,57 C99.3906298,56.1458291 100.66145,55.6197927 102.234375,55.421875 L106.71875,54.859375 Z M125,43.59375 L127.84375,43.59375 L127.84375,48.265625 L130.515625,48.265625 L130.515625,50.5625 L127.84375,50.5625 L127.84375,61.484375 C127.84375,62.0677113 128.041665,62.4583323 128.4375,62.65625 C128.656251,62.7708339 129.020831,62.828125 129.53125,62.828125 C129.666667,62.828125 129.812499,62.8255209 129.96875,62.8203125 C130.125001,62.8151041 130.307291,62.8020834 130.515625,62.78125 L130.515625,65 C130.192707,65.0937505 129.856773,65.1614581 129.507812,65.203125 C129.158852,65.2447919 128.781252,65.265625 128.375,65.265625 C127.062493,65.265625 126.171877,64.9296909 125.703125,64.2578125 C125.234373,63.5859341 125,62.713547 125,61.640625 L125,50.5625 L122.734375,50.5625 L122.734375,48.265625 L125,48.265625 L125,43.59375 Z M136.140625,48.265625 L136.140625,59.375 C136.140625,60.2291709 136.27604,60.9270806 136.546875,61.46875 C137.046877,62.468755 137.97916,62.96875 139.34375,62.96875 C141.302093,62.96875 142.635413,62.0937588 143.34375,60.34375 C143.729169,59.4062453 143.921875,58.1197998 143.921875,56.484375 L143.921875,48.265625 L146.734375,48.265625 L146.734375,65 L144.078125,65 L144.109375,62.53125 C143.74479,63.1666698 143.291669,63.7031228 142.75,64.140625 C141.677078,65.0156294 140.375008,65.453125 138.84375,65.453125 C136.458321,65.453125 134.833338,64.656258 133.96875,63.0625 C133.499998,62.2083291 133.265625,61.0677155 133.265625,59.640625 L133.265625,48.265625 L136.140625,48.265625 Z M143.359375,41.53125 L139.1875,46.046875 L137.03125,46.046875 L139.890625,41.53125 L143.359375,41.53125 Z M171.070312,49.15625 C172.25261,50.0729212 172.96354,51.6510305 173.203125,53.890625 L170.46875,53.890625 C170.302082,52.8593698 169.921878,52.0026076 169.328125,51.3203125 C168.734372,50.6380174 167.781257,50.296875 166.46875,50.296875 C164.677074,50.296875 163.395837,51.1718662 162.625,52.921875 C162.124998,54.0572973 161.875,55.458325 161.875,57.125 C161.875,58.8020917 162.229163,60.2135359 162.9375,61.359375 C163.645837,62.5052141 164.760409,63.078125 166.28125,63.078125 C167.447923,63.078125 168.372392,62.7213577 169.054688,62.0078125 C169.736983,61.2942673 170.208332,60.3177145 170.46875,59.078125 L173.203125,59.078125 C172.890623,61.2968861 172.109381,62.9192657 170.859375,63.9453125 C169.609369,64.9713593 168.010426,65.484375 166.0625,65.484375 C163.874989,65.484375 162.130215,64.6849038 160.828125,63.0859375 C159.526035,61.4869712 158.875,59.4895953 158.875,57.09375 C158.875,54.1562353 159.588535,51.8697998 161.015625,50.234375 C162.442715,48.5989502 164.260406,47.78125 166.46875,47.78125 C168.354176,47.78125 169.888015,48.2395788 171.070312,49.15625 Z M178.828125,48.265625 L178.828125,59.375 C178.828125,60.2291709 178.96354,60.9270806 179.234375,61.46875 C179.734377,62.468755 180.66666,62.96875 182.03125,62.96875 C183.989593,62.96875 185.322913,62.0937588 186.03125,60.34375 C186.416669,59.4062453 186.609375,58.1197998 186.609375,56.484375 L186.609375,48.265625 L189.421875,48.265625 L189.421875,65 L186.765625,65 L186.796875,62.53125 C186.43229,63.1666698 185.979169,63.7031228 185.4375,64.140625 C184.364578,65.0156294 183.062508,65.453125 181.53125,65.453125 C179.145821,65.453125 177.520838,64.656258 176.65625,63.0625 C176.187498,62.2083291 175.953125,61.0677155 175.953125,59.640625 L175.953125,48.265625 L178.828125,48.265625 Z M204.148438,61.4609375 C205.018234,60.3619737 205.453125,58.7187609 205.453125,56.53125 C205.453125,55.19791 205.260419,54.0520881 204.875,53.09375 C204.14583,51.2499908 202.81251,50.328125 200.875,50.328125 C198.927074,50.328125 197.593754,51.3020736 196.875,53.25 C196.489581,54.2916719 196.296875,55.6145753 196.296875,57.21875 C196.296875,58.5104231 196.489581,59.6093705 196.875,60.515625 C197.60417,62.2448003 198.93749,63.109375 200.875,63.109375 C202.187507,63.109375 203.278641,62.5599013 204.148438,61.4609375 Z M193.59375,48.34375 L196.328125,48.34375 L196.328125,50.5625 C196.890628,49.8020795 197.505205,49.2135437 198.171875,48.796875 C199.119796,48.1718719 200.234369,47.859375 201.515625,47.859375 C203.411468,47.859375 205.020827,48.5859302 206.34375,50.0390625 C207.666673,51.4921948 208.328125,53.5676948 208.328125,56.265625 C208.328125,59.9114766 207.37501,62.5156172 205.46875,64.078125 C204.260411,65.0677133 202.854175,65.5625 201.25,65.5625 C199.989577,65.5625 198.932296,65.2864611 198.078125,64.734375 C197.578123,64.4218734 197.020836,63.8854205 196.40625,63.125 L196.40625,71.671875 L193.59375,71.671875 L193.59375,48.34375 Z M222.085938,61.0703125 C222.778649,59.6588471 223.125,58.0885503 223.125,56.359375 C223.125,54.7968672 222.875002,53.5260466 222.375,52.546875 C221.583329,51.0052006 220.21876,50.234375 218.28125,50.234375 C216.562491,50.234375 215.312504,50.8906184 214.53125,52.203125 C213.749996,53.5156316 213.359375,55.0989491 213.359375,56.953125 C213.359375,58.7343839 213.749996,60.2187441 214.53125,61.40625 C215.312504,62.5937559 216.552075,63.1875 218.25,63.1875 C220.114593,63.1875 221.393226,62.4817779 222.085938,61.0703125 Z M223.828125,49.9375 C225.317716,51.3750072 226.0625,53.4895694 226.0625,56.28125 C226.0625,58.9791802 225.406257,61.2083245 224.09375,62.96875 C222.781243,64.7291755 220.744805,65.609375 217.984375,65.609375 C215.68228,65.609375 213.854173,64.830737 212.5,63.2734375 C211.145827,61.716138 210.46875,59.6250131 210.46875,57 C210.46875,54.1874859 211.182285,51.947925 212.609375,50.28125 C214.036465,48.614575 215.953113,47.78125 218.359375,47.78125 C220.515636,47.78125 222.338534,48.4999928 223.828125,49.9375 Z M221.625,41.53125 L217.453125,46.046875 L215.296875,46.046875 L218.15625,41.53125 L221.625,41.53125 Z M229.40625,48.265625 L232.078125,48.265625 L232.078125,50.640625 C232.869796,49.6614534 233.708329,48.9583355 234.59375,48.53125 C235.479171,48.1041645 236.463536,47.890625 237.546875,47.890625 C239.921887,47.890625 241.526038,48.7187417 242.359375,50.375 C242.817711,51.2812545 243.046875,52.5781166 243.046875,54.265625 L243.046875,65 L240.1875,65 L240.1875,54.453125 C240.1875,53.4322866 240.03646,52.6093781 239.734375,51.984375 C239.234373,50.9427031 238.328132,50.421875 237.015625,50.421875 C236.348955,50.421875 235.802085,50.4895827 235.375,50.625 C234.604163,50.8541678 233.927086,51.3124966 233.34375,52 C232.874998,52.5520861 232.570313,53.1223929 232.429688,53.7109375 C232.289062,54.2994821 232.21875,55.1406195 232.21875,56.234375 L232.21875,65 L229.40625,65 L229.40625,48.265625 Z M266.515625,48.7265625 C267.630214,49.283857 268.479164,50.0052039 269.0625,50.890625 C269.625003,51.7343792 269.999999,52.7187444 270.1875,53.84375 C270.354168,54.6145872 270.4375,55.8437416 270.4375,57.53125 L258.171875,57.53125 C258.223959,59.2291752 258.624996,60.5911407 259.375,61.6171875 C260.125004,62.6432343 261.28645,63.15625 262.859375,63.15625 C264.328132,63.15625 265.499996,62.6718798 266.375,61.703125 C266.875002,61.1406222 267.229166,60.489587 267.4375,59.75 L270.203125,59.75 C270.130208,60.3645864 269.888023,61.0494754 269.476562,61.8046875 C269.065102,62.5598996 268.604169,63.1770809 268.09375,63.65625 C267.239579,64.4895875 266.182298,65.0520819 264.921875,65.34375 C264.244788,65.5104175 263.479171,65.59375 262.625,65.59375 C260.541656,65.59375 258.776049,64.8359451 257.328125,63.3203125 C255.880201,61.8046799 255.15625,59.6823053 255.15625,56.953125 C255.15625,54.2656116 255.885409,52.0833417 257.34375,50.40625 C258.802091,48.7291583 260.708322,47.890625 263.0625,47.890625 C264.250006,47.890625 265.401036,48.169268 266.515625,48.7265625 Z M267.546875,55.296875 C267.432291,54.0781189 267.166669,53.1041703 266.75,52.375 C265.979163,51.0208266 264.692717,50.34375 262.890625,50.34375 C261.598952,50.34375 260.515629,50.8098912 259.640625,51.7421875 C258.765621,52.6744838 258.302084,53.8593678 258.25,55.296875 L267.546875,55.296875 Z M273.890625,48.265625 L276.5625,48.265625 L276.5625,50.640625 C277.354171,49.6614534 278.192704,48.9583355 279.078125,48.53125 C279.963546,48.1041645 280.947911,47.890625 282.03125,47.890625 C284.406262,47.890625 286.010412,48.7187417 286.84375,50.375 C287.302086,51.2812545 287.53125,52.5781166 287.53125,54.265625 L287.53125,65 L284.671875,65 L284.671875,54.453125 C284.671875,53.4322866 284.520835,52.6093781 284.21875,51.984375 C283.718748,50.9427031 282.812507,50.421875 281.5,50.421875 C280.83333,50.421875 280.28646,50.4895827 279.859375,50.625 C279.088538,50.8541678 278.411461,51.3124966 277.828125,52 C277.359373,52.5520861 277.054688,53.1223929 276.914062,53.7109375 C276.773437,54.2994821 276.703125,55.1406195 276.703125,56.234375 L276.703125,65 L273.890625,65 L273.890625,48.265625 Z M311.632812,49.15625 C312.81511,50.0729212 313.52604,51.6510305 313.765625,53.890625 L311.03125,53.890625 C310.864582,52.8593698 310.484378,52.0026076 309.890625,51.3203125 C309.296872,50.6380174 308.343757,50.296875 307.03125,50.296875 C305.239574,50.296875 303.958337,51.1718662 303.1875,52.921875 C302.687498,54.0572973 302.4375,55.458325 302.4375,57.125 C302.4375,58.8020917 302.791663,60.2135359 303.5,61.359375 C304.208337,62.5052141 305.322909,63.078125 306.84375,63.078125 C308.010423,63.078125 308.934892,62.7213577 309.617188,62.0078125 C310.299483,61.2942673 310.770832,60.3177145 311.03125,59.078125 L313.765625,59.078125 C313.453123,61.2968861 312.671881,62.9192657 311.421875,63.9453125 C310.171869,64.9713593 308.572926,65.484375 306.625,65.484375 C304.437489,65.484375 302.692715,64.6849038 301.390625,63.0859375 C300.088535,61.4869712 299.4375,59.4895953 299.4375,57.09375 C299.4375,54.1562353 300.151035,51.8697998 301.578125,50.234375 C303.005215,48.5989502 304.822906,47.78125 307.03125,47.78125 C308.916676,47.78125 310.450515,48.2395788 311.632812,49.15625 Z M319.625,62.46875 C320.218753,62.9375023 320.921871,63.171875 321.734375,63.171875 C322.723963,63.171875 323.682287,62.9427106 324.609375,62.484375 C326.171883,61.7239545 326.953125,60.4791753 326.953125,58.75 L326.953125,56.484375 C326.609373,56.7031261 326.166669,56.8854159 325.625,57.03125 C325.083331,57.1770841 324.552086,57.2812497 324.03125,57.34375 L322.328125,57.5625 C321.307287,57.6979173 320.541669,57.9114569 320.03125,58.203125 C319.166662,58.6927108 318.734375,59.473953 318.734375,60.546875 C318.734375,61.3593791 319.031247,61.9999977 319.625,62.46875 Z M325.546875,54.859375 C326.192712,54.7760412 326.624999,54.5052106 326.84375,54.046875 C326.968751,53.7968738 327.03125,53.4375023 327.03125,52.96875 C327.03125,52.0104119 326.690108,51.3151063 326.007812,50.8828125 C325.325517,50.4505187 324.348965,50.234375 323.078125,50.234375 C321.609368,50.234375 320.567711,50.6302044 319.953125,51.421875 C319.609373,51.8593772 319.385417,52.5104123 319.28125,53.375 L316.65625,53.375 C316.708334,51.3124897 317.377598,49.8776082 318.664062,49.0703125 C319.950527,48.2630168 321.4427,47.859375 323.140625,47.859375 C325.109385,47.859375 326.708327,48.2343712 327.9375,48.984375 C329.156256,49.7343788 329.765625,50.9010338 329.765625,52.484375 L329.765625,62.125 C329.765625,62.4166681 329.82552,62.6510408 329.945312,62.828125 C330.065105,63.0052092 330.317706,63.09375 330.703125,63.09375 C330.828126,63.09375 330.968749,63.0859376 331.125,63.0703125 C331.281251,63.0546874 331.447916,63.0312502 331.625,63 L331.625,65.078125 C331.187498,65.2031256 330.854168,65.2812498 330.625,65.3125 C330.395832,65.3437502 330.083335,65.359375 329.6875,65.359375 C328.718745,65.359375 328.015627,65.0156284 327.578125,64.328125 C327.348957,63.9635398 327.1875,63.44792 327.09375,62.78125 C326.52083,63.5312538 325.697922,64.1822889 324.625,64.734375 C323.552078,65.2864611 322.369798,65.5625 321.078125,65.5625 C319.526034,65.5625 318.257817,65.0911505 317.273438,64.1484375 C316.289058,63.2057245 315.796875,62.0260487 315.796875,60.609375 C315.796875,59.0572839 316.281245,57.8541709 317.25,57 C318.218755,56.1458291 319.489575,55.6197927 321.0625,55.421875 L325.546875,54.859375 Z M337.1875,45.296875 L334.375,45.296875 L334.375,42.046875 L337.1875,42.046875 L337.1875,45.296875 Z M331.71875,69.234375 C332.979173,69.1927081 333.736978,69.0807301 333.992188,68.8984375 C334.247397,68.7161449 334.375,68.1458381 334.375,67.1875 L334.375,48.34375 L337.1875,48.34375 L337.1875,67.484375 C337.1875,68.7031311 336.989585,69.6145803 336.59375,70.21875 C335.937497,71.2395884 334.692718,71.75 332.859375,71.75 C332.723958,71.75 332.58073,71.7447917 332.429688,71.734375 C332.278645,71.7239583 332.041668,71.7031252 331.71875,71.671875 L331.71875,69.234375 Z M344.53125,62.46875 C345.125003,62.9375023 345.828121,63.171875 346.640625,63.171875 C347.630213,63.171875 348.588537,62.9427106 349.515625,62.484375 C351.078133,61.7239545 351.859375,60.4791753 351.859375,58.75 L351.859375,56.484375 C351.515623,56.7031261 351.072919,56.8854159 350.53125,57.03125 C349.989581,57.1770841 349.458336,57.2812497 348.9375,57.34375 L347.234375,57.5625 C346.213537,57.6979173 345.447919,57.9114569 344.9375,58.203125 C344.072912,58.6927108 343.640625,59.473953 343.640625,60.546875 C343.640625,61.3593791 343.937497,61.9999977 344.53125,62.46875 Z M350.453125,54.859375 C351.098962,54.7760412 351.531249,54.5052106 351.75,54.046875 C351.875001,53.7968738 351.9375,53.4375023 351.9375,52.96875 C351.9375,52.0104119 351.596358,51.3151063 350.914062,50.8828125 C350.231767,50.4505187 349.255215,50.234375 347.984375,50.234375 C346.515618,50.234375 345.473961,50.6302044 344.859375,51.421875 C344.515623,51.8593772 344.291667,52.5104123 344.1875,53.375 L341.5625,53.375 C341.614584,51.3124897 342.283848,49.8776082 343.570312,49.0703125 C344.856777,48.2630168 346.34895,47.859375 348.046875,47.859375 C350.015635,47.859375 351.614577,48.2343712 352.84375,48.984375 C354.062506,49.7343788 354.671875,50.9010338 354.671875,52.484375 L354.671875,62.125 C354.671875,62.4166681 354.73177,62.6510408 354.851562,62.828125 C354.971355,63.0052092 355.223956,63.09375 355.609375,63.09375 C355.734376,63.09375 355.874999,63.0859376 356.03125,63.0703125 C356.187501,63.0546874 356.354166,63.0312502 356.53125,63 L356.53125,65.078125 C356.093748,65.2031256 355.760418,65.2812498 355.53125,65.3125 C355.302082,65.3437502 354.989585,65.359375 354.59375,65.359375 C353.624995,65.359375 352.921877,65.0156284 352.484375,64.328125 C352.255207,63.9635398 352.09375,63.44792 352,62.78125 C351.42708,63.5312538 350.604172,64.1822889 349.53125,64.734375 C348.458328,65.2864611 347.276048,65.5625 345.984375,65.5625 C344.432284,65.5625 343.164067,65.0911505 342.179688,64.1484375 C341.195308,63.2057245 340.703125,62.0260487 340.703125,60.609375 C340.703125,59.0572839 341.187495,57.8541709 342.15625,57 C343.125005,56.1458291 344.395825,55.6197927 345.96875,55.421875 L350.453125,54.859375 Z M378.625,48.265625 L381.734375,48.265625 C381.33854,49.338547 380.45834,51.7864392 379.09375,55.609375 C378.072912,58.4843894 377.218753,60.8281159 376.53125,62.640625 C374.906242,66.9114797 373.76042,69.5156203 373.09375,70.453125 C372.42708,71.3906297 371.281258,71.859375 369.65625,71.859375 C369.260415,71.859375 368.95573,71.8437502 368.742188,71.8125 C368.528645,71.7812498 368.265627,71.7239588 367.953125,71.640625 L367.953125,69.078125 C368.442711,69.2135423 368.796874,69.2968748 369.015625,69.328125 C369.234376,69.3593752 369.427082,69.375 369.59375,69.375 C370.114586,69.375 370.497395,69.2890634 370.742188,69.1171875 C370.98698,68.9453116 371.192707,68.7343763 371.359375,68.484375 C371.411459,68.4010412 371.598957,67.9739622 371.921875,67.203125 C372.244793,66.4322878 372.479166,65.8593769 372.625,65.484375 L366.4375,48.265625 L369.625,48.265625 L374.109375,61.890625 L378.625,48.265625 Z M57.8984375,81.265625 L57.8984375,92.375 C57.8984375,93.2291709 58.0338528,93.9270806 58.3046875,94.46875 C58.80469,95.468755 59.7369723,95.96875 61.1015625,95.96875 C63.0599056,95.96875 64.3932256,95.0937588 65.1015625,93.34375 C65.4869811,92.4062453 65.6796875,91.1197998 65.6796875,89.484375 L65.6796875,81.265625 L68.4921875,81.265625 L68.4921875,98 L65.8359375,98 L65.8671875,95.53125 C65.5026023,96.1666698 65.0494819,96.7031228 64.5078125,97.140625 C63.4348905,98.0156294 62.1328202,98.453125 60.6015625,98.453125 C58.2161339,98.453125 56.5911502,97.656258 55.7265625,96.0625 C55.2578102,95.2083291 55.0234375,94.0677155 55.0234375,92.640625 L55.0234375,81.265625 L57.8984375,81.265625 Z M73.4453125,76.59375 L76.2890625,76.59375 L76.2890625,81.265625 L78.9609375,81.265625 L78.9609375,83.5625 L76.2890625,83.5625 L76.2890625,94.484375 C76.2890625,95.0677113 76.4869772,95.4583323 76.8828125,95.65625 C77.1015636,95.7708339 77.4661433,95.828125 77.9765625,95.828125 C78.1119798,95.828125 78.2578117,95.8255209 78.4140625,95.8203125 C78.5703133,95.8151041 78.7526031,95.8020834 78.9609375,95.78125 L78.9609375,98 C78.6380192,98.0937505 78.3020851,98.1614581 77.953125,98.203125 C77.6041649,98.2447919 77.2265645,98.265625 76.8203125,98.265625 C75.5078059,98.265625 74.6171898,97.9296909 74.1484375,97.2578125 C73.6796852,96.5859341 73.4453125,95.713547 73.4453125,94.640625 L73.4453125,83.5625 L71.1796875,83.5625 L71.1796875,81.265625 L73.4453125,81.265625 L73.4453125,76.59375 Z M81.7734375,81.34375 L84.6328125,81.34375 L84.6328125,98 L81.7734375,98 L81.7734375,81.34375 Z M81.7734375,75.046875 L84.6328125,75.046875 L84.6328125,78.234375 L81.7734375,78.234375 L81.7734375,75.046875 Z M88.9609375,75.046875 L91.7734375,75.046875 L91.7734375,98 L88.9609375,98 L88.9609375,75.046875 Z M95.9921875,81.34375 L98.8515625,81.34375 L98.8515625,98 L95.9921875,98 L95.9921875,81.34375 Z M95.9921875,75.046875 L98.8515625,75.046875 L98.8515625,78.234375 L95.9921875,78.234375 L95.9921875,75.046875 Z M101.851562,95.78125 L111.773438,83.78125 L102.585938,83.78125 L102.585938,81.265625 L115.554688,81.265625 L115.554688,83.5625 L105.695312,95.484375 L115.851562,95.484375 L115.851562,98 L101.851562,98 L101.851562,95.78125 Z M122.148438,95.46875 C122.74219,95.9375023 123.445308,96.171875 124.257812,96.171875 C125.247401,96.171875 126.205725,95.9427106 127.132812,95.484375 C128.69532,94.7239545 129.476562,93.4791753 129.476562,91.75 L129.476562,89.484375 C129.132811,89.7031261 128.690107,89.8854159 128.148438,90.03125 C127.606768,90.1770841 127.075523,90.2812497 126.554688,90.34375 L124.851562,90.5625 C123.830724,90.6979173 123.065107,90.9114569 122.554688,91.203125 C121.6901,91.6927108 121.257812,92.473953 121.257812,93.546875 C121.257812,94.3593791 121.554685,94.9999977 122.148438,95.46875 Z M128.070312,87.859375 C128.716149,87.7760412 129.148436,87.5052106 129.367188,87.046875 C129.492188,86.7968738 129.554688,86.4375023 129.554688,85.96875 C129.554688,85.0104119 129.213545,84.3151063 128.53125,83.8828125 C127.848955,83.4505187 126.872402,83.234375 125.601562,83.234375 C124.132805,83.234375 123.091149,83.6302044 122.476562,84.421875 C122.132811,84.8593772 121.908855,85.5104123 121.804688,86.375 L119.179688,86.375 C119.231771,84.3124897 119.901035,82.8776082 121.1875,82.0703125 C122.473965,81.2630168 123.966137,80.859375 125.664062,80.859375 C127.632822,80.859375 129.231765,81.2343712 130.460938,81.984375 C131.679694,82.7343788 132.289062,83.9010338 132.289062,85.484375 L132.289062,95.125 C132.289062,95.4166681 132.348958,95.6510408 132.46875,95.828125 C132.588542,96.0052092 132.841144,96.09375 133.226562,96.09375 C133.351563,96.09375 133.492187,96.0859376 133.648438,96.0703125 C133.804688,96.0546874 133.971353,96.0312502 134.148438,96 L134.148438,98.078125 C133.710935,98.2031256 133.377605,98.2812498 133.148438,98.3125 C132.91927,98.3437502 132.606773,98.359375 132.210938,98.359375 C131.242183,98.359375 130.539065,98.0156284 130.101562,97.328125 C129.872395,96.9635398 129.710938,96.44792 129.617188,95.78125 C129.044268,96.5312538 128.22136,97.1822889 127.148438,97.734375 C126.075515,98.2864611 124.893236,98.5625 123.601562,98.5625 C122.049471,98.5625 120.781255,98.0911505 119.796875,97.1484375 C118.812495,96.2057245 118.320312,95.0260487 118.320312,93.609375 C118.320312,92.0572839 118.804683,90.8541709 119.773438,90 C120.742192,89.1458291 122.013013,88.6197927 123.585938,88.421875 L128.070312,87.859375 Z M146.351562,76.59375 L149.195312,76.59375 L149.195312,81.265625 L151.867188,81.265625 L151.867188,83.5625 L149.195312,83.5625 L149.195312,94.484375 C149.195312,95.0677113 149.393227,95.4583323 149.789062,95.65625 C150.007814,95.7708339 150.372393,95.828125 150.882812,95.828125 C151.01823,95.828125 151.164062,95.8255209 151.320312,95.8203125 C151.476563,95.8151041 151.658853,95.8020834 151.867188,95.78125 L151.867188,98 C151.544269,98.0937505 151.208335,98.1614581 150.859375,98.203125 C150.510415,98.2447919 150.132815,98.265625 149.726562,98.265625 C148.414056,98.265625 147.52344,97.9296909 147.054688,97.2578125 C146.585935,96.5859341 146.351562,95.713547 146.351562,94.640625 L146.351562,83.5625 L144.085938,83.5625 L144.085938,81.265625 L146.351562,81.265625 L146.351562,76.59375 Z M157.492188,81.265625 L157.492188,92.375 C157.492188,93.2291709 157.627603,93.9270806 157.898438,94.46875 C158.39844,95.468755 159.330722,95.96875 160.695312,95.96875 C162.653656,95.96875 163.986976,95.0937588 164.695312,93.34375 C165.080731,92.4062453 165.273438,91.1197998 165.273438,89.484375 L165.273438,81.265625 L168.085938,81.265625 L168.085938,98 L165.429688,98 L165.460938,95.53125 C165.096352,96.1666698 164.643232,96.7031228 164.101562,97.140625 C163.02864,98.0156294 161.72657,98.453125 160.195312,98.453125 C157.809884,98.453125 156.1849,97.656258 155.320312,96.0625 C154.85156,95.2083291 154.617188,94.0677155 154.617188,92.640625 L154.617188,81.265625 L157.492188,81.265625 Z M184.289062,94.328125 C185.049483,95.5364644 186.268221,96.140625 187.945312,96.140625 C189.247402,96.140625 190.317704,95.5807348 191.15625,94.4609375 C191.994796,93.3411402 192.414062,91.7343855 192.414062,89.640625 C192.414062,87.5260311 191.981775,85.9609426 191.117188,84.9453125 C190.2526,83.9296824 189.184902,83.421875 187.914062,83.421875 C186.497389,83.421875 185.348963,83.9635363 184.46875,85.046875 C183.588537,86.1302137 183.148438,87.7239478 183.148438,89.828125 C183.148438,91.6198006 183.528642,93.1197856 184.289062,94.328125 Z M190.601562,81.78125 C191.101565,82.0937516 191.669268,82.6406211 192.304688,83.421875 L192.304688,74.96875 L195.007812,74.96875 L195.007812,98 L192.476562,98 L192.476562,95.671875 C191.820309,96.7031302 191.044275,97.4479144 190.148438,97.90625 C189.2526,98.3645856 188.226568,98.59375 187.070312,98.59375 C185.20572,98.59375 183.591153,97.8099037 182.226562,96.2421875 C180.861972,94.6744713 180.179688,92.5885547 180.179688,89.984375 C180.179688,87.5468628 180.802077,85.4349048 182.046875,83.6484375 C183.291673,81.8619702 185.070301,80.96875 187.382812,80.96875 C188.664069,80.96875 189.736975,81.2395806 190.601562,81.78125 Z M209.585938,81.7265625 C210.700526,82.283857 211.549476,83.0052039 212.132812,83.890625 C212.695315,84.7343792 213.070312,85.7187444 213.257812,86.84375 C213.42448,87.6145872 213.507812,88.8437416 213.507812,90.53125 L201.242188,90.53125 C201.294271,92.2291752 201.695309,93.5911407 202.445312,94.6171875 C203.195316,95.6432343 204.356763,96.15625 205.929688,96.15625 C207.398445,96.15625 208.570308,95.6718798 209.445312,94.703125 C209.945315,94.1406222 210.299478,93.489587 210.507812,92.75 L213.273438,92.75 C213.20052,93.3645864 212.958335,94.0494754 212.546875,94.8046875 C212.135415,95.5598996 211.674482,96.1770809 211.164062,96.65625 C210.309892,97.4895875 209.25261,98.0520819 207.992188,98.34375 C207.315101,98.5104175 206.549483,98.59375 205.695312,98.59375 C203.611969,98.59375 201.846361,97.8359451 200.398438,96.3203125 C198.950514,94.8046799 198.226562,92.6823053 198.226562,89.953125 C198.226562,87.2656116 198.955722,85.0833417 200.414062,83.40625 C201.872403,81.7291583 203.778634,80.890625 206.132812,80.890625 C207.320318,80.890625 208.471349,81.169268 209.585938,81.7265625 Z M210.617188,88.296875 C210.502604,87.0781189 210.236981,86.1041703 209.820312,85.375 C209.049475,84.0208266 207.76303,83.34375 205.960938,83.34375 C204.669264,83.34375 203.585942,83.8098912 202.710938,84.7421875 C201.835933,85.6744838 201.372396,86.8593678 201.320312,88.296875 L210.617188,88.296875 Z M218.632812,92.75 C218.716146,93.6875047 218.950519,94.4062475 219.335938,94.90625 C220.044274,95.8125045 221.273429,96.265625 223.023438,96.265625 C224.065109,96.265625 224.981767,96.0390648 225.773438,95.5859375 C226.565108,95.1328102 226.960938,94.4322964 226.960938,93.484375 C226.960938,92.7656214 226.643232,92.2187519 226.007812,91.84375 C225.60156,91.6145822 224.799485,91.3489598 223.601562,91.046875 L221.367188,90.484375 C219.940097,90.1302066 218.888024,89.7343772 218.210938,89.296875 C217.002598,88.5364545 216.398438,87.4843817 216.398438,86.140625 C216.398438,84.5572838 216.968744,83.2760466 218.109375,82.296875 C219.250006,81.3177034 220.783845,80.828125 222.710938,80.828125 C225.231783,80.828125 227.049474,81.5677009 228.164062,83.046875 C228.861983,83.9843797 229.200521,84.9947863 229.179688,86.078125 L226.523438,86.078125 C226.471354,85.4427052 226.247398,84.8645859 225.851562,84.34375 C225.205726,83.604163 224.085945,83.234375 222.492188,83.234375 C221.429682,83.234375 220.625003,83.437498 220.078125,83.84375 C219.531247,84.250002 219.257812,84.786455 219.257812,85.453125 C219.257812,86.1822953 219.617184,86.7656228 220.335938,87.203125 C220.752606,87.463543 221.367183,87.6927073 222.179688,87.890625 L224.039062,88.34375 C226.059906,88.8333358 227.414059,89.3072894 228.101562,89.765625 C229.195318,90.4843786 229.742188,91.6145756 229.742188,93.15625 C229.742188,94.6458408 229.177089,95.9322863 228.046875,97.015625 C226.916661,98.0989637 225.195324,98.640625 222.882812,98.640625 C220.393217,98.640625 218.630214,98.0755265 217.59375,96.9453125 C216.557286,95.8150985 216.002605,94.416675 215.929688,92.75 L218.632812,92.75 Z M244.015625,82.15625 C245.197923,83.0729212 245.908853,84.6510305 246.148438,86.890625 L243.414062,86.890625 C243.247395,85.8593698 242.86719,85.0026076 242.273438,84.3203125 C241.679685,83.6380174 240.726569,83.296875 239.414062,83.296875 C237.622387,83.296875 236.34115,84.1718662 235.570312,85.921875 C235.07031,87.0572973 234.820312,88.458325 234.820312,90.125 C234.820312,91.8020917 235.174476,93.2135359 235.882812,94.359375 C236.591149,95.5052141 237.705722,96.078125 239.226562,96.078125 C240.393235,96.078125 241.317705,95.7213577 242,95.0078125 C242.682295,94.2942673 243.153645,93.3177145 243.414062,92.078125 L246.148438,92.078125 C245.835936,94.2968861 245.054694,95.9192657 243.804688,96.9453125 C242.554681,97.9713593 240.955739,98.484375 239.007812,98.484375 C236.820302,98.484375 235.075527,97.6849038 233.773438,96.0859375 C232.471348,94.4869712 231.820312,92.4895953 231.820312,90.09375 C231.820312,87.1562353 232.533847,84.8697998 233.960938,83.234375 C235.388028,81.5989502 237.205718,80.78125 239.414062,80.78125 C241.299489,80.78125 242.833327,81.2395788 244.015625,82.15625 Z M251.773438,81.265625 L251.773438,92.375 C251.773438,93.2291709 251.908853,93.9270806 252.179688,94.46875 C252.67969,95.468755 253.611972,95.96875 254.976562,95.96875 C256.934906,95.96875 258.268226,95.0937588 258.976562,93.34375 C259.361981,92.4062453 259.554688,91.1197998 259.554688,89.484375 L259.554688,81.265625 L262.367188,81.265625 L262.367188,98 L259.710938,98 L259.742188,95.53125 C259.377602,96.1666698 258.924482,96.7031228 258.382812,97.140625 C257.30989,98.0156294 256.00782,98.453125 254.476562,98.453125 C252.091134,98.453125 250.46615,97.656258 249.601562,96.0625 C249.13281,95.2083291 248.898438,94.0677155 248.898438,92.640625 L248.898438,81.265625 L251.773438,81.265625 Z M277.179688,81.7265625 C278.294276,82.283857 279.143226,83.0052039 279.726562,83.890625 C280.289065,84.7343792 280.664062,85.7187444 280.851562,86.84375 C281.01823,87.6145872 281.101562,88.8437416 281.101562,90.53125 L268.835938,90.53125 C268.888021,92.2291752 269.289059,93.5911407 270.039062,94.6171875 C270.789066,95.6432343 271.950513,96.15625 273.523438,96.15625 C274.992195,96.15625 276.164058,95.6718798 277.039062,94.703125 C277.539065,94.1406222 277.893228,93.489587 278.101562,92.75 L280.867188,92.75 C280.79427,93.3645864 280.552085,94.0494754 280.140625,94.8046875 C279.729165,95.5598996 279.268232,96.1770809 278.757812,96.65625 C277.903642,97.4895875 276.84636,98.0520819 275.585938,98.34375 C274.908851,98.5104175 274.143233,98.59375 273.289062,98.59375 C271.205719,98.59375 269.440111,97.8359451 267.992188,96.3203125 C266.544264,94.8046799 265.820312,92.6823053 265.820312,89.953125 C265.820312,87.2656116 266.549472,85.0833417 268.007812,83.40625 C269.466153,81.7291583 271.372384,80.890625 273.726562,80.890625 C274.914068,80.890625 276.065099,81.169268 277.179688,81.7265625 Z M278.210938,88.296875 C278.096354,87.0781189 277.830731,86.1041703 277.414062,85.375 C276.643225,84.0208266 275.35678,83.34375 273.554688,83.34375 C272.263014,83.34375 271.179692,83.8098912 270.304688,84.7421875 C269.429683,85.6744838 268.966146,86.8593678 268.914062,88.296875 L278.210938,88.296875 Z M284.554688,81.265625 L287.226562,81.265625 L287.226562,83.640625 C288.018233,82.6614534 288.856766,81.9583355 289.742188,81.53125 C290.627609,81.1041645 291.611974,80.890625 292.695312,80.890625 C295.070324,80.890625 296.674475,81.7187417 297.507812,83.375 C297.966148,84.2812545 298.195312,85.5781166 298.195312,87.265625 L298.195312,98 L295.335938,98 L295.335938,87.453125 C295.335938,86.4322866 295.184897,85.6093781 294.882812,84.984375 C294.38281,83.9427031 293.476569,83.421875 292.164062,83.421875 C291.497393,83.421875 290.950523,83.4895827 290.523438,83.625 C289.7526,83.8541678 289.075524,84.3124966 288.492188,85 C288.023435,85.5520861 287.718751,86.1223929 287.578125,86.7109375 C287.437499,87.2994821 287.367188,88.1406195 287.367188,89.234375 L287.367188,98 L284.554688,98 L284.554688,81.265625 Z M302.914062,76.59375 L305.757812,76.59375 L305.757812,81.265625 L308.429688,81.265625 L308.429688,83.5625 L305.757812,83.5625 L305.757812,94.484375 C305.757812,95.0677113 305.955727,95.4583323 306.351562,95.65625 C306.570314,95.7708339 306.934893,95.828125 307.445312,95.828125 C307.58073,95.828125 307.726562,95.8255209 307.882812,95.8203125 C308.039063,95.8151041 308.221353,95.8020834 308.429688,95.78125 L308.429688,98 C308.106769,98.0937505 307.770835,98.1614581 307.421875,98.203125 C307.072915,98.2447919 306.695315,98.265625 306.289062,98.265625 C304.976556,98.265625 304.08594,97.9296909 303.617188,97.2578125 C303.148435,96.5859341 302.914062,95.713547 302.914062,94.640625 L302.914062,83.5625 L300.648438,83.5625 L300.648438,81.265625 L302.914062,81.265625 L302.914062,76.59375 Z M321.71875,94.0703125 C322.411462,92.6588471 322.757812,91.0885503 322.757812,89.359375 C322.757812,87.7968672 322.507815,86.5260466 322.007812,85.546875 C321.216142,84.0052006 319.851572,83.234375 317.914062,83.234375 C316.195304,83.234375 314.945316,83.8906184 314.164062,85.203125 C313.382809,86.5156316 312.992188,88.0989491 312.992188,89.953125 C312.992188,91.7343839 313.382809,93.2187441 314.164062,94.40625 C314.945316,95.5937559 316.184887,96.1875 317.882812,96.1875 C319.747405,96.1875 321.026038,95.4817779 321.71875,94.0703125 Z M323.460938,82.9375 C324.950528,84.3750072 325.695312,86.4895694 325.695312,89.28125 C325.695312,91.9791802 325.039069,94.2083245 323.726562,95.96875 C322.414056,97.7291755 320.377618,98.609375 317.617188,98.609375 C315.315093,98.609375 313.486986,97.830737 312.132812,96.2734375 C310.778639,94.716138 310.101562,92.6250131 310.101562,90 C310.101562,87.1874859 310.815097,84.947925 312.242188,83.28125 C313.669278,81.614575 315.585925,80.78125 317.992188,80.78125 C320.148448,80.78125 321.971347,81.4999928 323.460938,82.9375 Z" id="Muestra-tú-cupón-en" fill="#0076E8"></path>
                <g id="Group-2" transform="translate(52.000000, 0.000000)" fill="#003E73">
                    <path d="M0.625,7.265625 L3.8125,7.265625 L3.8125,10.53125 L0.625,10.53125 L0.625,7.265625 Z M0.625,22.671875 L1.4375,12.75 L3.015625,12.75 L3.8125,22.671875 L3.8125,30.234375 L0.625,30.234375 L0.625,22.671875 Z M10.390625,1.046875 L26.3125,1.046875 L26.3125,3.859375 L13.5,3.859375 L13.5,10.828125 L24.765625,10.828125 L24.765625,13.5625 L13.5,13.5625 L13.5,24 L10.390625,24 L10.390625,1.046875 Z M29.9375,1.046875 L46.671875,1.046875 L46.671875,3.859375 L32.96875,3.859375 L32.96875,10.828125 L45.640625,10.828125 L45.640625,13.484375 L32.96875,13.484375 L32.96875,21.265625 L46.90625,21.265625 L46.90625,24 L29.9375,24 L29.9375,1.046875 Z M50.984375,1.046875 L54.09375,1.046875 L54.09375,21.265625 L65.71875,21.265625 L65.71875,24 L50.984375,24 L50.984375,1.046875 Z M69.484375,1.046875 L72.625,1.046875 L72.625,24 L69.484375,24 L69.484375,1.046875 Z M94.109375,2.71875 C95.7135497,4.25000766 96.6041658,5.98957359 96.78125,7.9375 L93.75,7.9375 C93.4062483,6.45832594 92.7213593,5.28646266 91.6953125,4.421875 C90.6692657,3.55728734 89.2291759,3.125 87.375,3.125 C85.114572,3.125 83.2890695,3.91926289 81.8984375,5.5078125 C80.5078055,7.09636211 79.8125,9.53123359 79.8125,12.8125 C79.8125,15.5000134 80.4400979,17.6796791 81.6953125,19.3515625 C82.9505271,21.0234459 84.8229042,21.859375 87.3125,21.859375 C89.6041781,21.859375 91.3489523,20.9791755 92.546875,19.21875 C93.1822948,18.291662 93.6562484,17.0729242 93.96875,15.5625 L97,15.5625 C96.7291653,17.9791788 95.8333409,20.0052002 94.3125,21.640625 C92.4895742,23.6093848 90.0312655,24.59375 86.9375,24.59375 C84.27082,24.59375 82.0312591,23.7864664 80.21875,22.171875 C77.8333214,20.0364477 76.640625,16.7396056 76.640625,12.28125 C76.640625,8.89581641 77.5364494,6.1198025 79.328125,3.953125 C81.2656347,1.59894656 83.937483,0.421875 87.34375,0.421875 C90.2500145,0.421875 92.5052003,1.18749234 94.109375,2.71875 Z M101.484375,1.046875 L104.625,1.046875 L104.625,24 L101.484375,24 L101.484375,1.046875 Z M126.375,1.046875 L126.375,3.78125 L118.640625,3.78125 L118.640625,24 L115.484375,24 L115.484375,3.78125 L107.75,3.78125 L107.75,1.046875 L126.375,1.046875 Z M138.640625,14.59375 L135.15625,4.453125 L131.453125,14.59375 L138.640625,14.59375 Z M133.53125,1.046875 L137.046875,1.046875 L145.375,24 L141.96875,24 L139.640625,17.125 L130.5625,17.125 L128.078125,24 L124.890625,24 L133.53125,1.046875 Z M164.640625,2.71875 C166.2448,4.25000766 167.135416,5.98957359 167.3125,7.9375 L164.28125,7.9375 C163.937498,6.45832594 163.252609,5.28646266 162.226562,4.421875 C161.200516,3.55728734 159.760426,3.125 157.90625,3.125 C155.645822,3.125 153.820319,3.91926289 152.429688,5.5078125 C151.039056,7.09636211 150.34375,9.53123359 150.34375,12.8125 C150.34375,15.5000134 150.971348,17.6796791 152.226562,19.3515625 C153.481777,21.0234459 155.354154,21.859375 157.84375,21.859375 C160.135428,21.859375 161.880202,20.9791755 163.078125,19.21875 C163.713545,18.291662 164.187498,17.0729242 164.5,15.5625 L167.53125,15.5625 C167.260415,17.9791788 166.364591,20.0052002 164.84375,21.640625 C163.020824,23.6093848 160.562515,24.59375 157.46875,24.59375 C154.80207,24.59375 152.562509,23.7864664 150.75,22.171875 C148.364571,20.0364477 147.171875,16.7396056 147.171875,12.28125 C147.171875,8.89581641 148.067699,6.1198025 149.859375,3.953125 C151.796885,1.59894656 154.468733,0.421875 157.875,0.421875 C160.781265,0.421875 163.03645,1.18749234 164.640625,2.71875 Z M172.015625,1.046875 L175.15625,1.046875 L175.15625,24 L172.015625,24 L172.015625,1.046875 Z M199.109375,4.328125 C200.630216,6.35938516 201.390625,8.9583175 201.390625,12.125 C201.390625,15.5521005 200.520842,18.4010303 198.78125,20.671875 C196.739573,23.338555 193.828144,24.671875 190.046875,24.671875 C186.515607,24.671875 183.739593,23.50522 181.71875,21.171875 C179.916658,18.9218638 179.015625,16.0781422 179.015625,12.640625 C179.015625,9.53644281 179.786451,6.88021938 181.328125,4.671875 C183.307302,1.8385275 186.234356,0.421875 190.109375,0.421875 C194.161479,0.421875 197.161449,1.72394531 199.109375,4.328125 Z M196.367188,18.9453125 C197.591152,16.981761 198.203125,14.7239711 198.203125,12.171875 C198.203125,9.47394484 197.497403,7.30209156 196.085938,5.65625 C194.674472,4.01040844 192.744804,3.1875 190.296875,3.1875 C187.921863,3.1875 185.984383,4.00259602 184.484375,5.6328125 C182.984367,7.26302898 182.234375,9.66665078 182.234375,12.84375 C182.234375,15.3854294 182.877598,17.5286371 184.164062,19.2734375 C185.450527,21.0182379 187.536444,21.890625 190.421875,21.890625 C193.161472,21.890625 195.143223,20.908864 196.367188,18.9453125 Z M205.09375,1.046875 L208.765625,1.046875 L220.359375,19.640625 L220.359375,1.046875 L223.3125,1.046875 L223.3125,24 L219.828125,24 L208.0625,5.421875 L208.0625,24 L205.09375,24 L205.09375,1.046875 Z M228.5,1.046875 L245.234375,1.046875 L245.234375,3.859375 L231.53125,3.859375 L231.53125,10.828125 L244.203125,10.828125 L244.203125,13.484375 L231.53125,13.484375 L231.53125,21.265625 L245.46875,21.265625 L245.46875,24 L228.5,24 L228.5,1.046875 Z M251.578125,16.59375 C251.651042,17.8958398 251.958331,18.9531209 252.5,19.765625 C253.531255,21.2864659 255.348945,22.046875 257.953125,22.046875 C259.119798,22.046875 260.182287,21.88021 261.140625,21.546875 C262.994801,20.9010384 263.921875,19.7448 263.921875,18.078125 C263.921875,16.8281187 263.531254,15.9375027 262.75,15.40625 C261.958329,14.8854141 260.718758,14.4322936 259.03125,14.046875 L255.921875,13.34375 C253.890615,12.8854144 252.453129,12.3802111 251.609375,11.828125 C250.151034,10.8697869 249.421875,9.43750953 249.421875,7.53125 C249.421875,5.46873969 250.13541,3.77604828 251.5625,2.453125 C252.98959,1.13020172 255.010404,0.46875 257.625,0.46875 C260.031262,0.46875 262.075512,1.04947336 263.757812,2.2109375 C265.440113,3.37240164 266.28125,5.22915391 266.28125,7.78125 L263.359375,7.78125 C263.203124,6.55207719 262.869794,5.60937828 262.359375,4.953125 C261.411454,3.75520234 259.802095,3.15625 257.53125,3.15625 C255.697907,3.15625 254.380212,3.54166281 253.578125,4.3125 C252.776038,5.08333719 252.375,5.97916156 252.375,7 C252.375,8.12500562 252.843745,8.94791406 253.78125,9.46875 C254.395836,9.802085 255.786448,10.2187475 257.953125,10.71875 L261.171875,11.453125 C262.723966,11.8072934 263.921871,12.2916636 264.765625,12.90625 C266.223966,13.979172 266.953125,15.5364481 266.953125,17.578125 C266.953125,20.1198044 266.028655,21.9374945 264.179688,23.03125 C262.33072,24.1250055 260.182304,24.671875 257.734375,24.671875 C254.880194,24.671875 252.645841,23.9427156 251.03125,22.484375 C249.416659,21.0364511 248.625,19.0729291 248.65625,16.59375 L251.578125,16.59375 Z M272.15625,1.046875 L275.328125,1.046875 L275.328125,8.59375 L274.5625,18.53125 L272.96875,18.53125 L272.15625,8.59375 L272.15625,1.046875 Z M272.15625,20.75 L275.265625,20.75 L275.265625,24 L272.15625,24 L272.15625,20.75 Z" id="¡FELICITACIONES!"></path>
                </g>
            </g>
        </g>
    </g>
</svg>