<?xml version="1.0" encoding="UTF-8"?>
<svg width="391px" height="70px" viewBox="0 0 391 70" version="1.1" xmlns="http://www.w3.org/2000/svg" xmlns:xlink="http://www.w3.org/1999/xlink">
    <!-- Generator: Sketch 47.1 (45422) - http://www.bohemiancoding.com/sketch -->
    <title>Ingresa tus datos y</title>
    <desc>Created with Sketch.</desc>
    <defs></defs>
    <g id="Home" stroke="none" stroke-width="1" fill="none" fill-rule="evenodd">
        <g id="Artboard" transform="translate(-781.000000, -504.000000)" fill="#003E73">
            <path d="M781.679688,505.046875 L784.820312,505.046875 L784.820312,528 L781.679688,528 L781.679688,505.046875 Z M789.492188,511.265625 L792.164062,511.265625 L792.164062,513.640625 C792.955733,512.661453 793.794266,511.958335 794.679688,511.53125 C795.565109,511.104165 796.549474,510.890625 797.632812,510.890625 C800.007824,510.890625 801.611975,511.718742 802.445312,513.375 C802.903648,514.281255 803.132812,515.578117 803.132812,517.265625 L803.132812,528 L800.273438,528 L800.273438,517.453125 C800.273438,516.432287 800.122397,515.609378 799.820312,514.984375 C799.32031,513.942703 798.414069,513.421875 797.101562,513.421875 C796.434893,513.421875 795.888023,513.489583 795.460938,513.625 C794.6901,513.854168 794.013024,514.312497 793.429688,515 C792.960935,515.552086 792.656251,516.122393 792.515625,516.710938 C792.374999,517.299482 792.304688,518.14062 792.304688,519.234375 L792.304688,528 L789.492188,528 L789.492188,511.265625 Z M816.632812,511.9375 C817.164065,512.302085 817.705726,512.83333 818.257812,513.53125 L818.257812,511.421875 L820.851562,511.421875 L820.851562,526.640625 C820.851562,528.765636 820.539066,530.442702 819.914062,531.671875 C818.74739,533.94272 816.544287,535.078125 813.304688,535.078125 C811.502595,535.078125 809.986985,534.674483 808.757812,533.867188 C807.52864,533.059892 806.841147,531.796884 806.695312,530.078125 L809.554688,530.078125 C809.690105,530.828129 809.960935,531.406248 810.367188,531.8125 C811.002607,532.437503 812.002597,532.75 813.367188,532.75 C815.523448,532.75 816.934893,531.989591 817.601562,530.46875 C817.997398,529.572912 818.179688,527.97397 818.148438,525.671875 C817.585935,526.526046 816.908858,527.161456 816.117188,527.578125 C815.325517,527.994794 814.278652,528.203125 812.976562,528.203125 C811.164053,528.203125 809.578132,527.559902 808.21875,526.273438 C806.859368,524.986973 806.179688,522.85939 806.179688,519.890625 C806.179688,517.088528 806.864576,514.90105 808.234375,513.328125 C809.604174,511.7552 811.257803,510.96875 813.195312,510.96875 C814.507819,510.96875 815.653641,511.291663 816.632812,511.9375 Z M816.976562,514.953125 C816.122392,513.95312 815.033861,513.453125 813.710938,513.453125 C811.731761,513.453125 810.377608,514.380199 809.648438,516.234375 C809.263019,517.223963 809.070312,518.520825 809.070312,520.125 C809.070312,522.010426 809.453121,523.445308 810.21875,524.429688 C810.984379,525.414067 812.013014,525.90625 813.304688,525.90625 C815.325531,525.90625 816.747392,524.994801 817.570312,523.171875 C818.028648,522.14062 818.257812,520.937507 818.257812,519.5625 C818.257812,517.489573 817.830733,515.95313 816.976562,514.953125 Z M825.164062,511.265625 L827.835938,511.265625 L827.835938,514.15625 C828.054689,513.593747 828.591142,512.908858 829.445312,512.101562 C830.299483,511.294267 831.283849,510.890625 832.398438,510.890625 C832.450521,510.890625 832.539062,510.895833 832.664062,510.90625 C832.789063,510.916667 833.002603,510.9375 833.304688,510.96875 L833.304688,513.9375 C833.13802,513.90625 832.984376,513.885417 832.84375,513.875 C832.703124,513.864583 832.54948,513.859375 832.382812,513.859375 C830.966139,513.859375 829.877608,514.3151 829.117188,515.226562 C828.356767,516.138025 827.976562,517.187494 827.976562,518.375 L827.976562,528 L825.164062,528 L825.164062,511.265625 Z M846.164062,511.726562 C847.278651,512.283857 848.127601,513.005204 848.710938,513.890625 C849.27344,514.734379 849.648437,515.718744 849.835938,516.84375 C850.002605,517.614587 850.085938,518.843742 850.085938,520.53125 L837.820312,520.53125 C837.872396,522.229175 838.273434,523.591141 839.023438,524.617188 C839.773441,525.643234 840.934888,526.15625 842.507812,526.15625 C843.97657,526.15625 845.148433,525.67188 846.023438,524.703125 C846.52344,524.140622 846.877603,523.489587 847.085938,522.75 L849.851562,522.75 C849.778645,523.364586 849.53646,524.049475 849.125,524.804688 C848.71354,525.5599 848.252607,526.177081 847.742188,526.65625 C846.888017,527.489587 845.830735,528.052082 844.570312,528.34375 C843.893226,528.510418 843.127608,528.59375 842.273438,528.59375 C840.190094,528.59375 838.424486,527.835945 836.976562,526.320312 C835.528639,524.80468 834.804688,522.682305 834.804688,519.953125 C834.804688,517.265612 835.533847,515.083342 836.992188,513.40625 C838.450528,511.729158 840.356759,510.890625 842.710938,510.890625 C843.898443,510.890625 845.049474,511.169268 846.164062,511.726562 Z M847.195312,518.296875 C847.080729,517.078119 846.815106,516.10417 846.398438,515.375 C845.6276,514.020827 844.341155,513.34375 842.539062,513.34375 C841.247389,513.34375 840.164067,513.809891 839.289062,514.742188 C838.414058,515.674484 837.950521,516.859368 837.898438,518.296875 L847.195312,518.296875 Z M855.210938,522.75 C855.294271,523.687505 855.528644,524.406247 855.914062,524.90625 C856.622399,525.812505 857.851554,526.265625 859.601562,526.265625 C860.643234,526.265625 861.559892,526.039065 862.351562,525.585938 C863.143233,525.13281 863.539062,524.432296 863.539062,523.484375 C863.539062,522.765621 863.221357,522.218752 862.585938,521.84375 C862.179685,521.614582 861.37761,521.34896 860.179688,521.046875 L857.945312,520.484375 C856.518222,520.130207 855.466149,519.734377 854.789062,519.296875 C853.580723,518.536455 852.976562,517.484382 852.976562,516.140625 C852.976562,514.557284 853.546869,513.276047 854.6875,512.296875 C855.828131,511.317703 857.36197,510.828125 859.289062,510.828125 C861.809908,510.828125 863.627599,511.567701 864.742188,513.046875 C865.440108,513.98438 865.778646,514.994786 865.757812,516.078125 L863.101562,516.078125 C863.049479,515.442705 862.825523,514.864586 862.429688,514.34375 C861.783851,513.604163 860.66407,513.234375 859.070312,513.234375 C858.007807,513.234375 857.203128,513.437498 856.65625,513.84375 C856.109372,514.250002 855.835938,514.786455 855.835938,515.453125 C855.835938,516.182295 856.195309,516.765623 856.914062,517.203125 C857.330731,517.463543 857.945308,517.692707 858.757812,517.890625 L860.617188,518.34375 C862.638031,518.833336 863.992184,519.307289 864.679688,519.765625 C865.773443,520.484379 866.320312,521.614576 866.320312,523.15625 C866.320312,524.645841 865.755214,525.932286 864.625,527.015625 C863.494786,528.098964 861.773449,528.640625 859.460938,528.640625 C856.971342,528.640625 855.208339,528.075526 854.171875,526.945312 C853.135411,525.815099 852.58073,524.416675 852.507812,522.75 L855.210938,522.75 Z M872.585938,525.46875 C873.17969,525.937502 873.882808,526.171875 874.695312,526.171875 C875.684901,526.171875 876.643225,525.942711 877.570312,525.484375 C879.13282,524.723955 879.914062,523.479175 879.914062,521.75 L879.914062,519.484375 C879.570311,519.703126 879.127607,519.885416 878.585938,520.03125 C878.044268,520.177084 877.513023,520.28125 876.992188,520.34375 L875.289062,520.5625 C874.268224,520.697917 873.502607,520.911457 872.992188,521.203125 C872.1276,521.692711 871.695312,522.473953 871.695312,523.546875 C871.695312,524.359379 871.992185,524.999998 872.585938,525.46875 Z M878.507812,517.859375 C879.153649,517.776041 879.585936,517.505211 879.804688,517.046875 C879.929688,516.796874 879.992188,516.437502 879.992188,515.96875 C879.992188,515.010412 879.651045,514.315106 878.96875,513.882812 C878.286455,513.450519 877.309902,513.234375 876.039062,513.234375 C874.570305,513.234375 873.528649,513.630204 872.914062,514.421875 C872.570311,514.859377 872.346355,515.510412 872.242188,516.375 L869.617188,516.375 C869.669271,514.31249 870.338535,512.877608 871.625,512.070312 C872.911465,511.263017 874.403637,510.859375 876.101562,510.859375 C878.070322,510.859375 879.669265,511.234371 880.898438,511.984375 C882.117194,512.734379 882.726562,513.901034 882.726562,515.484375 L882.726562,525.125 C882.726562,525.416668 882.786458,525.651041 882.90625,525.828125 C883.026042,526.005209 883.278644,526.09375 883.664062,526.09375 C883.789063,526.09375 883.929687,526.085938 884.085938,526.070312 C884.242188,526.054687 884.408853,526.03125 884.585938,526 L884.585938,528.078125 C884.148435,528.203126 883.815105,528.28125 883.585938,528.3125 C883.35677,528.34375 883.044273,528.359375 882.648438,528.359375 C881.679683,528.359375 880.976565,528.015628 880.539062,527.328125 C880.309895,526.96354 880.148438,526.44792 880.054688,525.78125 C879.481768,526.531254 878.65886,527.182289 877.585938,527.734375 C876.513015,528.286461 875.330736,528.5625 874.039062,528.5625 C872.486971,528.5625 871.218755,528.091151 870.234375,527.148438 C869.249995,526.205724 868.757812,525.026049 868.757812,523.609375 C868.757812,522.057284 869.242183,520.854171 870.210938,520 C871.179692,519.145829 872.450513,518.619793 874.023438,518.421875 L878.507812,517.859375 Z M896.789062,506.59375 L899.632812,506.59375 L899.632812,511.265625 L902.304688,511.265625 L902.304688,513.5625 L899.632812,513.5625 L899.632812,524.484375 C899.632812,525.067711 899.830727,525.458332 900.226562,525.65625 C900.445314,525.770834 900.809893,525.828125 901.320312,525.828125 C901.45573,525.828125 901.601562,525.825521 901.757812,525.820312 C901.914063,525.815104 902.096353,525.802083 902.304688,525.78125 L902.304688,528 C901.981769,528.09375 901.645835,528.161458 901.296875,528.203125 C900.947915,528.244792 900.570315,528.265625 900.164062,528.265625 C898.851556,528.265625 897.96094,527.929691 897.492188,527.257812 C897.023435,526.585934 896.789062,525.713547 896.789062,524.640625 L896.789062,513.5625 L894.523438,513.5625 L894.523438,511.265625 L896.789062,511.265625 L896.789062,506.59375 Z M907.929688,511.265625 L907.929688,522.375 C907.929688,523.229171 908.065103,523.927081 908.335938,524.46875 C908.83594,525.468755 909.768222,525.96875 911.132812,525.96875 C913.091156,525.96875 914.424476,525.093759 915.132812,523.34375 C915.518231,522.406245 915.710938,521.1198 915.710938,519.484375 L915.710938,511.265625 L918.523438,511.265625 L918.523438,528 L915.867188,528 L915.898438,525.53125 C915.533852,526.16667 915.080732,526.703123 914.539062,527.140625 C913.46614,528.015629 912.16407,528.453125 910.632812,528.453125 C908.247384,528.453125 906.6224,527.656258 905.757812,526.0625 C905.28906,525.208329 905.054688,524.067715 905.054688,522.640625 L905.054688,511.265625 L907.929688,511.265625 Z M924.585938,522.75 C924.669271,523.687505 924.903644,524.406247 925.289062,524.90625 C925.997399,525.812505 927.226554,526.265625 928.976562,526.265625 C930.018234,526.265625 930.934892,526.039065 931.726562,525.585938 C932.518233,525.13281 932.914062,524.432296 932.914062,523.484375 C932.914062,522.765621 932.596357,522.218752 931.960938,521.84375 C931.554685,521.614582 930.75261,521.34896 929.554688,521.046875 L927.320312,520.484375 C925.893222,520.130207 924.841149,519.734377 924.164062,519.296875 C922.955723,518.536455 922.351562,517.484382 922.351562,516.140625 C922.351562,514.557284 922.921869,513.276047 924.0625,512.296875 C925.203131,511.317703 926.73697,510.828125 928.664062,510.828125 C931.184908,510.828125 933.002599,511.567701 934.117188,513.046875 C934.815108,513.98438 935.153646,514.994786 935.132812,516.078125 L932.476562,516.078125 C932.424479,515.442705 932.200523,514.864586 931.804688,514.34375 C931.158851,513.604163 930.03907,513.234375 928.445312,513.234375 C927.382807,513.234375 926.578128,513.437498 926.03125,513.84375 C925.484372,514.250002 925.210938,514.786455 925.210938,515.453125 C925.210938,516.182295 925.570309,516.765623 926.289062,517.203125 C926.705731,517.463543 927.320308,517.692707 928.132812,517.890625 L929.992188,518.34375 C932.013031,518.833336 933.367184,519.307289 934.054688,519.765625 C935.148443,520.484379 935.695312,521.614576 935.695312,523.15625 C935.695312,524.645841 935.130214,525.932286 934,527.015625 C932.869786,528.098964 931.148449,528.640625 928.835938,528.640625 C926.346342,528.640625 924.583339,528.075526 923.546875,526.945312 C922.510411,525.815099 921.95573,524.416675 921.882812,522.75 L924.585938,522.75 Z M950.726562,524.328125 C951.486983,525.536464 952.705721,526.140625 954.382812,526.140625 C955.684902,526.140625 956.755204,525.580735 957.59375,524.460938 C958.432296,523.34114 958.851562,521.734385 958.851562,519.640625 C958.851562,517.526031 958.419275,515.960943 957.554688,514.945312 C956.6901,513.929682 955.622402,513.421875 954.351562,513.421875 C952.934889,513.421875 951.786463,513.963536 950.90625,515.046875 C950.026037,516.130214 949.585938,517.723948 949.585938,519.828125 C949.585938,521.619801 949.966142,523.119786 950.726562,524.328125 Z M957.039062,511.78125 C957.539065,512.093752 958.106768,512.640621 958.742188,513.421875 L958.742188,504.96875 L961.445312,504.96875 L961.445312,528 L958.914062,528 L958.914062,525.671875 C958.257809,526.70313 957.481775,527.447914 956.585938,527.90625 C955.6901,528.364586 954.664068,528.59375 953.507812,528.59375 C951.64322,528.59375 950.028653,527.809904 948.664062,526.242188 C947.299472,524.674471 946.617188,522.588555 946.617188,519.984375 C946.617188,517.546863 947.239577,515.434905 948.484375,513.648438 C949.729173,511.86197 951.507801,510.96875 953.820312,510.96875 C955.101569,510.96875 956.174475,511.239581 957.039062,511.78125 Z M968.648438,525.46875 C969.24219,525.937502 969.945308,526.171875 970.757812,526.171875 C971.747401,526.171875 972.705725,525.942711 973.632812,525.484375 C975.19532,524.723955 975.976562,523.479175 975.976562,521.75 L975.976562,519.484375 C975.632811,519.703126 975.190107,519.885416 974.648438,520.03125 C974.106768,520.177084 973.575523,520.28125 973.054688,520.34375 L971.351562,520.5625 C970.330724,520.697917 969.565107,520.911457 969.054688,521.203125 C968.1901,521.692711 967.757812,522.473953 967.757812,523.546875 C967.757812,524.359379 968.054685,524.999998 968.648438,525.46875 Z M974.570312,517.859375 C975.216149,517.776041 975.648436,517.505211 975.867188,517.046875 C975.992188,516.796874 976.054688,516.437502 976.054688,515.96875 C976.054688,515.010412 975.713545,514.315106 975.03125,513.882812 C974.348955,513.450519 973.372402,513.234375 972.101562,513.234375 C970.632805,513.234375 969.591149,513.630204 968.976562,514.421875 C968.632811,514.859377 968.408855,515.510412 968.304688,516.375 L965.679688,516.375 C965.731771,514.31249 966.401035,512.877608 967.6875,512.070312 C968.973965,511.263017 970.466137,510.859375 972.164062,510.859375 C974.132822,510.859375 975.731765,511.234371 976.960938,511.984375 C978.179694,512.734379 978.789062,513.901034 978.789062,515.484375 L978.789062,525.125 C978.789062,525.416668 978.848958,525.651041 978.96875,525.828125 C979.088542,526.005209 979.341144,526.09375 979.726562,526.09375 C979.851563,526.09375 979.992187,526.085938 980.148438,526.070312 C980.304688,526.054687 980.471353,526.03125 980.648438,526 L980.648438,528.078125 C980.210935,528.203126 979.877605,528.28125 979.648438,528.3125 C979.41927,528.34375 979.106773,528.359375 978.710938,528.359375 C977.742183,528.359375 977.039065,528.015628 976.601562,527.328125 C976.372395,526.96354 976.210938,526.44792 976.117188,525.78125 C975.544268,526.531254 974.72136,527.182289 973.648438,527.734375 C972.575515,528.286461 971.393236,528.5625 970.101562,528.5625 C968.549471,528.5625 967.281255,528.091151 966.296875,527.148438 C965.312495,526.205724 964.820312,525.026049 964.820312,523.609375 C964.820312,522.057284 965.304683,520.854171 966.273438,520 C967.242192,519.145829 968.513013,518.619793 970.085938,518.421875 L974.570312,517.859375 Z M983.960938,506.59375 L986.804688,506.59375 L986.804688,511.265625 L989.476562,511.265625 L989.476562,513.5625 L986.804688,513.5625 L986.804688,524.484375 C986.804688,525.067711 987.002602,525.458332 987.398438,525.65625 C987.617189,525.770834 987.981768,525.828125 988.492188,525.828125 C988.627605,525.828125 988.773437,525.825521 988.929688,525.820312 C989.085938,525.815104 989.268228,525.802083 989.476562,525.78125 L989.476562,528 C989.153644,528.09375 988.81771,528.161458 988.46875,528.203125 C988.11979,528.244792 987.74219,528.265625 987.335938,528.265625 C986.023431,528.265625 985.132815,527.929691 984.664062,527.257812 C984.19531,526.585934 983.960938,525.713547 983.960938,524.640625 L983.960938,513.5625 L981.695312,513.5625 L981.695312,511.265625 L983.960938,511.265625 L983.960938,506.59375 Z M1002.76562,524.070312 C1003.45834,522.658847 1003.80469,521.08855 1003.80469,519.359375 C1003.80469,517.796867 1003.55469,516.526047 1003.05469,515.546875 C1002.26302,514.005201 1000.89845,513.234375 998.960938,513.234375 C997.242179,513.234375 995.992191,513.890618 995.210938,515.203125 C994.429684,516.515632 994.039062,518.098949 994.039062,519.953125 C994.039062,521.734384 994.429684,523.218744 995.210938,524.40625 C995.992191,525.593756 997.231762,526.1875 998.929688,526.1875 C1000.79428,526.1875 1002.07291,525.481778 1002.76562,524.070312 Z M1004.50781,512.9375 C1005.9974,514.375007 1006.74219,516.489569 1006.74219,519.28125 C1006.74219,521.97918 1006.08594,524.208325 1004.77344,525.96875 C1003.46093,527.729175 1001.42449,528.609375 998.664062,528.609375 C996.361968,528.609375 994.533861,527.830737 993.179688,526.273438 C991.825514,524.716138 991.148438,522.625013 991.148438,520 C991.148438,517.187486 991.861972,514.947925 993.289062,513.28125 C994.716153,511.614575 996.6328,510.78125 999.039062,510.78125 C1001.19532,510.78125 1003.01822,511.499993 1004.50781,512.9375 Z M1011.75781,522.75 C1011.84115,523.687505 1012.07552,524.406247 1012.46094,524.90625 C1013.16927,525.812505 1014.39843,526.265625 1016.14844,526.265625 C1017.19011,526.265625 1018.10677,526.039065 1018.89844,525.585938 C1019.69011,525.13281 1020.08594,524.432296 1020.08594,523.484375 C1020.08594,522.765621 1019.76823,522.218752 1019.13281,521.84375 C1018.72656,521.614582 1017.92449,521.34896 1016.72656,521.046875 L1014.49219,520.484375 C1013.0651,520.130207 1012.01302,519.734377 1011.33594,519.296875 C1010.1276,518.536455 1009.52344,517.484382 1009.52344,516.140625 C1009.52344,514.557284 1010.09374,513.276047 1011.23438,512.296875 C1012.37501,511.317703 1013.90884,510.828125 1015.83594,510.828125 C1018.35678,510.828125 1020.17447,511.567701 1021.28906,513.046875 C1021.98698,513.98438 1022.32552,514.994786 1022.30469,516.078125 L1019.64844,516.078125 C1019.59635,515.442705 1019.3724,514.864586 1018.97656,514.34375 C1018.33073,513.604163 1017.21095,513.234375 1015.61719,513.234375 C1014.55468,513.234375 1013.75,513.437498 1013.20312,513.84375 C1012.65625,514.250002 1012.38281,514.786455 1012.38281,515.453125 C1012.38281,516.182295 1012.74218,516.765623 1013.46094,517.203125 C1013.87761,517.463543 1014.49218,517.692707 1015.30469,517.890625 L1017.16406,518.34375 C1019.18491,518.833336 1020.53906,519.307289 1021.22656,519.765625 C1022.32032,520.484379 1022.86719,521.614576 1022.86719,523.15625 C1022.86719,524.645841 1022.30209,525.932286 1021.17188,527.015625 C1020.04166,528.098964 1018.32032,528.640625 1016.00781,528.640625 C1013.51822,528.640625 1011.75521,528.075526 1010.71875,526.945312 C1009.68229,525.815099 1009.1276,524.416675 1009.05469,522.75 L1011.75781,522.75 Z M1045.42969,511.265625 L1048.53906,511.265625 C1048.14323,512.338547 1047.26303,514.786439 1045.89844,518.609375 C1044.8776,521.484389 1044.02344,523.828116 1043.33594,525.640625 C1041.71093,529.91148 1040.56511,532.51562 1039.89844,533.453125 C1039.23177,534.39063 1038.08595,534.859375 1036.46094,534.859375 C1036.0651,534.859375 1035.76042,534.84375 1035.54688,534.8125 C1035.33333,534.78125 1035.07031,534.723959 1034.75781,534.640625 L1034.75781,532.078125 C1035.2474,532.213542 1035.60156,532.296875 1035.82031,532.328125 C1036.03906,532.359375 1036.23177,532.375 1036.39844,532.375 C1036.91927,532.375 1037.30208,532.289063 1037.54688,532.117188 C1037.79167,531.945312 1037.99739,531.734376 1038.16406,531.484375 C1038.21615,531.401041 1038.40364,530.973962 1038.72656,530.203125 C1039.04948,529.432288 1039.28385,528.859377 1039.42969,528.484375 L1033.24219,511.265625 L1036.42969,511.265625 L1040.91406,524.890625 L1045.42969,511.265625 Z M1070.34375,524.070312 C1071.03646,522.658847 1071.38281,521.08855 1071.38281,519.359375 C1071.38281,517.796867 1071.13281,516.526047 1070.63281,515.546875 C1069.84114,514.005201 1068.47657,513.234375 1066.53906,513.234375 C1064.8203,513.234375 1063.57032,513.890618 1062.78906,515.203125 C1062.00781,516.515632 1061.61719,518.098949 1061.61719,519.953125 C1061.61719,521.734384 1062.00781,523.218744 1062.78906,524.40625 C1063.57032,525.593756 1064.80989,526.1875 1066.50781,526.1875 C1068.37241,526.1875 1069.65104,525.481778 1070.34375,524.070312 Z M1072.08594,512.9375 C1073.57553,514.375007 1074.32031,516.489569 1074.32031,519.28125 C1074.32031,521.97918 1073.66407,524.208325 1072.35156,525.96875 C1071.03906,527.729175 1069.00262,528.609375 1066.24219,528.609375 C1063.94009,528.609375 1062.11199,527.830737 1060.75781,526.273438 C1059.40364,524.716138 1058.72656,522.625013 1058.72656,520 C1058.72656,517.187486 1059.4401,514.947925 1060.86719,513.28125 C1062.29428,511.614575 1064.21093,510.78125 1066.61719,510.78125 C1068.77345,510.78125 1070.59635,511.499993 1072.08594,512.9375 Z M1077.44531,504.96875 L1080.17969,504.96875 L1080.17969,513.296875 C1080.79427,512.494788 1081.52864,511.882815 1082.38281,511.460938 C1083.23698,511.03906 1084.16406,510.828125 1085.16406,510.828125 C1087.24741,510.828125 1088.93749,511.544264 1090.23438,512.976562 C1091.53126,514.408861 1092.17969,516.520819 1092.17969,519.3125 C1092.17969,521.958347 1091.53907,524.156241 1090.25781,525.90625 C1088.97656,527.656259 1087.20053,528.53125 1084.92969,528.53125 C1083.65885,528.53125 1082.58594,528.223961 1081.71094,527.609375 C1081.1901,527.24479 1080.63282,526.661462 1080.03906,525.859375 L1080.03906,528 L1077.44531,528 L1077.44531,504.96875 Z M1088.17188,524.234375 C1088.92709,523.026036 1089.30469,521.432302 1089.30469,519.453125 C1089.30469,517.6927 1088.92709,516.234381 1088.17188,515.078125 C1087.41666,513.921869 1086.30469,513.34375 1084.83594,513.34375 C1083.55468,513.34375 1082.4323,513.817704 1081.46875,514.765625 C1080.5052,515.713546 1080.02344,517.276031 1080.02344,519.453125 C1080.02344,521.02605 1080.22135,522.302078 1080.61719,523.28125 C1081.35677,525.125009 1082.73697,526.046875 1084.75781,526.046875 C1086.27865,526.046875 1087.41666,525.442714 1088.17188,524.234375 Z M1096.02344,506.59375 L1098.86719,506.59375 L1098.86719,511.265625 L1101.53906,511.265625 L1101.53906,513.5625 L1098.86719,513.5625 L1098.86719,524.484375 C1098.86719,525.067711 1099.0651,525.458332 1099.46094,525.65625 C1099.67969,525.770834 1100.04427,525.828125 1100.55469,525.828125 C1100.6901,525.828125 1100.83594,525.825521 1100.99219,525.820312 C1101.14844,525.815104 1101.33073,525.802083 1101.53906,525.78125 L1101.53906,528 C1101.21614,528.09375 1100.88021,528.161458 1100.53125,528.203125 C1100.18229,528.244792 1099.80469,528.265625 1099.39844,528.265625 C1098.08593,528.265625 1097.19531,527.929691 1096.72656,527.257812 C1096.25781,526.585934 1096.02344,525.713547 1096.02344,524.640625 L1096.02344,513.5625 L1093.75781,513.5625 L1093.75781,511.265625 L1096.02344,511.265625 L1096.02344,506.59375 Z M1114.77344,511.726562 C1115.88803,512.283857 1116.73698,513.005204 1117.32031,513.890625 C1117.88282,514.734379 1118.25781,515.718744 1118.44531,516.84375 C1118.61198,517.614587 1118.69531,518.843742 1118.69531,520.53125 L1106.42969,520.53125 C1106.48177,522.229175 1106.88281,523.591141 1107.63281,524.617188 C1108.38282,525.643234 1109.54426,526.15625 1111.11719,526.15625 C1112.58594,526.15625 1113.75781,525.67188 1114.63281,524.703125 C1115.13281,524.140622 1115.48698,523.489587 1115.69531,522.75 L1118.46094,522.75 C1118.38802,523.364586 1118.14584,524.049475 1117.73438,524.804688 C1117.32291,525.5599 1116.86198,526.177081 1116.35156,526.65625 C1115.49739,527.489587 1114.44011,528.052082 1113.17969,528.34375 C1112.5026,528.510418 1111.73698,528.59375 1110.88281,528.59375 C1108.79947,528.59375 1107.03386,527.835945 1105.58594,526.320312 C1104.13801,524.80468 1103.41406,522.682305 1103.41406,519.953125 C1103.41406,517.265612 1104.14322,515.083342 1105.60156,513.40625 C1107.0599,511.729158 1108.96613,510.890625 1111.32031,510.890625 C1112.50782,510.890625 1113.65885,511.169268 1114.77344,511.726562 Z M1115.80469,518.296875 C1115.6901,517.078119 1115.42448,516.10417 1115.00781,515.375 C1114.23698,514.020827 1112.95053,513.34375 1111.14844,513.34375 C1109.85676,513.34375 1108.77344,513.809891 1107.89844,514.742188 C1107.02343,515.674484 1106.5599,516.859368 1106.50781,518.296875 L1115.80469,518.296875 Z M1114.57031,504.53125 L1110.39844,509.046875 L1108.24219,509.046875 L1111.10156,504.53125 L1114.57031,504.53125 Z M1122.14844,511.265625 L1124.82031,511.265625 L1124.82031,513.640625 C1125.61198,512.661453 1126.45052,511.958335 1127.33594,511.53125 C1128.22136,511.104165 1129.20572,510.890625 1130.28906,510.890625 C1132.66407,510.890625 1134.26823,511.718742 1135.10156,513.375 C1135.5599,514.281255 1135.78906,515.578117 1135.78906,517.265625 L1135.78906,528 L1132.92969,528 L1132.92969,517.453125 C1132.92969,516.432287 1132.77865,515.609378 1132.47656,514.984375 C1131.97656,513.942703 1131.07032,513.421875 1129.75781,513.421875 C1129.09114,513.421875 1128.54427,513.489583 1128.11719,513.625 C1127.34635,513.854168 1126.66927,514.312497 1126.08594,515 C1125.61719,515.552086 1125.3125,516.122393 1125.17188,516.710938 C1125.03125,517.299482 1124.96094,518.14062 1124.96094,519.234375 L1124.96094,528 L1122.14844,528 L1122.14844,511.265625 Z M1149.39844,506.59375 L1152.24219,506.59375 L1152.24219,511.265625 L1154.91406,511.265625 L1154.91406,513.5625 L1152.24219,513.5625 L1152.24219,524.484375 C1152.24219,525.067711 1152.4401,525.458332 1152.83594,525.65625 C1153.05469,525.770834 1153.41927,525.828125 1153.92969,525.828125 C1154.0651,525.828125 1154.21094,525.825521 1154.36719,525.820312 C1154.52344,525.815104 1154.70573,525.802083 1154.91406,525.78125 L1154.91406,528 C1154.59114,528.09375 1154.25521,528.161458 1153.90625,528.203125 C1153.55729,528.244792 1153.17969,528.265625 1152.77344,528.265625 C1151.46093,528.265625 1150.57031,527.929691 1150.10156,527.257812 C1149.63281,526.585934 1149.39844,525.713547 1149.39844,524.640625 L1149.39844,513.5625 L1147.13281,513.5625 L1147.13281,511.265625 L1149.39844,511.265625 L1149.39844,506.59375 Z M1160.53906,511.265625 L1160.53906,522.375 C1160.53906,523.229171 1160.67448,523.927081 1160.94531,524.46875 C1161.44531,525.468755 1162.3776,525.96875 1163.74219,525.96875 C1165.70053,525.96875 1167.03385,525.093759 1167.74219,523.34375 C1168.12761,522.406245 1168.32031,521.1198 1168.32031,519.484375 L1168.32031,511.265625 L1171.13281,511.265625 L1171.13281,528 L1168.47656,528 L1168.50781,525.53125 C1168.14323,526.16667 1167.69011,526.703123 1167.14844,527.140625 C1166.07552,528.015629 1164.77345,528.453125 1163.24219,528.453125 C1160.85676,528.453125 1159.23178,527.656258 1158.36719,526.0625 C1157.89844,525.208329 1157.66406,524.067715 1157.66406,522.640625 L1157.66406,511.265625 L1160.53906,511.265625 Z M841.445312,550.15625 C842.62761,551.072921 843.33854,552.65103 843.578125,554.890625 L840.84375,554.890625 C840.677082,553.85937 840.296878,553.002608 839.703125,552.320312 C839.109372,551.638017 838.156257,551.296875 836.84375,551.296875 C835.052074,551.296875 833.770837,552.171866 833,553.921875 C832.499998,555.057297 832.25,556.458325 832.25,558.125 C832.25,559.802092 832.604163,561.213536 833.3125,562.359375 C834.020837,563.505214 835.135409,564.078125 836.65625,564.078125 C837.822923,564.078125 838.747392,563.721358 839.429688,563.007812 C840.111983,562.294267 840.583332,561.317715 840.84375,560.078125 L843.578125,560.078125 C843.265623,562.296886 842.484381,563.919266 841.234375,564.945312 C839.984369,565.971359 838.385426,566.484375 836.4375,566.484375 C834.249989,566.484375 832.505215,565.684904 831.203125,564.085938 C829.901035,562.486971 829.25,560.489595 829.25,558.09375 C829.25,555.156235 829.963535,552.8698 831.390625,551.234375 C832.817715,549.59895 834.635406,548.78125 836.84375,548.78125 C838.729176,548.78125 840.263015,549.239579 841.445312,550.15625 Z M856.867188,562.070312 C857.559899,560.658847 857.90625,559.08855 857.90625,557.359375 C857.90625,555.796867 857.656252,554.526047 857.15625,553.546875 C856.364579,552.005201 855.00001,551.234375 853.0625,551.234375 C851.343741,551.234375 850.093754,551.890618 849.3125,553.203125 C848.531246,554.515632 848.140625,556.098949 848.140625,557.953125 C848.140625,559.734384 848.531246,561.218744 849.3125,562.40625 C850.093754,563.593756 851.333325,564.1875 853.03125,564.1875 C854.895843,564.1875 856.174476,563.481778 856.867188,562.070312 Z M858.609375,550.9375 C860.098966,552.375007 860.84375,554.489569 860.84375,557.28125 C860.84375,559.97918 860.187507,562.208325 858.875,563.96875 C857.562493,565.729175 855.526055,566.609375 852.765625,566.609375 C850.46353,566.609375 848.635423,565.830737 847.28125,564.273438 C845.927077,562.716138 845.25,560.625013 845.25,558 C845.25,555.187486 845.963535,552.947925 847.390625,551.28125 C848.817715,549.614575 850.734363,548.78125 853.140625,548.78125 C855.296886,548.78125 857.119784,549.499993 858.609375,550.9375 Z M856.40625,542.53125 L852.234375,547.046875 L850.078125,547.046875 L852.9375,542.53125 L856.40625,542.53125 Z M867.109375,562.328125 C867.869795,563.536464 869.088533,564.140625 870.765625,564.140625 C872.067715,564.140625 873.138017,563.580735 873.976562,562.460938 C874.815108,561.34114 875.234375,559.734385 875.234375,557.640625 C875.234375,555.526031 874.802088,553.960943 873.9375,552.945312 C873.072912,551.929682 872.005215,551.421875 870.734375,551.421875 C869.317701,551.421875 868.169275,551.963536 867.289062,553.046875 C866.40885,554.130214 865.96875,555.723948 865.96875,557.828125 C865.96875,559.619801 866.348955,561.119786 867.109375,562.328125 Z M873.421875,549.78125 C873.921877,550.093752 874.48958,550.640621 875.125,551.421875 L875.125,542.96875 L877.828125,542.96875 L877.828125,566 L875.296875,566 L875.296875,563.671875 C874.640622,564.70313 873.864588,565.447914 872.96875,565.90625 C872.072912,566.364586 871.046881,566.59375 869.890625,566.59375 C868.026032,566.59375 866.411465,565.809904 865.046875,564.242188 C863.682285,562.674471 863,560.588555 863,557.984375 C863,555.546863 863.62239,553.434905 864.867188,551.648438 C866.111985,549.86197 867.890613,548.96875 870.203125,548.96875 C871.484381,548.96875 872.557287,549.239581 873.421875,549.78125 Z M881.984375,549.34375 L884.84375,549.34375 L884.84375,566 L881.984375,566 L881.984375,549.34375 Z M881.984375,543.046875 L884.84375,543.046875 L884.84375,546.234375 L881.984375,546.234375 L881.984375,543.046875 Z M898.4375,549.9375 C898.968753,550.302085 899.510414,550.83333 900.0625,551.53125 L900.0625,549.421875 L902.65625,549.421875 L902.65625,564.640625 C902.65625,566.765636 902.343753,568.442702 901.71875,569.671875 C900.552077,571.94272 898.348975,573.078125 895.109375,573.078125 C893.307283,573.078125 891.791673,572.674483 890.5625,571.867188 C889.333327,571.059892 888.645834,569.796884 888.5,568.078125 L891.359375,568.078125 C891.494792,568.828129 891.765623,569.406248 892.171875,569.8125 C892.807295,570.437503 893.807285,570.75 895.171875,570.75 C897.328136,570.75 898.73958,569.989591 899.40625,568.46875 C899.802085,567.572912 899.984375,565.97397 899.953125,563.671875 C899.390622,564.526046 898.713546,565.161456 897.921875,565.578125 C897.130204,565.994794 896.08334,566.203125 894.78125,566.203125 C892.968741,566.203125 891.382819,565.559902 890.023438,564.273438 C888.664056,562.986973 887.984375,560.85939 887.984375,557.890625 C887.984375,555.088528 888.669264,552.90105 890.039062,551.328125 C891.408861,549.7552 893.06249,548.96875 895,548.96875 C896.312507,548.96875 897.458328,549.291663 898.4375,549.9375 Z M898.78125,552.953125 C897.927079,551.95312 896.838548,551.453125 895.515625,551.453125 C893.536448,551.453125 892.182295,552.380199 891.453125,554.234375 C891.067706,555.223963 890.875,556.520825 890.875,558.125 C890.875,560.010426 891.257809,561.445308 892.023438,562.429688 C892.789066,563.414067 893.817702,563.90625 895.109375,563.90625 C897.130218,563.90625 898.552079,562.994801 899.375,561.171875 C899.833336,560.14062 900.0625,558.937507 900.0625,557.5625 C900.0625,555.489573 899.635421,553.95313 898.78125,552.953125 Z M917.367188,562.070312 C918.059899,560.658847 918.40625,559.08855 918.40625,557.359375 C918.40625,555.796867 918.156252,554.526047 917.65625,553.546875 C916.864579,552.005201 915.50001,551.234375 913.5625,551.234375 C911.843741,551.234375 910.593754,551.890618 909.8125,553.203125 C909.031246,554.515632 908.640625,556.098949 908.640625,557.953125 C908.640625,559.734384 909.031246,561.218744 909.8125,562.40625 C910.593754,563.593756 911.833325,564.1875 913.53125,564.1875 C915.395843,564.1875 916.674476,563.481778 917.367188,562.070312 Z M919.109375,550.9375 C920.598966,552.375007 921.34375,554.489569 921.34375,557.28125 C921.34375,559.97918 920.687507,562.208325 919.375,563.96875 C918.062493,565.729175 916.026055,566.609375 913.265625,566.609375 C910.96353,566.609375 909.135423,565.830737 907.78125,564.273438 C906.427077,562.716138 905.75,560.625013 905.75,558 C905.75,555.187486 906.463535,552.947925 907.890625,551.28125 C909.317715,549.614575 911.234363,548.78125 913.640625,548.78125 C915.796886,548.78125 917.619784,549.499993 919.109375,550.9375 Z M936.5,562.328125 C937.26042,563.536464 938.479158,564.140625 940.15625,564.140625 C941.45834,564.140625 942.528642,563.580735 943.367188,562.460938 C944.205733,561.34114 944.625,559.734385 944.625,557.640625 C944.625,555.526031 944.192713,553.960943 943.328125,552.945312 C942.463537,551.929682 941.39584,551.421875 940.125,551.421875 C938.708326,551.421875 937.5599,551.963536 936.679688,553.046875 C935.799475,554.130214 935.359375,555.723948 935.359375,557.828125 C935.359375,559.619801 935.73958,561.119786 936.5,562.328125 Z M942.8125,549.78125 C943.312502,550.093752 943.880205,550.640621 944.515625,551.421875 L944.515625,542.96875 L947.21875,542.96875 L947.21875,566 L944.6875,566 L944.6875,563.671875 C944.031247,564.70313 943.255213,565.447914 942.359375,565.90625 C941.463537,566.364586 940.437506,566.59375 939.28125,566.59375 C937.416657,566.59375 935.80209,565.809904 934.4375,564.242188 C933.07291,562.674471 932.390625,560.588555 932.390625,557.984375 C932.390625,555.546863 933.013015,553.434905 934.257812,551.648438 C935.50261,549.86197 937.281238,548.96875 939.59375,548.96875 C940.875006,548.96875 941.947912,549.239581 942.8125,549.78125 Z M961.796875,549.726562 C962.911464,550.283857 963.760414,551.005204 964.34375,551.890625 C964.906253,552.734379 965.281249,553.718744 965.46875,554.84375 C965.635418,555.614587 965.71875,556.843742 965.71875,558.53125 L953.453125,558.53125 C953.505209,560.229175 953.906246,561.591141 954.65625,562.617188 C955.406254,563.643234 956.5677,564.15625 958.140625,564.15625 C959.609382,564.15625 960.781246,563.67188 961.65625,562.703125 C962.156252,562.140622 962.510416,561.489587 962.71875,560.75 L965.484375,560.75 C965.411458,561.364586 965.169273,562.049475 964.757812,562.804688 C964.346352,563.5599 963.885419,564.177081 963.375,564.65625 C962.520829,565.489587 961.463548,566.052082 960.203125,566.34375 C959.526038,566.510418 958.760421,566.59375 957.90625,566.59375 C955.822906,566.59375 954.057299,565.835945 952.609375,564.320312 C951.161451,562.80468 950.4375,560.682305 950.4375,557.953125 C950.4375,555.265612 951.166659,553.083342 952.625,551.40625 C954.083341,549.729158 955.989572,548.890625 958.34375,548.890625 C959.531256,548.890625 960.682286,549.169268 961.796875,549.726562 Z M962.828125,556.296875 C962.713541,555.078119 962.447919,554.10417 962.03125,553.375 C961.260413,552.020827 959.973967,551.34375 958.171875,551.34375 C956.880202,551.34375 955.796879,551.809891 954.921875,552.742188 C954.046871,553.674484 953.583334,554.859368 953.53125,556.296875 L962.828125,556.296875 Z M980.984375,562.328125 C981.744795,563.536464 982.963533,564.140625 984.640625,564.140625 C985.942715,564.140625 987.013017,563.580735 987.851562,562.460938 C988.690108,561.34114 989.109375,559.734385 989.109375,557.640625 C989.109375,555.526031 988.677088,553.960943 987.8125,552.945312 C986.947912,551.929682 985.880215,551.421875 984.609375,551.421875 C983.192701,551.421875 982.044275,551.963536 981.164062,553.046875 C980.28385,554.130214 979.84375,555.723948 979.84375,557.828125 C979.84375,559.619801 980.223955,561.119786 980.984375,562.328125 Z M987.296875,549.78125 C987.796877,550.093752 988.36458,550.640621 989,551.421875 L989,542.96875 L991.703125,542.96875 L991.703125,566 L989.171875,566 L989.171875,563.671875 C988.515622,564.70313 987.739588,565.447914 986.84375,565.90625 C985.947912,566.364586 984.921881,566.59375 983.765625,566.59375 C981.901032,566.59375 980.286465,565.809904 978.921875,564.242188 C977.557285,562.674471 976.875,560.588555 976.875,557.984375 C976.875,555.546863 977.49739,553.434905 978.742188,551.648438 C979.986985,549.86197 981.765613,548.96875 984.078125,548.96875 C985.359381,548.96875 986.432287,549.239581 987.296875,549.78125 Z M1006.28125,549.726562 C1007.39584,550.283857 1008.24479,551.005204 1008.82812,551.890625 C1009.39063,552.734379 1009.76562,553.718744 1009.95312,554.84375 C1010.11979,555.614587 1010.20312,556.843742 1010.20312,558.53125 L997.9375,558.53125 C997.989584,560.229175 998.390621,561.591141 999.140625,562.617188 C999.890629,563.643234 1001.05208,564.15625 1002.625,564.15625 C1004.09376,564.15625 1005.26562,563.67188 1006.14062,562.703125 C1006.64063,562.140622 1006.99479,561.489587 1007.20312,560.75 L1009.96875,560.75 C1009.89583,561.364586 1009.65365,562.049475 1009.24219,562.804688 C1008.83073,563.5599 1008.36979,564.177081 1007.85938,564.65625 C1007.0052,565.489587 1005.94792,566.052082 1004.6875,566.34375 C1004.01041,566.510418 1003.2448,566.59375 1002.39062,566.59375 C1000.30728,566.59375 998.541674,565.835945 997.09375,564.320312 C995.645826,562.80468 994.921875,560.682305 994.921875,557.953125 C994.921875,555.265612 995.651034,553.083342 997.109375,551.40625 C998.567716,549.729158 1000.47395,548.890625 1002.82812,548.890625 C1004.01563,548.890625 1005.16666,549.169268 1006.28125,549.726562 Z M1007.3125,556.296875 C1007.19792,555.078119 1006.93229,554.10417 1006.51562,553.375 C1005.74479,552.020827 1004.45834,551.34375 1002.65625,551.34375 C1001.36458,551.34375 1000.28125,551.809891 999.40625,552.742188 C998.531246,553.674484 998.067709,554.859368 998.015625,556.296875 L1007.3125,556.296875 Z M1015.32812,560.75 C1015.41146,561.687505 1015.64583,562.406248 1016.03125,562.90625 C1016.73959,563.812505 1017.96874,564.265625 1019.71875,564.265625 C1020.76042,564.265625 1021.67708,564.039065 1022.46875,563.585938 C1023.26042,563.13281 1023.65625,562.432296 1023.65625,561.484375 C1023.65625,560.765621 1023.33854,560.218752 1022.70312,559.84375 C1022.29687,559.614582 1021.4948,559.34896 1020.29688,559.046875 L1018.0625,558.484375 C1016.63541,558.130207 1015.58334,557.734377 1014.90625,557.296875 C1013.69791,556.536455 1013.09375,555.484382 1013.09375,554.140625 C1013.09375,552.557284 1013.66406,551.276047 1014.80469,550.296875 C1015.94532,549.317703 1017.47916,548.828125 1019.40625,548.828125 C1021.9271,548.828125 1023.74479,549.567701 1024.85938,551.046875 C1025.5573,551.98438 1025.89583,552.994786 1025.875,554.078125 L1023.21875,554.078125 C1023.16667,553.442705 1022.94271,552.864586 1022.54688,552.34375 C1021.90104,551.604163 1020.78126,551.234375 1019.1875,551.234375 C1018.12499,551.234375 1017.32032,551.437498 1016.77344,551.84375 C1016.22656,552.250002 1015.95312,552.786455 1015.95312,553.453125 C1015.95312,554.182295 1016.3125,554.765623 1017.03125,555.203125 C1017.44792,555.463543 1018.0625,555.692707 1018.875,555.890625 L1020.73438,556.34375 C1022.75522,556.833336 1024.10937,557.307289 1024.79688,557.765625 C1025.89063,558.484379 1026.4375,559.614576 1026.4375,561.15625 C1026.4375,562.645841 1025.8724,563.932286 1024.74219,565.015625 C1023.61197,566.098964 1021.89064,566.640625 1019.57812,566.640625 C1017.08853,566.640625 1015.32553,566.075526 1014.28906,564.945312 C1013.2526,563.815099 1012.69792,562.416675 1012.625,560.75 L1015.32812,560.75 Z M1040.71094,550.15625 C1041.89324,551.072921 1042.60417,552.65103 1042.84375,554.890625 L1040.10938,554.890625 C1039.94271,553.85937 1039.5625,553.002608 1038.96875,552.320312 C1038.375,551.638017 1037.42188,551.296875 1036.10938,551.296875 C1034.3177,551.296875 1033.03646,552.171866 1032.26562,553.921875 C1031.76562,555.057297 1031.51562,556.458325 1031.51562,558.125 C1031.51562,559.802092 1031.86979,561.213536 1032.57812,562.359375 C1033.28646,563.505214 1034.40103,564.078125 1035.92188,564.078125 C1037.08855,564.078125 1038.01302,563.721358 1038.69531,563.007812 C1039.37761,562.294267 1039.84896,561.317715 1040.10938,560.078125 L1042.84375,560.078125 C1042.53125,562.296886 1041.75001,563.919266 1040.5,564.945312 C1039.24999,565.971359 1037.65105,566.484375 1035.70312,566.484375 C1033.51561,566.484375 1031.77084,565.684904 1030.46875,564.085938 C1029.16666,562.486971 1028.51562,560.489595 1028.51562,558.09375 C1028.51562,555.156235 1029.22916,552.8698 1030.65625,551.234375 C1032.08334,549.59895 1033.90103,548.78125 1036.10938,548.78125 C1037.9948,548.78125 1039.52864,549.239579 1040.71094,550.15625 Z M1048.46875,549.265625 L1048.46875,560.375 C1048.46875,561.229171 1048.60417,561.927081 1048.875,562.46875 C1049.375,563.468755 1050.30728,563.96875 1051.67188,563.96875 C1053.63022,563.96875 1054.96354,563.093759 1055.67188,561.34375 C1056.05729,560.406245 1056.25,559.1198 1056.25,557.484375 L1056.25,549.265625 L1059.0625,549.265625 L1059.0625,566 L1056.40625,566 L1056.4375,563.53125 C1056.07291,564.16667 1055.61979,564.703123 1055.07812,565.140625 C1054.0052,566.015629 1052.70313,566.453125 1051.17188,566.453125 C1048.78645,566.453125 1047.16146,565.656258 1046.29688,564.0625 C1045.82812,563.208329 1045.59375,562.067715 1045.59375,560.640625 L1045.59375,549.265625 L1048.46875,549.265625 Z M1073.875,549.726562 C1074.98959,550.283857 1075.83854,551.005204 1076.42188,551.890625 C1076.98438,552.734379 1077.35937,553.718744 1077.54688,554.84375 C1077.71354,555.614587 1077.79688,556.843742 1077.79688,558.53125 L1065.53125,558.53125 C1065.58333,560.229175 1065.98437,561.591141 1066.73438,562.617188 C1067.48438,563.643234 1068.64583,564.15625 1070.21875,564.15625 C1071.68751,564.15625 1072.85937,563.67188 1073.73438,562.703125 C1074.23438,562.140622 1074.58854,561.489587 1074.79688,560.75 L1077.5625,560.75 C1077.48958,561.364586 1077.2474,562.049475 1076.83594,562.804688 C1076.42448,563.5599 1075.96354,564.177081 1075.45312,564.65625 C1074.59895,565.489587 1073.54167,566.052082 1072.28125,566.34375 C1071.60416,566.510418 1070.83855,566.59375 1069.98438,566.59375 C1067.90103,566.59375 1066.13542,565.835945 1064.6875,564.320312 C1063.23958,562.80468 1062.51562,560.682305 1062.51562,557.953125 C1062.51562,555.265612 1063.24478,553.083342 1064.70312,551.40625 C1066.16147,549.729158 1068.0677,548.890625 1070.42188,548.890625 C1071.60938,548.890625 1072.76041,549.169268 1073.875,549.726562 Z M1074.90625,556.296875 C1074.79167,555.078119 1074.52604,554.10417 1074.10938,553.375 C1073.33854,552.020827 1072.05209,551.34375 1070.25,551.34375 C1068.95833,551.34375 1067.875,551.809891 1067,552.742188 C1066.125,553.674484 1065.66146,554.859368 1065.60938,556.296875 L1074.90625,556.296875 Z M1081.25,549.265625 L1083.92188,549.265625 L1083.92188,551.640625 C1084.71355,550.661453 1085.55208,549.958335 1086.4375,549.53125 C1087.32292,549.104165 1088.30729,548.890625 1089.39062,548.890625 C1091.76564,548.890625 1093.36979,549.718742 1094.20312,551.375 C1094.66146,552.281255 1094.89062,553.578117 1094.89062,555.265625 L1094.89062,566 L1092.03125,566 L1092.03125,555.453125 C1092.03125,554.432287 1091.88021,553.609378 1091.57812,552.984375 C1091.07812,551.942703 1090.17188,551.421875 1088.85938,551.421875 C1088.1927,551.421875 1087.64584,551.489583 1087.21875,551.625 C1086.44791,551.854168 1085.77084,552.312497 1085.1875,553 C1084.71875,553.552086 1084.41406,554.122393 1084.27344,554.710938 C1084.13281,555.299482 1084.0625,556.14062 1084.0625,557.234375 L1084.0625,566 L1081.25,566 L1081.25,549.265625 Z M1099.60938,544.59375 L1102.45312,544.59375 L1102.45312,549.265625 L1105.125,549.265625 L1105.125,551.5625 L1102.45312,551.5625 L1102.45312,562.484375 C1102.45312,563.067711 1102.65104,563.458332 1103.04688,563.65625 C1103.26563,563.770834 1103.63021,563.828125 1104.14062,563.828125 C1104.27604,563.828125 1104.42187,563.825521 1104.57812,563.820312 C1104.73438,563.815104 1104.91667,563.802083 1105.125,563.78125 L1105.125,566 C1104.80208,566.09375 1104.46615,566.161458 1104.11719,566.203125 C1103.76823,566.244792 1103.39063,566.265625 1102.98438,566.265625 C1101.67187,566.265625 1100.78125,565.929691 1100.3125,565.257812 C1099.84375,564.585934 1099.60938,563.713547 1099.60938,562.640625 L1099.60938,551.5625 L1097.34375,551.5625 L1097.34375,549.265625 L1099.60938,549.265625 L1099.60938,544.59375 Z M1118.41406,562.070312 C1119.10677,560.658847 1119.45312,559.08855 1119.45312,557.359375 C1119.45312,555.796867 1119.20313,554.526047 1118.70312,553.546875 C1117.91145,552.005201 1116.54688,551.234375 1114.60938,551.234375 C1112.89062,551.234375 1111.64063,551.890618 1110.85938,553.203125 C1110.07812,554.515632 1109.6875,556.098949 1109.6875,557.953125 C1109.6875,559.734384 1110.07812,561.218744 1110.85938,562.40625 C1111.64063,563.593756 1112.8802,564.1875 1114.57812,564.1875 C1116.44272,564.1875 1117.72135,563.481778 1118.41406,562.070312 Z M1120.15625,550.9375 C1121.64584,552.375007 1122.39062,554.489569 1122.39062,557.28125 C1122.39062,559.97918 1121.73438,562.208325 1120.42188,563.96875 C1119.10937,565.729175 1117.07293,566.609375 1114.3125,566.609375 C1112.01041,566.609375 1110.1823,565.830737 1108.82812,564.273438 C1107.47395,562.716138 1106.79688,560.625013 1106.79688,558 C1106.79688,555.187486 1107.51041,552.947925 1108.9375,551.28125 C1110.36459,549.614575 1112.28124,548.78125 1114.6875,548.78125 C1116.84376,548.78125 1118.66666,549.499993 1120.15625,550.9375 Z" id="Ingresa-tus-datos-y"></path>
        </g>
    </g>
</svg>