<?xml version="1.0" encoding="UTF-8"?>
<svg width="335px" height="107px" viewBox="0 0 335 107" version="1.1" xmlns="http://www.w3.org/2000/svg" xmlns:xlink="http://www.w3.org/1999/xlink">
    <!-- Generator: Sketch 47.1 (45422) - http://www.bohemiancoding.com/sketch -->
    <title>Group 4</title>
    <desc>Created with Sketch.</desc>
    <defs></defs>
    <g id="Home" stroke="none" stroke-width="1" fill="none" fill-rule="evenodd">
        <g id="Artboard" transform="translate(-796.000000, -767.000000)" fill="#003E73">
            <g id="Group-4" transform="translate(794.000000, 760.000000)">
                <path d="M36.40625,37 L31.515625,37 L31.515625,31.15625 L32.765625,20.421875 L35.109375,20.421875 L36.40625,31.15625 L36.40625,37 Z M36.28125,18.5625 L31.625,18.5625 L31.625,14.046875 L36.28125,14.046875 L36.28125,18.5625 Z M41.09375,8 L57.421875,8 L57.421875,12.046875 L45.875,12.046875 L45.875,17.34375 L55.984375,17.34375 L55.984375,21.34375 L45.875,21.34375 L45.875,31 L41.09375,31 L41.09375,8 Z M77.671875,12.046875 L65.484375,12.046875 L65.484375,16.9375 L76.671875,16.9375 L76.671875,20.9375 L65.484375,20.9375 L65.484375,26.859375 L78.234375,26.859375 L78.234375,31 L60.78125,31 L60.78125,7.96875 L77.671875,7.96875 L77.671875,12.046875 Z M81.984375,7.96875 L86.796875,7.96875 L86.796875,26.859375 L98.203125,26.859375 L98.203125,31 L81.984375,31 L81.984375,7.96875 Z M105.9375,31 L101.15625,31 L101.15625,7.96875 L105.9375,7.96875 L105.9375,31 Z M112.65625,10.375 C114.531259,8.47915719 116.916652,7.53125 119.8125,7.53125 C123.687519,7.53125 126.520824,8.80207062 128.3125,11.34375 C129.302088,12.7708405 129.833333,14.2031178 129.90625,15.640625 L125.09375,15.640625 C124.781248,14.5364528 124.380211,13.7031278 123.890625,13.140625 C123.015621,12.14062 121.718759,11.640625 120,11.640625 C118.249991,11.640625 116.869797,12.3463471 115.859375,13.7578125 C114.848953,15.1692779 114.34375,17.1666537 114.34375,19.75 C114.34375,22.3333462 114.877599,24.2682227 115.945312,25.5546875 C117.013026,26.8411523 118.369783,27.484375 120.015625,27.484375 C121.703133,27.484375 122.989579,26.9322972 123.875,25.828125 C124.364586,25.234372 124.770832,24.3437559 125.09375,23.15625 L129.859375,23.15625 C129.442706,25.6666792 128.377613,27.7083255 126.664062,29.28125 C124.950512,30.8541745 122.755222,31.640625 120.078125,31.640625 C116.765608,31.640625 114.161468,30.5781356 112.265625,28.453125 C110.369782,26.3176977 109.421875,23.3906436 109.421875,19.671875 C109.421875,15.6510216 110.499989,12.5520942 112.65625,10.375 Z M137.9375,31 L133.15625,31 L133.15625,7.96875 L137.9375,7.96875 L137.9375,31 Z M159.15625,7.96875 L159.15625,12.046875 L152.265625,12.046875 L152.265625,31 L147.421875,31 L147.421875,12.046875 L140.5,12.046875 L140.5,7.96875 L159.15625,7.96875 Z M165.90625,22.296875 L171.75,22.296875 L168.875,13.234375 L165.90625,22.296875 Z M166.203125,7.96875 L171.640625,7.96875 L179.796875,31 L174.578125,31 L173.09375,26.265625 L164.609375,26.265625 L163.015625,31 L157.984375,31 L166.203125,7.96875 Z M184.953125,10.375 C186.828134,8.47915719 189.213527,7.53125 192.109375,7.53125 C195.984394,7.53125 198.817699,8.80207062 200.609375,11.34375 C201.598963,12.7708405 202.130208,14.2031178 202.203125,15.640625 L197.390625,15.640625 C197.078123,14.5364528 196.677086,13.7031278 196.1875,13.140625 C195.312496,12.14062 194.015634,11.640625 192.296875,11.640625 C190.546866,11.640625 189.166672,12.3463471 188.15625,13.7578125 C187.145828,15.1692779 186.640625,17.1666537 186.640625,19.75 C186.640625,22.3333462 187.174474,24.2682227 188.242188,25.5546875 C189.309901,26.8411523 190.666658,27.484375 192.3125,27.484375 C194.000008,27.484375 195.286454,26.9322972 196.171875,25.828125 C196.661461,25.234372 197.067707,24.3437559 197.390625,23.15625 L202.15625,23.15625 C201.739581,25.6666792 200.674488,27.7083255 198.960938,29.28125 C197.247387,30.8541745 195.052097,31.640625 192.375,31.640625 C189.062483,31.640625 186.458343,30.5781356 184.5625,28.453125 C182.666657,26.3176977 181.71875,23.3906436 181.71875,19.671875 C181.71875,15.6510216 182.796864,12.5520942 184.953125,10.375 Z M210.234375,31 L205.453125,31 L205.453125,7.96875 L210.234375,7.96875 L210.234375,31 Z M229.445312,25.453125 C230.56511,24.046868 231.125,22.046888 231.125,19.453125 C231.125,16.8697788 230.56511,14.8724029 229.445312,13.4609375 C228.325515,12.0494721 226.81251,11.34375 224.90625,11.34375 C222.99999,11.34375 221.479172,12.046868 220.34375,13.453125 C219.208328,14.859382 218.640625,16.859362 218.640625,19.453125 C218.640625,22.046888 219.208328,24.046868 220.34375,25.453125 C221.479172,26.859382 222.99999,27.5625 224.90625,27.5625 C226.81251,27.5625 228.325515,26.859382 229.445312,25.453125 Z M232.453125,28.953125 C230.713533,30.7448006 228.197933,31.640625 224.90625,31.640625 C221.614567,31.640625 219.098967,30.7448006 217.359375,28.953125 C215.02603,26.7551973 213.859375,23.5885623 213.859375,19.453125 C213.859375,15.2343539 215.02603,12.0677189 217.359375,9.953125 C219.098967,8.16144938 221.614567,7.265625 224.90625,7.265625 C228.197933,7.265625 230.713533,8.16144938 232.453125,9.953125 C234.776053,12.0677189 235.9375,15.2343539 235.9375,19.453125 C235.9375,23.5885623 234.776053,26.7551973 232.453125,28.953125 Z M239.53125,7.96875 L244.578125,7.96875 L253.75,24.046875 L253.75,7.96875 L258.234375,7.96875 L258.234375,31 L253.421875,31 L244.015625,14.640625 L244.015625,31 L239.53125,31 L239.53125,7.96875 Z M279.75,12.046875 L267.5625,12.046875 L267.5625,16.9375 L278.75,16.9375 L278.75,20.9375 L267.5625,20.9375 L267.5625,26.859375 L280.3125,26.859375 L280.3125,31 L262.859375,31 L262.859375,7.96875 L279.75,7.96875 L279.75,12.046875 Z M287.546875,23.890625 C287.692709,24.9427136 287.979165,25.7291641 288.40625,26.25 C289.187504,27.1979214 290.526032,27.671875 292.421875,27.671875 C293.557297,27.671875 294.479163,27.5468763 295.1875,27.296875 C296.531257,26.8177059 297.203125,25.9270898 297.203125,24.625 C297.203125,23.8645795 296.869795,23.2760437 296.203125,22.859375 C295.536455,22.453123 294.48959,22.0937516 293.0625,21.78125 L290.625,21.234375 C288.229155,20.6927056 286.572921,20.1041698 285.65625,19.46875 C284.104159,18.4062447 283.328125,16.744803 283.328125,14.484375 C283.328125,12.4218647 284.078117,10.7083402 285.578125,9.34375 C287.078133,7.97915984 289.281235,7.296875 292.1875,7.296875 C294.614595,7.296875 296.684887,7.94009773 298.398438,9.2265625 C300.111988,10.5130273 301.010416,12.3801961 301.09375,14.828125 L296.46875,14.828125 C296.385416,13.4427014 295.781256,12.4583363 294.65625,11.875 C293.906246,11.4895814 292.973964,11.296875 291.859375,11.296875 C290.619785,11.296875 289.630212,11.5468725 288.890625,12.046875 C288.151038,12.5468775 287.78125,13.2447872 287.78125,14.140625 C287.78125,14.9635458 288.14583,15.578123 288.875,15.984375 C289.343752,16.2552097 290.343742,16.5729148 291.875,16.9375 L295.84375,17.890625 C297.583342,18.3072937 298.895829,18.8645798 299.78125,19.5625 C301.156257,20.6458387 301.84375,22.2135314 301.84375,24.265625 C301.84375,26.3698022 301.039071,28.1171805 299.429688,29.5078125 C297.820304,30.8984445 295.54689,31.59375 292.609375,31.59375 C289.60936,31.59375 287.250009,30.908861 285.53125,29.5390625 C283.812491,28.169264 282.953125,26.2864703 282.953125,23.890625 L287.546875,23.890625 Z M306.484375,8.046875 L311.375,8.046875 L311.375,13.890625 L310.109375,24.640625 L307.78125,24.640625 L306.484375,13.890625 L306.484375,8.046875 Z M306.59375,26.484375 L311.25,26.484375 L311.25,31 L306.59375,31 L306.59375,26.484375 Z" id="¡FELICITACIONES!"></path>
                <path d="M2.27685547,49.4814453 L6.45166016,49.4814453 L12.6333008,67.6748047 L18.7709961,49.4814453 L22.9018555,49.4814453 L22.9018555,71 L20.1333008,71 L20.1333008,58.2998047 C20.1333008,57.8603494 20.1430663,57.1328176 20.1625977,56.1171875 C20.182129,55.1015574 20.1918945,54.0127011 20.1918945,52.8505859 L14.0541992,71 L11.168457,71 L4.98681641,52.8505859 L4.98681641,53.5097656 C4.98681641,54.037112 4.99902332,54.8403266 5.0234375,55.9194336 C5.04785168,56.9985406 5.06005859,57.7919896 5.06005859,58.2998047 L5.06005859,71 L2.27685547,71 L2.27685547,49.4814453 Z M29.6254883,55.3115234 L29.6254883,65.7265625 C29.6254883,66.5273478 29.7524401,67.1816381 30.0063477,67.6894531 C30.4751,68.6269578 31.3491147,69.0957031 32.628418,69.0957031 C34.4643646,69.0957031 35.7143521,68.2753988 36.378418,66.6347656 C36.7397479,65.755855 36.9204102,64.5498124 36.9204102,63.0166016 L36.9204102,55.3115234 L39.5571289,55.3115234 L39.5571289,71 L37.0668945,71 L37.0961914,68.6855469 C36.7543928,69.281253 36.3295924,69.7841776 35.8217773,70.1943359 C34.8159129,71.0146525 33.595222,71.4248047 32.159668,71.4248047 C29.9233287,71.4248047 28.3999064,70.6777418 27.5893555,69.1835938 C27.1499001,68.3828085 26.9301758,67.3134833 26.9301758,65.9755859 L26.9301758,55.3115234 L29.6254883,55.3115234 Z M53.4438477,55.7436523 C54.4887748,56.2661159 55.2846652,56.9423787 55.831543,57.7724609 C56.3588894,58.5634805 56.7104483,59.4863229 56.8862305,60.5410156 C57.0424813,61.2636755 57.1206055,62.4160077 57.1206055,63.9980469 L45.621582,63.9980469 C45.6704104,65.5898517 46.0463832,66.8666944 46.7495117,67.8286133 C47.4526402,68.7905322 48.5414965,69.2714844 50.0161133,69.2714844 C51.3930733,69.2714844 52.4916951,68.8173874 53.3120117,67.9091797 C53.7807641,67.3818333 54.112792,66.7714878 54.3081055,66.078125 L56.9008789,66.078125 C56.8325192,66.6542998 56.6054707,67.2963832 56.2197266,68.0043945 C55.8339824,68.7124059 55.4018579,69.2910134 54.9233398,69.7402344 C54.1225546,70.5214883 53.1313536,71.0488268 51.949707,71.3222656 C51.3149382,71.4785164 50.597172,71.5566406 49.7963867,71.5566406 C47.843252,71.5566406 46.1879951,70.8461985 44.8305664,69.425293 C43.4731377,68.0043874 42.7944336,66.0146612 42.7944336,63.4560547 C42.7944336,60.9365108 43.4780205,58.8906329 44.8452148,57.3183594 C46.2124092,55.7460859 47.9995007,54.9599609 50.206543,54.9599609 C51.3198298,54.9599609 52.3989206,55.2211888 53.4438477,55.7436523 Z M54.4106445,61.9033203 C54.3032221,60.7607365 54.0542012,59.8476597 53.6635742,59.1640625 C52.9409144,57.8945249 51.7348717,57.2597656 50.0454102,57.2597656 C48.8344666,57.2597656 47.8188518,57.696773 46.9985352,58.5708008 C46.1782186,59.4448286 45.7436526,60.5556573 45.6948242,61.9033203 L54.4106445,61.9033203 Z M61.925293,66.078125 C62.0034184,66.9570356 62.2231427,67.630857 62.5844727,68.0996094 C63.2485385,68.949223 64.4008707,69.3740234 66.0415039,69.3740234 C67.0180713,69.3740234 67.8774377,69.1616232 68.6196289,68.7368164 C69.3618201,68.3120096 69.7329102,67.6552779 69.7329102,66.7666016 C69.7329102,66.0927701 69.4350616,65.5800799 68.8393555,65.2285156 C68.4584942,65.0136708 67.7065486,64.7646499 66.5834961,64.4814453 L64.4887695,63.9541016 C63.1508722,63.6220687 62.164554,63.2509786 61.5297852,62.8408203 C60.396967,62.1279261 59.8305664,61.1416079 59.8305664,59.8818359 C59.8305664,58.3974535 60.365229,57.1962937 61.4345703,56.2783203 C62.5039116,55.360347 63.9418855,54.9013672 65.7485352,54.9013672 C68.1118282,54.9013672 69.8159127,55.5947196 70.8608398,56.9814453 C71.51514,57.860356 71.8325196,58.8076121 71.8129883,59.8232422 L69.3227539,59.8232422 C69.2739255,59.2275361 69.0639667,58.6855493 68.6928711,58.1972656 C68.0873993,57.5039028 67.0376051,57.1572266 65.543457,57.1572266 C64.5473583,57.1572266 63.7929713,57.3476543 63.2802734,57.7285156 C62.7675756,58.1093769 62.5112305,58.6123016 62.5112305,59.2373047 C62.5112305,59.9209019 62.8481412,60.4677714 63.5219727,60.8779297 C63.9125996,61.1220715 64.4887657,61.3369131 65.2504883,61.5224609 L66.9936523,61.9472656 C68.8881931,62.4062523 70.1577116,62.8505838 70.8022461,63.2802734 C71.8276418,63.9541049 72.340332,65.0136646 72.340332,66.4589844 C72.340332,67.8554757 71.8105522,69.0615184 70.7509766,70.0771484 C69.691401,71.0927785 68.0776476,71.6005859 65.909668,71.6005859 C63.5756719,71.6005859 61.9228564,71.0708061 60.9511719,70.0112305 C59.9794873,68.9516549 59.459473,67.6406328 59.3911133,66.078125 L61.925293,66.078125 Z M75.8852539,50.9316406 L78.5512695,50.9316406 L78.5512695,55.3115234 L81.0561523,55.3115234 L81.0561523,57.4648438 L78.5512695,57.4648438 L78.5512695,67.7041016 C78.5512695,68.2509793 78.7368146,68.6171866 79.1079102,68.8027344 C79.3129893,68.9101568 79.6547828,68.9638672 80.1333008,68.9638672 C80.2602545,68.9638672 80.3969719,68.9614258 80.543457,68.956543 C80.6899421,68.9516601 80.8608389,68.9394532 81.0561523,68.9199219 L81.0561523,71 C80.7534165,71.0878911 80.4384782,71.151367 80.1113281,71.1904297 C79.7841781,71.2294924 79.4301777,71.2490234 79.0493164,71.2490234 C77.8188415,71.2490234 76.9838889,70.9340852 76.5444336,70.3041992 C76.1049783,69.6743133 75.8852539,68.8564503 75.8852539,67.8505859 L75.8852539,57.4648438 L73.7612305,57.4648438 L73.7612305,55.3115234 L75.8852539,55.3115234 L75.8852539,50.9316406 Z M83.7661133,55.3115234 L86.2709961,55.3115234 L86.2709961,58.0214844 C86.4760752,57.494138 86.9789999,56.8520546 87.7797852,56.0952148 C88.5805704,55.3383751 89.5034127,54.9599609 90.5483398,54.9599609 C90.5971682,54.9599609 90.6801752,54.9648437 90.7973633,54.9746094 C90.9145514,54.984375 91.1147447,55.0039061 91.3979492,55.0332031 L91.3979492,57.8164062 C91.2416984,57.7871092 91.0976569,57.7675782 90.9658203,57.7578125 C90.8339837,57.7480468 90.6899422,57.7431641 90.5336914,57.7431641 C89.2055598,57.7431641 88.1850622,58.1704059 87.472168,59.0249023 C86.7592738,59.8793988 86.402832,60.8632757 86.402832,61.9765625 L86.402832,71 L83.7661133,71 L83.7661133,55.3115234 Z M96.5395508,68.6269531 C97.0961942,69.0664084 97.7553673,69.2861328 98.5170898,69.2861328 C99.4448289,69.2861328 100.343257,69.0712912 101.212402,68.6416016 C102.677253,67.9287074 103.409668,66.7617269 103.409668,65.140625 L103.409668,63.0166016 C103.087401,63.2216807 102.672366,63.3925774 102.164551,63.5292969 C101.656736,63.6660163 101.158694,63.7636716 100.67041,63.8222656 L99.0737305,64.0273438 C98.1166944,64.1542975 97.3989282,64.3544908 96.9204102,64.6279297 C96.1098592,65.0869164 95.7045898,65.8193309 95.7045898,66.8251953 C95.7045898,67.5869179 95.9829074,68.1874978 96.5395508,68.6269531 Z M102.091309,61.4931641 C102.69678,61.4150387 103.10205,61.161135 103.307129,60.7314453 C103.424317,60.4970691 103.48291,60.1601584 103.48291,59.7207031 C103.48291,58.8222611 103.163089,58.1704122 102.523438,57.7651367 C101.883786,57.3598613 100.968268,57.1572266 99.7768555,57.1572266 C98.3998955,57.1572266 97.4233427,57.5283166 96.847168,58.2705078 C96.5249007,58.6806661 96.3149419,59.2910116 96.2172852,60.1015625 L93.7563477,60.1015625 C93.805176,58.1679591 94.4326112,56.8227577 95.6386719,56.065918 C96.8447326,55.3090782 98.2436444,54.9306641 99.8354492,54.9306641 C101.681162,54.9306641 103.18017,55.282223 104.33252,55.9853516 C105.475103,56.6884801 106.046387,57.7822191 106.046387,59.2666016 L106.046387,68.3046875 C106.046387,68.5781264 106.102539,68.7978507 106.214844,68.9638672 C106.327149,69.1298836 106.563963,69.2128906 106.925293,69.2128906 C107.042481,69.2128906 107.174316,69.2055665 107.320801,69.190918 C107.467286,69.1762695 107.623534,69.154297 107.789551,69.125 L107.789551,71.0732422 C107.379392,71.1904303 107.066896,71.2636717 106.852051,71.2929688 C106.637206,71.3222658 106.34424,71.3369141 105.973145,71.3369141 C105.064937,71.3369141 104.405764,71.0146517 103.995605,70.3701172 C103.780761,70.0283186 103.629395,69.544925 103.541504,68.9199219 C103.004392,69.6230504 102.232915,70.2333958 101.227051,70.7509766 C100.221186,71.2685573 99.112799,71.5273438 97.9018555,71.5273438 C96.4467701,71.5273438 95.2578171,71.0854536 94.3349609,70.2016602 C93.4121048,69.3178667 92.9506836,68.2119207 92.9506836,66.8837891 C92.9506836,65.4287037 93.4047806,64.3007853 94.3129883,63.5 C95.2211959,62.6992147 96.4125903,62.2060556 97.887207,62.0205078 L102.091309,61.4931641 Z M119.22998,50.9316406 L121.895996,50.9316406 L121.895996,55.3115234 L124.400879,55.3115234 L124.400879,57.4648438 L121.895996,57.4648438 L121.895996,67.7041016 C121.895996,68.2509793 122.081541,68.6171866 122.452637,68.8027344 C122.657716,68.9101568 122.999509,68.9638672 123.478027,68.9638672 C123.604981,68.9638672 123.741698,68.9614258 123.888184,68.956543 C124.034669,68.9516601 124.205565,68.9394532 124.400879,68.9199219 L124.400879,71 C124.098143,71.0878911 123.783205,71.151367 123.456055,71.1904297 C123.128905,71.2294924 122.774904,71.2490234 122.394043,71.2490234 C121.163568,71.2490234 120.328615,70.9340852 119.88916,70.3041992 C119.449705,69.6743133 119.22998,68.8564503 119.22998,67.8505859 L119.22998,57.4648438 L117.105957,57.4648438 L117.105957,55.3115234 L119.22998,55.3115234 L119.22998,50.9316406 Z M129.674316,55.3115234 L129.674316,65.7265625 C129.674316,66.5273478 129.801268,67.1816381 130.055176,67.6894531 C130.523928,68.6269578 131.397943,69.0957031 132.677246,69.0957031 C134.513193,69.0957031 135.76318,68.2753988 136.427246,66.6347656 C136.788576,65.755855 136.969238,64.5498124 136.969238,63.0166016 L136.969238,55.3115234 L139.605957,55.3115234 L139.605957,71 L137.115723,71 L137.14502,68.6855469 C136.803221,69.281253 136.378421,69.7841776 135.870605,70.1943359 C134.864741,71.0146525 133.64405,71.4248047 132.208496,71.4248047 C129.972157,71.4248047 128.448735,70.6777418 127.638184,69.1835938 C127.198728,68.3828085 126.979004,67.3134833 126.979004,65.9755859 L126.979004,55.3115234 L129.674316,55.3115234 Z M162.420898,56.1464844 C163.529302,57.0058637 164.1958,58.4853411 164.42041,60.5849609 L161.856934,60.5849609 C161.700683,59.6181592 161.344241,58.8149446 160.787598,58.175293 C160.230954,57.5356413 159.337408,57.2158203 158.106934,57.2158203 C156.427238,57.2158203 155.226078,58.0361246 154.503418,59.6767578 C154.034666,60.7412163 153.800293,62.0546797 153.800293,63.6171875 C153.800293,65.189461 154.132321,66.5126899 154.796387,67.5869141 C155.460453,68.6611382 156.505364,69.1982422 157.931152,69.1982422 C159.024908,69.1982422 159.891598,68.8637729 160.53125,68.1948242 C161.170902,67.5258756 161.612792,66.6103574 161.856934,65.4482422 L164.42041,65.4482422 C164.12744,67.5283307 163.395025,69.0493116 162.223145,70.0112305 C161.051264,70.9731493 159.552255,71.4541016 157.726074,71.4541016 C155.675283,71.4541016 154.039557,70.7045973 152.818848,69.2055664 C151.598138,67.7065355 150.987793,65.8339956 150.987793,63.5878906 C150.987793,60.8339706 151.656732,58.6904374 152.994629,57.1572266 C154.332526,55.6240158 156.036611,54.8574219 158.106934,54.8574219 C159.874521,54.8574219 161.312494,55.2871051 162.420898,56.1464844 Z M169.693848,55.3115234 L169.693848,65.7265625 C169.693848,66.5273478 169.8208,67.1816381 170.074707,67.6894531 C170.543459,68.6269578 171.417474,69.0957031 172.696777,69.0957031 C174.532724,69.0957031 175.782712,68.2753988 176.446777,66.6347656 C176.808107,65.755855 176.98877,64.5498124 176.98877,63.0166016 L176.98877,55.3115234 L179.625488,55.3115234 L179.625488,71 L177.135254,71 L177.164551,68.6855469 C176.822752,69.281253 176.397952,69.7841776 175.890137,70.1943359 C174.884272,71.0146525 173.663581,71.4248047 172.228027,71.4248047 C169.991688,71.4248047 168.468266,70.6777418 167.657715,69.1835938 C167.21826,68.3828085 166.998535,67.3134833 166.998535,65.9755859 L166.998535,55.3115234 L169.693848,55.3115234 Z M193.431641,67.6821289 C194.247074,66.6518503 194.654785,65.1113384 194.654785,63.0605469 C194.654785,61.8105406 194.474123,60.7363326 194.112793,59.8378906 C193.429196,58.1093664 192.179208,57.2451172 190.362793,57.2451172 C188.536612,57.2451172 187.286624,58.158194 186.612793,59.984375 C186.251463,60.9609424 186.070801,62.2011644 186.070801,63.7050781 C186.070801,64.9160217 186.251463,65.9462848 186.612793,66.7958984 C187.29639,68.4170003 188.546378,69.2275391 190.362793,69.2275391 C191.593268,69.2275391 192.616207,68.7124075 193.431641,67.6821289 Z M183.536621,55.3847656 L186.100098,55.3847656 L186.100098,57.4648438 C186.627444,56.7519496 187.20361,56.2001973 187.828613,55.8095703 C188.71729,55.2236299 189.762201,54.9306641 190.963379,54.9306641 C192.740732,54.9306641 194.249506,55.6118096 195.489746,56.9741211 C196.729987,58.3364326 197.350098,60.2822139 197.350098,62.8115234 C197.350098,66.2295093 196.456552,68.6708911 194.669434,70.1357422 C193.536615,71.0634812 192.218269,71.5273438 190.714355,71.5273438 C189.532709,71.5273438 188.541508,71.2685573 187.740723,70.7509766 C187.27197,70.4580063 186.749515,69.9550817 186.17334,69.2421875 L186.17334,77.2548828 L183.536621,77.2548828 L183.536621,55.3847656 Z M210.248047,67.315918 C210.897464,65.9926692 211.222168,64.5205159 211.222168,62.8994141 C211.222168,61.434563 210.987795,60.2431687 210.519043,59.3251953 C209.776852,57.8798756 208.497568,57.1572266 206.681152,57.1572266 C205.069816,57.1572266 203.897953,57.7724548 203.165527,59.0029297 C202.433102,60.2334046 202.066895,61.7177647 202.066895,63.4560547 C202.066895,65.1259849 202.433102,66.5175726 203.165527,67.6308594 C203.897953,68.7441462 205.060051,69.3007812 206.651855,69.3007812 C208.399911,69.3007812 209.59863,68.6391668 210.248047,67.315918 Z M211.881348,56.8789062 C213.277839,58.2265692 213.976074,60.2089713 213.976074,62.8261719 C213.976074,65.3554814 213.360846,67.4453042 212.130371,69.0957031 C210.899896,70.746102 208.990736,71.5712891 206.402832,71.5712891 C204.244618,71.5712891 202.530768,70.8413159 201.26123,69.3813477 C199.991693,67.9213794 199.356934,65.9609498 199.356934,63.5 C199.356934,60.8632681 200.025872,58.7636797 201.36377,57.2011719 C202.701667,55.6386641 204.498524,54.8574219 206.754395,54.8574219 C208.775889,54.8574219 210.484856,55.5312433 211.881348,56.8789062 Z M209.815918,48.9980469 L205.904785,53.2314453 L203.883301,53.2314453 L206.563965,48.9980469 L209.815918,48.9980469 Z M217.11084,55.3115234 L219.615723,55.3115234 L219.615723,57.5380859 C220.357914,56.6201126 221.144039,55.9609395 221.974121,55.5605469 C222.804203,55.1601542 223.727046,54.9599609 224.742676,54.9599609 C226.969249,54.9599609 228.473141,55.7363204 229.254395,57.2890625 C229.684084,58.1386761 229.898926,59.3544843 229.898926,60.9365234 L229.898926,71 L227.218262,71 L227.218262,61.1123047 C227.218262,60.1552687 227.076662,59.383792 226.793457,58.7978516 C226.324705,57.8212842 225.475104,57.3330078 224.244629,57.3330078 C223.619626,57.3330078 223.106936,57.3964837 222.706543,57.5234375 C221.983883,57.7382823 221.349124,58.1679655 220.802246,58.8125 C220.362791,59.3300807 220.077149,59.8647433 219.945312,60.4165039 C219.813476,60.9682645 219.747559,61.7568308 219.747559,62.7822266 L219.747559,71 L217.11084,71 L217.11084,55.3115234 Z M251.900879,55.7436523 C252.945806,56.2661159 253.741696,56.9423787 254.288574,57.7724609 C254.815921,58.5634805 255.16748,59.4863229 255.343262,60.5410156 C255.499513,61.2636755 255.577637,62.4160077 255.577637,63.9980469 L244.078613,63.9980469 C244.127442,65.5898517 244.503414,66.8666944 245.206543,67.8286133 C245.909671,68.7905322 246.998528,69.2714844 248.473145,69.2714844 C249.850105,69.2714844 250.948726,68.8173874 251.769043,67.9091797 C252.237795,67.3818333 252.569823,66.7714878 252.765137,66.078125 L255.35791,66.078125 C255.28955,66.6542998 255.062502,67.2963832 254.676758,68.0043945 C254.291014,68.7124059 253.858889,69.2910134 253.380371,69.7402344 C252.579586,70.5214883 251.588385,71.0488268 250.406738,71.3222656 C249.771969,71.4785164 249.054203,71.5566406 248.253418,71.5566406 C246.300283,71.5566406 244.645026,70.8461985 243.287598,69.425293 C241.930169,68.0043874 241.251465,66.0146612 241.251465,63.4560547 C241.251465,60.9365108 241.935052,58.8906329 243.302246,57.3183594 C244.66944,55.7460859 246.456532,54.9599609 248.663574,54.9599609 C249.776861,54.9599609 250.855952,55.2211888 251.900879,55.7436523 Z M252.867676,61.9033203 C252.760253,60.7607365 252.511232,59.8476597 252.120605,59.1640625 C251.397946,57.8945249 250.191903,57.2597656 248.502441,57.2597656 C247.291498,57.2597656 246.275883,57.696773 245.455566,58.5708008 C244.63525,59.4448286 244.200684,60.5556573 244.151855,61.9033203 L252.867676,61.9033203 Z M258.814941,55.3115234 L261.319824,55.3115234 L261.319824,57.5380859 C262.062015,56.6201126 262.84814,55.9609395 263.678223,55.5605469 C264.508305,55.1601542 265.431147,54.9599609 266.446777,54.9599609 C268.673351,54.9599609 270.177242,55.7363204 270.958496,57.2890625 C271.388186,58.1386761 271.603027,59.3544843 271.603027,60.9365234 L271.603027,71 L268.922363,71 L268.922363,61.1123047 C268.922363,60.1552687 268.780763,59.383792 268.497559,58.7978516 C268.028806,57.8212842 267.179205,57.3330078 265.94873,57.3330078 C265.323727,57.3330078 264.811037,57.3964837 264.410645,57.5234375 C263.687985,57.7382823 263.053225,58.1679655 262.506348,58.8125 C262.066892,59.3300807 261.781251,59.8647433 261.649414,60.4165039 C261.517577,60.9682645 261.45166,61.7568308 261.45166,62.7822266 L261.45166,71 L258.814941,71 L258.814941,55.3115234 Z M294.198242,56.1464844 C295.306646,57.0058637 295.973143,58.4853411 296.197754,60.5849609 L293.634277,60.5849609 C293.478027,59.6181592 293.121585,58.8149446 292.564941,58.175293 C292.008298,57.5356413 291.114752,57.2158203 289.884277,57.2158203 C288.204581,57.2158203 287.003422,58.0361246 286.280762,59.6767578 C285.812009,60.7412163 285.577637,62.0546797 285.577637,63.6171875 C285.577637,65.189461 285.909665,66.5126899 286.57373,67.5869141 C287.237796,68.6611382 288.282708,69.1982422 289.708496,69.1982422 C290.802252,69.1982422 291.668942,68.8637729 292.308594,68.1948242 C292.948245,67.5258756 293.390135,66.6103574 293.634277,65.4482422 L296.197754,65.4482422 C295.904784,67.5283307 295.172369,69.0493116 294.000488,70.0112305 C292.828607,70.9731493 291.329599,71.4541016 289.503418,71.4541016 C287.452626,71.4541016 285.816901,70.7045973 284.596191,69.2055664 C283.375482,67.7065355 282.765137,65.8339956 282.765137,63.5878906 C282.765137,60.8339706 283.434075,58.6904374 284.771973,57.1572266 C286.10987,55.6240158 287.813954,54.8574219 289.884277,54.8574219 C291.651864,54.8574219 293.089838,55.2871051 294.198242,56.1464844 Z M301.690918,68.6269531 C302.247561,69.0664084 302.906734,69.2861328 303.668457,69.2861328 C304.596196,69.2861328 305.494625,69.0712912 306.36377,68.6416016 C307.828621,67.9287074 308.561035,66.7617269 308.561035,65.140625 L308.561035,63.0166016 C308.238768,63.2216807 307.823733,63.3925774 307.315918,63.5292969 C306.808103,63.6660163 306.310061,63.7636716 305.821777,63.8222656 L304.225098,64.0273438 C303.268062,64.1542975 302.550295,64.3544908 302.071777,64.6279297 C301.261226,65.0869164 300.855957,65.8193309 300.855957,66.8251953 C300.855957,67.5869179 301.134275,68.1874978 301.690918,68.6269531 Z M307.242676,61.4931641 C307.848148,61.4150387 308.253417,61.161135 308.458496,60.7314453 C308.575684,60.4970691 308.634277,60.1601584 308.634277,59.7207031 C308.634277,58.8222611 308.314456,58.1704122 307.674805,57.7651367 C307.035153,57.3598613 306.119635,57.1572266 304.928223,57.1572266 C303.551263,57.1572266 302.57471,57.5283166 301.998535,58.2705078 C301.676268,58.6806661 301.466309,59.2910116 301.368652,60.1015625 L298.907715,60.1015625 C298.956543,58.1679591 299.583978,56.8227577 300.790039,56.065918 C301.9961,55.3090782 303.395012,54.9306641 304.986816,54.9306641 C306.832529,54.9306641 308.331537,55.282223 309.483887,55.9853516 C310.626471,56.6884801 311.197754,57.7822191 311.197754,59.2666016 L311.197754,68.3046875 C311.197754,68.5781264 311.253906,68.7978507 311.366211,68.9638672 C311.478516,69.1298836 311.71533,69.2128906 312.07666,69.2128906 C312.193848,69.2128906 312.325683,69.2055665 312.472168,69.190918 C312.618653,69.1762695 312.774902,69.154297 312.940918,69.125 L312.940918,71.0732422 C312.53076,71.1904303 312.218263,71.2636717 312.003418,71.2929688 C311.788573,71.3222658 311.495607,71.3369141 311.124512,71.3369141 C310.216304,71.3369141 309.557131,71.0146517 309.146973,70.3701172 C308.932128,70.0283186 308.780762,69.544925 308.692871,68.9199219 C308.155759,69.6230504 307.384282,70.2333958 306.378418,70.7509766 C305.372554,71.2685573 304.264166,71.5273438 303.053223,71.5273438 C301.598137,71.5273438 300.409184,71.0854536 299.486328,70.2016602 C298.563472,69.3178667 298.102051,68.2119207 298.102051,66.8837891 C298.102051,65.4287037 298.556148,64.3007853 299.464355,63.5 C300.372563,62.6992147 301.563957,62.2060556 303.038574,62.0205078 L307.242676,61.4931641 Z M318.155762,52.5283203 L315.519043,52.5283203 L315.519043,49.4814453 L318.155762,49.4814453 L318.155762,52.5283203 Z M313.028809,74.9697266 C314.210455,74.9306639 314.920897,74.8256844 315.160156,74.6547852 C315.399415,74.4838859 315.519043,73.9492232 315.519043,73.0507812 L315.519043,55.3847656 L318.155762,55.3847656 L318.155762,73.3291016 C318.155762,74.4716854 317.970217,75.326169 317.599121,75.8925781 C316.983884,76.8496142 315.816903,77.328125 314.098145,77.328125 C313.971191,77.328125 313.836915,77.3232422 313.695312,77.3134766 C313.55371,77.3037109 313.331544,77.2841798 313.028809,77.2548828 L313.028809,74.9697266 Z M325.040527,68.6269531 C325.597171,69.0664084 326.256344,69.2861328 327.018066,69.2861328 C327.945805,69.2861328 328.844234,69.0712912 329.713379,68.6416016 C331.17823,67.9287074 331.910645,66.7617269 331.910645,65.140625 L331.910645,63.0166016 C331.588377,63.2216807 331.173342,63.3925774 330.665527,63.5292969 C330.157712,63.6660163 329.65967,63.7636716 329.171387,63.8222656 L327.574707,64.0273438 C326.617671,64.1542975 325.899905,64.3544908 325.421387,64.6279297 C324.610836,65.0869164 324.205566,65.8193309 324.205566,66.8251953 C324.205566,67.5869179 324.483884,68.1874978 325.040527,68.6269531 Z M330.592285,61.4931641 C331.197757,61.4150387 331.603026,61.161135 331.808105,60.7314453 C331.925294,60.4970691 331.983887,60.1601584 331.983887,59.7207031 C331.983887,58.8222611 331.664066,58.1704122 331.024414,57.7651367 C330.384762,57.3598613 329.469244,57.1572266 328.277832,57.1572266 C326.900872,57.1572266 325.924319,57.5283166 325.348145,58.2705078 C325.025877,58.6806661 324.815918,59.2910116 324.718262,60.1015625 L322.257324,60.1015625 C322.306153,58.1679591 322.933588,56.8227577 324.139648,56.065918 C325.345709,55.3090782 326.744621,54.9306641 328.336426,54.9306641 C330.182138,54.9306641 331.681147,55.282223 332.833496,55.9853516 C333.97608,56.6884801 334.547363,57.7822191 334.547363,59.2666016 L334.547363,68.3046875 C334.547363,68.5781264 334.603515,68.7978507 334.71582,68.9638672 C334.828126,69.1298836 335.06494,69.2128906 335.42627,69.2128906 C335.543458,69.2128906 335.675292,69.2055665 335.821777,69.190918 C335.968262,69.1762695 336.124511,69.154297 336.290527,69.125 L336.290527,71.0732422 C335.880369,71.1904303 335.567872,71.2636717 335.353027,71.2929688 C335.138183,71.3222658 334.845217,71.3369141 334.474121,71.3369141 C333.565913,71.3369141 332.90674,71.0146517 332.496582,70.3701172 C332.281737,70.0283186 332.130372,69.544925 332.04248,68.9199219 C331.505368,69.6230504 330.733892,70.2333958 329.728027,70.7509766 C328.722163,71.2685573 327.613776,71.5273438 326.402832,71.5273438 C324.947747,71.5273438 323.758794,71.0854536 322.835938,70.2016602 C321.913081,69.3178667 321.45166,68.2119207 321.45166,66.8837891 C321.45166,65.4287037 321.905757,64.3007853 322.813965,63.5 C323.722173,62.6992147 324.913567,62.2060556 326.388184,62.0205078 L330.592285,61.4931641 Z M40.9853516,91.3115234 L43.9003906,91.3115234 C43.529295,92.3173878 42.704108,94.6122868 41.4248047,98.1962891 C40.4677687,100.891615 39.6669954,103.088859 39.0224609,104.788086 C37.4990158,108.792012 36.4248078,111.233394 35.7998047,112.112305 C35.1748016,112.991215 34.1005936,113.430664 32.5771484,113.430664 C32.2060528,113.430664 31.9204112,113.416016 31.7202148,113.386719 C31.5200185,113.357422 31.273439,113.303711 30.9804688,113.225586 L30.9804688,110.823242 C31.4394554,110.950196 31.7714833,111.02832 31.9765625,111.057617 C32.1816417,111.086914 32.3623039,111.101562 32.5185547,111.101562 C33.0068384,111.101562 33.3657215,111.020997 33.5952148,110.859863 C33.8247082,110.69873 34.0175773,110.500978 34.1738281,110.266602 C34.2226565,110.188476 34.398436,109.78809 34.7011719,109.06543 C35.0039078,108.34277 35.2236321,107.805666 35.3603516,107.454102 L29.5595703,91.3115234 L32.5478516,91.3115234 L36.7519531,104.084961 L40.9853516,91.3115234 Z M57.1572266,91.3115234 L57.1572266,101.726562 C57.1572266,102.527348 57.2841784,103.181638 57.5380859,103.689453 C58.0068383,104.626958 58.880853,105.095703 60.1601562,105.095703 C61.9961029,105.095703 63.2460904,104.275399 63.9101562,102.634766 C64.2714862,101.755855 64.4521484,100.549812 64.4521484,99.0166016 L64.4521484,91.3115234 L67.0888672,91.3115234 L67.0888672,107 L64.5986328,107 L64.6279297,104.685547 C64.2861311,105.281253 63.8613307,105.784178 63.3535156,106.194336 C62.3476512,107.014653 61.1269603,107.424805 59.6914062,107.424805 C57.4550669,107.424805 55.9316447,106.677742 55.1210938,105.183594 C54.6816384,104.382808 54.4619141,103.313483 54.4619141,101.975586 L54.4619141,91.3115234 L57.1572266,91.3115234 Z M71.7324219,86.9316406 L74.3984375,86.9316406 L74.3984375,91.3115234 L76.9033203,91.3115234 L76.9033203,93.4648438 L74.3984375,93.4648438 L74.3984375,103.704102 C74.3984375,104.250979 74.5839825,104.617187 74.9550781,104.802734 C75.1601573,104.910157 75.5019507,104.963867 75.9804688,104.963867 C76.1074225,104.963867 76.2441399,104.961426 76.390625,104.956543 C76.5371101,104.95166 76.7080068,104.939453 76.9033203,104.919922 L76.9033203,107 C76.6005844,107.087891 76.2856462,107.151367 75.9584961,107.19043 C75.631346,107.229492 75.2773457,107.249023 74.8964844,107.249023 C73.6660095,107.249023 72.8310569,106.934085 72.3916016,106.304199 C71.9521462,105.674313 71.7324219,104.85645 71.7324219,103.850586 L71.7324219,93.4648438 L69.6083984,93.4648438 L69.6083984,91.3115234 L71.7324219,91.3115234 L71.7324219,86.9316406 Z M79.5400391,91.3847656 L82.2207031,91.3847656 L82.2207031,107 L79.5400391,107 L79.5400391,91.3847656 Z M79.5400391,85.4814453 L82.2207031,85.4814453 L82.2207031,88.4697266 L79.5400391,88.4697266 L79.5400391,85.4814453 Z M86.2783203,85.4814453 L88.9150391,85.4814453 L88.9150391,107 L86.2783203,107 L86.2783203,85.4814453 Z M92.8701172,91.3847656 L95.5507812,91.3847656 L95.5507812,107 L92.8701172,107 L92.8701172,91.3847656 Z M92.8701172,85.4814453 L95.5507812,85.4814453 L95.5507812,88.4697266 L92.8701172,88.4697266 L92.8701172,85.4814453 Z M98.3632812,104.919922 L107.665039,93.6699219 L99.0517578,93.6699219 L99.0517578,91.3115234 L111.209961,91.3115234 L111.209961,93.4648438 L101.966797,104.641602 L111.488281,104.641602 L111.488281,107 L98.3632812,107 L98.3632812,104.919922 Z M117.391602,104.626953 C117.948245,105.066408 118.607418,105.286133 119.369141,105.286133 C120.29688,105.286133 121.195308,105.071291 122.064453,104.641602 C123.529304,103.928707 124.261719,102.761727 124.261719,101.140625 L124.261719,99.0166016 C123.939452,99.2216807 123.524417,99.3925774 123.016602,99.5292969 C122.508787,99.6660163 122.010745,99.7636716 121.522461,99.8222656 L119.925781,100.027344 C118.968745,100.154298 118.250979,100.354491 117.772461,100.62793 C116.96191,101.086916 116.556641,101.819331 116.556641,102.825195 C116.556641,103.586918 116.834958,104.187498 117.391602,104.626953 Z M122.943359,97.4931641 C123.548831,97.4150387 123.954101,97.161135 124.15918,96.7314453 C124.276368,96.4970691 124.334961,96.1601584 124.334961,95.7207031 C124.334961,94.8222611 124.01514,94.1704122 123.375488,93.7651367 C122.735837,93.3598613 121.820318,93.1572266 120.628906,93.1572266 C119.251946,93.1572266 118.275394,93.5283166 117.699219,94.2705078 C117.376952,94.6806661 117.166993,95.2910116 117.069336,96.1015625 L114.608398,96.1015625 C114.657227,94.1679591 115.284662,92.8227577 116.490723,92.065918 C117.696783,91.3090782 119.095695,90.9306641 120.6875,90.9306641 C122.533212,90.9306641 124.032221,91.282223 125.18457,91.9853516 C126.327154,92.6884801 126.898438,93.7822191 126.898438,95.2666016 L126.898438,104.304688 C126.898438,104.578126 126.954589,104.797851 127.066895,104.963867 C127.1792,105.129884 127.416014,105.212891 127.777344,105.212891 C127.894532,105.212891 128.026366,105.205566 128.172852,105.190918 C128.319337,105.176269 128.475585,105.154297 128.641602,105.125 L128.641602,107.073242 C128.231443,107.19043 127.918946,107.263672 127.704102,107.292969 C127.489257,107.322266 127.196291,107.336914 126.825195,107.336914 C125.916988,107.336914 125.257815,107.014652 124.847656,106.370117 C124.632811,106.028319 124.481446,105.544925 124.393555,104.919922 C123.856443,105.62305 123.084966,106.233396 122.079102,106.750977 C121.073237,107.268557 119.96485,107.527344 118.753906,107.527344 C117.298821,107.527344 116.109868,107.085454 115.187012,106.20166 C114.264156,105.317867 113.802734,104.211921 113.802734,102.883789 C113.802734,101.428704 114.256831,100.300785 115.165039,99.5 C116.073247,98.6992147 117.264641,98.2060556 118.739258,98.0205078 L122.943359,97.4931641 Z M149.325195,91.7436523 C150.370122,92.2661159 151.166013,92.9423787 151.712891,93.7724609 C152.240237,94.5634805 152.591796,95.4863229 152.767578,96.5410156 C152.923829,97.2636755 153.001953,98.4160077 153.001953,99.9980469 L141.50293,99.9980469 C141.551758,101.589852 141.927731,102.866694 142.630859,103.828613 C143.333988,104.790532 144.422844,105.271484 145.897461,105.271484 C147.274421,105.271484 148.373043,104.817387 149.193359,103.90918 C149.662112,103.381833 149.99414,102.771488 150.189453,102.078125 L152.782227,102.078125 C152.713867,102.6543 152.486818,103.296383 152.101074,104.004395 C151.71533,104.712406 151.283206,105.291013 150.804688,105.740234 C150.003902,106.521488 149.012701,107.048827 147.831055,107.322266 C147.196286,107.478516 146.47852,107.556641 145.677734,107.556641 C143.7246,107.556641 142.069343,106.846199 140.711914,105.425293 C139.354485,104.004387 138.675781,102.014661 138.675781,99.4560547 C138.675781,96.9365108 139.359368,94.8906329 140.726562,93.3183594 C142.093757,91.7460859 143.880848,90.9599609 146.087891,90.9599609 C147.201177,90.9599609 148.280268,91.2211888 149.325195,91.7436523 Z M150.291992,97.9033203 C150.18457,96.7607365 149.935549,95.8476597 149.544922,95.1640625 C148.822262,93.8945249 147.616219,93.2597656 145.926758,93.2597656 C144.715814,93.2597656 143.700199,93.696773 142.879883,94.5708008 C142.059566,95.4448286 141.625,96.5556573 141.576172,97.9033203 L150.291992,97.9033203 Z M156.3125,85.4814453 L158.949219,85.4814453 L158.949219,107 L156.3125,107 L156.3125,85.4814453 Z M173.978516,103.557617 C174.69141,104.690435 175.833977,105.256836 177.40625,105.256836 C178.626959,105.256836 179.630367,104.731939 180.416504,103.682129 C181.202641,102.632319 181.595703,101.125986 181.595703,99.1630859 C181.595703,97.1806542 181.190434,95.7133837 180.379883,94.7612305 C179.569332,93.8090773 178.568365,93.3330078 177.376953,93.3330078 C176.048821,93.3330078 174.972172,93.8408152 174.146973,94.8564453 C173.321773,95.8720754 172.90918,97.3662011 172.90918,99.3388672 C172.90918,101.018563 173.265621,102.424799 173.978516,103.557617 Z M179.896484,91.7949219 C180.365237,92.0878921 180.897458,92.6005823 181.493164,93.3330078 L181.493164,85.4082031 L184.027344,85.4082031 L184.027344,107 L181.654297,107 L181.654297,104.817383 C181.039059,105.784185 180.311528,106.48242 179.47168,106.912109 C178.631832,107.341799 177.669927,107.556641 176.585938,107.556641 C174.837882,107.556641 173.324225,106.821785 172.044922,105.352051 C170.765619,103.882317 170.125977,101.92677 170.125977,99.4853516 C170.125977,97.2001839 170.709467,95.2202232 171.876465,93.5454102 C173.043463,91.8705971 174.710927,91.0332031 176.878906,91.0332031 C178.080084,91.0332031 179.085933,91.2871068 179.896484,91.7949219 Z M197.694336,91.7436523 C198.739263,92.2661159 199.535154,92.9423787 200.082031,93.7724609 C200.609378,94.5634805 200.960937,95.4863229 201.136719,96.5410156 C201.29297,97.2636755 201.371094,98.4160077 201.371094,99.9980469 L189.87207,99.9980469 C189.920899,101.589852 190.296871,102.866694 191,103.828613 C191.703129,104.790532 192.791985,105.271484 194.266602,105.271484 C195.643562,105.271484 196.742183,104.817387 197.5625,103.90918 C198.031252,103.381833 198.36328,102.771488 198.558594,102.078125 L201.151367,102.078125 C201.083007,102.6543 200.855959,103.296383 200.470215,104.004395 C200.084471,104.712406 199.652346,105.291013 199.173828,105.740234 C198.373043,106.521488 197.381842,107.048827 196.200195,107.322266 C195.565427,107.478516 194.84766,107.556641 194.046875,107.556641 C192.09374,107.556641 190.438483,106.846199 189.081055,105.425293 C187.723626,104.004387 187.044922,102.014661 187.044922,99.4560547 C187.044922,96.9365108 187.728509,94.8906329 189.095703,93.3183594 C190.462897,91.7460859 192.249989,90.9599609 194.457031,90.9599609 C195.570318,90.9599609 196.649409,91.2211888 197.694336,91.7436523 Z M198.661133,97.9033203 C198.55371,96.7607365 198.304689,95.8476597 197.914062,95.1640625 C197.191403,93.8945249 195.98536,93.2597656 194.295898,93.2597656 C193.084955,93.2597656 192.06934,93.696773 191.249023,94.5708008 C190.428707,95.4448286 189.994141,96.5556573 189.945312,97.9033203 L198.661133,97.9033203 Z M206.175781,102.078125 C206.253907,102.957036 206.473631,103.630857 206.834961,104.099609 C207.499027,104.949223 208.651359,105.374023 210.291992,105.374023 C211.26856,105.374023 212.127926,105.161623 212.870117,104.736816 C213.612308,104.31201 213.983398,103.655278 213.983398,102.766602 C213.983398,102.09277 213.68555,101.58008 213.089844,101.228516 C212.708982,101.013671 211.957037,100.76465 210.833984,100.481445 L208.739258,99.9541016 C207.40136,99.6220687 206.415042,99.2509786 205.780273,98.8408203 C204.647455,98.1279261 204.081055,97.1416079 204.081055,95.8818359 C204.081055,94.3974535 204.615717,93.1962937 205.685059,92.2783203 C206.7544,91.360347 208.192374,90.9013672 209.999023,90.9013672 C212.362317,90.9013672 214.066401,91.5947196 215.111328,92.9814453 C215.765628,93.860356 216.083008,94.8076121 216.063477,95.8232422 L213.573242,95.8232422 C213.524414,95.2275361 213.314455,94.6855493 212.943359,94.1972656 C212.337888,93.5039028 211.288093,93.1572266 209.793945,93.1572266 C208.797847,93.1572266 208.04346,93.3476543 207.530762,93.7285156 C207.018064,94.1093769 206.761719,94.6123016 206.761719,95.2373047 C206.761719,95.9209019 207.098629,96.4677714 207.772461,96.8779297 C208.163088,97.1220715 208.739254,97.3369131 209.500977,97.5224609 L211.244141,97.9472656 C213.138681,98.4062523 214.4082,98.8505838 215.052734,99.2802734 C216.07813,99.9541049 216.59082,101.013665 216.59082,102.458984 C216.59082,103.855476 216.06104,105.061518 215.001465,106.077148 C213.941889,107.092779 212.328136,107.600586 210.160156,107.600586 C207.82616,107.600586 206.173345,107.070806 205.20166,106.01123 C204.229976,104.951655 203.709961,103.640633 203.641602,102.078125 L206.175781,102.078125 Z M229.972168,92.1464844 C231.080572,93.0058637 231.747069,94.4853411 231.97168,96.5849609 L229.408203,96.5849609 C229.251952,95.6181592 228.895511,94.8149446 228.338867,94.175293 C227.782224,93.5356413 226.888678,93.2158203 225.658203,93.2158203 C223.978507,93.2158203 222.777347,94.0361246 222.054688,95.6767578 C221.585935,96.7412163 221.351562,98.0546797 221.351562,99.6171875 C221.351562,101.189461 221.68359,102.51269 222.347656,103.586914 C223.011722,104.661138 224.056633,105.198242 225.482422,105.198242 C226.576177,105.198242 227.442868,104.863773 228.08252,104.194824 C228.722171,103.525876 229.164061,102.610357 229.408203,101.448242 L231.97168,101.448242 C231.678709,103.528331 230.946295,105.049312 229.774414,106.01123 C228.602533,106.973149 227.103525,107.454102 225.277344,107.454102 C223.226552,107.454102 221.590826,106.704597 220.370117,105.205566 C219.149408,103.706535 218.539062,101.833996 218.539062,99.5878906 C218.539062,96.8339706 219.208001,94.6904374 220.545898,93.1572266 C221.883796,91.6240158 223.58788,90.8574219 225.658203,90.8574219 C227.42579,90.8574219 228.863764,91.2871051 229.972168,92.1464844 Z M237.245117,91.3115234 L237.245117,101.726562 C237.245117,102.527348 237.372069,103.181638 237.625977,103.689453 C238.094729,104.626958 238.968744,105.095703 240.248047,105.095703 C242.083994,105.095703 243.333981,104.275399 243.998047,102.634766 C244.359377,101.755855 244.540039,100.549812 244.540039,99.0166016 L244.540039,91.3115234 L247.176758,91.3115234 L247.176758,107 L244.686523,107 L244.71582,104.685547 C244.374022,105.281253 243.949221,105.784178 243.441406,106.194336 C242.435542,107.014653 241.214851,107.424805 239.779297,107.424805 C237.542958,107.424805 236.019535,106.677742 235.208984,105.183594 C234.769529,104.382808 234.549805,103.313483 234.549805,101.975586 L234.549805,91.3115234 L237.245117,91.3115234 Z M261.063477,91.7436523 C262.108404,92.2661159 262.904294,92.9423787 263.451172,93.7724609 C263.978518,94.5634805 264.330077,95.4863229 264.505859,96.5410156 C264.66211,97.2636755 264.740234,98.4160077 264.740234,99.9980469 L253.241211,99.9980469 C253.290039,101.589852 253.666012,102.866694 254.369141,103.828613 C255.072269,104.790532 256.161125,105.271484 257.635742,105.271484 C259.012702,105.271484 260.111324,104.817387 260.931641,103.90918 C261.400393,103.381833 261.732421,102.771488 261.927734,102.078125 L264.520508,102.078125 C264.452148,102.6543 264.2251,103.296383 263.839355,104.004395 C263.453611,104.712406 263.021487,105.291013 262.542969,105.740234 C261.742183,106.521488 260.750982,107.048827 259.569336,107.322266 C258.934567,107.478516 258.216801,107.556641 257.416016,107.556641 C255.462881,107.556641 253.807624,106.846199 252.450195,105.425293 C251.092767,104.004387 250.414062,102.014661 250.414062,99.4560547 C250.414062,96.9365108 251.097649,94.8906329 252.464844,93.3183594 C253.832038,91.7460859 255.61913,90.9599609 257.826172,90.9599609 C258.939459,90.9599609 260.018549,91.2211888 261.063477,91.7436523 Z M262.030273,97.9033203 C261.922851,96.7607365 261.67383,95.8476597 261.283203,95.1640625 C260.560543,93.8945249 259.354501,93.2597656 257.665039,93.2597656 C256.454096,93.2597656 255.438481,93.696773 254.618164,94.5708008 C253.797847,95.4448286 253.363281,96.5556573 253.314453,97.9033203 L262.030273,97.9033203 Z M267.977539,91.3115234 L270.482422,91.3115234 L270.482422,93.5380859 C271.224613,92.6201126 272.010738,91.9609395 272.84082,91.5605469 C273.670903,91.1601542 274.593745,90.9599609 275.609375,90.9599609 C277.835949,90.9599609 279.33984,91.7363204 280.121094,93.2890625 C280.550783,94.1386761 280.765625,95.3544843 280.765625,96.9365234 L280.765625,107 L278.084961,107 L278.084961,97.1123047 C278.084961,96.1552687 277.943361,95.383792 277.660156,94.7978516 C277.191404,93.8212842 276.341803,93.3330078 275.111328,93.3330078 C274.486325,93.3330078 273.973635,93.3964837 273.573242,93.5234375 C272.850582,93.7382823 272.215823,94.1679655 271.668945,94.8125 C271.22949,95.3300807 270.943848,95.8647433 270.812012,96.4165039 C270.680175,96.9682645 270.614258,97.7568308 270.614258,98.7822266 L270.614258,107 L267.977539,107 L267.977539,91.3115234 Z M285.189453,86.9316406 L287.855469,86.9316406 L287.855469,91.3115234 L290.360352,91.3115234 L290.360352,93.4648438 L287.855469,93.4648438 L287.855469,103.704102 C287.855469,104.250979 288.041014,104.617187 288.412109,104.802734 C288.617189,104.910157 288.958982,104.963867 289.4375,104.963867 C289.564454,104.963867 289.701171,104.961426 289.847656,104.956543 C289.994141,104.95166 290.165038,104.939453 290.360352,104.919922 L290.360352,107 C290.057616,107.087891 289.742677,107.151367 289.415527,107.19043 C289.088377,107.229492 288.734377,107.249023 288.353516,107.249023 C287.123041,107.249023 286.288088,106.934085 285.848633,106.304199 C285.409177,105.674313 285.189453,104.85645 285.189453,103.850586 L285.189453,93.4648438 L283.06543,93.4648438 L283.06543,91.3115234 L285.189453,91.3115234 L285.189453,86.9316406 Z M302.818848,103.315918 C303.468265,101.992669 303.792969,100.520516 303.792969,98.8994141 C303.792969,97.434563 303.558596,96.2431687 303.089844,95.3251953 C302.347653,93.8798756 301.068368,93.1572266 299.251953,93.1572266 C297.640617,93.1572266 296.468754,93.7724548 295.736328,95.0029297 C295.003903,96.2334046 294.637695,97.7177647 294.637695,99.4560547 C294.637695,101.125985 295.003903,102.517573 295.736328,103.630859 C296.468754,104.744146 297.630851,105.300781 299.222656,105.300781 C300.970712,105.300781 302.16943,104.639167 302.818848,103.315918 Z M304.452148,92.8789062 C305.84864,94.2265692 306.546875,96.2089713 306.546875,98.8261719 C306.546875,101.355481 305.931647,103.445304 304.701172,105.095703 C303.470697,106.746102 301.561536,107.571289 298.973633,107.571289 C296.815419,107.571289 295.101569,106.841316 293.832031,105.381348 C292.562494,103.921379 291.927734,101.96095 291.927734,99.5 C291.927734,96.8632681 292.596673,94.7636797 293.93457,93.2011719 C295.272468,91.6386641 297.069325,90.8574219 299.325195,90.8574219 C301.34669,90.8574219 303.055657,91.5312433 304.452148,92.8789062 Z" id="Muestra-tu-cupón-en"></path>
            </g>
        </g>
    </g>
</svg>