<?xml version="1.0" encoding="UTF-8"?>
<svg width="417px" height="101px" viewBox="0 0 417 101" version="1.1" xmlns="http://www.w3.org/2000/svg" xmlns:xlink="http://www.w3.org/1999/xlink">
    <!-- Generator: Sketch 47.1 (45422) - http://www.bohemiancoding.com/sketch -->
    <title>Group</title>
    <desc>Created with Sketch.</desc>
    <defs></defs>
    <g id="Home" stroke="none" stroke-width="1" fill="none" fill-rule="evenodd">
        <g id="Artboard" transform="translate(-139.000000, -231.000000)">
            <g id="Group" transform="translate(139.000000, 231.000000)">
                <path d="M0.140625,1.046875 L3.28125,1.046875 L3.28125,24 L0.140625,24 L0.140625,1.046875 Z M7.953125,7.265625 L10.625,7.265625 L10.625,9.640625 C11.4166706,8.66145344 12.2552039,7.95833547 13.140625,7.53125 C14.0260461,7.10416453 15.0104113,6.890625 16.09375,6.890625 C18.4687619,6.890625 20.0729125,7.71874172 20.90625,9.375 C21.3645856,10.2812545 21.59375,11.5781166 21.59375,13.265625 L21.59375,24 L18.734375,24 L18.734375,13.453125 C18.734375,12.4322866 18.5833348,11.6093781 18.28125,10.984375 C17.7812475,9.94270313 16.8750066,9.421875 15.5625,9.421875 C14.89583,9.421875 14.3489605,9.48958266 13.921875,9.625 C13.1510378,9.85416781 12.4739613,10.3124966 11.890625,11 C11.4218727,11.5520861 11.1171882,12.1223929 10.9765625,12.7109375 C10.8359368,13.2994821 10.765625,14.1406195 10.765625,15.234375 L10.765625,24 L7.953125,24 L7.953125,7.265625 Z M35.09375,7.9375 C35.6250027,8.30208516 36.1666639,8.83332984 36.71875,9.53125 L36.71875,7.421875 L39.3125,7.421875 L39.3125,22.640625 C39.3125,24.7656356 39.0000031,26.4427022 38.375,27.671875 C37.2083275,29.9427197 35.0052245,31.078125 31.765625,31.078125 C29.9635327,31.078125 28.4479228,30.6744832 27.21875,29.8671875 C25.9895772,29.0598918 25.3020841,27.7968836 25.15625,26.078125 L28.015625,26.078125 C28.1510423,26.8281288 28.421873,27.406248 28.828125,27.8125 C29.4635448,28.4375031 30.4635348,28.75 31.828125,28.75 C33.9843858,28.75 35.39583,27.9895909 36.0625,26.46875 C36.4583353,25.5729122 36.6406252,23.9739698 36.609375,21.671875 C36.0468722,22.5260459 35.3697956,23.1614563 34.578125,23.578125 C33.7864544,23.9947937 32.7395898,24.203125 31.4375,24.203125 C29.6249909,24.203125 28.0390693,23.5599023 26.6796875,22.2734375 C25.3203057,20.9869727 24.640625,18.8593898 24.640625,15.890625 C24.640625,13.0885277 25.325514,10.9010495 26.6953125,9.328125 C28.065111,7.75520047 29.7187403,6.96875 31.65625,6.96875 C32.9687566,6.96875 34.1145784,7.29166344 35.09375,7.9375 Z M35.4375,10.953125 C34.5833291,9.95312 33.4947983,9.453125 32.171875,9.453125 C30.1926984,9.453125 28.8385453,10.3801991 28.109375,12.234375 C27.7239564,13.2239633 27.53125,14.5208253 27.53125,16.125 C27.53125,18.0104261 27.9140587,19.4453076 28.6796875,20.4296875 C29.4453163,21.4140674 30.4739519,21.90625 31.765625,21.90625 C33.7864684,21.90625 35.2083292,20.9948008 36.03125,19.171875 C36.4895856,18.1406198 36.71875,16.9375069 36.71875,15.5625 C36.71875,13.489573 36.2916709,11.95313 35.4375,10.953125 Z M43.625,7.265625 L46.296875,7.265625 L46.296875,10.15625 C46.5156261,9.59374719 47.0520791,8.9088582 47.90625,8.1015625 C48.7604209,7.2942668 49.7447861,6.890625 50.859375,6.890625 C50.9114586,6.890625 50.9999994,6.89583328 51.125,6.90625 C51.2500006,6.91666672 51.4635402,6.93749984 51.765625,6.96875 L51.765625,9.9375 C51.5989575,9.90624984 51.4453132,9.88541672 51.3046875,9.875 C51.1640618,9.86458328 51.0104175,9.859375 50.84375,9.859375 C49.4270762,9.859375 48.3385455,10.3150996 47.578125,11.2265625 C46.8177045,12.1380254 46.4375,13.1874941 46.4375,14.375 L46.4375,24 L43.625,24 L43.625,7.265625 Z M64.625,7.7265625 C65.7395889,8.28385695 66.5885387,9.00520391 67.171875,9.890625 C67.7343778,10.7343792 68.1093741,11.7187444 68.296875,12.84375 C68.4635425,13.6145872 68.546875,14.8437416 68.546875,16.53125 L56.28125,16.53125 C56.3333336,18.2291752 56.7343712,19.5911407 57.484375,20.6171875 C58.2343788,21.6432343 59.3958255,22.15625 60.96875,22.15625 C62.4375073,22.15625 63.6093706,21.6718798 64.484375,20.703125 C64.9843775,20.1406222 65.3385406,19.489587 65.546875,18.75 L68.3125,18.75 C68.239583,19.3645864 67.9973979,20.0494754 67.5859375,20.8046875 C67.1744771,21.5598996 66.7135442,22.1770809 66.203125,22.65625 C65.3489541,23.4895875 64.291673,24.0520819 63.03125,24.34375 C62.3541633,24.5104175 61.5885459,24.59375 60.734375,24.59375 C58.6510313,24.59375 56.8854239,23.8359451 55.4375,22.3203125 C53.9895761,20.8046799 53.265625,18.6823053 53.265625,15.953125 C53.265625,13.2656116 53.9947844,11.0833417 55.453125,9.40625 C56.9114656,7.72915828 58.8176966,6.890625 61.171875,6.890625 C62.3593809,6.890625 63.5104111,7.16926805 64.625,7.7265625 Z M65.65625,14.296875 C65.5416661,13.0781189 65.2760437,12.1041703 64.859375,11.375 C64.0885378,10.0208266 62.8020923,9.34375 61,9.34375 C59.7083269,9.34375 58.6250044,9.80989117 57.75,10.7421875 C56.8749956,11.6744838 56.4114586,12.8593678 56.359375,14.296875 L65.65625,14.296875 Z M73.671875,18.75 C73.7552088,19.6875047 73.9895814,20.4062475 74.375,20.90625 C75.0833369,21.8125045 76.3124912,22.265625 78.0625,22.265625 C79.1041719,22.265625 80.0208294,22.0390648 80.8125,21.5859375 C81.6041706,21.1328102 82,20.4322964 82,19.484375 C82,18.7656214 81.6822948,18.2187519 81.046875,17.84375 C80.640623,17.6145822 79.8385477,17.3489598 78.640625,17.046875 L76.40625,16.484375 C74.9791595,16.1302066 73.9270867,15.7343772 73.25,15.296875 C72.0416606,14.5364545 71.4375,13.4843817 71.4375,12.140625 C71.4375,10.5572838 72.0078068,9.27604656 73.1484375,8.296875 C74.2890682,7.31770344 75.822907,6.828125 77.75,6.828125 C80.2708459,6.828125 82.0885361,7.56770094 83.203125,9.046875 C83.9010452,9.98437969 84.2395834,10.9947863 84.21875,12.078125 L81.5625,12.078125 C81.5104164,11.4427052 81.2864603,10.8645859 80.890625,10.34375 C80.2447884,9.60416297 79.125008,9.234375 77.53125,9.234375 C76.4687447,9.234375 75.6640652,9.43749797 75.1171875,9.84375 C74.5703098,10.250002 74.296875,10.786455 74.296875,11.453125 C74.296875,12.1822953 74.6562464,12.7656228 75.375,13.203125 C75.7916687,13.463543 76.4062459,13.6927073 77.21875,13.890625 L79.078125,14.34375 C81.0989684,14.8333358 82.4531216,15.3072894 83.140625,15.765625 C84.2343805,16.4843786 84.78125,17.6145756 84.78125,19.15625 C84.78125,20.6458408 84.2161515,21.9322863 83.0859375,23.015625 C81.9557235,24.0989637 80.2343866,24.640625 77.921875,24.640625 C75.4322792,24.640625 73.669276,24.0755265 72.6328125,22.9453125 C71.596349,21.8150985 71.041667,20.416675 70.96875,18.75 L73.671875,18.75 Z M91.046875,21.46875 C91.640628,21.9375023 92.3437459,22.171875 93.15625,22.171875 C94.1458383,22.171875 95.104162,21.9427106 96.03125,21.484375 C97.5937578,20.7239545 98.375,19.4791753 98.375,17.75 L98.375,15.484375 C98.0312483,15.7031261 97.5885444,15.8854159 97.046875,16.03125 C96.5052056,16.1770841 95.9739609,16.2812497 95.453125,16.34375 L93.75,16.5625 C92.7291616,16.6979173 91.9635442,16.9114569 91.453125,17.203125 C90.5885373,17.6927108 90.15625,18.473953 90.15625,19.546875 C90.15625,20.3593791 90.453122,20.9999977 91.046875,21.46875 Z M96.96875,13.859375 C97.6145866,13.7760412 98.0468739,13.5052106 98.265625,13.046875 C98.3906256,12.7968738 98.453125,12.4375023 98.453125,11.96875 C98.453125,11.0104119 98.1119826,10.3151063 97.4296875,9.8828125 C96.7473924,9.45051867 95.7708397,9.234375 94.5,9.234375 C93.0312427,9.234375 91.9895864,9.63020438 91.375,10.421875 C91.0312483,10.8593772 90.8072922,11.5104123 90.703125,12.375 L88.078125,12.375 C88.1302086,10.3124897 88.7994727,8.8776082 90.0859375,8.0703125 C91.3724023,7.2630168 92.8645748,6.859375 94.5625,6.859375 C96.5312598,6.859375 98.1302022,7.23437125 99.359375,7.984375 C100.578131,8.73437875 101.1875,9.90103375 101.1875,11.484375 L101.1875,21.125 C101.1875,21.4166681 101.247395,21.6510408 101.367188,21.828125 C101.48698,22.0052092 101.739581,22.09375 102.125,22.09375 C102.250001,22.09375 102.390624,22.0859376 102.546875,22.0703125 C102.703126,22.0546874 102.869791,22.0312502 103.046875,22 L103.046875,24.078125 C102.609373,24.2031256 102.276043,24.2812498 102.046875,24.3125 C101.817707,24.3437502 101.50521,24.359375 101.109375,24.359375 C100.14062,24.359375 99.4375022,24.0156284 99,23.328125 C98.7708322,22.9635398 98.6093755,22.44792 98.515625,21.78125 C97.9427055,22.5312537 97.119797,23.1822889 96.046875,23.734375 C94.973953,24.2864611 93.7916731,24.5625 92.5,24.5625 C90.9479089,24.5625 89.6796924,24.0911505 88.6953125,23.1484375 C87.7109326,22.2057245 87.21875,21.0260487 87.21875,19.609375 C87.21875,18.0572839 87.7031202,16.8541709 88.671875,16 C89.6406298,15.1458291 90.9114505,14.6197927 92.484375,14.421875 L96.96875,13.859375 Z M115.25,2.59375 L118.09375,2.59375 L118.09375,7.265625 L120.765625,7.265625 L120.765625,9.5625 L118.09375,9.5625 L118.09375,20.484375 C118.09375,21.0677112 118.291665,21.4583323 118.6875,21.65625 C118.906251,21.7708339 119.270831,21.828125 119.78125,21.828125 C119.916667,21.828125 120.062499,21.8255209 120.21875,21.8203125 C120.375001,21.8151041 120.557291,21.8020834 120.765625,21.78125 L120.765625,24 C120.442707,24.0937505 120.106773,24.1614581 119.757812,24.203125 C119.408852,24.2447919 119.031252,24.265625 118.625,24.265625 C117.312493,24.265625 116.421877,23.9296909 115.953125,23.2578125 C115.484373,22.5859341 115.25,21.713547 115.25,20.640625 L115.25,9.5625 L112.984375,9.5625 L112.984375,7.265625 L115.25,7.265625 L115.25,2.59375 Z M126.390625,7.265625 L126.390625,18.375 C126.390625,19.2291709 126.52604,19.9270806 126.796875,20.46875 C127.296877,21.468755 128.22916,21.96875 129.59375,21.96875 C131.552093,21.96875 132.885413,21.0937588 133.59375,19.34375 C133.979169,18.4062453 134.171875,17.1197998 134.171875,15.484375 L134.171875,7.265625 L136.984375,7.265625 L136.984375,24 L134.328125,24 L134.359375,21.53125 C133.99479,22.1666698 133.541669,22.7031228 133,23.140625 C131.927078,24.0156294 130.625008,24.453125 129.09375,24.453125 C126.708321,24.453125 125.083338,23.656258 124.21875,22.0625 C123.749998,21.2083291 123.515625,20.0677155 123.515625,18.640625 L123.515625,7.265625 L126.390625,7.265625 Z M143.046875,18.75 C143.130209,19.6875047 143.364581,20.4062475 143.75,20.90625 C144.458337,21.8125045 145.687491,22.265625 147.4375,22.265625 C148.479172,22.265625 149.395829,22.0390648 150.1875,21.5859375 C150.979171,21.1328102 151.375,20.4322964 151.375,19.484375 C151.375,18.7656214 151.057295,18.2187519 150.421875,17.84375 C150.015623,17.6145822 149.213548,17.3489598 148.015625,17.046875 L145.78125,16.484375 C144.35416,16.1302066 143.302087,15.7343772 142.625,15.296875 C141.416661,14.5364545 140.8125,13.4843817 140.8125,12.140625 C140.8125,10.5572838 141.382807,9.27604656 142.523438,8.296875 C143.664068,7.31770344 145.197907,6.828125 147.125,6.828125 C149.645846,6.828125 151.463536,7.56770094 152.578125,9.046875 C153.276045,9.98437969 153.614583,10.9947863 153.59375,12.078125 L150.9375,12.078125 C150.885416,11.4427052 150.66146,10.8645859 150.265625,10.34375 C149.619788,9.60416297 148.500008,9.234375 146.90625,9.234375 C145.843745,9.234375 145.039065,9.43749797 144.492188,9.84375 C143.94531,10.250002 143.671875,10.786455 143.671875,11.453125 C143.671875,12.1822953 144.031246,12.7656228 144.75,13.203125 C145.166669,13.463543 145.781246,13.6927073 146.59375,13.890625 L148.453125,14.34375 C150.473968,14.8333358 151.828122,15.3072894 152.515625,15.765625 C153.60938,16.4843786 154.15625,17.6145756 154.15625,19.15625 C154.15625,20.6458408 153.591151,21.9322863 152.460938,23.015625 C151.330724,24.0989637 149.609387,24.640625 147.296875,24.640625 C144.807279,24.640625 143.044276,24.0755265 142.007812,22.9453125 C140.971349,21.8150985 140.416667,20.416675 140.34375,18.75 L143.046875,18.75 Z M169.1875,20.328125 C169.94792,21.5364644 171.166658,22.140625 172.84375,22.140625 C174.14584,22.140625 175.216142,21.5807348 176.054688,20.4609375 C176.893233,19.3411402 177.3125,17.7343855 177.3125,15.640625 C177.3125,13.5260311 176.880213,11.9609426 176.015625,10.9453125 C175.151037,9.92968242 174.08334,9.421875 172.8125,9.421875 C171.395826,9.421875 170.2474,9.96353625 169.367188,11.046875 C168.486975,12.1302137 168.046875,13.7239478 168.046875,15.828125 C168.046875,17.6198006 168.42708,19.1197856 169.1875,20.328125 Z M175.5,7.78125 C176.000002,8.09375156 176.567705,8.64062109 177.203125,9.421875 L177.203125,0.96875 L179.90625,0.96875 L179.90625,24 L177.375,24 L177.375,21.671875 C176.718747,22.7031302 175.942713,23.4479144 175.046875,23.90625 C174.151037,24.3645856 173.125006,24.59375 171.96875,24.59375 C170.104157,24.59375 168.48959,23.8099037 167.125,22.2421875 C165.76041,20.6744713 165.078125,18.5885547 165.078125,15.984375 C165.078125,13.5468628 165.700515,11.4349048 166.945312,9.6484375 C168.19011,7.86197023 169.968738,6.96875 172.28125,6.96875 C173.562506,6.96875 174.635412,7.23958063 175.5,7.78125 Z M187.109375,21.46875 C187.703128,21.9375023 188.406246,22.171875 189.21875,22.171875 C190.208338,22.171875 191.166662,21.9427106 192.09375,21.484375 C193.656258,20.7239545 194.4375,19.4791753 194.4375,17.75 L194.4375,15.484375 C194.093748,15.7031261 193.651044,15.8854159 193.109375,16.03125 C192.567706,16.1770841 192.036461,16.2812497 191.515625,16.34375 L189.8125,16.5625 C188.791662,16.6979173 188.026044,16.9114569 187.515625,17.203125 C186.651037,17.6927108 186.21875,18.473953 186.21875,19.546875 C186.21875,20.3593791 186.515622,20.9999977 187.109375,21.46875 Z M193.03125,13.859375 C193.677087,13.7760412 194.109374,13.5052106 194.328125,13.046875 C194.453126,12.7968738 194.515625,12.4375023 194.515625,11.96875 C194.515625,11.0104119 194.174483,10.3151063 193.492188,9.8828125 C192.809892,9.45051867 191.83334,9.234375 190.5625,9.234375 C189.093743,9.234375 188.052086,9.63020438 187.4375,10.421875 C187.093748,10.8593772 186.869792,11.5104123 186.765625,12.375 L184.140625,12.375 C184.192709,10.3124897 184.861973,8.8776082 186.148438,8.0703125 C187.434902,7.2630168 188.927075,6.859375 190.625,6.859375 C192.59376,6.859375 194.192702,7.23437125 195.421875,7.984375 C196.640631,8.73437875 197.25,9.90103375 197.25,11.484375 L197.25,21.125 C197.25,21.4166681 197.309895,21.6510408 197.429688,21.828125 C197.54948,22.0052092 197.802081,22.09375 198.1875,22.09375 C198.312501,22.09375 198.453124,22.0859376 198.609375,22.0703125 C198.765626,22.0546874 198.932291,22.0312502 199.109375,22 L199.109375,24.078125 C198.671873,24.2031256 198.338543,24.2812498 198.109375,24.3125 C197.880207,24.3437502 197.56771,24.359375 197.171875,24.359375 C196.20312,24.359375 195.500002,24.0156284 195.0625,23.328125 C194.833332,22.9635398 194.671875,22.44792 194.578125,21.78125 C194.005205,22.5312537 193.182297,23.1822889 192.109375,23.734375 C191.036453,24.2864611 189.854173,24.5625 188.5625,24.5625 C187.010409,24.5625 185.742192,24.0911505 184.757812,23.1484375 C183.773433,22.2057245 183.28125,21.0260487 183.28125,19.609375 C183.28125,18.0572839 183.76562,16.8541709 184.734375,16 C185.70313,15.1458291 186.97395,14.6197927 188.546875,14.421875 L193.03125,13.859375 Z M202.421875,2.59375 L205.265625,2.59375 L205.265625,7.265625 L207.9375,7.265625 L207.9375,9.5625 L205.265625,9.5625 L205.265625,20.484375 C205.265625,21.0677112 205.46354,21.4583323 205.859375,21.65625 C206.078126,21.7708339 206.442706,21.828125 206.953125,21.828125 C207.088542,21.828125 207.234374,21.8255209 207.390625,21.8203125 C207.546876,21.8151041 207.729166,21.8020834 207.9375,21.78125 L207.9375,24 C207.614582,24.0937505 207.278648,24.1614581 206.929688,24.203125 C206.580727,24.2447919 206.203127,24.265625 205.796875,24.265625 C204.484368,24.265625 203.593752,23.9296909 203.125,23.2578125 C202.656248,22.5859341 202.421875,21.713547 202.421875,20.640625 L202.421875,9.5625 L200.15625,9.5625 L200.15625,7.265625 L202.421875,7.265625 L202.421875,2.59375 Z M221.226562,20.0703125 C221.919274,18.6588471 222.265625,17.0885503 222.265625,15.359375 C222.265625,13.7968672 222.015627,12.5260466 221.515625,11.546875 C220.723954,10.0052006 219.359385,9.234375 217.421875,9.234375 C215.703116,9.234375 214.453129,9.89061844 213.671875,11.203125 C212.890621,12.5156316 212.5,14.0989491 212.5,15.953125 C212.5,17.7343839 212.890621,19.2187441 213.671875,20.40625 C214.453129,21.5937559 215.6927,22.1875 217.390625,22.1875 C219.255218,22.1875 220.533851,21.4817779 221.226562,20.0703125 Z M222.96875,8.9375 C224.458341,10.3750072 225.203125,12.4895694 225.203125,15.28125 C225.203125,17.9791802 224.546882,20.2083245 223.234375,21.96875 C221.921868,23.7291755 219.88543,24.609375 217.125,24.609375 C214.822905,24.609375 212.994798,23.830737 211.640625,22.2734375 C210.286452,20.716138 209.609375,18.6250131 209.609375,16 C209.609375,13.1874859 210.32291,10.947925 211.75,9.28125 C213.17709,7.614575 215.093738,6.78125 217.5,6.78125 C219.656261,6.78125 221.479159,7.49999281 222.96875,8.9375 Z M230.21875,18.75 C230.302084,19.6875047 230.536456,20.4062475 230.921875,20.90625 C231.630212,21.8125045 232.859366,22.265625 234.609375,22.265625 C235.651047,22.265625 236.567704,22.0390648 237.359375,21.5859375 C238.151046,21.1328102 238.546875,20.4322964 238.546875,19.484375 C238.546875,18.7656214 238.22917,18.2187519 237.59375,17.84375 C237.187498,17.6145822 236.385423,17.3489598 235.1875,17.046875 L232.953125,16.484375 C231.526035,16.1302066 230.473962,15.7343772 229.796875,15.296875 C228.588536,14.5364545 227.984375,13.4843817 227.984375,12.140625 C227.984375,10.5572838 228.554682,9.27604656 229.695312,8.296875 C230.835943,7.31770344 232.369782,6.828125 234.296875,6.828125 C236.817721,6.828125 238.635411,7.56770094 239.75,9.046875 C240.44792,9.98437969 240.786458,10.9947863 240.765625,12.078125 L238.109375,12.078125 C238.057291,11.4427052 237.833335,10.8645859 237.4375,10.34375 C236.791663,9.60416297 235.671883,9.234375 234.078125,9.234375 C233.01562,9.234375 232.21094,9.43749797 231.664062,9.84375 C231.117185,10.250002 230.84375,10.786455 230.84375,11.453125 C230.84375,12.1822953 231.203121,12.7656228 231.921875,13.203125 C232.338544,13.463543 232.953121,13.6927073 233.765625,13.890625 L235.625,14.34375 C237.645843,14.8333358 238.999997,15.3072894 239.6875,15.765625 C240.781255,16.4843786 241.328125,17.6145756 241.328125,19.15625 C241.328125,20.6458408 240.763026,21.9322863 239.632812,23.015625 C238.502599,24.0989637 236.781262,24.640625 234.46875,24.640625 C231.979154,24.640625 230.216151,24.0755265 229.179688,22.9453125 C228.143224,21.8150985 227.588542,20.416675 227.515625,18.75 L230.21875,18.75 Z M263.890625,7.265625 L267,7.265625 C266.604165,8.33854703 265.723965,10.7864392 264.359375,14.609375 C263.338537,17.4843894 262.484378,19.8281159 261.796875,21.640625 C260.171867,25.9114797 259.026045,28.5156203 258.359375,29.453125 C257.692705,30.3906297 256.546883,30.859375 254.921875,30.859375 C254.52604,30.859375 254.221355,30.8437502 254.007812,30.8125 C253.79427,30.7812498 253.531252,30.7239588 253.21875,30.640625 L253.21875,28.078125 C253.708336,28.2135423 254.062499,28.2968748 254.28125,28.328125 C254.500001,28.3593752 254.692707,28.375 254.859375,28.375 C255.380211,28.375 255.76302,28.2890634 256.007812,28.1171875 C256.252605,27.9453116 256.458332,27.7343762 256.625,27.484375 C256.677084,27.4010412 256.864582,26.9739622 257.1875,26.203125 C257.510418,25.4322878 257.744791,24.8593769 257.890625,24.484375 L251.703125,7.265625 L254.890625,7.265625 L259.375,20.890625 L263.890625,7.265625 Z M289.382812,8.15625 C290.56511,9.07292125 291.27604,10.6510305 291.515625,12.890625 L288.78125,12.890625 C288.614582,11.8593698 288.234378,11.0026076 287.640625,10.3203125 C287.046872,9.63801742 286.093757,9.296875 284.78125,9.296875 C282.989574,9.296875 281.708337,10.1718662 280.9375,11.921875 C280.437498,13.0572973 280.1875,14.458325 280.1875,16.125 C280.1875,17.8020917 280.541663,19.2135359 281.25,20.359375 C281.958337,21.5052141 283.072909,22.078125 284.59375,22.078125 C285.760423,22.078125 286.684892,21.7213577 287.367188,21.0078125 C288.049483,20.2942673 288.520832,19.3177145 288.78125,18.078125 L291.515625,18.078125 C291.203123,20.2968861 290.421881,21.9192657 289.171875,22.9453125 C287.921869,23.9713593 286.322926,24.484375 284.375,24.484375 C282.187489,24.484375 280.442715,23.6849038 279.140625,22.0859375 C277.838535,20.4869712 277.1875,18.4895953 277.1875,16.09375 C277.1875,13.1562353 277.901035,10.8697998 279.328125,9.234375 C280.755215,7.59895016 282.572906,6.78125 284.78125,6.78125 C286.666676,6.78125 288.200515,7.23957875 289.382812,8.15625 Z M304.804688,20.0703125 C305.497399,18.6588471 305.84375,17.0885503 305.84375,15.359375 C305.84375,13.7968672 305.593752,12.5260466 305.09375,11.546875 C304.302079,10.0052006 302.93751,9.234375 301,9.234375 C299.281241,9.234375 298.031254,9.89061844 297.25,11.203125 C296.468746,12.5156316 296.078125,14.0989491 296.078125,15.953125 C296.078125,17.7343839 296.468746,19.2187441 297.25,20.40625 C298.031254,21.5937559 299.270825,22.1875 300.96875,22.1875 C302.833343,22.1875 304.111976,21.4817779 304.804688,20.0703125 Z M306.546875,8.9375 C308.036466,10.3750072 308.78125,12.4895694 308.78125,15.28125 C308.78125,17.9791802 308.125007,20.2083245 306.8125,21.96875 C305.499993,23.7291755 303.463555,24.609375 300.703125,24.609375 C298.40103,24.609375 296.572923,23.830737 295.21875,22.2734375 C293.864577,20.716138 293.1875,18.6250131 293.1875,16 C293.1875,13.1874859 293.901035,10.947925 295.328125,9.28125 C296.755215,7.614575 298.671863,6.78125 301.078125,6.78125 C303.234386,6.78125 305.057284,7.49999281 306.546875,8.9375 Z M312.125,7.265625 L314.90625,7.265625 L314.90625,9.640625 C315.57292,8.81770422 316.177081,8.21875188 316.71875,7.84375 C317.645838,7.20833016 318.697911,6.890625 319.875,6.890625 C321.20834,6.890625 322.281246,7.21874672 323.09375,7.875 C323.552086,8.25000188 323.968748,8.80207969 324.34375,9.53125 C324.968753,8.63541219 325.703121,7.97135633 326.546875,7.5390625 C327.390629,7.10676867 328.338536,6.890625 329.390625,6.890625 C331.640636,6.890625 333.171871,7.70311688 333.984375,9.328125 C334.421877,10.2031294 334.640625,11.3802009 334.640625,12.859375 L334.640625,24 L331.71875,24 L331.71875,12.375 C331.71875,11.2604111 331.440107,10.4947937 330.882812,10.078125 C330.325518,9.66145625 329.645837,9.453125 328.84375,9.453125 C327.739578,9.453125 326.789066,9.82291297 325.992188,10.5625 C325.195309,11.302087 324.796875,12.5364497 324.796875,14.265625 L324.796875,24 L321.9375,24 L321.9375,13.078125 C321.9375,11.9427027 321.802085,11.1145859 321.53125,10.59375 C321.104165,9.81249609 320.307298,9.421875 319.140625,9.421875 C318.07812,9.421875 317.111984,9.83332922 316.242188,10.65625 C315.372391,11.4791708 314.9375,12.9687392 314.9375,15.125 L314.9375,24 L312.125,24 L312.125,7.265625 Z M349.117188,20.4609375 C349.986984,19.3619737 350.421875,17.7187609 350.421875,15.53125 C350.421875,14.19791 350.229169,13.0520881 349.84375,12.09375 C349.11458,10.2499908 347.78126,9.328125 345.84375,9.328125 C343.895824,9.328125 342.562504,10.3020736 341.84375,12.25 C341.458331,13.2916719 341.265625,14.6145753 341.265625,16.21875 C341.265625,17.5104231 341.458331,18.6093705 341.84375,19.515625 C342.57292,21.2448003 343.90624,22.109375 345.84375,22.109375 C347.156257,22.109375 348.247391,21.5599013 349.117188,20.4609375 Z M338.5625,7.34375 L341.296875,7.34375 L341.296875,9.5625 C341.859378,8.80207953 342.473955,8.21354375 343.140625,7.796875 C344.088546,7.17187187 345.203119,6.859375 346.484375,6.859375 C348.380218,6.859375 349.989577,7.58593023 351.3125,9.0390625 C352.635423,10.4921948 353.296875,12.5676948 353.296875,15.265625 C353.296875,18.9114766 352.34376,21.5156172 350.4375,23.078125 C349.229161,24.0677133 347.822925,24.5625 346.21875,24.5625 C344.958327,24.5625 343.901046,24.2864611 343.046875,23.734375 C342.546873,23.4218734 341.989586,22.8854205 341.375,22.125 L341.375,30.671875 L338.5625,30.671875 L338.5625,7.34375 Z M356.65625,7.265625 L359.328125,7.265625 L359.328125,10.15625 C359.546876,9.59374719 360.083329,8.9088582 360.9375,8.1015625 C361.791671,7.2942668 362.776036,6.890625 363.890625,6.890625 C363.942709,6.890625 364.031249,6.89583328 364.15625,6.90625 C364.281251,6.91666672 364.49479,6.93749984 364.796875,6.96875 L364.796875,9.9375 C364.630207,9.90624984 364.476563,9.88541672 364.335938,9.875 C364.195312,9.86458328 364.041668,9.859375 363.875,9.859375 C362.458326,9.859375 361.369795,10.3150996 360.609375,11.2265625 C359.848955,12.1380254 359.46875,13.1874941 359.46875,14.375 L359.46875,24 L356.65625,24 L356.65625,7.265625 Z M370.28125,21.46875 C370.875003,21.9375023 371.578121,22.171875 372.390625,22.171875 C373.380213,22.171875 374.338537,21.9427106 375.265625,21.484375 C376.828133,20.7239545 377.609375,19.4791753 377.609375,17.75 L377.609375,15.484375 C377.265623,15.7031261 376.822919,15.8854159 376.28125,16.03125 C375.739581,16.1770841 375.208336,16.2812497 374.6875,16.34375 L372.984375,16.5625 C371.963537,16.6979173 371.197919,16.9114569 370.6875,17.203125 C369.822912,17.6927108 369.390625,18.473953 369.390625,19.546875 C369.390625,20.3593791 369.687497,20.9999977 370.28125,21.46875 Z M376.203125,13.859375 C376.848962,13.7760412 377.281249,13.5052106 377.5,13.046875 C377.625001,12.7968738 377.6875,12.4375023 377.6875,11.96875 C377.6875,11.0104119 377.346358,10.3151063 376.664062,9.8828125 C375.981767,9.45051867 375.005215,9.234375 373.734375,9.234375 C372.265618,9.234375 371.223961,9.63020438 370.609375,10.421875 C370.265623,10.8593772 370.041667,11.5104123 369.9375,12.375 L367.3125,12.375 C367.364584,10.3124897 368.033848,8.8776082 369.320312,8.0703125 C370.606777,7.2630168 372.09895,6.859375 373.796875,6.859375 C375.765635,6.859375 377.364577,7.23437125 378.59375,7.984375 C379.812506,8.73437875 380.421875,9.90103375 380.421875,11.484375 L380.421875,21.125 C380.421875,21.4166681 380.48177,21.6510408 380.601562,21.828125 C380.721355,22.0052092 380.973956,22.09375 381.359375,22.09375 C381.484376,22.09375 381.624999,22.0859376 381.78125,22.0703125 C381.937501,22.0546874 382.104166,22.0312502 382.28125,22 L382.28125,24.078125 C381.843748,24.2031256 381.510418,24.2812498 381.28125,24.3125 C381.052082,24.3437502 380.739585,24.359375 380.34375,24.359375 C379.374995,24.359375 378.671877,24.0156284 378.234375,23.328125 C378.005207,22.9635398 377.84375,22.44792 377.75,21.78125 C377.17708,22.5312537 376.354172,23.1822889 375.28125,23.734375 C374.208328,24.2864611 373.026048,24.5625 371.734375,24.5625 C370.182284,24.5625 368.914067,24.0911505 367.929688,23.1484375 C366.945308,22.2057245 366.453125,21.0260487 366.453125,19.609375 C366.453125,18.0572839 366.937495,16.8541709 367.90625,16 C368.875005,15.1458291 370.145825,14.6197927 371.71875,14.421875 L376.203125,13.859375 Z M394.484375,2.59375 L397.328125,2.59375 L397.328125,7.265625 L400,7.265625 L400,9.5625 L397.328125,9.5625 L397.328125,20.484375 C397.328125,21.0677112 397.52604,21.4583323 397.921875,21.65625 C398.140626,21.7708339 398.505206,21.828125 399.015625,21.828125 C399.151042,21.828125 399.296874,21.8255209 399.453125,21.8203125 C399.609376,21.8151041 399.791666,21.8020834 400,21.78125 L400,24 C399.677082,24.0937505 399.341148,24.1614581 398.992188,24.203125 C398.643227,24.2447919 398.265627,24.265625 397.859375,24.265625 C396.546868,24.265625 395.656252,23.9296909 395.1875,23.2578125 C394.718748,22.5859341 394.484375,21.713547 394.484375,20.640625 L394.484375,9.5625 L392.21875,9.5625 L392.21875,7.265625 L394.484375,7.265625 L394.484375,2.59375 Z M405.625,7.265625 L405.625,18.375 C405.625,19.2291709 405.760415,19.9270806 406.03125,20.46875 C406.531252,21.468755 407.463535,21.96875 408.828125,21.96875 C410.786468,21.96875 412.119788,21.0937588 412.828125,19.34375 C413.213544,18.4062453 413.40625,17.1197998 413.40625,15.484375 L413.40625,7.265625 L416.21875,7.265625 L416.21875,24 L413.5625,24 L413.59375,21.53125 C413.229165,22.1666698 412.776044,22.7031228 412.234375,23.140625 C411.161453,24.0156294 409.859383,24.453125 408.328125,24.453125 C405.942696,24.453125 404.317713,23.656258 403.453125,22.0625 C402.984373,21.2083291 402.75,20.0677155 402.75,18.640625 L402.75,7.265625 L405.625,7.265625 Z" id="Ingresa-tus-datos-y" fill="#003E73"></path>
                <path d="M46.8125,39.046875 L46.8125,53.234375 C46.8125,54.90105 47.1249969,56.2864528 47.75,57.390625 C48.677088,59.0573 50.2395723,59.890625 52.4375,59.890625 C55.0729298,59.890625 56.8645786,58.9895923 57.8125,57.1875 C58.3229192,56.2083284 58.578125,54.8906333 58.578125,53.234375 L58.578125,39.046875 L61.734375,39.046875 L61.734375,51.9375 C61.734375,54.7604308 61.3541705,56.9322841 60.59375,58.453125 C59.1979097,61.2239722 56.5625194,62.609375 52.6875,62.609375 C48.8124806,62.609375 46.1822986,61.2239722 44.796875,58.453125 C44.0364545,56.9322841 43.65625,54.7604308 43.65625,51.9375 L43.65625,39.046875 L46.8125,39.046875 Z M66.171875,45.265625 L68.953125,45.265625 L68.953125,47.640625 C69.619795,46.8177042 70.2239556,46.2187519 70.765625,45.84375 C71.692713,45.2083302 72.7447858,44.890625 73.921875,44.890625 C75.255215,44.890625 76.3281209,45.2187467 77.140625,45.875 C77.5989606,46.2500019 78.0156231,46.8020797 78.390625,47.53125 C79.0156281,46.6354122 79.7499958,45.9713563 80.59375,45.5390625 C81.4375042,45.1067687 82.3854114,44.890625 83.4375,44.890625 C85.6875113,44.890625 87.2187459,45.7031169 88.03125,47.328125 C88.4687522,48.2031294 88.6875,49.3802009 88.6875,50.859375 L88.6875,62 L85.765625,62 L85.765625,50.375 C85.765625,49.2604111 85.486982,48.4947937 84.9296875,48.078125 C84.372393,47.6614563 83.6927123,47.453125 82.890625,47.453125 C81.7864528,47.453125 80.8359415,47.822913 80.0390625,48.5625 C79.2421835,49.302087 78.84375,50.5364497 78.84375,52.265625 L78.84375,62 L75.984375,62 L75.984375,51.078125 C75.984375,49.9427027 75.8489597,49.1145859 75.578125,48.59375 C75.1510395,47.8124961 74.3541725,47.421875 73.1875,47.421875 C72.1249947,47.421875 71.1588585,47.8333292 70.2890625,48.65625 C69.4192665,49.4791708 68.984375,50.9687392 68.984375,53.125 L68.984375,62 L66.171875,62 L66.171875,45.265625 Z M92.609375,38.96875 L95.34375,38.96875 L95.34375,47.296875 C95.9583364,46.4947877 96.6927041,45.8828146 97.546875,45.4609375 C98.4010459,45.0390604 99.32812,44.828125 100.328125,44.828125 C102.411469,44.828125 104.101556,45.5442637 105.398438,46.9765625 C106.695319,48.4088613 107.34375,50.5208194 107.34375,53.3125 C107.34375,55.9583466 106.703131,58.1562412 105.421875,59.90625 C104.140619,61.6562588 102.364595,62.53125 100.09375,62.53125 C98.8229103,62.53125 97.7500044,62.2239614 96.875,61.609375 C96.3541641,61.2447898 95.796878,60.6614623 95.203125,59.859375 L95.203125,62 L92.609375,62 L92.609375,38.96875 Z M103.335938,58.234375 C104.09115,57.0260356 104.46875,55.4323016 104.46875,53.453125 C104.46875,51.6926995 104.09115,50.2343808 103.335938,49.078125 C102.580725,47.9218692 101.468757,47.34375 100,47.34375 C98.7187436,47.34375 97.596359,47.8177036 96.6328125,48.765625 C95.669266,49.7135464 95.1875,51.2760308 95.1875,53.453125 C95.1875,55.0260495 95.3854147,56.3020784 95.78125,57.28125 C96.520837,59.1250092 97.9010316,60.046875 99.921875,60.046875 C101.442716,60.046875 102.580725,59.4427144 103.335938,58.234375 Z M110.703125,45.265625 L113.375,45.265625 L113.375,48.15625 C113.593751,47.5937472 114.130204,46.9088582 114.984375,46.1015625 C115.838546,45.2942668 116.822911,44.890625 117.9375,44.890625 C117.989584,44.890625 118.078124,44.8958333 118.203125,44.90625 C118.328126,44.9166667 118.541665,44.9374998 118.84375,44.96875 L118.84375,47.9375 C118.677082,47.9062498 118.523438,47.8854167 118.382812,47.875 C118.242187,47.8645833 118.088543,47.859375 117.921875,47.859375 C116.505201,47.859375 115.41667,48.3150996 114.65625,49.2265625 C113.89583,50.1380254 113.515625,51.1874941 113.515625,52.375 L113.515625,62 L110.703125,62 L110.703125,45.265625 Z M131.703125,45.7265625 C132.817714,46.283857 133.666664,47.0052039 134.25,47.890625 C134.812503,48.7343792 135.187499,49.7187444 135.375,50.84375 C135.541668,51.6145872 135.625,52.8437416 135.625,54.53125 L123.359375,54.53125 C123.411459,56.2291752 123.812496,57.5911407 124.5625,58.6171875 C125.312504,59.6432343 126.47395,60.15625 128.046875,60.15625 C129.515632,60.15625 130.687496,59.6718798 131.5625,58.703125 C132.062502,58.1406222 132.416666,57.489587 132.625,56.75 L135.390625,56.75 C135.317708,57.3645864 135.075523,58.0494754 134.664062,58.8046875 C134.252602,59.5598996 133.791669,60.1770809 133.28125,60.65625 C132.427079,61.4895875 131.369798,62.0520819 130.109375,62.34375 C129.432288,62.5104175 128.666671,62.59375 127.8125,62.59375 C125.729156,62.59375 123.963549,61.8359451 122.515625,60.3203125 C121.067701,58.8046799 120.34375,56.6823053 120.34375,53.953125 C120.34375,51.2656116 121.072909,49.0833417 122.53125,47.40625 C123.989591,45.7291583 125.895822,44.890625 128.25,44.890625 C129.437506,44.890625 130.588536,45.169268 131.703125,45.7265625 Z M132.734375,52.296875 C132.619791,51.0781189 132.354169,50.1041703 131.9375,49.375 C131.166663,48.0208266 129.880217,47.34375 128.078125,47.34375 C126.786452,47.34375 125.703129,47.8098912 124.828125,48.7421875 C123.953121,49.6744838 123.489584,50.8593678 123.4375,52.296875 L132.734375,52.296875 Z M139.15625,39.046875 L141.96875,39.046875 L141.96875,62 L139.15625,62 L139.15625,39.046875 Z M146.265625,39.046875 L149.078125,39.046875 L149.078125,62 L146.265625,62 L146.265625,39.046875 Z M156.34375,59.46875 C156.937503,59.9375023 157.640621,60.171875 158.453125,60.171875 C159.442713,60.171875 160.401037,59.9427106 161.328125,59.484375 C162.890633,58.7239545 163.671875,57.4791753 163.671875,55.75 L163.671875,53.484375 C163.328123,53.7031261 162.885419,53.8854159 162.34375,54.03125 C161.802081,54.1770841 161.270836,54.2812497 160.75,54.34375 L159.046875,54.5625 C158.026037,54.6979173 157.260419,54.9114569 156.75,55.203125 C155.885412,55.6927108 155.453125,56.473953 155.453125,57.546875 C155.453125,58.3593791 155.749997,58.9999977 156.34375,59.46875 Z M162.265625,51.859375 C162.911462,51.7760412 163.343749,51.5052106 163.5625,51.046875 C163.687501,50.7968737 163.75,50.4375023 163.75,49.96875 C163.75,49.0104119 163.408858,48.3151063 162.726562,47.8828125 C162.044267,47.4505187 161.067715,47.234375 159.796875,47.234375 C158.328118,47.234375 157.286461,47.6302044 156.671875,48.421875 C156.328123,48.8593772 156.104167,49.5104123 156,50.375 L153.375,50.375 C153.427084,48.3124897 154.096348,46.8776082 155.382812,46.0703125 C156.669277,45.2630168 158.16145,44.859375 159.859375,44.859375 C161.828135,44.859375 163.427077,45.2343712 164.65625,45.984375 C165.875006,46.7343788 166.484375,47.9010338 166.484375,49.484375 L166.484375,59.125 C166.484375,59.4166681 166.54427,59.6510408 166.664062,59.828125 C166.783855,60.0052092 167.036456,60.09375 167.421875,60.09375 C167.546876,60.09375 167.687499,60.0859376 167.84375,60.0703125 C168.000001,60.0546874 168.166666,60.0312502 168.34375,60 L168.34375,62.078125 C167.906248,62.2031256 167.572918,62.2812498 167.34375,62.3125 C167.114582,62.3437502 166.802085,62.359375 166.40625,62.359375 C165.437495,62.359375 164.734377,62.0156284 164.296875,61.328125 C164.067707,60.9635398 163.90625,60.44792 163.8125,59.78125 C163.23958,60.5312538 162.416672,61.1822889 161.34375,61.734375 C160.270828,62.2864611 159.088548,62.5625 157.796875,62.5625 C156.244784,62.5625 154.976567,62.0911505 153.992188,61.1484375 C153.007808,60.2057245 152.515625,59.0260487 152.515625,57.609375 C152.515625,56.0572839 152.999995,54.8541709 153.96875,54 C154.937505,53.1458291 156.208325,52.6197927 157.78125,52.421875 L162.265625,51.859375 Z M181.0625,39.046875 L184.203125,39.046875 L184.203125,62 L181.0625,62 L181.0625,39.046875 Z M188.875,45.265625 L191.546875,45.265625 L191.546875,47.640625 C192.338546,46.6614534 193.177079,45.9583355 194.0625,45.53125 C194.947921,45.1041645 195.932286,44.890625 197.015625,44.890625 C199.390637,44.890625 200.994788,45.7187417 201.828125,47.375 C202.286461,48.2812545 202.515625,49.5781166 202.515625,51.265625 L202.515625,62 L199.65625,62 L199.65625,51.453125 C199.65625,50.4322866 199.50521,49.6093781 199.203125,48.984375 C198.703123,47.9427031 197.796882,47.421875 196.484375,47.421875 C195.817705,47.421875 195.270835,47.4895827 194.84375,47.625 C194.072913,47.8541678 193.395836,48.3124966 192.8125,49 C192.343748,49.5520861 192.039063,50.1223929 191.898438,50.7109375 C191.757812,51.2994821 191.6875,52.1406195 191.6875,53.234375 L191.6875,62 L188.875,62 L188.875,45.265625 Z M207.234375,40.59375 L210.078125,40.59375 L210.078125,45.265625 L212.75,45.265625 L212.75,47.5625 L210.078125,47.5625 L210.078125,58.484375 C210.078125,59.0677113 210.27604,59.4583323 210.671875,59.65625 C210.890626,59.7708339 211.255206,59.828125 211.765625,59.828125 C211.901042,59.828125 212.046874,59.8255209 212.203125,59.8203125 C212.359376,59.8151041 212.541666,59.8020834 212.75,59.78125 L212.75,62 C212.427082,62.0937505 212.091148,62.1614581 211.742188,62.203125 C211.393227,62.2447919 211.015627,62.265625 210.609375,62.265625 C209.296868,62.265625 208.406252,61.9296909 207.9375,61.2578125 C207.468748,60.5859341 207.234375,59.713547 207.234375,58.640625 L207.234375,47.5625 L204.96875,47.5625 L204.96875,45.265625 L207.234375,45.265625 L207.234375,40.59375 Z M225.984375,45.7265625 C227.098964,46.283857 227.947914,47.0052039 228.53125,47.890625 C229.093753,48.7343792 229.468749,49.7187444 229.65625,50.84375 C229.822918,51.6145872 229.90625,52.8437416 229.90625,54.53125 L217.640625,54.53125 C217.692709,56.2291752 218.093746,57.5911407 218.84375,58.6171875 C219.593754,59.6432343 220.7552,60.15625 222.328125,60.15625 C223.796882,60.15625 224.968746,59.6718798 225.84375,58.703125 C226.343752,58.1406222 226.697916,57.489587 226.90625,56.75 L229.671875,56.75 C229.598958,57.3645864 229.356773,58.0494754 228.945312,58.8046875 C228.533852,59.5598996 228.072919,60.1770809 227.5625,60.65625 C226.708329,61.4895875 225.651048,62.0520819 224.390625,62.34375 C223.713538,62.5104175 222.947921,62.59375 222.09375,62.59375 C220.010406,62.59375 218.244799,61.8359451 216.796875,60.3203125 C215.348951,58.8046799 214.625,56.6823053 214.625,53.953125 C214.625,51.2656116 215.354159,49.0833417 216.8125,47.40625 C218.270841,45.7291583 220.177072,44.890625 222.53125,44.890625 C223.718756,44.890625 224.869786,45.169268 225.984375,45.7265625 Z M227.015625,52.296875 C226.901041,51.0781189 226.635419,50.1041703 226.21875,49.375 C225.447913,48.0208266 224.161467,47.34375 222.359375,47.34375 C221.067702,47.34375 219.984379,47.8098912 219.109375,48.7421875 C218.234371,49.6744838 217.770834,50.8593678 217.71875,52.296875 L227.015625,52.296875 Z M233.4375,39.046875 L236.25,39.046875 L236.25,62 L233.4375,62 L233.4375,39.046875 Z M240.546875,39.046875 L243.359375,39.046875 L243.359375,62 L240.546875,62 L240.546875,39.046875 Z M247.578125,45.34375 L250.4375,45.34375 L250.4375,62 L247.578125,62 L247.578125,45.34375 Z M247.578125,39.046875 L250.4375,39.046875 L250.4375,42.234375 L247.578125,42.234375 L247.578125,39.046875 Z M264.03125,45.9375 C264.562503,46.3020852 265.104164,46.8333298 265.65625,47.53125 L265.65625,45.421875 L268.25,45.421875 L268.25,60.640625 C268.25,62.7656356 267.937503,64.4427022 267.3125,65.671875 C266.145827,67.9427197 263.942725,69.078125 260.703125,69.078125 C258.901033,69.078125 257.385423,68.6744832 256.15625,67.8671875 C254.927077,67.0598918 254.239584,65.7968836 254.09375,64.078125 L256.953125,64.078125 C257.088542,64.8281288 257.359373,65.406248 257.765625,65.8125 C258.401045,66.4375031 259.401035,66.75 260.765625,66.75 C262.921886,66.75 264.33333,65.9895909 265,64.46875 C265.395835,63.5729122 265.578125,61.9739698 265.546875,59.671875 C264.984372,60.5260459 264.307296,61.1614563 263.515625,61.578125 C262.723954,61.9947937 261.67709,62.203125 260.375,62.203125 C258.562491,62.203125 256.976569,61.5599023 255.617188,60.2734375 C254.257806,58.9869727 253.578125,56.8593898 253.578125,53.890625 C253.578125,51.0885277 254.263014,48.9010495 255.632812,47.328125 C257.002611,45.7552005 258.65624,44.96875 260.59375,44.96875 C261.906257,44.96875 263.052078,45.2916634 264.03125,45.9375 Z M264.375,48.953125 C263.520829,47.95312 262.432298,47.453125 261.109375,47.453125 C259.130198,47.453125 257.776045,48.3801991 257.046875,50.234375 C256.661456,51.2239633 256.46875,52.5208253 256.46875,54.125 C256.46875,56.0104261 256.851559,57.4453076 257.617188,58.4296875 C258.382816,59.4140674 259.411452,59.90625 260.703125,59.90625 C262.723968,59.90625 264.145829,58.9948008 264.96875,57.171875 C265.427086,56.1406198 265.65625,54.9375069 265.65625,53.5625 C265.65625,51.489573 265.229171,49.95313 264.375,48.953125 Z M282.90625,45.7265625 C284.020839,46.283857 284.869789,47.0052039 285.453125,47.890625 C286.015628,48.7343792 286.390624,49.7187444 286.578125,50.84375 C286.744793,51.6145872 286.828125,52.8437416 286.828125,54.53125 L274.5625,54.53125 C274.614584,56.2291752 275.015621,57.5911407 275.765625,58.6171875 C276.515629,59.6432343 277.677075,60.15625 279.25,60.15625 C280.718757,60.15625 281.890621,59.6718798 282.765625,58.703125 C283.265627,58.1406222 283.619791,57.489587 283.828125,56.75 L286.59375,56.75 C286.520833,57.3645864 286.278648,58.0494754 285.867188,58.8046875 C285.455727,59.5598996 284.994794,60.1770809 284.484375,60.65625 C283.630204,61.4895875 282.572923,62.0520819 281.3125,62.34375 C280.635413,62.5104175 279.869796,62.59375 279.015625,62.59375 C276.932281,62.59375 275.166674,61.8359451 273.71875,60.3203125 C272.270826,58.8046799 271.546875,56.6823053 271.546875,53.953125 C271.546875,51.2656116 272.276034,49.0833417 273.734375,47.40625 C275.192716,45.7291583 277.098947,44.890625 279.453125,44.890625 C280.640631,44.890625 281.791661,45.169268 282.90625,45.7265625 Z M283.9375,52.296875 C283.822916,51.0781189 283.557294,50.1041703 283.140625,49.375 C282.369788,48.0208266 281.083342,47.34375 279.28125,47.34375 C277.989577,47.34375 276.906254,47.8098912 276.03125,48.7421875 C275.156246,49.6744838 274.692709,50.8593678 274.640625,52.296875 L283.9375,52.296875 Z M290.28125,45.265625 L292.953125,45.265625 L292.953125,47.640625 C293.744796,46.6614534 294.583329,45.9583355 295.46875,45.53125 C296.354171,45.1041645 297.338536,44.890625 298.421875,44.890625 C300.796887,44.890625 302.401037,45.7187417 303.234375,47.375 C303.692711,48.2812545 303.921875,49.5781166 303.921875,51.265625 L303.921875,62 L301.0625,62 L301.0625,51.453125 C301.0625,50.4322866 300.91146,49.6093781 300.609375,48.984375 C300.109372,47.9427031 299.203132,47.421875 297.890625,47.421875 C297.223955,47.421875 296.677085,47.4895827 296.25,47.625 C295.479163,47.8541678 294.802086,48.3124966 294.21875,49 C293.749998,49.5520861 293.445313,50.1223929 293.304688,50.7109375 C293.164062,51.2994821 293.09375,52.1406195 293.09375,53.234375 L293.09375,62 L290.28125,62 L290.28125,45.265625 Z M308.640625,40.59375 L311.484375,40.59375 L311.484375,45.265625 L314.15625,45.265625 L314.15625,47.5625 L311.484375,47.5625 L311.484375,58.484375 C311.484375,59.0677113 311.68229,59.4583323 312.078125,59.65625 C312.296876,59.7708339 312.661456,59.828125 313.171875,59.828125 C313.307292,59.828125 313.453124,59.8255209 313.609375,59.8203125 C313.765626,59.8151041 313.947916,59.8020834 314.15625,59.78125 L314.15625,62 C313.833332,62.0937505 313.497398,62.1614581 313.148438,62.203125 C312.799477,62.2447919 312.421877,62.265625 312.015625,62.265625 C310.703118,62.265625 309.812502,61.9296909 309.34375,61.2578125 C308.874998,60.5859341 308.640625,59.713547 308.640625,58.640625 L308.640625,47.5625 L306.375,47.5625 L306.375,45.265625 L308.640625,45.265625 L308.640625,40.59375 Z M336.914062,46.15625 C338.09636,47.0729212 338.80729,48.6510305 339.046875,50.890625 L336.3125,50.890625 C336.145832,49.8593698 335.765628,49.0026076 335.171875,48.3203125 C334.578122,47.6380174 333.625007,47.296875 332.3125,47.296875 C330.520824,47.296875 329.239587,48.1718662 328.46875,49.921875 C327.968748,51.0572973 327.71875,52.458325 327.71875,54.125 C327.71875,55.8020917 328.072913,57.2135359 328.78125,58.359375 C329.489587,59.5052141 330.604159,60.078125 332.125,60.078125 C333.291673,60.078125 334.216142,59.7213577 334.898438,59.0078125 C335.580733,58.2942673 336.052082,57.3177145 336.3125,56.078125 L339.046875,56.078125 C338.734373,58.2968861 337.953131,59.9192657 336.703125,60.9453125 C335.453119,61.9713593 333.854176,62.484375 331.90625,62.484375 C329.718739,62.484375 327.973965,61.6849038 326.671875,60.0859375 C325.369785,58.4869712 324.71875,56.4895953 324.71875,54.09375 C324.71875,51.1562353 325.432285,48.8697998 326.859375,47.234375 C328.286465,45.5989502 330.104156,44.78125 332.3125,44.78125 C334.197926,44.78125 335.731765,45.2395788 336.914062,46.15625 Z M352.335938,58.0703125 C353.028649,56.6588471 353.375,55.0885503 353.375,53.359375 C353.375,51.7968672 353.125002,50.5260466 352.625,49.546875 C351.833329,48.0052006 350.46876,47.234375 348.53125,47.234375 C346.812491,47.234375 345.562504,47.8906184 344.78125,49.203125 C343.999996,50.5156316 343.609375,52.0989491 343.609375,53.953125 C343.609375,55.7343839 343.999996,57.2187441 344.78125,58.40625 C345.562504,59.5937559 346.802075,60.1875 348.5,60.1875 C350.364593,60.1875 351.643226,59.4817779 352.335938,58.0703125 Z M354.078125,46.9375 C355.567716,48.3750072 356.3125,50.4895694 356.3125,53.28125 C356.3125,55.9791802 355.656257,58.2083245 354.34375,59.96875 C353.031243,61.7291755 350.994805,62.609375 348.234375,62.609375 C345.93228,62.609375 344.104173,61.830737 342.75,60.2734375 C341.395827,58.716138 340.71875,56.6250131 340.71875,54 C340.71875,51.1874859 341.432285,48.947925 342.859375,47.28125 C344.286465,45.614575 346.203113,44.78125 348.609375,44.78125 C350.765636,44.78125 352.588534,45.4999928 354.078125,46.9375 Z M359.65625,45.265625 L362.328125,45.265625 L362.328125,47.640625 C363.119796,46.6614534 363.958329,45.9583355 364.84375,45.53125 C365.729171,45.1041645 366.713536,44.890625 367.796875,44.890625 C370.171887,44.890625 371.776038,45.7187417 372.609375,47.375 C373.067711,48.2812545 373.296875,49.5781166 373.296875,51.265625 L373.296875,62 L370.4375,62 L370.4375,51.453125 C370.4375,50.4322866 370.28646,49.6093781 369.984375,48.984375 C369.484373,47.9427031 368.578132,47.421875 367.265625,47.421875 C366.598955,47.421875 366.052085,47.4895827 365.625,47.625 C364.854163,47.8541678 364.177086,48.3124966 363.59375,49 C363.124998,49.5520861 362.820313,50.1223929 362.679688,50.7109375 C362.539062,51.2994821 362.46875,52.1406195 362.46875,53.234375 L362.46875,62 L359.65625,62 L359.65625,45.265625 Z" id="Umbrella-Intelligent" fill="#003E73"></path>
                <path d="M55.1953125,94.96875 C55.8880243,93.5416595 57.2395733,92.2447975 59.25,91.078125 L62.25,89.34375 C63.5937567,88.5624961 64.5364556,87.8958361 65.078125,87.34375 C65.9322959,86.4791623 66.359375,85.4895889 66.359375,84.375 C66.359375,83.0729102 65.9687539,82.0390663 65.1875,81.2734375 C64.4062461,80.5078087 63.3645898,80.125 62.0625,80.125 C60.135407,80.125 58.802087,80.8541594 58.0625,82.3125 C57.6666647,83.0937539 57.4479169,84.1770764 57.40625,85.5625 L54.546875,85.5625 C54.5781252,83.6145736 54.9374966,82.0260478 55.625,80.796875 C56.8437561,78.6301975 58.9947763,77.546875 62.078125,77.546875 C64.6406378,77.546875 66.5130149,78.2395764 67.6953125,79.625 C68.8776101,81.0104236 69.46875,82.5520748 69.46875,84.25 C69.46875,86.0416756 68.838548,87.5729103 67.578125,88.84375 C66.8489547,89.583337 65.5416761,90.4791614 63.65625,91.53125 L61.515625,92.71875 C60.4947866,93.2812528 59.6927113,93.8177058 59.109375,94.328125 C58.0677031,95.2343795 57.4114597,96.2395778 57.140625,97.34375 L69.359375,97.34375 L69.359375,100 L54,100 C54.1041672,98.072907 54.5026007,96.3958405 55.1953125,94.96875 Z M74.75,94.296875 C74.9375009,95.9010497 75.6822852,97.0104136 76.984375,97.625 C77.651045,97.9375016 78.4218706,98.09375 79.296875,98.09375 C80.96355,98.09375 82.1979127,97.5625053 83,96.5 C83.8020873,95.4374947 84.203125,94.2604231 84.203125,92.96875 C84.203125,91.4062422 83.7265673,90.1979209 82.7734375,89.34375 C81.8203077,88.4895791 80.67709,88.0625 79.34375,88.0625 C78.3749952,88.0625 77.5442743,88.2499981 76.8515625,88.625 C76.1588507,89.0000019 75.5677108,89.52083 75.078125,90.1875 L72.640625,90.046875 L74.34375,78 L85.96875,78 L85.96875,80.71875 L76.453125,80.71875 L75.5,86.9375 C76.0208359,86.5416647 76.5156227,86.2447927 76.984375,86.046875 C77.8177125,85.7031233 78.7812445,85.53125 79.875,85.53125 C81.9270936,85.53125 83.6666595,86.1927017 85.09375,87.515625 C86.5208405,88.8385483 87.234375,90.5156148 87.234375,92.546875 C87.234375,94.6614689 86.5807357,96.5260336 85.2734375,98.140625 C83.9661393,99.7552164 81.8802227,100.5625 79.015625,100.5625 C77.1926992,100.5625 75.5807362,100.049484 74.1796875,99.0234375 C72.7786388,97.9973907 71.9947925,96.4218856 71.828125,94.296875 L74.75,94.296875 Z M114.25,90.71875 C115.312505,91.7812553 115.84375,93.0624925 115.84375,94.5625 C115.84375,96.0625075 115.312505,97.3437447 114.25,98.40625 C113.187495,99.4687553 111.906257,100 110.40625,100 C108.895826,100 107.60938,99.4687553 106.546875,98.40625 C105.48437,97.3437447 104.953125,96.0625075 104.953125,94.5625 C104.953125,93.0624925 105.48437,91.7812553 106.546875,90.71875 C107.60938,89.6562447 108.895826,89.125 110.40625,89.125 C111.906257,89.125 113.187495,89.6562447 114.25,90.71875 Z M108.140625,77.71875 L109.875,77.71875 L97.359375,100.59375 L95.625,100.59375 L108.140625,77.71875 Z M97.3515625,86.0234375 C97.981774,85.393226 98.296875,84.6354211 98.296875,83.75 C98.296875,82.8645789 97.981774,82.106774 97.3515625,81.4765625 C96.721351,80.846351 95.9583378,80.53125 95.0625,80.53125 C94.1770789,80.53125 93.419274,80.8437469 92.7890625,81.46875 C92.158851,82.0937531 91.84375,82.8541622 91.84375,83.75 C91.84375,84.6354211 92.158851,85.393226 92.7890625,86.0234375 C93.419274,86.653649 94.1770789,86.96875 95.0625,86.96875 C95.9583378,86.96875 96.721351,86.653649 97.3515625,86.0234375 Z M98.921875,79.8984375 C99.9843803,80.9661512 100.515625,82.2499925 100.515625,83.75 C100.515625,85.2500075 99.9843803,86.5312447 98.921875,87.59375 C97.8593697,88.6562553 96.5729242,89.1875 95.0625,89.1875 C93.5624925,89.1875 92.2812553,88.6562553 91.21875,87.59375 C90.1562447,86.5312447 89.625,85.2500075 89.625,83.75 C89.625,82.2499925 90.1562447,80.9661512 91.21875,79.8984375 C92.2812553,78.8307238 93.5624925,78.296875 95.0625,78.296875 C96.5729242,78.296875 97.8593697,78.8307238 98.921875,79.8984375 Z M112.679688,96.8359375 C113.309899,96.205726 113.625,95.4479211 113.625,94.5625 C113.625,93.6770789 113.309899,92.919274 112.679688,92.2890625 C112.049476,91.658851 111.291671,91.34375 110.40625,91.34375 C109.510412,91.34375 108.747399,91.658851 108.117188,92.2890625 C107.486976,92.919274 107.171875,93.6770789 107.171875,94.5625 C107.171875,95.4479211 107.486976,96.205726 108.117188,96.8359375 C108.747399,97.466149 109.510412,97.78125 110.40625,97.78125 C111.291671,97.78125 112.049476,97.466149 112.679688,96.8359375 Z M130.921875,96.328125 C131.682295,97.5364644 132.901033,98.140625 134.578125,98.140625 C135.880215,98.140625 136.950517,97.5807348 137.789062,96.4609375 C138.627608,95.3411402 139.046875,93.7343855 139.046875,91.640625 C139.046875,89.5260311 138.614588,87.9609426 137.75,86.9453125 C136.885412,85.9296824 135.817715,85.421875 134.546875,85.421875 C133.130201,85.421875 131.981775,85.9635363 131.101562,87.046875 C130.22135,88.1302137 129.78125,89.7239478 129.78125,91.828125 C129.78125,93.6198006 130.161455,95.1197856 130.921875,96.328125 Z M137.234375,83.78125 C137.734377,84.0937516 138.30208,84.6406211 138.9375,85.421875 L138.9375,76.96875 L141.640625,76.96875 L141.640625,100 L139.109375,100 L139.109375,97.671875 C138.453122,98.7031302 137.677088,99.4479144 136.78125,99.90625 C135.885412,100.364586 134.859381,100.59375 133.703125,100.59375 C131.838532,100.59375 130.223965,99.8099037 128.859375,98.2421875 C127.494785,96.6744713 126.8125,94.5885547 126.8125,91.984375 C126.8125,89.5468628 127.43489,87.4349048 128.679688,85.6484375 C129.924485,83.8619702 131.703113,82.96875 134.015625,82.96875 C135.296881,82.96875 136.369787,83.2395806 137.234375,83.78125 Z M156.21875,83.7265625 C157.333339,84.283857 158.182289,85.0052039 158.765625,85.890625 C159.328128,86.7343792 159.703124,87.7187444 159.890625,88.84375 C160.057293,89.6145872 160.140625,90.8437416 160.140625,92.53125 L147.875,92.53125 C147.927084,94.2291752 148.328121,95.5911407 149.078125,96.6171875 C149.828129,97.6432343 150.989575,98.15625 152.5625,98.15625 C154.031257,98.15625 155.203121,97.6718798 156.078125,96.703125 C156.578127,96.1406222 156.932291,95.489587 157.140625,94.75 L159.90625,94.75 C159.833333,95.3645864 159.591148,96.0494754 159.179688,96.8046875 C158.768227,97.5598996 158.307294,98.1770809 157.796875,98.65625 C156.942704,99.4895875 155.885423,100.052082 154.625,100.34375 C153.947913,100.510418 153.182296,100.59375 152.328125,100.59375 C150.244781,100.59375 148.479174,99.8359451 147.03125,98.3203125 C145.583326,96.8046799 144.859375,94.6823053 144.859375,91.953125 C144.859375,89.2656116 145.588534,87.0833417 147.046875,85.40625 C148.505216,83.7291583 150.411447,82.890625 152.765625,82.890625 C153.953131,82.890625 155.104161,83.169268 156.21875,83.7265625 Z M157.25,90.296875 C157.135416,89.0781189 156.869794,88.1041703 156.453125,87.375 C155.682288,86.0208266 154.395842,85.34375 152.59375,85.34375 C151.302077,85.34375 150.218754,85.8098912 149.34375,86.7421875 C148.468746,87.6744838 148.005209,88.8593678 147.953125,90.296875 L157.25,90.296875 Z M175.40625,96.328125 C176.16667,97.5364644 177.385408,98.140625 179.0625,98.140625 C180.36459,98.140625 181.434892,97.5807348 182.273438,96.4609375 C183.111983,95.3411402 183.53125,93.7343855 183.53125,91.640625 C183.53125,89.5260311 183.098963,87.9609426 182.234375,86.9453125 C181.369787,85.9296824 180.30209,85.421875 179.03125,85.421875 C177.614576,85.421875 176.46615,85.9635363 175.585938,87.046875 C174.705725,88.1302137 174.265625,89.7239478 174.265625,91.828125 C174.265625,93.6198006 174.64583,95.1197856 175.40625,96.328125 Z M181.71875,83.78125 C182.218753,84.0937516 182.786455,84.6406211 183.421875,85.421875 L183.421875,76.96875 L186.125,76.96875 L186.125,100 L183.59375,100 L183.59375,97.671875 C182.937497,98.7031302 182.161463,99.4479144 181.265625,99.90625 C180.369787,100.364586 179.343756,100.59375 178.1875,100.59375 C176.322907,100.59375 174.70834,99.8099037 173.34375,98.2421875 C171.97916,96.6744713 171.296875,94.5885547 171.296875,91.984375 C171.296875,89.5468628 171.919265,87.4349048 173.164062,85.6484375 C174.40886,83.8619702 176.187488,82.96875 178.5,82.96875 C179.781256,82.96875 180.854162,83.2395806 181.71875,83.78125 Z M200.703125,83.7265625 C201.817714,84.283857 202.666664,85.0052039 203.25,85.890625 C203.812503,86.7343792 204.187499,87.7187444 204.375,88.84375 C204.541668,89.6145872 204.625,90.8437416 204.625,92.53125 L192.359375,92.53125 C192.411459,94.2291752 192.812496,95.5911407 193.5625,96.6171875 C194.312504,97.6432343 195.47395,98.15625 197.046875,98.15625 C198.515632,98.15625 199.687496,97.6718798 200.5625,96.703125 C201.062502,96.1406222 201.416666,95.489587 201.625,94.75 L204.390625,94.75 C204.317708,95.3645864 204.075523,96.0494754 203.664062,96.8046875 C203.252602,97.5598996 202.791669,98.1770809 202.28125,98.65625 C201.427079,99.4895875 200.369798,100.052082 199.109375,100.34375 C198.432288,100.510418 197.666671,100.59375 196.8125,100.59375 C194.729156,100.59375 192.963549,99.8359451 191.515625,98.3203125 C190.067701,96.8046799 189.34375,94.6823053 189.34375,91.953125 C189.34375,89.2656116 190.072909,87.0833417 191.53125,85.40625 C192.989591,83.7291583 194.895822,82.890625 197.25,82.890625 C198.437506,82.890625 199.588536,83.169268 200.703125,83.7265625 Z M201.734375,90.296875 C201.619791,89.0781189 201.354169,88.1041703 200.9375,87.375 C200.166663,86.0208266 198.880217,85.34375 197.078125,85.34375 C195.786452,85.34375 194.703129,85.8098912 193.828125,86.7421875 C192.953121,87.6744838 192.489584,88.8593678 192.4375,90.296875 L201.734375,90.296875 Z M209.75,94.75 C209.833334,95.6875047 210.067706,96.4062475 210.453125,96.90625 C211.161462,97.8125045 212.390616,98.265625 214.140625,98.265625 C215.182297,98.265625 216.098954,98.0390648 216.890625,97.5859375 C217.682296,97.1328102 218.078125,96.4322964 218.078125,95.484375 C218.078125,94.7656214 217.76042,94.2187519 217.125,93.84375 C216.718748,93.6145822 215.916673,93.3489598 214.71875,93.046875 L212.484375,92.484375 C211.057285,92.1302066 210.005212,91.7343772 209.328125,91.296875 C208.119786,90.5364545 207.515625,89.4843817 207.515625,88.140625 C207.515625,86.5572838 208.085932,85.2760466 209.226562,84.296875 C210.367193,83.3177034 211.901032,82.828125 213.828125,82.828125 C216.348971,82.828125 218.166661,83.5677009 219.28125,85.046875 C219.97917,85.9843797 220.317708,86.9947863 220.296875,88.078125 L217.640625,88.078125 C217.588541,87.4427052 217.364585,86.8645859 216.96875,86.34375 C216.322913,85.604163 215.203133,85.234375 213.609375,85.234375 C212.54687,85.234375 211.74219,85.437498 211.195312,85.84375 C210.648435,86.250002 210.375,86.786455 210.375,87.453125 C210.375,88.1822953 210.734371,88.7656228 211.453125,89.203125 C211.869794,89.463543 212.484371,89.6927073 213.296875,89.890625 L215.15625,90.34375 C217.177093,90.8333358 218.531247,91.3072894 219.21875,91.765625 C220.312505,92.4843786 220.859375,93.6145756 220.859375,95.15625 C220.859375,96.6458408 220.294276,97.9322863 219.164062,99.015625 C218.033849,100.098964 216.312512,100.640625 214,100.640625 C211.510404,100.640625 209.747401,100.075526 208.710938,98.9453125 C207.674474,97.8150985 207.119792,96.416675 207.046875,94.75 L209.75,94.75 Z M235.132812,84.15625 C236.31511,85.0729212 237.02604,86.6510305 237.265625,88.890625 L234.53125,88.890625 C234.364582,87.8593698 233.984378,87.0026076 233.390625,86.3203125 C232.796872,85.6380174 231.843757,85.296875 230.53125,85.296875 C228.739574,85.296875 227.458337,86.1718662 226.6875,87.921875 C226.187498,89.0572973 225.9375,90.458325 225.9375,92.125 C225.9375,93.8020917 226.291663,95.2135359 227,96.359375 C227.708337,97.5052141 228.822909,98.078125 230.34375,98.078125 C231.510423,98.078125 232.434892,97.7213577 233.117188,97.0078125 C233.799483,96.2942673 234.270832,95.3177145 234.53125,94.078125 L237.265625,94.078125 C236.953123,96.2968861 236.171881,97.9192657 234.921875,98.9453125 C233.671869,99.9713593 232.072926,100.484375 230.125,100.484375 C227.937489,100.484375 226.192715,99.6849038 224.890625,98.0859375 C223.588535,96.4869712 222.9375,94.4895953 222.9375,92.09375 C222.9375,89.1562353 223.651035,86.8697998 225.078125,85.234375 C226.505215,83.5989502 228.322906,82.78125 230.53125,82.78125 C232.416676,82.78125 233.950515,83.2395788 235.132812,84.15625 Z M242.890625,83.265625 L242.890625,94.375 C242.890625,95.2291709 243.02604,95.9270806 243.296875,96.46875 C243.796877,97.468755 244.72916,97.96875 246.09375,97.96875 C248.052093,97.96875 249.385413,97.0937588 250.09375,95.34375 C250.479169,94.4062453 250.671875,93.1197998 250.671875,91.484375 L250.671875,83.265625 L253.484375,83.265625 L253.484375,100 L250.828125,100 L250.859375,97.53125 C250.49479,98.1666698 250.041669,98.7031228 249.5,99.140625 C248.427078,100.015629 247.125008,100.453125 245.59375,100.453125 C243.208321,100.453125 241.583338,99.656258 240.71875,98.0625 C240.249998,97.2083291 240.015625,96.0677155 240.015625,94.640625 L240.015625,83.265625 L242.890625,83.265625 Z M268.296875,83.7265625 C269.411464,84.283857 270.260414,85.0052039 270.84375,85.890625 C271.406253,86.7343792 271.781249,87.7187444 271.96875,88.84375 C272.135418,89.6145872 272.21875,90.8437416 272.21875,92.53125 L259.953125,92.53125 C260.005209,94.2291752 260.406246,95.5911407 261.15625,96.6171875 C261.906254,97.6432343 263.0677,98.15625 264.640625,98.15625 C266.109382,98.15625 267.281246,97.6718798 268.15625,96.703125 C268.656252,96.1406222 269.010416,95.489587 269.21875,94.75 L271.984375,94.75 C271.911458,95.3645864 271.669273,96.0494754 271.257812,96.8046875 C270.846352,97.5598996 270.385419,98.1770809 269.875,98.65625 C269.020829,99.4895875 267.963548,100.052082 266.703125,100.34375 C266.026038,100.510418 265.260421,100.59375 264.40625,100.59375 C262.322906,100.59375 260.557299,99.8359451 259.109375,98.3203125 C257.661451,96.8046799 256.9375,94.6823053 256.9375,91.953125 C256.9375,89.2656116 257.666659,87.0833417 259.125,85.40625 C260.583341,83.7291583 262.489572,82.890625 264.84375,82.890625 C266.031256,82.890625 267.182286,83.169268 268.296875,83.7265625 Z M269.328125,90.296875 C269.213541,89.0781189 268.947919,88.1041703 268.53125,87.375 C267.760413,86.0208266 266.473967,85.34375 264.671875,85.34375 C263.380202,85.34375 262.296879,85.8098912 261.421875,86.7421875 C260.546871,87.6744838 260.083334,88.8593678 260.03125,90.296875 L269.328125,90.296875 Z M275.671875,83.265625 L278.34375,83.265625 L278.34375,85.640625 C279.135421,84.6614534 279.973954,83.9583355 280.859375,83.53125 C281.744796,83.1041645 282.729161,82.890625 283.8125,82.890625 C286.187512,82.890625 287.791663,83.7187417 288.625,85.375 C289.083336,86.2812545 289.3125,87.5781166 289.3125,89.265625 L289.3125,100 L286.453125,100 L286.453125,89.453125 C286.453125,88.4322866 286.302085,87.6093781 286,86.984375 C285.499998,85.9427031 284.593757,85.421875 283.28125,85.421875 C282.61458,85.421875 282.06771,85.4895827 281.640625,85.625 C280.869788,85.8541678 280.192711,86.3124966 279.609375,87 C279.140623,87.5520861 278.835938,88.1223929 278.695312,88.7109375 C278.554687,89.2994821 278.484375,90.1406195 278.484375,91.234375 L278.484375,100 L275.671875,100 L275.671875,83.265625 Z M294.03125,78.59375 L296.875,78.59375 L296.875,83.265625 L299.546875,83.265625 L299.546875,85.5625 L296.875,85.5625 L296.875,96.484375 C296.875,97.0677113 297.072915,97.4583323 297.46875,97.65625 C297.687501,97.7708339 298.052081,97.828125 298.5625,97.828125 C298.697917,97.828125 298.843749,97.8255209 299,97.8203125 C299.156251,97.8151041 299.338541,97.8020834 299.546875,97.78125 L299.546875,100 C299.223957,100.09375 298.888023,100.161458 298.539062,100.203125 C298.190102,100.244792 297.812502,100.265625 297.40625,100.265625 C296.093743,100.265625 295.203127,99.9296909 294.734375,99.2578125 C294.265623,98.5859341 294.03125,97.713547 294.03125,96.640625 L294.03125,85.5625 L291.765625,85.5625 L291.765625,83.265625 L294.03125,83.265625 L294.03125,78.59375 Z M312.835938,96.0703125 C313.528649,94.6588471 313.875,93.0885503 313.875,91.359375 C313.875,89.7968672 313.625003,88.5260466 313.125,87.546875 C312.333329,86.0052006 310.96876,85.234375 309.03125,85.234375 C307.312491,85.234375 306.062504,85.8906184 305.28125,87.203125 C304.499996,88.5156316 304.109375,90.0989491 304.109375,91.953125 C304.109375,93.7343839 304.499996,95.2187441 305.28125,96.40625 C306.062504,97.5937559 307.302075,98.1875 309,98.1875 C310.864593,98.1875 312.143226,97.4817779 312.835938,96.0703125 Z M314.578125,84.9375 C316.067716,86.3750072 316.8125,88.4895694 316.8125,91.28125 C316.8125,93.9791802 316.156257,96.2083245 314.84375,97.96875 C313.531243,99.7291755 311.494805,100.609375 308.734375,100.609375 C306.43228,100.609375 304.604173,99.830737 303.25,98.2734375 C301.895827,96.716138 301.21875,94.6250131 301.21875,92 C301.21875,89.1874859 301.932285,86.947925 303.359375,85.28125 C304.786465,83.614575 306.703113,82.78125 309.109375,82.78125 C311.265636,82.78125 313.088534,83.4999928 314.578125,84.9375 Z M339.46875,83.7265625 C340.583339,84.283857 341.432289,85.0052039 342.015625,85.890625 C342.578128,86.7343792 342.953124,87.7187444 343.140625,88.84375 C343.307293,89.6145872 343.390625,90.8437416 343.390625,92.53125 L331.125,92.53125 C331.177084,94.2291752 331.578121,95.5911407 332.328125,96.6171875 C333.078129,97.6432343 334.239575,98.15625 335.8125,98.15625 C337.281257,98.15625 338.453121,97.6718798 339.328125,96.703125 C339.828127,96.1406222 340.182291,95.489587 340.390625,94.75 L343.15625,94.75 C343.083333,95.3645864 342.841148,96.0494754 342.429688,96.8046875 C342.018227,97.5598996 341.557294,98.1770809 341.046875,98.65625 C340.192704,99.4895875 339.135423,100.052082 337.875,100.34375 C337.197913,100.510418 336.432296,100.59375 335.578125,100.59375 C333.494781,100.59375 331.729174,99.8359451 330.28125,98.3203125 C328.833326,96.8046799 328.109375,94.6823053 328.109375,91.953125 C328.109375,89.2656116 328.838534,87.0833417 330.296875,85.40625 C331.755216,83.7291583 333.661447,82.890625 336.015625,82.890625 C337.203131,82.890625 338.354161,83.169268 339.46875,83.7265625 Z M340.5,90.296875 C340.385416,89.0781189 340.119794,88.1041703 339.703125,87.375 C338.932288,86.0208266 337.645842,85.34375 335.84375,85.34375 C334.552077,85.34375 333.468754,85.8098912 332.59375,86.7421875 C331.718746,87.6744838 331.255209,88.8593678 331.203125,90.296875 L340.5,90.296875 Z M346.84375,83.265625 L349.515625,83.265625 L349.515625,85.640625 C350.307296,84.6614534 351.145829,83.9583355 352.03125,83.53125 C352.916671,83.1041645 353.901036,82.890625 354.984375,82.890625 C357.359387,82.890625 358.963538,83.7187417 359.796875,85.375 C360.255211,86.2812545 360.484375,87.5781166 360.484375,89.265625 L360.484375,100 L357.625,100 L357.625,89.453125 C357.625,88.4322866 357.47396,87.6093781 357.171875,86.984375 C356.671873,85.9427031 355.765632,85.421875 354.453125,85.421875 C353.786455,85.421875 353.239585,85.4895827 352.8125,85.625 C352.041663,85.8541678 351.364586,86.3124966 350.78125,87 C350.312498,87.5520861 350.007813,88.1223929 349.867188,88.7109375 C349.726562,89.2994821 349.65625,90.1406195 349.65625,91.234375 L349.65625,100 L346.84375,100 L346.84375,83.265625 Z" id="25%-de-descuento-en" fill="#0076E8"></path>
            </g>
        </g>
    </g>
</svg>