<?xml version="1.0" encoding="UTF-8"?>
<svg width="524px" height="163px" viewBox="0 0 524 163" version="1.1" xmlns="http://www.w3.org/2000/svg" xmlns:xlink="http://www.w3.org/1999/xlink">
    <!-- Generator: Sketch 46.2 (44496) - http://www.bohemiancoding.com/sketch -->
    <title>umbrella2Logo</title>
    <desc>Created with Sketch.</desc>
    <defs></defs>
    <g id="Page-1" stroke="none" stroke-width="1" fill="none" fill-rule="evenodd">
        <g id="umbrella2Logo">
            <path d="M523.5107,88.324 C523.5107,93.893 522.4917,98.252 520.4727,101.375 C518.4507,104.504 516.0527,106.771 513.2627,108.156 C510.3357,109.693 507.2357,110.626 503.9687,110.975 C500.6917,111.327 497.8007,111.493 495.2967,111.493 C490.2817,111.493 485.8907,110.134 482.1297,107.43 C478.3667,104.713 476.4897,100.222 476.4897,93.968 C476.4897,88.111 478.1947,83.938 481.6077,81.425 C485.0177,78.921 489.3697,77.25 494.6697,76.415 C495.3637,76.415 496.2017,76.305 497.1787,76.097 C498.1507,75.894 499.2677,75.718 500.5177,75.571 C506.6467,74.741 509.7127,72.934 509.7127,70.144 C509.7127,68.052 508.6377,66.696 506.4717,66.063 C504.3127,65.436 502.3337,65.126 500.5177,65.126 C498.5637,65.126 496.8257,65.404 495.2967,65.962 C493.7567,66.52 492.6447,67.563 491.9477,69.095 L477.9527,69.095 C478.5067,64.784 480.4587,61.225 483.7957,58.438 C487.5607,55.235 492.9247,53.63 499.8927,53.63 C507.6917,53.63 513.5397,54.954 517.4447,57.598 C521.4857,60.388 523.5107,64.293 523.5107,69.309 L523.5107,88.324 Z M491.5327,88.944 C490.5587,90.484 490.0777,92.014 490.0777,93.549 C490.0777,95.636 490.6937,97.305 491.9477,98.564 C493.2087,99.675 495.0137,100.222 497.3857,100.222 C501.2827,100.222 504.3477,99.122 506.5797,96.891 C508.8067,94.664 509.9227,91.604 509.9227,87.7 L509.9227,82.472 C507.9677,83.444 505.2537,84.346 501.7767,85.187 L496.9667,86.229 C494.4627,86.93 492.6447,87.84 491.5327,88.944 L491.5327,88.944 Z M471.8767,45.481 C471.8767,43.534 471.1747,41.895 469.7867,40.572 C468.3887,39.252 466.7167,38.586 464.7697,38.586 L457.2407,38.586 L457.2407,110.451 L471.8767,110.451 L471.8767,45.481 Z M450.4237,45.481 C450.4237,43.534 449.7227,41.895 448.3257,40.572 C446.9347,39.252 445.2657,38.586 443.3147,38.586 L435.7877,38.586 L435.7877,110.451 L450.4237,110.451 L450.4237,45.481 Z M430.5887,84.979 C430.5887,85.676 430.5147,86.165 430.3807,86.444 L394.2257,86.444 C394.3637,90.764 395.4107,93.968 397.3587,96.058 C399.1727,98.284 401.8867,99.397 405.5137,99.397 C407.8797,99.397 409.9027,98.908 411.5697,97.932 C411.9877,97.798 412.3707,97.55 412.7227,97.202 C413.0687,96.855 413.4517,96.472 413.8737,96.058 C414.0077,95.636 414.5327,95.081 415.4367,94.384 C416.3417,93.687 417.6317,93.329 419.3027,93.329 L429.7497,93.329 C428.2187,99.187 425.2887,103.639 420.9727,106.699 C416.6577,109.899 411.2227,111.493 404.6727,111.493 C396.7327,111.493 390.5317,108.924 386.0757,103.78 C381.6157,98.77 379.3887,91.604 379.3887,82.265 C379.3887,73.35 381.5457,66.381 385.8697,61.362 C390.3247,56.209 396.5267,53.63 404.4637,53.63 C412.8217,53.63 419.3027,56.138 423.9017,61.157 C428.3537,66.314 430.5887,73.481 430.5887,82.681 L430.5887,84.141 L430.5887,84.979 Z M397.3587,68.676 C395.4107,70.627 394.3637,73.417 394.2257,77.035 L415.5427,77.035 C415.2637,73.278 414.2897,70.489 412.6137,68.676 C410.8007,66.725 408.2267,65.753 404.8867,65.753 C401.8177,65.753 399.3127,66.725 397.3587,68.676 L397.3587,68.676 Z M377.8097,54.893 L375.7207,54.893 C371.9627,54.893 368.3037,55.374 364.7477,56.353 C361.1997,57.33 358.0927,58.852 355.4537,60.943 C352.6627,63.179 350.4667,66.137 348.8667,69.83 C347.2627,73.518 346.4617,78.083 346.4617,83.518 L346.4617,110.451 L361.0897,110.451 L361.0897,81.842 C361.0897,77.667 362.0647,74.598 364.0177,72.651 C365.9677,70.7 368.9647,69.725 373.0077,69.725 L377.8097,69.725 L377.8097,54.893 Z M335.5927,61.783 C339.7717,67.214 341.8587,74.253 341.8587,82.884 C341.8587,91.524 339.7717,98.564 335.5927,103.991 C333.5047,106.629 330.6817,108.54 327.1267,109.718 C323.5757,110.902 320.0537,111.493 316.5727,111.493 C309.8867,111.493 303.6837,109.761 297.9777,106.28 C292.2607,102.807 289.4097,96.13 289.4097,86.229 L289.4097,38.377 L296.5097,38.377 C298.4647,38.377 300.1297,39.074 301.5327,40.465 C302.9217,41.861 303.6157,43.534 303.6157,45.481 L303.6157,62.2 C305.1517,59.559 307.3797,57.395 310.3027,55.719 C312.8137,54.33 315.8787,53.63 319.4987,53.63 C326.0457,53.63 331.4107,56.353 335.5927,61.783 L335.5927,61.783 Z M306.7537,70.348 C304.6657,73.278 303.6157,77.25 303.6157,82.265 C303.6157,88.111 304.5927,92.366 306.5457,95.006 C308.6317,97.932 311.5557,99.397 315.3217,99.397 C319.2197,99.397 322.2137,97.932 324.3027,95.006 C326.3947,92.08 327.4417,87.84 327.4417,82.265 C327.4417,77.25 326.3947,73.35 324.3027,70.556 C322.2137,67.637 319.3587,66.172 315.7437,66.172 C311.8367,66.172 308.8417,67.563 306.7537,70.348 L306.7537,70.348 Z M283.0917,77.88 C283.0917,68.123 280.5147,61.648 275.3607,58.438 C270.2117,55.235 264.5647,53.63 258.4347,53.63 C255.3667,53.769 252.4087,54.228 249.5567,54.992 C246.6977,55.759 244.2257,57.05 242.1327,58.852 C239.6297,56.765 236.8397,55.374 233.7747,54.677 C230.7147,53.978 227.5807,53.63 224.3717,53.63 C218.3817,53.914 212.9107,55.655 207.9697,58.852 C203.0197,62.059 200.5507,68.404 200.5507,77.88 L200.5507,110.451 L215.1777,110.451 L215.1777,74.947 C215.1777,71.605 216.1527,69.168 218.1077,67.637 C220.0577,66.098 222.2887,65.331 224.7887,65.331 C227.2997,65.331 229.5627,66.098 231.5807,67.637 C233.5987,69.168 234.6157,71.605 234.6157,74.947 L234.6157,77.88 L234.6157,110.451 L249.0317,110.451 L249.0317,77.88 L249.0317,74.947 C249.0317,71.605 250.0417,69.168 252.0607,67.637 C254.0837,66.098 256.3447,65.331 258.8537,65.331 C261.3607,65.331 263.6287,66.098 265.6427,67.637 C267.6647,69.168 268.6757,71.605 268.6757,74.947 L268.6757,103.364 C268.6757,105.443 269.3317,107.153 270.6587,108.468 C271.9817,109.792 273.6917,110.451 275.7797,110.451 L283.0917,110.451 L283.0917,77.88 Z M194.4287,84.979 C194.4287,93.893 191.9207,100.647 186.9117,105.235 C182.3107,109.825 175.2077,112.115 165.5967,112.115 C155.9837,112.115 148.8747,109.825 144.2817,105.235 C139.2627,100.647 136.7587,93.893 136.7587,84.979 L136.7587,46.319 C136.7587,44.231 137.4847,42.384 138.9507,40.779 C140.4137,39.181 142.1887,38.377 144.2817,38.377 L151.7967,38.377 L151.7967,83.308 C151.7967,88.881 152.8447,92.993 154.9357,95.636 C157.1637,98.146 160.7157,99.397 165.5967,99.397 C170.3277,99.397 173.8817,98.146 176.2537,95.636 C178.4777,93.126 179.5957,89.021 179.5957,83.308 L179.5957,38.377 L194.4287,38.377 L194.4287,84.979 Z" id="Fill-37" fill="#FEFEFE"></path>
            <g id="Group-3">
                <path d="M144.3453,18.5227 C121.7193,-0.3313 88.3403,-4.7363 58.7203,7.0007 L57.4163,4.7097 C53.5953,6.2767 49.8853,8.0857 46.3843,10.0877 C38.9373,14.3127 32.1493,19.4817 26.1933,25.4387 C6.7343,44.8967 -2.5457,71.5457 1.3713,96.7337 L2.1113,101.5207 L6.7243,100.0277 C15.4003,97.2307 24.3483,95.1457 33.3493,93.7487 C34.1353,96.4637 35.0123,99.1617 36.0853,101.8267 L38.0263,106.6757 L42.3003,103.6677 C55.0943,94.6607 68.1563,87.8357 81.1243,83.3757 L81.8283,83.1347 L84.5503,80.9307 C85.4723,81.7977 86.3673,82.6877 87.3053,83.5197 L92.4473,88.0647 L94.0663,81.3987 C96.9983,69.3327 102.4923,57.4157 110.0053,46.6687 C110.3473,47.0737 110.7133,47.4657 111.0483,47.8787 L114.1213,51.5777 L117.3183,47.9857 C119.8443,45.1507 122.4673,42.4337 125.2283,39.8297 C131.0093,34.3727 137.3083,29.4407 143.9373,25.1767 L148.6693,22.1267 L144.3453,18.5227 Z" id="Fill-39" fill="#FEFEFE"></path>
                <path d="M108.995,40.9802 C91.624,24.9262 71.964,16.0042 57.066,16.2892 C54.582,32.4142 65.007,55.9112 84.928,75.6222 C86.609,77.2922 88.32,78.8882 90.051,80.4232 C93.353,66.8312 99.7,53.3082 108.995,40.9802" id="Fill-41" fill="#019D4A"></path>
                <path d="M79.7811,79.4685 C80.0271,79.2665 80.2671,79.0615 80.5151,78.8645 C79.2131,77.6375 77.9351,76.3855 76.6951,75.0655 C61.8011,59.2975 54.1141,39.4975 53.6401,20.0735 C33.3831,41.3145 28.8571,72.7205 39.9141,100.2885 C53.1791,90.9575 66.7591,83.9475 79.7811,79.4685" id="Fill-43" fill="#1268B2"></path>
                <path d="M58.2364,11.612 C74.1024,14.599 90.0134,22.179 103.6924,34.348 C107.5444,37.773 111.0594,41.423 114.2244,45.239 C116.7974,42.35 119.5174,39.536 122.3904,36.828 C128.4944,31.064 134.9754,26.022 141.7014,21.694 C119.9384,3.556 87.5154,-0.816 58.2364,11.612" id="Fill-45" fill="#FEC10E"></path>
                <path d="M48.4238,13.6745 C16.9518,31.5765 0.6388,65.0975 5.4548,96.0975 C15.2598,92.9335 25.2148,90.6635 35.2178,89.2535 C35.0138,88.5875 34.8178,87.9185 34.6248,87.2455 C25.8748,55.5865 36.3598,25.6445 58.9828,8.5345 C55.4118,9.9985 51.8838,11.7085 48.4238,13.6745" id="Fill-47" fill="#DD2027"></path>
            </g>
            <g id="Group-2" transform="translate(349.000000, 125.000000)" fill="#FEFEFE">
                <path d="M0.082,28.3342 L0.082,3.2312 C0.082,2.4172 0.367,1.7242 0.937,1.1532 C1.508,0.5832 2.201,0.2982 3.016,0.2982 L5.868,0.2982 L5.868,28.3342 L0.082,28.3342 Z" id="Fill-49"></path>
                <path d="M27.5664,28.3342 L24.7134,28.3342 C23.8984,28.3342 23.2324,28.0762 22.7164,27.5602 C22.2004,27.0442 21.9424,26.3782 21.9424,25.5632 L21.9424,14.4792 C21.9424,13.1752 21.5474,12.2252 20.7604,11.6262 C19.9724,11.0292 19.0894,10.7302 18.1124,10.7302 C17.1334,10.7302 16.2644,11.0292 15.5034,11.6262 C14.7434,12.2252 14.3634,13.1752 14.3634,14.4792 L14.3634,28.3342 L8.6584,28.3342 L8.6584,15.6202 C8.6584,11.9262 9.6224,9.4542 11.5514,8.2032 C13.4794,6.9542 15.6124,6.2752 17.9494,6.1662 C20.3394,6.1662 22.5404,6.7912 24.5504,8.0402 C26.5604,9.2912 27.5664,11.8172 27.5664,15.6202 L27.5664,28.3342 Z" id="Fill-51"></path>
                <path d="M40.667,28.3342 C38.874,28.4422 36.931,28.4152 34.84,28.2522 C32.747,28.0892 31.702,26.7592 31.702,24.2592 L31.702,0.2982 L34.636,0.2982 C35.341,0.2982 35.967,0.5702 36.511,1.1122 C37.053,1.6562 37.325,2.3092 37.325,3.0682 L37.325,6.7362 L40.667,6.7362 L40.667,7.8772 C40.667,8.6922 40.395,9.3582 39.852,9.8742 C39.308,10.3912 38.656,10.6482 37.896,10.6482 L37.325,10.6482 L37.325,22.7102 C37.325,23.6352 37.868,24.0962 38.955,24.0962 L40.667,24.0962 L40.667,28.3342 Z" id="Fill-53"></path>
                <path d="M48.999,15.2941 L57.312,15.2941 C57.202,13.8271 56.822,12.7401 56.171,12.0341 C55.464,11.2731 54.459,10.8931 53.155,10.8931 C51.959,10.8931 50.981,11.2731 50.221,12.0341 C49.46,12.7951 49.052,13.8821 48.999,15.2941 M58.778,21.6501 L62.853,21.6501 C62.255,23.9331 61.114,25.6721 59.431,26.8671 C57.746,28.1171 55.627,28.7411 53.073,28.7411 C49.977,28.7411 47.559,27.7361 45.82,25.7261 C44.081,23.7701 43.212,20.9721 43.212,17.3311 C43.212,13.8551 44.054,11.1381 45.738,9.1821 C47.477,7.1721 49.895,6.1661 52.992,6.1661 C56.252,6.1661 58.778,7.1441 60.571,9.1001 C62.31,11.1101 63.18,13.9081 63.18,17.4941 L63.18,18.0651 L63.18,18.3911 C63.18,18.6631 63.151,18.8531 63.099,18.9611 L48.999,18.9611 C49.052,20.6461 49.46,21.8961 50.221,22.7101 C50.927,23.5801 51.986,24.0151 53.399,24.0151 C54.323,24.0151 55.111,23.8241 55.764,23.4431 C55.926,23.3911 56.075,23.2951 56.212,23.1581 L56.66,22.7101 C56.713,22.5471 56.917,22.3311 57.27,22.0591 C57.624,21.7871 58.127,21.6501 58.778,21.6501" id="Fill-55"></path>
                <path d="M66.8662,0.298 L69.8012,0.298 C70.5602,0.298 71.2132,0.557 71.7572,1.072 C72.2992,1.589 72.5712,2.227 72.5712,2.987 L72.5712,28.334 L66.8662,28.334 L66.8662,0.298 Z" id="Fill-57"></path>
                <path d="M76.3389,0.298 L79.2739,0.298 C80.0329,0.298 80.6859,0.557 81.2299,1.072 C81.7719,1.589 82.0439,2.227 82.0439,2.987 L82.0439,28.334 L76.3389,28.334 L76.3389,0.298 Z" id="Fill-59"></path>
                <path d="M86.0566,6.6545 L88.9906,6.6545 C89.7506,6.6545 90.4026,6.9265 90.9466,7.4695 C91.4896,8.0135 91.7616,8.6655 91.7616,9.4255 L91.7616,28.3345 L86.0566,28.3345 L86.0566,6.6545 Z M86.0566,0.2985 L88.9906,0.2985 C89.7506,0.2985 90.4026,0.5705 90.9466,1.1125 C91.4896,1.6565 91.7616,2.3085 91.7616,3.0685 L91.7616,4.7805 L86.0566,4.7805 L86.0566,0.2985 Z" id="Fill-61"></path>
                <path d="M99.6045,17.6574 C99.6045,21.4064 100.6915,23.4844 102.8655,23.8914 C105.0375,24.3004 106.6405,23.7984 107.6725,22.3844 C108.1625,21.7874 108.5145,20.8494 108.7325,19.5724 C108.9495,18.2974 108.9625,17.0334 108.7735,15.7834 C108.5825,14.5334 108.1335,13.4194 107.4285,12.4414 C106.7215,11.4634 105.6895,10.9744 104.3325,10.9744 C102.4845,10.9744 101.2345,11.6544 100.5835,13.0114 C99.9305,14.3704 99.6045,15.9194 99.6045,17.6574 M108.8955,27.0294 L108.8955,25.6444 C107.9175,27.1664 106.5995,28.1174 104.9435,28.4974 C103.2855,28.8764 101.6425,28.7414 100.0125,28.0894 C98.3815,27.4374 96.9825,26.2284 95.8155,24.4634 C94.6455,22.6974 94.0625,20.3754 94.0625,17.4944 C94.0625,14.1264 94.8365,11.3954 96.3855,9.3034 C97.9335,7.2134 100.4195,6.1664 103.8425,6.1664 C106.4515,6.1664 108.8685,6.8724 111.0965,8.2854 C113.3235,9.6984 114.4375,12.3064 114.4375,16.1084 L114.4375,27.6004 C114.4375,31.4024 113.3235,33.9984 111.0965,35.3844 C108.8685,36.7684 106.4515,37.4624 103.8425,37.4624 C98.8425,37.4624 95.7465,35.1254 94.5515,30.4534 L100.5005,30.4534 C100.9355,31.2134 101.6015,31.7984 102.4985,32.2054 C103.3945,32.6124 104.2915,32.7204 105.1875,32.5314 C106.0835,32.3404 106.8995,31.8104 107.6325,30.9414 C108.3665,30.0724 108.7865,28.7674 108.8955,27.0294" id="Fill-63"></path>
                <path d="M123.3008,15.2941 L131.6138,15.2941 C131.5038,13.8271 131.1238,12.7401 130.4728,12.0341 C129.7658,11.2731 128.7608,10.8931 127.4568,10.8931 C126.2608,10.8931 125.2828,11.2731 124.5228,12.0341 C123.7618,12.7951 123.3538,13.8821 123.3008,15.2941 M133.0798,21.6501 L137.1548,21.6501 C136.5568,23.9331 135.4158,25.6721 133.7328,26.8671 C132.0478,28.1171 129.9288,28.7411 127.3748,28.7411 C124.2788,28.7411 121.8608,27.7361 120.1218,25.7261 C118.3828,23.7701 117.5138,20.9721 117.5138,17.3311 C117.5138,13.8551 118.3558,11.1381 120.0398,9.1821 C121.7788,7.1721 124.1968,6.1661 127.2938,6.1661 C130.5538,6.1661 133.0798,7.1441 134.8728,9.1001 C136.6118,11.1101 137.4818,13.9081 137.4818,17.4941 L137.4818,18.0651 L137.4818,18.3911 C137.4818,18.6631 137.4528,18.8531 137.4008,18.9611 L123.3008,18.9611 C123.3538,20.6461 123.7618,21.8961 124.5228,22.7101 C125.2288,23.5801 126.2878,24.0151 127.7008,24.0151 C128.6248,24.0151 129.4128,23.8241 130.0658,23.4431 C130.2278,23.3911 130.3768,23.2951 130.5138,23.1581 L130.9618,22.7101 C131.0148,22.5471 131.2188,22.3311 131.5718,22.0591 C131.9258,21.7871 132.4288,21.6501 133.0798,21.6501" id="Fill-65"></path>
                <path d="M159.832,28.3342 L156.979,28.3342 C156.164,28.3342 155.498,28.0762 154.982,27.5602 C154.466,27.0442 154.208,26.3782 154.208,25.5632 L154.208,14.4792 C154.208,13.1752 153.813,12.2252 153.026,11.6262 C152.238,11.0292 151.355,10.7302 150.378,10.7302 C149.399,10.7302 148.53,11.0292 147.769,11.6262 C147.009,12.2252 146.629,13.1752 146.629,14.4792 L146.629,28.3342 L140.924,28.3342 L140.924,15.6202 C140.924,11.9262 141.888,9.4542 143.817,8.2032 C145.745,6.9542 147.878,6.2752 150.215,6.1662 C152.605,6.1662 154.806,6.7912 156.816,8.0402 C158.826,9.2912 159.832,11.8172 159.832,15.6202 L159.832,28.3342 Z" id="Fill-67"></path>
                <path d="M172.9326,28.3342 C171.1396,28.4422 169.1966,28.4152 167.1056,28.2522 C165.0126,28.0892 163.9676,26.7592 163.9676,24.2592 L163.9676,0.2982 L166.9016,0.2982 C167.6066,0.2982 168.2326,0.5702 168.7766,1.1122 C169.3186,1.6562 169.5906,2.3092 169.5906,3.0682 L169.5906,6.7362 L172.9326,6.7362 L172.9326,7.8772 C172.9326,8.6922 172.6606,9.3582 172.1176,9.8742 C171.5736,10.3912 170.9216,10.6482 170.1616,10.6482 L169.5906,10.6482 L169.5906,22.7102 C169.5906,23.6352 170.1336,24.0962 171.2206,24.0962 L172.9326,24.0962 L172.9326,28.3342 Z" id="Fill-69"></path>
            </g>
        </g>
    </g>
</svg>